<svg width="188" height="169" viewBox="0 0 188 169" fill="none" xmlns="http://www.w3.org/2000/svg">
<path d="M42.1353 34.6C20.0017 46.216 -5.81654 39.9695 1.16207 75.4036C6.26582 101.349 26.5289 106.553 48.9751 108.064C72.5279 109.653 86.2985 106.241 103.966 92.4847C125.818 75.4774 148.147 87.2063 170.58 74.6874C188.621 64.6167 194.532 34.4697 179.26 18.4131C155.972 -5.99967 145.252 25.6188 125.805 30.3069C106.601 34.9342 102.964 9.88337 79.1549 2.0699C47.851 -8.23519 64.8332 22.6757 42.1353 34.6Z" fill="#7AA31A" fill-opacity="0.24"/>
<path opacity="0.9" d="M42.1353 34.6C20.0017 46.216 -5.81654 39.9695 1.16207 75.4036C6.26582 101.349 26.5289 106.553 48.9751 108.064C72.5279 109.653 86.2985 106.241 103.966 92.4847C125.818 75.4774 148.147 87.2063 170.58 74.6874C188.621 64.6167 194.532 34.4697 179.26 18.4131C155.972 -5.99967 145.252 25.6188 125.805 30.3069C106.601 34.9342 102.964 9.88337 79.1549 2.0699C47.851 -8.23519 64.8332 22.6757 42.1353 34.6Z" fill="#7AA31A" fill-opacity="0.5"/>
<path d="M98.6781 169C145.151 169 182.825 166.8 182.825 164.086C182.825 161.372 145.151 159.172 98.6781 159.172C52.2051 159.172 14.5312 161.372 14.5312 164.086C14.5312 166.8 52.2051 169 98.6781 169Z" fill="#F5F5F5"/>
<path d="M176.539 25.4193H20.8352C19.7297 25.4227 18.6704 25.8631 17.8883 26.6446C17.1062 27.426 16.6647 28.4851 16.6602 29.5908V133.536C16.6636 134.642 17.1047 135.702 17.887 136.483C18.6694 137.265 19.7293 137.705 20.8352 137.707H176.539C177.644 137.704 178.703 137.263 179.484 136.482C180.266 135.7 180.706 134.641 180.71 133.536V29.5908C180.705 28.4858 180.264 27.4274 179.483 26.6461C178.702 25.8648 177.644 25.4238 176.539 25.4193Z" fill="#E1197E"/>
<path opacity="0.3" d="M176.539 25.4196H20.8352C19.7297 25.423 18.6704 25.8634 17.8883 26.6449C17.1062 27.4263 16.6647 28.4854 16.6602 29.5911V133.536C16.6636 134.642 17.1047 135.702 17.887 136.484C18.6694 137.265 19.7293 137.705 20.8352 137.708H176.539C177.644 137.704 178.703 137.264 179.484 136.482C180.266 135.701 180.706 134.641 180.71 133.536V29.5911C180.705 28.4861 180.264 27.4277 179.483 26.6464C178.702 25.8651 177.644 25.4241 176.539 25.4196Z" fill="white"/>
<path d="M47.6626 32.3812H25.6244C25.2216 32.3812 24.8352 32.2211 24.5504 31.9363C24.2655 31.6514 24.1055 31.265 24.1055 30.8622C24.1055 30.4593 24.2655 30.073 24.5504 29.7881C24.8352 29.5032 25.2216 29.3432 25.6244 29.3432H47.6626C48.0655 29.3432 48.4518 29.5032 48.7367 29.7881C49.0215 30.073 49.1816 30.4593 49.1816 30.8622C49.1816 31.265 49.0215 31.6514 48.7367 31.9363C48.4518 32.2211 48.0655 32.3812 47.6626 32.3812ZM25.6244 29.7772C25.3367 29.7772 25.0607 29.8915 24.8572 30.095C24.6538 30.2985 24.5395 30.5744 24.5395 30.8622C24.5395 31.1499 24.6538 31.4259 24.8572 31.6294C25.0607 31.8329 25.3367 31.9472 25.6244 31.9472H47.6626C47.9504 31.9472 48.2263 31.8329 48.4298 31.6294C48.6333 31.4259 48.7476 31.1499 48.7476 30.8622C48.7476 30.5744 48.6333 30.2985 48.4298 30.095C48.2263 29.8915 47.9504 29.7772 47.6626 29.7772H25.6244Z" fill="#FAFAFA"/>
<path d="M54.8183 32.3812H53.3471C52.9442 32.3812 52.5579 32.2211 52.273 31.9363C51.9882 31.6514 51.8281 31.265 51.8281 30.8622C51.8281 30.4593 51.9882 30.073 52.273 29.7881C52.5579 29.5032 52.9442 29.3432 53.3471 29.3432H54.8183C55.2212 29.3432 55.6075 29.5032 55.8924 29.7881C56.1773 30.073 56.3373 30.4593 56.3373 30.8622C56.3373 31.265 56.1773 31.6514 55.8924 31.9363C55.6075 32.2211 55.2212 32.3812 54.8183 32.3812ZM53.3471 29.7772C53.0593 29.7772 52.7834 29.8915 52.5799 30.095C52.3764 30.2985 52.2621 30.5744 52.2621 30.8622C52.2621 31.1499 52.3764 31.4259 52.5799 31.6294C52.7834 31.8329 53.0593 31.9472 53.3471 31.9472H54.8183C55.1061 31.9472 55.3821 31.8329 55.5855 31.6294C55.789 31.4259 55.9033 31.1499 55.9033 30.8622C55.9033 30.5744 55.789 30.2985 55.5855 30.095C55.3821 29.8915 55.1061 29.7772 54.8183 29.7772H53.3471Z" fill="#FAFAFA"/>
<path d="M60.9668 32.3812H59.4955C59.0927 32.3812 58.7063 32.2211 58.4215 31.9363C58.1366 31.6514 57.9766 31.265 57.9766 30.8622C57.9766 30.4593 58.1366 30.073 58.4215 29.7881C58.7063 29.5032 59.0927 29.3432 59.4955 29.3432H60.9668C61.3696 29.3432 61.756 29.5032 62.0409 29.7881C62.3257 30.073 62.4857 30.4593 62.4857 30.8622C62.4857 31.265 62.3257 31.6514 62.0409 31.9363C61.756 32.2211 61.3696 32.3812 60.9668 32.3812ZM59.4955 29.7772C59.2078 29.7772 58.9318 29.8915 58.7283 30.095C58.5249 30.2985 58.4106 30.5744 58.4106 30.8622C58.4106 31.1499 58.5249 31.4259 58.7283 31.6294C58.9318 31.8329 59.2078 31.9472 59.4955 31.9472H60.9668C61.2545 31.9472 61.5305 31.8329 61.734 31.6294C61.9374 31.4259 62.0518 31.1499 62.0518 30.8622C62.0518 30.5744 61.9374 30.2985 61.734 30.095C61.5305 29.8915 61.2545 29.7772 60.9668 29.7772H59.4955Z" fill="#FAFAFA"/>
<path d="M16.6602 36.2098V133.535C16.6636 134.641 17.1047 135.701 17.887 136.483C18.6694 137.264 19.7293 137.704 20.8352 137.707H176.539C177.644 137.703 178.703 137.263 179.484 136.481C180.266 135.7 180.706 134.641 180.71 133.535V36.2098H16.6602Z" fill="#E1197E"/>
<path opacity="0.6" d="M16.6602 36.2098V133.535C16.6636 134.641 17.1047 135.701 17.887 136.483C18.6694 137.264 19.7293 137.704 20.8352 137.707H176.539C177.644 137.703 178.703 137.263 179.484 136.481C180.266 135.7 180.706 134.641 180.71 133.535V36.2098H16.6602Z" fill="white"/>
<path d="M17.4297 36.2098V129.789C17.4291 130.1 17.4899 130.408 17.6085 130.696C17.7271 130.983 17.9012 131.245 18.1209 131.465C18.3406 131.685 18.6016 131.86 18.8888 131.979C19.1761 132.098 19.484 132.159 19.795 132.159H177.569C177.88 132.159 178.188 132.098 178.475 131.979C178.762 131.86 179.023 131.685 179.243 131.465C179.462 131.245 179.637 130.983 179.755 130.696C179.874 130.408 179.935 130.1 179.934 129.789V36.2098H17.4297Z" fill="#FAFAFA"/>
<path d="M24.9023 41.7188V59.0821H136.438V41.7188H24.9023Z" fill="#A6DD27"/>
<path opacity="0.9" d="M24.9023 41.7188V59.0821H136.438V41.7188H24.9023Z" fill="#A6DD27"/>
<path d="M136.004 64.1173V110.217H25.3363V64.1173H136.004ZM136.438 63.6832H24.9023V110.651H136.438V63.6832Z" fill="#E1197E"/>
<path opacity="0.9" d="M136.004 64.1173V110.217H25.3363V64.1173H136.004ZM136.438 63.6832H24.9023V110.651H136.438V63.6832Z" fill="white"/>
<path d="M148.949 160.049H145.677L144.805 152.466H148.081L148.949 160.049Z" fill="#FF8B7B"/>
<path d="M168.805 160.049H165.532L162.98 152.466H166.253L168.805 160.049Z" fill="#FF8B7B"/>
<path d="M165.084 159.667H169.076C169.142 159.667 169.204 159.69 169.255 159.731C169.305 159.772 169.34 159.829 169.354 159.892L170.001 162.8C170.017 162.871 170.016 162.945 169.999 163.015C169.983 163.086 169.95 163.152 169.904 163.208C169.858 163.265 169.8 163.31 169.734 163.341C169.668 163.372 169.596 163.387 169.523 163.386C168.222 163.364 167.301 163.286 165.683 163.286C164.689 163.286 162.645 163.39 161.265 163.39C159.885 163.39 159.711 162.032 160.271 161.91C162.797 161.355 163.743 160.608 164.554 159.87C164.699 159.739 164.888 159.667 165.084 159.667Z" fill="#263238"/>
<path d="M145.702 159.667H149.278C149.343 159.667 149.407 159.689 149.458 159.73C149.509 159.771 149.545 159.828 149.56 159.892L150.207 162.8C150.222 162.871 150.222 162.944 150.205 163.014C150.189 163.085 150.156 163.15 150.111 163.207C150.066 163.263 150.008 163.308 149.943 163.339C149.877 163.37 149.806 163.386 149.734 163.386C148.432 163.364 146.578 163.286 144.96 163.286C143.063 163.286 141.427 163.39 139.205 163.39C137.859 163.39 137.469 162.032 138.05 161.91C140.611 161.346 142.703 161.29 144.916 159.923C145.149 159.766 145.421 159.677 145.702 159.667Z" fill="#263238"/>
<path d="M150.821 78.7933C150.496 81.3283 150.14 83.8764 149.762 86.4114L148.629 94.1207C148.454 95.0581 148.078 95.9466 147.527 96.7252C147.029 97.4253 146.426 98.0446 145.739 98.5614C144.529 99.4439 143.183 100.124 141.755 100.576C140.443 101.006 139.098 101.322 137.732 101.522C137.059 101.626 136.391 101.695 135.718 101.752C135.045 101.808 134.394 101.843 133.678 101.843L133.457 99.3948C134.624 99.1257 135.861 98.8132 137.02 98.4268C138.168 98.0696 139.29 97.6345 140.379 97.1246C141.371 96.6759 142.29 96.0835 143.109 95.3665C143.429 95.0758 143.703 94.7377 143.921 94.3638C144.085 94.0709 144.187 93.7473 144.22 93.4132L144.346 91.5857C144.389 90.9346 144.45 90.2835 144.506 89.641C144.619 88.3474 144.748 87.0568 144.893 85.769C145.175 83.1949 145.509 80.6381 145.908 78.0727L150.821 78.7933Z" fill="#FF8B7B"/>
<path d="M151.908 77.1656C153.011 80.0956 150.367 89.9189 150.367 89.9189L143.094 86.2813C143.094 86.2813 143.437 81.3848 145.099 77.5996C146.761 73.8145 150.697 73.936 151.908 77.1656Z" fill="#E1197E"/>
<path opacity="0.3" d="M151.912 77.1646C153.014 80.0946 150.371 89.9179 150.371 89.9179L143.098 86.2803C143.098 86.2803 143.441 81.3839 145.103 77.5987C146.765 73.8135 150.701 73.935 151.912 77.1646Z" fill="black"/>
<path d="M135.205 99.0936L131.633 99.3323L133.304 103.164C133.974 103.146 134.621 102.913 135.15 102.5C135.679 102.086 136.061 101.515 136.242 100.869L135.205 99.0936Z" fill="#FF8B7B"/>
<path d="M128.406 100.841L130.39 103.523L133.297 103.167L131.631 99.3349L128.406 100.841Z" fill="#FF8B7B"/>
<path d="M144.805 152.466L145.308 156.866L148.563 156.671L148.077 152.466H144.805Z" fill="#EA7063"/>
<path d="M166.257 152.466H162.98L164.69 157.545L167.737 156.863L166.257 152.466Z" fill="#EA7063"/>
<path d="M148.018 74.9076C148.018 74.9076 144.156 84.796 147.823 103.214H165.335C165.456 100.523 163.768 87.4091 166.359 74.7383C164.424 74.3647 162.467 74.1182 160.5 74.0003C158.02 73.8548 155.533 73.8548 153.053 74.0003C151.353 74.1707 149.67 74.4741 148.018 74.9076Z" fill="#E1197E"/>
<path opacity="0.3" d="M148.022 74.9086C148.022 74.9086 144.16 84.7969 147.827 103.215H165.338C165.46 100.524 163.772 87.4101 166.363 74.7393C164.428 74.3657 162.471 74.1192 160.504 74.0013C158.023 73.8558 155.537 73.8558 153.056 74.0013C151.357 74.1717 149.674 74.475 148.022 74.9086Z" fill="black"/>
<path d="M154.416 84.1617C154.181 86.3581 152.975 88.0337 151.716 87.8991C150.458 87.7645 149.629 85.8763 149.859 83.6755C150.089 81.4747 151.304 79.8035 152.558 79.9337C153.812 80.064 154.667 81.9609 154.416 84.1617Z" fill="#E1197E"/>
<path opacity="0.1" d="M154.419 84.1617C154.185 86.3581 152.979 88.0337 151.72 87.8991C150.461 87.7645 149.633 85.8763 149.863 83.6755C150.093 81.4747 151.308 79.8035 152.562 79.9337C153.816 80.064 154.671 81.9609 154.419 84.1617Z" fill="white"/>
<path d="M162.791 80.794C163.364 77.903 164.475 78.4022 165.534 79.826C165.081 83.6592 164.873 87.5172 164.909 91.3769C164.189 90.1528 161.836 85.6383 162.791 80.794Z" fill="#E1197E"/>
<path opacity="0.4" d="M162.791 80.794C163.364 77.903 164.475 78.4022 165.534 79.826C165.081 83.6592 164.873 87.5172 164.909 91.3769C164.189 90.1528 161.836 85.6383 162.791 80.794Z" fill="black"/>
<path d="M159.762 65.6151C159.293 68.0112 158.824 72.3998 160.499 74.0016C160.499 74.0016 159.844 76.4281 155.391 76.4281C150.5 76.4281 153.052 74.0016 153.052 74.0016C155.726 73.3635 155.656 71.3971 155.192 69.5175L159.762 65.6151Z" fill="#FF8B7B"/>
<path d="M157.899 67.2082L155.195 69.5171C155.31 69.9434 155.387 70.3791 155.425 70.819C156.445 70.6715 157.847 69.5518 157.956 68.4841C158.017 68.059 157.998 67.6262 157.899 67.2082Z" fill="#EA7063"/>
<path d="M152.931 56.6473C151.13 58.0493 151.143 63.6447 153.873 63.7619C156.602 63.8791 156.355 53.9994 152.931 56.6473Z" fill="#263238"/>
<path d="M160.456 62.7849C159.506 65.8929 159.107 67.7594 157.123 68.9966C154.146 70.8588 150.613 68.48 150.613 65.1506C150.613 62.1511 152.171 57.5759 155.561 57.0593C156.306 56.9447 157.069 57.0223 157.776 57.2848C158.483 57.5473 159.111 57.986 159.602 58.5593C160.092 59.1327 160.428 59.8217 160.577 60.5612C160.727 61.3006 160.685 62.066 160.456 62.7849Z" fill="#FF8B7B"/>
<path d="M159.499 65.8227C157.672 66.1092 156.674 56.707 161.031 58.7862C167.224 61.751 162.459 65.3626 159.499 65.8227Z" fill="#263238"/>
<path d="M159.668 59.6498C157.415 59.4545 154.156 59.55 153.449 56.7675C152.464 52.8869 157.103 52.3139 158.249 55.283C161.009 54.3758 168.613 59.1159 163.548 61.5207L159.668 59.6498Z" fill="#263238"/>
<path d="M161.043 66.6039C160.456 67.1707 159.668 67.4826 158.852 67.4719C157.771 67.4502 157.55 66.4086 158.097 65.5493C158.604 64.7725 159.776 63.8524 160.735 64.2907C161.694 64.7291 161.751 65.8791 161.043 66.6039Z" fill="#FF8B7B"/>
<path d="M147.825 103.211C147.825 103.211 135.057 120.908 135.418 130.892C135.787 141.28 144.028 155.635 144.028 155.635L149.353 154.415C149.353 154.415 144.054 141.909 144.301 131.708C144.571 120.587 159.339 111.81 159.339 103.232L147.825 103.211Z" fill="#263238"/>
<path d="M154.035 103.211C154.035 103.211 147.525 121.442 149.569 130.823C151.8 141.089 163.023 156.26 163.023 156.26L168.383 154.784C168.383 154.784 161.126 141.731 159.855 131.565C158.47 120.535 165.349 111.415 165.349 103.211H154.035Z" fill="#263238"/>
<path d="M162.21 157.005L169.918 155.573L169.531 153.503L160.891 154.966L162.21 157.005Z" fill="#E1197E"/>
<path opacity="0.4" d="M162.21 157.005L169.918 155.573L169.531 153.503L160.891 154.966L162.21 157.005Z" fill="white"/>
<path d="M142.919 156.08L150.718 155.312L150.509 153.186L141.777 153.936L142.919 156.08Z" fill="#E1197E"/>
<path opacity="0.4" d="M142.923 156.08L150.721 155.312L150.513 153.186L141.781 153.936L142.923 156.08Z" fill="white"/>
<path d="M155.461 62.5184C155.401 62.7744 155.214 62.9524 155.027 62.909C154.841 62.8656 154.771 62.6269 154.836 62.3708C154.901 62.1148 155.084 61.9368 155.249 61.9802C155.414 62.0236 155.535 62.2623 155.461 62.5184Z" fill="#263238"/>
<path d="M152.561 61.8208C152.5 62.0769 152.314 62.2548 152.127 62.2158C151.94 62.1767 151.875 61.9337 151.936 61.6776C151.997 61.4216 152.184 61.2436 152.37 61.2827C152.557 61.3218 152.622 61.5648 152.561 61.8208Z" fill="#263238"/>
<path d="M153.447 62.172C152.958 62.8824 152.374 63.5221 151.711 64.0729C151.856 64.2405 152.036 64.3743 152.239 64.465C152.441 64.5557 152.661 64.6011 152.883 64.5981L153.447 62.172Z" fill="#FF5652"/>
<path d="M154.022 65.5573C153.827 65.5561 153.632 65.5328 153.441 65.4878C153.421 65.4818 153.405 65.4687 153.394 65.451C153.384 65.4333 153.38 65.4124 153.385 65.3924C153.387 65.3824 153.392 65.373 153.398 65.3647C153.404 65.3565 153.412 65.3495 153.421 65.3443C153.429 65.339 153.439 65.3356 153.449 65.3342C153.46 65.3327 153.47 65.3333 153.48 65.3359C153.798 65.42 154.131 65.4276 154.452 65.3582C154.774 65.2888 155.074 65.1444 155.329 64.9367C155.343 64.9226 155.363 64.9148 155.383 64.9148C155.403 64.9148 155.423 64.9226 155.437 64.9367C155.445 64.9436 155.451 64.952 155.455 64.9613C155.459 64.9706 155.461 64.9807 155.461 64.9909C155.461 65.0011 155.459 65.0112 155.455 65.0205C155.451 65.0299 155.445 65.0383 155.437 65.0452C155.042 65.3791 154.54 65.5608 154.022 65.5573Z" fill="#263238"/>
<path d="M156.596 61.7939C156.566 61.7939 156.537 61.7852 156.513 61.769C156.488 61.7528 156.469 61.7298 156.457 61.7028C156.384 61.5224 156.269 61.3619 156.122 61.2344C155.975 61.1069 155.8 61.0161 155.611 60.9693C155.57 60.9624 155.533 60.9396 155.509 60.9058C155.485 60.872 155.476 60.8301 155.483 60.7892C155.49 60.7483 155.512 60.7119 155.546 60.6879C155.58 60.6639 155.622 60.6543 155.663 60.6612C155.902 60.7162 156.125 60.8282 156.313 60.9875C156.5 61.1469 156.646 61.3491 156.739 61.5769C156.748 61.5954 156.752 61.6154 156.753 61.6358C156.754 61.6561 156.751 61.6765 156.743 61.6955C156.736 61.7145 156.725 61.7319 156.711 61.7466C156.697 61.7612 156.68 61.7729 156.661 61.7809C156.641 61.7914 156.618 61.796 156.596 61.7939Z" fill="#263238"/>
<path d="M151.564 60.5228C151.527 60.5239 151.492 60.5116 151.464 60.4881C151.448 60.4754 151.435 60.4597 151.425 60.4419C151.415 60.424 151.409 60.4044 151.407 60.3842C151.405 60.3639 151.407 60.3435 151.413 60.3241C151.419 60.3046 151.429 60.2866 151.442 60.2711C151.595 60.0748 151.794 59.9186 152.02 59.8158C152.247 59.713 152.495 59.6667 152.744 59.6808C152.785 59.6862 152.822 59.7075 152.847 59.74C152.872 59.7725 152.884 59.8136 152.879 59.8544C152.873 59.8944 152.853 59.9306 152.821 59.9557C152.789 59.9808 152.749 59.9927 152.709 59.989C152.515 59.9839 152.321 60.0244 152.145 60.1073C151.969 60.1902 151.814 60.3131 151.694 60.4664C151.679 60.486 151.659 60.5014 151.636 60.5113C151.613 60.5211 151.588 60.5251 151.564 60.5228Z" fill="#263238"/>
<path d="M108.952 123.994H97.1211V124.428H108.952V123.994Z" fill="#E1197E"/>
<path d="M117.944 122.505H113.07V122.939H117.944V122.505Z" fill="#E1197E"/>
<path d="M186.4 100.601H81.4688V119.149H186.4V100.601Z" fill="#E1197E"/>
<path d="M170.219 104.161H122.016V112.682H170.219V104.161Z" fill="#E1197E"/>
<path opacity="0.2" d="M170.219 104.161H122.016V112.682H170.219V104.161Z" fill="white"/>
<path d="M93.0942 120.143C96.0759 120.143 98.493 117.725 98.493 114.743C98.493 111.76 96.0759 109.343 93.0942 109.343C90.1125 109.343 87.6953 111.76 87.6953 114.743C87.6953 117.725 90.1125 120.143 93.0942 120.143Z" fill="#E1197E"/>
<path opacity="0.2" d="M93.0942 120.143C96.0759 120.143 98.493 117.725 98.493 114.743C98.493 111.76 96.0759 109.343 93.0942 109.343C90.1125 109.343 87.6953 111.76 87.6953 114.743C87.6953 117.725 90.1125 120.143 93.0942 120.143Z" fill="white"/>
<path d="M108.36 118.325C111.342 118.325 113.759 115.907 113.759 112.925C113.759 109.943 111.342 107.525 108.36 107.525C105.378 107.525 102.961 109.943 102.961 112.925C102.961 115.907 105.378 118.325 108.36 118.325Z" fill="#E1197E"/>
<path opacity="0.2" d="M108.36 118.325C111.342 118.325 113.759 115.907 113.759 112.925C113.759 109.943 111.342 107.525 108.36 107.525C105.378 107.525 102.961 109.943 102.961 112.925C102.961 115.907 105.378 118.325 108.36 118.325Z" fill="white"/>
<path d="M167.607 77.2864C167.894 77.8942 168.128 78.4324 168.354 79.0228C168.58 79.6131 168.788 80.1644 169.014 80.7591C169.448 81.9094 169.808 83.0771 170.133 84.2708C170.471 85.47 170.747 86.6856 170.962 87.9127L171.118 88.846L171.231 89.7967C171.275 90.1135 171.292 90.4391 171.314 90.7603L171.348 91.2465V91.368V91.5677C171.348 91.724 171.348 91.8585 171.348 92.0018C171.263 92.8554 171.016 93.6849 170.619 94.4457C170.313 95.0579 169.965 95.6483 169.578 96.2124C168.86 97.2437 168.076 98.2268 167.23 99.1555C165.596 100.951 163.826 102.617 161.935 104.139L160.199 102.402C161.614 100.592 163.029 98.7214 164.309 96.8635C164.938 95.9606 165.517 95.0245 166.045 94.0593C166.287 93.6266 166.497 93.1769 166.674 92.7137C166.799 92.417 166.872 92.1015 166.891 91.7804C166.891 91.7804 166.891 91.7587 166.891 91.7804C166.891 91.8021 166.891 91.8065 166.891 91.7804V91.6806L166.831 91.2899C166.792 91.0251 166.757 90.769 166.696 90.4999L166.54 89.7098L166.353 88.9111C166.088 87.8476 165.789 86.7798 165.446 85.7163C165.103 84.6528 164.73 83.5893 164.335 82.5301C164.14 82.0006 163.94 81.4753 163.732 80.9501L163.094 79.3353L167.607 77.2864Z" fill="#FF8B7B"/>
<path d="M167.047 74.9548C169.968 76.079 172.064 86.7661 172.064 86.7661L165.12 89.5052C165.12 89.5052 162.789 84.1356 162.004 80.1637C161.179 75.9835 163.731 73.6916 167.047 74.9548Z" fill="#E1197E"/>
<path opacity="0.3" d="M167.051 74.9548C169.971 76.079 172.068 86.7661 172.068 86.7661L165.124 89.5052C165.124 89.5052 162.793 84.1356 162.008 80.1637C161.183 75.9835 163.735 73.6916 167.051 74.9548Z" fill="black"/>
<path d="M164.012 160.238C163.788 160.255 163.566 160.197 163.378 160.074C163.32 160.023 163.275 159.959 163.247 159.887C163.219 159.815 163.209 159.738 163.218 159.661C163.217 159.616 163.23 159.572 163.254 159.533C163.277 159.495 163.312 159.464 163.352 159.444C163.717 159.258 164.771 159.904 164.889 159.982C164.902 159.99 164.913 160.001 164.919 160.015C164.926 160.03 164.927 160.045 164.923 160.061C164.921 160.075 164.915 160.089 164.904 160.1C164.894 160.11 164.881 160.118 164.867 160.121C164.587 160.193 164.3 160.232 164.012 160.238ZM163.526 159.561C163.49 159.558 163.454 159.566 163.422 159.583C163.4 159.583 163.378 159.613 163.374 159.674C163.367 159.726 163.372 159.778 163.39 159.826C163.409 159.875 163.439 159.918 163.478 159.952C163.844 160.121 164.26 160.143 164.641 160.013C164.302 159.792 163.923 159.639 163.526 159.561Z" fill="#E1197E"/>
<path d="M164.851 160.127C164.839 160.131 164.825 160.131 164.812 160.127C164.474 159.945 163.818 159.229 163.888 158.864C163.899 158.807 163.93 158.755 163.975 158.718C164.02 158.681 164.077 158.66 164.135 158.66C164.194 158.654 164.254 158.659 164.311 158.676C164.367 158.693 164.42 158.722 164.465 158.76C164.847 159.068 164.925 160.014 164.93 160.062C164.93 160.076 164.927 160.09 164.921 160.103C164.915 160.116 164.906 160.127 164.895 160.136C164.88 160.137 164.865 160.134 164.851 160.127ZM164.213 158.799H164.174C164.075 158.799 164.066 158.86 164.062 158.877C164.022 159.094 164.439 159.637 164.778 159.893C164.754 159.519 164.619 159.161 164.391 158.864C164.341 158.823 164.278 158.8 164.213 158.799Z" fill="#E1197E"/>
<path d="M144.34 160.24C144.058 160.265 143.777 160.195 143.541 160.04C143.488 159.993 143.448 159.935 143.423 159.869C143.398 159.803 143.389 159.732 143.398 159.662C143.399 159.62 143.412 159.578 143.434 159.542C143.456 159.506 143.487 159.475 143.524 159.454C143.923 159.233 145.238 159.888 145.39 159.979C145.403 159.987 145.414 159.998 145.421 160.012C145.428 160.026 145.431 160.042 145.429 160.057C145.427 160.073 145.42 160.088 145.409 160.1C145.398 160.112 145.384 160.12 145.368 160.122C145.03 160.194 144.685 160.233 144.34 160.24ZM143.745 159.563C143.695 159.559 143.646 159.57 143.602 159.593C143.586 159.601 143.574 159.612 143.564 159.627C143.555 159.641 143.55 159.658 143.55 159.675C143.545 159.721 143.551 159.767 143.568 159.81C143.585 159.853 143.611 159.892 143.645 159.923C143.845 160.101 144.387 160.135 145.108 160.014C144.683 159.787 144.222 159.634 143.745 159.563Z" fill="#E1197E"/>
<path d="M145.348 160.126H145.318C144.923 159.949 144.142 159.258 144.198 158.872C144.198 158.785 144.276 158.677 144.489 158.655C144.566 158.645 144.645 158.652 144.72 158.674C144.795 158.697 144.864 158.734 144.923 158.785C145.357 159.128 145.426 160.009 145.431 160.048C145.433 160.062 145.431 160.075 145.426 160.088C145.42 160.1 145.412 160.11 145.4 160.118C145.384 160.126 145.366 160.129 145.348 160.126ZM144.55 158.798H144.506C144.363 158.798 144.354 158.868 144.354 158.885C144.315 159.111 144.849 159.666 145.253 159.909C145.215 159.536 145.064 159.183 144.819 158.898C144.745 158.833 144.649 158.797 144.55 158.798Z" fill="#E1197E"/>
<path d="M160.958 101.908L157.746 102.776L160.406 106C160.406 106 162.98 104.668 162.425 103.223L160.958 101.908Z" fill="#FF8B7B"/>
<path d="M155.422 105.454L157.748 107.98L160.408 105.996L157.748 102.771L155.422 105.454Z" fill="#FF8B7B"/>
<path d="M51.6496 67.1808C50.9249 67.9187 50.148 68.7391 49.4319 69.5552C48.7158 70.3713 47.9998 71.209 47.3271 72.0685C46.6544 72.928 46.0251 73.8048 45.4045 74.673L44.9705 75.3458L44.5365 76.0273C44.3933 76.2574 44.2674 76.4875 44.1416 76.7219L43.7987 77.3513C43.6576 77.7116 43.5783 78.0932 43.5643 78.4799C43.5296 78.977 43.5296 79.476 43.5643 79.9731C43.6401 81.0466 43.7777 82.1148 43.9766 83.1723C44.1633 84.2532 44.4106 85.3427 44.658 86.4193C44.9054 87.4958 45.1918 88.5897 45.4739 89.6618L43.8855 90.2565C42.9183 88.15 42.1117 85.9734 41.4725 83.7453C41.1422 82.6063 40.8899 81.446 40.7173 80.2727C40.6274 79.6444 40.5824 79.0104 40.5828 78.3757C40.5708 77.6268 40.6974 76.8822 40.956 76.1793C41.0515 75.9405 41.1079 75.845 41.173 75.7018L41.3683 75.2937C41.4985 75.0203 41.6331 74.7511 41.7763 74.4907L42.2103 73.7007L42.6443 72.9323C43.2511 71.921 43.9117 70.9429 44.6233 70.0023C45.3264 69.0647 46.0555 68.1444 46.8236 67.2676C47.5918 66.3907 48.3686 65.5313 49.2583 64.6978L51.6496 67.1808Z" fill="#B55B52"/>
<path d="M51.8356 62.0109C49.5137 62.1151 47.3047 65.9741 47.3047 65.9741L50.0519 71.5824C50.0519 71.5824 54.535 68.7783 54.5914 65.3707C54.6261 63.1569 54.1227 61.9067 51.8356 62.0109Z" fill="#E1197E"/>
<path opacity="0.5" d="M51.8317 62.0109C49.5098 62.1151 47.3008 65.9741 47.3008 65.9741L50.048 71.5824C50.048 71.5824 54.5311 68.7783 54.5875 65.3707C54.6222 63.1569 54.1188 61.9067 51.8317 62.0109Z" fill="black"/>
<path d="M45.0398 89.0124L47.8694 89.8543L45.9859 91.7595C45.9859 91.7595 43.9505 91.1302 43.6641 89.7458L45.0398 89.0124Z" fill="#B55B52"/>
<path d="M49.5778 92.0277L49.1048 93.8504L45.9844 91.7586L47.8679 89.8533L49.5778 92.0277Z" fill="#B55B52"/>
<path d="M114.762 73.9702H46.1133V99.8588H114.762V73.9702Z" fill="#E1197E"/>
<path opacity="0.6" d="M114.762 73.9702H46.1133V99.8588H114.762V73.9702Z" fill="white"/>
<path d="M111.112 75.6034H85.5195V85.253H111.112V75.6034Z" fill="#E1197E"/>
<path opacity="0.7" d="M111.112 75.6034H85.5195V85.253H111.112V75.6034Z" fill="white"/>
<path d="M97.3973 87.6107H71.8047V97.2603H97.3973V87.6107Z" fill="#E1197E"/>
<path opacity="0.7" d="M97.3973 87.6107H71.8047V97.2603H97.3973V87.6107Z" fill="white"/>
<path d="M67.8731 53.4599C67.8297 53.7246 67.9339 53.9677 68.1075 53.998C68.2811 54.0284 68.459 53.8461 68.5068 53.564C68.5545 53.282 68.4417 53.0563 68.2681 53.0216C68.0945 52.9868 67.8948 53.1908 67.8731 53.4599Z" fill="#263238"/>
<path d="M68.168 53.0394L68.8363 52.9786C68.8363 52.9786 68.4284 53.4126 68.168 53.0394Z" fill="#263238"/>
<path d="M68.0308 53.76C68.1698 54.4137 68.3961 55.0458 68.7035 55.6392C68.5496 55.7098 68.3823 55.7463 68.2131 55.7463C68.0438 55.7463 67.8765 55.7098 67.7227 55.6392L68.0308 53.76Z" fill="#A02724"/>
<path d="M68.4977 51.7591C68.4716 51.7586 68.4462 51.7511 68.4239 51.7374C68.2482 51.6356 68.0511 51.5763 67.8484 51.5643C67.6457 51.5522 67.443 51.5877 67.2565 51.668C67.238 51.6777 67.2178 51.6835 67.197 51.6853C67.1763 51.687 67.1553 51.6846 67.1355 51.6781C67.1157 51.6716 67.0974 51.6613 67.0816 51.6476C67.0659 51.6339 67.053 51.6173 67.0438 51.5986C67.0334 51.5805 67.0268 51.5605 67.0244 51.5398C67.0221 51.519 67.024 51.498 67.0301 51.4781C67.0362 51.4581 67.0464 51.4396 67.0599 51.4238C67.0735 51.4079 67.0902 51.395 67.1089 51.3859C67.3412 51.2817 67.5948 51.2341 67.8491 51.2469C68.1033 51.2597 68.3509 51.3327 68.5715 51.4597C68.5898 51.4693 68.6061 51.4824 68.6193 51.4983C68.6325 51.5142 68.6424 51.5326 68.6485 51.5524C68.6545 51.5722 68.6566 51.593 68.6546 51.6136C68.6525 51.6342 68.6464 51.6541 68.6366 51.6723C68.6241 51.6986 68.6044 51.7207 68.5798 51.7361C68.5552 51.7514 68.5267 51.7595 68.4977 51.7591Z" fill="#263238"/>
<path d="M59.3688 55.6472C59.4339 57.6743 59.2256 61.3293 57.6328 62.3624C57.6328 62.3624 57.8411 64.4503 61.491 65.1535C65.5011 65.9305 63.7348 63.5474 63.7348 63.5474C61.6299 62.6011 61.9554 60.9994 62.589 59.5539L59.3688 55.6472Z" fill="#B55B52"/>
<path d="M70.2966 67.4777C70.5483 68.4891 70.8651 69.596 71.2123 70.6378C71.5595 71.6796 71.9501 72.7214 72.3885 73.7241C72.8163 74.7111 73.3153 75.6657 73.8814 76.5804C74.3986 77.4488 75.0275 78.2456 75.7519 78.9505C76.0871 79.2647 76.457 79.54 76.8542 79.7709C77.039 79.881 77.232 79.9768 77.4314 80.0574L77.6137 80.1268C77.6618 80.1408 77.7113 80.1496 77.7613 80.1529C78.1093 80.1606 78.4542 80.0862 78.7681 79.9358C79.2084 79.7382 79.6284 79.4983 80.0224 79.2196C81.7879 77.894 83.3903 76.364 84.7963 74.6617L86.2111 75.6037C85.9117 76.1506 85.6035 76.6498 85.278 77.1577C84.9525 77.6656 84.6054 78.1518 84.2365 78.6336C83.4971 79.6308 82.6581 80.55 81.7323 81.377C81.2235 81.8249 80.6676 82.2164 80.0745 82.5447C79.3632 82.9481 78.5654 83.1744 77.7483 83.2045C77.5082 83.2054 77.2686 83.1851 77.0322 83.1437C76.8108 83.1017 76.5931 83.0422 76.3812 82.9657C76.0378 82.8468 75.7041 82.7017 75.383 82.5316C74.7605 82.2068 74.1779 81.8105 73.647 81.3509C71.5856 79.5582 70.327 77.3444 69.3071 75.1305C68.7945 74.0261 68.3467 72.8927 67.9661 71.736C67.5703 70.5792 67.24 69.4009 66.9766 68.207L70.2966 67.4777Z" fill="#B55B52"/>
<path d="M84.6055 74.8301L85.5906 73.0247L88.3248 73.7495C88.3248 73.7495 86.6843 76.2449 85.2868 76.2493L84.6055 74.8301Z" fill="#B55B52"/>
<path d="M87.8167 72.3723L89.8955 73.748H88.3244L85.5859 73.0232L87.8167 72.3723Z" fill="#B55B52"/>
<path d="M50.6406 159.814L53.9911 160.057L54.9849 152.365L51.6345 152.118L50.6406 159.814Z" fill="#B55B52"/>
<path d="M24.2812 143.268L26.5944 145.755L32.8743 141.258L30.5568 138.771L24.2812 143.268Z" fill="#B55B52"/>
<path d="M27.6094 145.367L25.6738 142.068C25.6432 142.011 25.5928 141.967 25.532 141.945C25.4712 141.922 25.4043 141.923 25.344 141.947L22.5924 143.058C22.5235 143.09 22.4621 143.136 22.4123 143.193C22.3625 143.25 22.3255 143.317 22.3037 143.39C22.2819 143.463 22.2759 143.539 22.286 143.614C22.2962 143.69 22.3222 143.762 22.3624 143.826C23.0525 144.964 23.4431 145.48 24.2937 146.93C24.8145 147.798 25.4915 149.178 26.212 150.403C26.9324 151.627 28.1562 151.006 27.9479 150.429C27.0799 147.846 27.5139 147.095 27.7049 145.949C27.7394 145.75 27.7057 145.545 27.6094 145.367Z" fill="#263238"/>
<path d="M54.1982 159.584H50.4355C50.3704 159.583 50.3067 159.604 50.2564 159.646C50.2061 159.687 50.1726 159.746 50.1621 159.81L49.6413 162.792C49.6314 162.866 49.6375 162.941 49.6592 163.013C49.6808 163.085 49.7175 163.151 49.7668 163.207C49.8161 163.263 49.8769 163.309 49.9451 163.339C50.0133 163.37 50.0873 163.386 50.1621 163.386C51.4641 163.365 52.1107 163.286 53.7686 163.286C54.7885 163.286 56.8933 163.395 58.2995 163.395C59.7056 163.395 59.8141 162.002 59.2326 161.876C56.6286 161.312 55.6087 160.531 54.7407 159.788C54.5886 159.66 54.3971 159.588 54.1982 159.584Z" fill="#263238"/>
<path d="M54.9875 152.367L54.4364 156.646L51.125 156.091L51.6371 152.124L54.9875 152.367Z" fill="#9E4541"/>
<path d="M30.5571 138.771L32.8746 141.257L30.275 143.119L27.875 140.689L30.5571 138.771Z" fill="#9E4541"/>
<path d="M50.8945 82.4225L64.3483 85.027C70.6802 66.3137 69.1743 65.7277 69.1743 65.7277C68.191 65.1942 67.1765 64.7202 66.1363 64.3083L65.9541 64.2432C65.0861 63.9263 64.9125 63.8829 63.7624 63.5443C61.7834 63.0798 59.9389 62.6761 57.6605 62.3679L57.2265 62.3072C56.8142 62.2551 56.4062 62.2117 56.0113 62.1726C55.7422 62.1422 55.4775 62.1249 55.2214 62.1075L54.3535 62.0597C52.8866 61.9903 51.8363 62.012 51.8363 62.012C52.5784 73.6931 52.0186 77.0312 50.8945 82.4225Z" fill="#E1197E"/>
<path opacity="0.5" d="M50.8945 82.4225L64.3483 85.027C70.6802 66.3137 69.1743 65.7277 69.1743 65.7277C68.191 65.1942 67.1765 64.7202 66.1363 64.3083L65.9541 64.2432C65.0861 63.9263 64.9125 63.8829 63.7624 63.5443C61.7834 63.0798 59.9389 62.6761 57.6605 62.3679L57.2265 62.3072C56.8142 62.2551 56.4062 62.2117 56.0113 62.1726C55.7422 62.1422 55.4775 62.1249 55.2214 62.1075L54.3535 62.0597C52.8866 61.9903 51.8363 62.012 51.8363 62.012C52.5784 73.6931 52.0186 77.0312 50.8945 82.4225Z" fill="black"/>
<path d="M66.441 71.4139C66.0554 73.3695 66.1916 75.3922 66.8359 77.2784C67.9513 73.6234 68.5719 71.1231 68.9278 69.4128C67.8992 69.2783 66.8012 69.6125 66.441 71.4139Z" fill="#E1197E"/>
<path opacity="0.6" d="M66.4449 71.413C66.0593 73.3686 66.1955 75.3912 66.8398 77.2774C67.9552 73.6224 68.5758 71.1221 68.9317 69.4119C67.9031 69.2773 66.8051 69.6115 66.4449 71.413Z" fill="black"/>
<path d="M69.0478 65.6629C71.2916 67.1258 72.7194 70.3857 73.097 72.2479L67.889 76.4889C67.889 76.4889 65.0551 70.16 65.9838 68.5452C66.9603 66.861 68.2015 65.1116 69.0478 65.6629Z" fill="#E1197E"/>
<path opacity="0.5" d="M69.0478 65.6629C71.2916 67.1258 72.7194 70.3857 73.097 72.2479L67.889 76.4889C67.889 76.4889 65.0551 70.16 65.9838 68.5452C66.9603 66.861 68.2015 65.1116 69.0478 65.6629Z" fill="black"/>
<path d="M59.0352 50.9983C58.701 54.2973 58.484 55.6863 59.8641 57.6788C61.9386 60.6783 66.0789 60.4916 67.3983 57.3879C68.5874 54.5968 68.9389 49.67 65.9444 47.7513C65.3073 47.3181 64.5683 47.0583 63.8003 46.9975C63.0323 46.9367 62.2617 47.0771 61.5644 47.4048C60.8671 47.7325 60.2672 48.2362 59.8237 48.8663C59.3802 49.4964 59.1085 50.2312 59.0352 50.9983Z" fill="#B55B52"/>
<path d="M59.088 44.2665C57.0613 45.7684 58.3589 46.1287 57.4952 47.6436C56.5708 49.2671 55.5987 47.4179 53.7586 49.202C52.5651 50.361 54.6266 51.5894 53.1206 53.6296C51.9662 55.214 50.7163 53.8423 51.2024 57.1023C51.5365 59.3204 50.1781 59.0426 49.2624 60.2971C47.9604 62.0942 49.1279 63.3834 52.4783 64.0606C55.8287 64.7378 53.4418 68.1062 56.5925 68.2061C60.0298 68.3189 59.2312 63.8392 60.9064 64.9288C62.5816 66.0183 65.6326 65.0243 65.446 62.346C65.2811 59.8891 62.5513 59.9759 64.7603 58.296C66.4963 56.9937 67.0214 56.9937 65.7975 54.1983C64.7603 51.8195 68.5707 52.1841 68.5013 50.1222C68.3711 46.4022 65.7975 47.5178 64.986 45.6121C64.4608 44.362 61.6833 42.3392 59.088 44.2665Z" fill="#263238"/>
<path d="M65.4492 52.7176C65.4663 53.3339 65.674 53.9298 66.0438 54.4231C66.5559 55.1219 67.1591 54.9396 67.3067 54.2973C67.4412 53.7201 67.3371 52.6611 66.6818 52.1751C66.0264 51.689 65.4536 52.0275 65.4492 52.7176Z" fill="#B55B52"/>
<path d="M60.7864 84.3414C60.7864 84.3414 54.2418 106.267 51.0433 118.894C47.6668 132.221 31.5657 143.077 31.5657 143.077L28.1328 139.674C28.1328 139.674 38.8958 130.588 42.1638 118.152C48.7995 92.9146 45.6054 87.5667 50.8957 82.4358L60.7864 84.3414Z" fill="#E1197E"/>
<path opacity="0.8" d="M60.7825 84.3414C60.7825 84.3414 54.2379 106.267 51.0394 118.894C47.6629 132.221 31.5618 143.077 31.5618 143.077L28.1289 139.674C28.1289 139.674 38.8919 130.588 42.1599 118.152C48.7956 92.9146 45.6014 87.5667 50.8918 82.4358L60.7825 84.3414Z" fill="white"/>
<path d="M31.8625 143.576L27.5703 139.309L28.7378 138.016L33.9587 142.46L31.8625 143.576Z" fill="#E1197E"/>
<path d="M57.7129 89.0112C53.4164 92.3233 53.1299 104.946 53.2298 110.65C55.3997 102.676 58.0037 93.8078 59.5053 88.677C59.093 88.3297 58.5028 88.3992 57.7129 89.0112Z" fill="#E1197E"/>
<path opacity="0.6" d="M57.7129 89.0112C53.4164 92.3233 53.1299 104.946 53.2298 110.65C55.3997 102.676 58.0037 93.8078 59.5053 88.677C59.093 88.3297 58.5028 88.3992 57.7129 89.0112Z" fill="white"/>
<path d="M28.302 147.157C28.2618 147.164 28.2207 147.164 28.1805 147.157C27.7726 147.031 27.4818 146.289 27.3429 145.855C27.3386 145.84 27.3388 145.824 27.3435 145.81C27.3481 145.795 27.357 145.782 27.3689 145.772C27.3815 145.763 27.3967 145.758 27.4123 145.758C27.4279 145.758 27.4431 145.763 27.4557 145.772C27.5816 145.833 28.6666 146.402 28.71 146.827C28.7139 146.874 28.7057 146.922 28.6859 146.965C28.6661 147.009 28.6356 147.046 28.5971 147.074C28.5109 147.134 28.4069 147.164 28.302 147.157ZM27.5599 145.972C27.7595 146.545 27.9939 146.918 28.2239 146.988C28.2727 147 28.3238 147 28.3724 146.987C28.421 146.974 28.4655 146.949 28.5017 146.914C28.5189 146.903 28.5327 146.887 28.5411 146.869C28.5496 146.85 28.5525 146.83 28.5494 146.81C28.5277 146.584 27.9852 146.211 27.5599 145.972Z" fill="#E1197E"/>
<path d="M64.1282 85.0271C64.1282 85.0271 64.9658 111.558 63.091 121.551C61.1424 131.943 55.2053 155.587 55.2053 155.587L50.375 154.962C50.375 154.962 53.413 131.087 54.7149 120.752C56.1254 109.492 54.2809 83.1215 54.2809 83.1215L64.1282 85.0271Z" fill="#E1197E"/>
<path opacity="0.8" d="M64.1361 85.0271C64.1361 85.0271 64.9737 111.558 63.0988 121.551C61.1502 131.943 55.2132 155.587 55.2132 155.587L50.3828 154.962C50.3828 154.962 53.4208 131.087 54.7227 120.752C56.1332 109.492 54.2887 83.1215 54.2887 83.1215L64.1361 85.0271Z" fill="white"/>
<path d="M56.239 155.859L49.3516 154.974L49.434 153.338L56.9291 153.663L56.239 155.859Z" fill="#E1197E"/>
<path d="M28.4118 146.11C28.0546 146.107 27.7022 146.027 27.3789 145.875C27.3678 145.867 27.3585 145.857 27.3518 145.845C27.345 145.833 27.341 145.82 27.3398 145.806C27.3408 145.792 27.3453 145.778 27.3528 145.766C27.3604 145.754 27.3709 145.744 27.3832 145.737C27.418 145.715 28.2512 145.242 28.6852 145.394C28.745 145.412 28.7999 145.444 28.8464 145.486C28.8928 145.528 28.9296 145.579 28.9543 145.637C28.9864 145.692 28.9983 145.757 28.9881 145.82C28.9778 145.884 28.9459 145.941 28.8979 145.984C28.7545 146.079 28.5834 146.123 28.4118 146.11ZM27.5959 145.802C27.9735 145.954 28.6288 146.019 28.8024 145.862C28.8328 145.841 28.8588 145.797 28.8024 145.702C28.7884 145.664 28.7657 145.631 28.7363 145.604C28.7069 145.576 28.6716 145.557 28.6331 145.546C28.2694 145.523 27.9074 145.612 27.5959 145.802Z" fill="#E1197E"/>
<path d="M55.4444 160.17C55.0913 160.163 54.7397 160.122 54.3942 160.049C54.3781 160.046 54.3633 160.038 54.3517 160.026C54.3401 160.015 54.3322 160 54.3291 159.984C54.3265 159.967 54.3293 159.95 54.3371 159.935C54.3449 159.921 54.3573 159.909 54.3725 159.901C54.5243 159.823 55.8828 159.138 56.2864 159.368C56.3238 159.389 56.3553 159.419 56.3781 159.455C56.4008 159.492 56.4141 159.533 56.4166 159.576C56.425 159.648 56.4151 159.721 56.3878 159.789C56.3605 159.856 56.3167 159.916 56.2603 159.962C56.0203 160.123 55.7322 160.197 55.4444 160.17ZM54.6589 159.936C55.3967 160.058 55.9609 160.027 56.1562 159.845C56.1926 159.814 56.2208 159.774 56.2382 159.729C56.2557 159.685 56.2618 159.637 56.256 159.589C56.2563 159.572 56.252 159.554 56.2436 159.539C56.2353 159.524 56.2231 159.511 56.2083 159.502C55.9869 159.381 55.2187 159.671 54.6589 159.936Z" fill="#E1197E"/>
<path d="M54.4182 160.049C54.404 160.053 54.389 160.053 54.3748 160.049C54.3631 160.041 54.3538 160.03 54.3477 160.017C54.3416 160.004 54.339 159.99 54.3401 159.976C54.3401 159.915 54.518 158.461 55.3166 158.548C55.5336 158.57 55.5987 158.682 55.6117 158.769C55.6724 159.147 54.8609 159.876 54.4529 160.071L54.4182 160.049ZM55.2558 158.691C54.7697 158.691 54.5788 159.49 54.5224 159.828C54.9564 159.581 55.4902 159.008 55.4554 158.782C55.4554 158.782 55.4554 158.708 55.2992 158.695L55.2558 158.691Z" fill="#E1197E"/>
<path d="M50.8236 81.6013L50.0207 82.6776C49.9556 82.7644 50.0511 82.8772 50.2073 82.9076L64.2991 85.6374C64.4206 85.6634 64.5334 85.6374 64.5508 85.5463L64.8719 84.3745C64.8719 84.292 64.7982 84.2052 64.668 84.1792L51.058 81.5405C51.017 81.5288 50.9737 81.5283 50.9325 81.539C50.8913 81.5497 50.8537 81.5712 50.8236 81.6013Z" fill="#E1197E"/>
<path d="M52.4008 83.4687L52.0363 83.3993C51.9668 83.3993 51.9148 83.3342 51.9278 83.2908L52.3618 81.7718C52.3618 81.7284 52.4442 81.7024 52.5137 81.7154L52.8782 81.7848C52.952 81.7848 52.9998 81.8499 52.9867 81.8933L52.5527 83.4123C52.5441 83.4557 52.4746 83.4818 52.4008 83.4687Z" fill="#E1197E"/>
<path opacity="0.8" d="M52.4008 83.4678L52.0363 83.3983C51.9668 83.3983 51.9148 83.3332 51.9278 83.2898L52.3618 81.7708C52.3618 81.7274 52.4442 81.7014 52.5137 81.7144L52.8782 81.7839C52.952 81.7839 52.9998 81.849 52.9867 81.8924L52.5527 83.4113C52.5441 83.4547 52.4746 83.4808 52.4008 83.4678Z" fill="white"/>
<path d="M61.6041 85.2749L61.2395 85.2011C61.1658 85.2011 61.118 85.1404 61.131 85.097L61.565 83.5736C61.565 83.5302 61.6475 83.5042 61.7213 83.5216L62.0859 83.591C62.1596 83.591 62.2074 83.6518 62.1944 83.6995L61.7603 85.2185C61.7473 85.2619 61.6779 85.2879 61.6041 85.2749Z" fill="#E1197E"/>
<path opacity="0.8" d="M61.6002 85.2749L61.2356 85.2011C61.1619 85.2011 61.1141 85.1404 61.1271 85.097L61.5611 83.5736C61.5611 83.5302 61.6436 83.5042 61.7174 83.5216L62.0819 83.591C62.1557 83.591 62.2035 83.6518 62.1904 83.6995L61.7564 85.2185C61.7434 85.2619 61.674 85.2879 61.6002 85.2749Z" fill="white"/>
</svg>
