<svg width="60" height="60" viewBox="0 0 60 60" fill="none" xmlns="http://www.w3.org/2000/svg">
<g clip-path="url(#clip0)">
<path d="M30 60C46.5685 60 60 46.5685 60 30C60 13.4315 46.5685 0 30 0C13.4315 0 0 13.4315 0 30C0 46.5685 13.4315 60 30 60Z" fill="#3C5A9A"/>
<path d="M39.7549 9.20801H33.1092C29.1654 9.20801 24.7788 10.8667 24.7788 16.5834C24.798 18.5753 24.7788 20.483 24.7788 22.63H20.2163V29.8902H24.9199V50.791H33.5631V29.7522H39.2679L39.784 22.6096H33.4142C33.4142 22.6096 33.4284 19.4322 33.4142 18.5095C33.4142 16.2504 35.7649 16.3798 35.9063 16.3798C37.0249 16.3798 39.1998 16.383 39.7582 16.3798V9.20801H39.7549Z" fill="white"/>
</g>
<defs>
<clipPath id="clip0">
<rect width="60" height="60" fill="white"/>
</clipPath>
</defs>
</svg>
