<svg width="60" height="60" viewBox="0 0 60 60" fill="none" xmlns="http://www.w3.org/2000/svg">
<path d="M15.2144 59.7878C11.6462 59.6255 9.70785 59.0317 8.41858 58.5288C6.71026 57.8637 5.49232 57.072 4.21018 55.7916C2.92805 54.5112 2.13451 53.2933 1.47294 51.585C0.970072 50.2957 0.376259 48.3574 0.213986 44.7891C0.0356644 40.932 0 39.7747 0 30.0027C0 20.2306 0.0392308 19.0751 0.212203 15.2144C0.374476 11.6462 0.971855 9.71142 1.47116 8.41858C2.1363 6.71026 2.92983 5.49232 4.2084 4.2084C5.48875 2.92805 6.70669 2.13273 8.4168 1.47116C9.70607 0.968288 11.6444 0.374476 15.2126 0.212203C19.0715 0.0356644 20.2306 0 29.9991 0C39.7712 0 40.9267 0.0392308 44.7874 0.212203C48.3556 0.374476 50.2904 0.971855 51.5832 1.47116C53.2915 2.13273 54.5095 2.92805 55.7916 4.2084C57.0737 5.48875 57.8637 6.70847 58.5288 8.4168C59.0317 9.70607 59.6255 11.6444 59.7878 15.2126C59.9643 19.0733 60 20.2288 60 30.0009C60 39.7694 59.9643 40.9285 59.7878 44.7891C59.6255 48.3574 59.0281 50.2957 58.5288 51.585C57.8637 53.2933 57.072 54.5112 55.7916 55.7916C54.5112 57.072 53.2915 57.8637 51.5832 58.5288C50.2939 59.0317 48.3556 59.6255 44.7874 59.7878C40.9302 59.9643 39.7712 60 29.9991 60C20.2306 60 19.0715 59.9661 15.2144 59.7878Z" fill="url(#paint0_radial)"/>
<path d="M15.2144 59.7878C11.6462 59.6255 9.70785 59.0317 8.41858 58.5288C6.71026 57.8637 5.49232 57.072 4.21018 55.7916C2.92805 54.5112 2.13451 53.2933 1.47294 51.585C0.970072 50.2957 0.376259 48.3574 0.213986 44.7891C0.0356644 40.932 0 39.7747 0 30.0027C0 20.2306 0.0392308 19.0751 0.212203 15.2144C0.374476 11.6462 0.971855 9.71142 1.47116 8.41858C2.1363 6.71026 2.92983 5.49232 4.2084 4.2084C5.48875 2.92805 6.70669 2.13273 8.4168 1.47116C9.70607 0.968288 11.6444 0.374476 15.2126 0.212203C19.0715 0.0356644 20.2306 0 29.9991 0C39.7712 0 40.9267 0.0392308 44.7874 0.212203C48.3556 0.374476 50.2904 0.971855 51.5832 1.47116C53.2915 2.13273 54.5095 2.92805 55.7916 4.2084C57.0737 5.48875 57.8637 6.70847 58.5288 8.4168C59.0317 9.70607 59.6255 11.6444 59.7878 15.2126C59.9643 19.0733 60 20.2288 60 30.0009C60 39.7694 59.9643 40.9285 59.7878 44.7891C59.6255 48.3574 59.0281 50.2957 58.5288 51.585C57.8637 53.2933 57.072 54.5112 55.7916 55.7916C54.5112 57.072 53.2915 57.8637 51.5832 58.5288C50.2939 59.0317 48.3556 59.6255 44.7874 59.7878C40.9302 59.9643 39.7712 60 29.9991 60C20.2306 60 19.0715 59.9661 15.2144 59.7878Z" fill="url(#paint1_radial)"/>
<path d="M22.6333 30.1281C22.6333 26.0248 25.9589 22.6975 30.0622 22.6975C34.1656 22.6975 37.4929 26.0248 37.4929 30.1281C37.4929 34.2315 34.1656 37.5588 30.0622 37.5588C25.9589 37.5588 22.6333 34.2315 22.6333 30.1281ZM18.6164 30.1281C18.6164 36.4497 23.7407 41.5739 30.0622 41.5739C36.3837 41.5739 41.508 36.4497 41.508 30.1281C41.508 23.8066 36.3837 18.6824 30.0622 18.6824C23.7407 18.6824 18.6166 23.8063 18.6166 30.1281H18.6164ZM39.2865 18.2285C39.2862 18.7576 39.4429 19.2748 39.7367 19.7148C40.0304 20.1548 40.448 20.4978 40.9367 20.7004C41.4254 20.9031 41.9632 20.9562 42.4821 20.8532C43.001 20.7502 43.4777 20.4957 43.8519 20.1218C44.2262 19.7478 44.4811 19.2713 44.5845 18.7525C44.6879 18.2337 44.6352 17.6958 44.4329 17.207C44.2307 16.7181 43.888 16.3003 43.4482 16.0062C43.0085 15.7121 42.4914 15.555 41.9624 15.5548H41.9613C41.2522 15.5551 40.5722 15.8369 40.0706 16.3382C39.5691 16.8395 39.2871 17.5194 39.2865 18.2285ZM21.057 48.2721C18.8838 48.1731 17.7025 47.8111 16.9176 47.5053C15.8769 47.1001 15.1344 46.6176 14.3537 45.838C13.573 45.0583 13.0897 44.3165 12.6863 43.2758C12.3803 42.4912 12.0184 41.3096 11.9196 39.1364C11.8115 36.7869 11.7899 36.0811 11.7899 30.1285C11.7899 24.1759 11.8133 23.4721 11.9196 21.1206C12.0185 18.9474 12.3832 17.7681 12.6863 16.9812C13.0915 15.9405 13.574 15.198 14.3537 14.4173C15.1333 13.6366 15.8751 13.1533 16.9176 12.7499C17.7022 12.4439 18.8838 12.082 21.057 11.9832C23.4065 11.8751 24.1123 11.8535 30.0622 11.8535C36.0121 11.8535 36.7186 11.8765 39.0702 11.9835C41.2434 12.0825 42.4226 12.4472 43.2095 12.7503C44.2502 13.1537 44.9928 13.638 45.7735 14.4176C46.5541 15.1972 47.0356 15.9408 47.4408 16.9815C47.7468 17.7661 48.1088 18.9477 48.2076 21.1209C48.3156 23.4725 48.3372 24.1763 48.3372 30.1289C48.3372 36.0814 48.3156 36.7853 48.2076 39.1368C48.1086 41.31 47.7448 42.4912 47.4408 43.2762C47.0356 44.3169 46.5531 45.0594 45.7735 45.8383C44.9938 46.6172 44.2502 47.1005 43.2095 47.5056C42.4249 47.8116 41.2434 48.1736 39.0702 48.2724C36.7206 48.3805 36.0148 48.4021 30.0622 48.4021C24.1097 48.4021 23.4058 48.3805 21.057 48.2724V48.2721ZM20.8724 7.97288C18.4995 8.08094 16.878 8.4572 15.4619 9.00822C13.9963 9.57724 12.7539 10.3406 11.5133 11.5793C10.2728 12.8179 9.51133 14.0604 8.9423 15.5279C8.39129 16.9448 8.01503 18.5654 7.90696 20.9383C7.79712 23.315 7.77197 24.0748 7.77197 30.1281C7.77197 36.1815 7.79712 36.9413 7.90696 39.318C8.01503 41.6911 8.39129 43.3115 8.9423 44.7284C9.51133 46.1941 10.2729 47.4389 11.5133 48.677C12.7538 49.9151 13.9945 50.6774 15.4619 51.2481C16.8807 51.7991 18.4995 52.1753 20.8724 52.2834C23.2503 52.3915 24.0089 52.4184 30.0622 52.4184C36.1155 52.4184 36.8754 52.3933 39.252 52.2834C41.6252 52.1753 43.2456 51.7991 44.6625 51.2481C46.1281 50.6774 47.3705 49.9156 48.6111 48.677C49.8517 47.4384 50.6115 46.1941 51.1821 44.7284C51.7332 43.3115 52.1112 41.6909 52.2175 39.318C52.3255 36.9395 52.3507 36.1815 52.3507 30.1281C52.3507 24.0748 52.3255 23.315 52.2175 20.9383C52.1094 18.5652 51.7332 16.9439 51.1821 15.5279C50.6115 14.0622 49.8497 12.8199 48.6111 11.5793C47.3725 10.3387 46.1281 9.57724 44.6643 9.00822C43.2456 8.4572 41.625 8.07916 39.2538 7.97288C36.8768 7.86428 36.1173 7.83789 30.0649 7.83789C24.0125 7.83789 23.2512 7.86303 20.8733 7.97288" fill="white"/>
<defs>
<radialGradient id="paint0_radial" cx="0" cy="0" r="1" gradientUnits="userSpaceOnUse" gradientTransform="translate(3.88314 58.6856) scale(76.1777)">
<stop offset="0.09" stop-color="#FA8F21"/>
<stop offset="0.78" stop-color="#D82D7E"/>
</radialGradient>
<radialGradient id="paint1_radial" cx="0" cy="0" r="1" gradientUnits="userSpaceOnUse" gradientTransform="translate(41.5599 56.759) scale(67.0371)">
<stop offset="0.64" stop-color="#8C3AAA" stop-opacity="0"/>
<stop offset="1" stop-color="#8C3AAA"/>
</radialGradient>
</defs>
</svg>
