<svg width="188" height="155" viewBox="0 0 188 155" fill="none" xmlns="http://www.w3.org/2000/svg">
<path d="M172.601 10.3914C158.391 -10.3384 134.092 15.8568 119.592 26.4719C99.5204 41.1388 84.0162 28.5901 65.3364 18.9564C24.3505 -2.19125 -17.6923 31.9811 11.3091 74.3929C33.2807 106.53 83.7156 106.073 111.898 83.1765C119.398 77.0844 123.596 66.8725 131.232 61.5139C138.868 56.1554 147.017 56.9521 155.361 53.1093C169.76 46.4779 184.663 28.0023 172.601 10.3914Z" fill="#E1197E"/>
<path opacity="0.9" d="M172.601 10.3914C158.391 -10.3384 134.092 15.8568 119.592 26.4719C99.5204 41.1388 84.0162 28.5901 65.3364 18.9564C24.3505 -2.19125 -17.6923 31.9811 11.3091 74.3929C33.2807 106.53 83.7156 106.073 111.898 83.1765C119.398 77.0844 123.596 66.8725 131.232 61.5139C138.868 56.1554 147.017 56.9521 155.361 53.1093C169.76 46.4779 184.663 28.0023 172.601 10.3914Z" fill="white" fill-opacity="0.6"/>
<path d="M94 155C145.915 155 188 152.538 188 149.501C188 146.464 145.915 144.001 94 144.001C42.0852 144.001 0 146.464 0 149.501C0 152.538 42.0852 155 94 155Z" fill="#F5F5F5"/>
<path d="M167.347 105.996L166.518 99.539C166.393 98.5782 165.924 97.6955 165.198 97.0555C164.472 96.4156 163.538 96.0619 162.571 96.0606H141.094C140.128 96.0615 139.194 95.7093 138.467 95.0699C137.741 94.4306 137.272 93.5479 137.148 92.587L132.693 57.958C132.619 57.3964 132.667 56.8256 132.831 56.2838C132.996 55.742 133.274 55.2417 133.647 54.8163C134.021 54.3909 134.48 54.0502 134.995 53.817C135.51 53.5839 136.069 53.4636 136.634 53.4642H156.056C156.621 53.4641 157.18 53.3431 157.695 53.1094C158.21 52.8757 158.669 52.5346 159.042 52.1088C159.415 51.683 159.694 51.1824 159.858 50.6404C160.023 50.0983 160.07 49.5273 159.997 48.9655L159.173 42.5041C159.049 41.5433 158.58 40.6606 157.854 40.0212C157.127 39.3819 156.193 39.0297 155.227 39.0305H133.754C132.788 39.0301 131.854 38.6767 131.129 38.0364C130.403 37.3962 129.935 36.513 129.813 35.5521L125.682 3.48817C125.558 2.52686 125.09 1.64359 124.363 1.00342C123.637 0.363262 122.703 0.0100192 121.736 0.00971471H115.356C114.79 0.00989277 114.231 0.130855 113.716 0.364537C113.201 0.598219 112.741 0.939256 112.368 1.36493C111.994 1.7906 111.715 2.29112 111.55 2.83316C111.385 3.37519 111.337 3.94628 111.409 4.50838L115.288 34.5222C115.36 35.0843 115.312 35.6553 115.147 36.1974C114.982 36.7394 114.703 37.2399 114.33 37.6656C113.956 38.0913 113.497 38.4323 112.981 38.666C112.466 38.8997 111.907 39.0206 111.341 39.0208H59.3358C58.3691 39.0204 57.4357 38.667 56.7102 38.0267C55.9847 37.3865 55.5169 36.5033 55.3943 35.5424L51.2637 3.47845C51.1411 2.51755 50.6733 1.63435 49.9478 0.994103C49.2223 0.353858 48.2889 0.000446736 47.3222 0H40.9421C40.3765 0.000178061 39.8175 0.121137 39.3022 0.354819C38.7869 0.588501 38.3273 0.929538 37.9539 1.35521C37.5805 1.78088 37.3019 2.28141 37.1367 2.82344C36.9714 3.36547 36.9234 3.93656 36.9957 4.49866L40.8742 34.5124C40.9465 35.0745 40.8985 35.6456 40.7333 36.1877C40.5681 36.7297 40.2895 37.2302 39.9161 37.6559C39.5427 38.0816 39.083 38.4226 38.5677 38.6563C38.0525 38.89 37.4934 39.0109 36.9279 39.0111H17.4918C16.9264 39.0106 16.3675 39.1309 15.8522 39.364C15.3369 39.5972 14.8772 39.9378 14.5037 40.3631C14.1302 40.7884 13.8516 41.2886 13.6863 41.8304C13.5211 42.3722 13.473 42.9431 13.5454 43.5049L14.3793 49.9614C14.502 50.9232 14.9705 51.807 15.697 52.4474C16.4235 53.0877 17.3581 53.4406 18.3257 53.4399H39.7979C40.7647 53.439 41.6987 53.7912 42.4251 54.4305C43.1515 55.0699 43.6205 55.9526 43.7443 56.9135L48.2046 91.5425C48.2769 92.1044 48.2289 92.6752 48.0637 93.217C47.8984 93.7588 47.6197 94.2591 47.2463 94.6844C46.8728 95.1097 46.413 95.4502 45.8978 95.6834C45.3825 95.9165 44.8235 96.0368 44.2582 96.0363H24.8367C24.2711 96.0365 23.712 96.1574 23.1968 96.3911C22.6815 96.6248 22.2219 96.9659 21.8484 97.3915C21.475 97.8172 21.1964 98.3177 21.0312 98.8597C20.866 99.4018 20.818 99.9729 20.8903 100.535L21.7242 106.991C21.8468 107.952 22.3146 108.836 23.0401 109.476C23.7656 110.116 24.699 110.469 25.6657 110.47H47.1428C48.1096 110.469 49.0436 110.821 49.77 111.461C50.4964 112.1 50.9654 112.983 51.0892 113.944L55.2149 146.007C55.3386 146.969 55.8074 147.852 56.5337 148.492C57.26 149.132 58.194 149.486 59.1613 149.486H65.5414C66.107 149.486 66.666 149.365 67.1813 149.131C67.6966 148.897 68.1562 148.556 68.5296 148.131C68.903 147.705 69.1816 147.204 69.3468 146.662C69.512 146.12 69.5601 145.549 69.4878 144.987L65.6093 114.973C65.5427 114.414 65.5955 113.846 65.764 113.309C65.9325 112.771 66.213 112.275 66.5869 111.854C66.9609 111.433 67.4197 111.096 67.9331 110.866C68.4465 110.636 69.0029 110.517 69.5653 110.519H121.556C122.521 110.514 123.455 110.862 124.183 111.497C124.91 112.131 125.383 113.01 125.513 113.968L129.638 146.032C129.762 146.993 130.231 147.876 130.957 148.516C131.683 149.157 132.617 149.51 133.585 149.51H139.965C140.53 149.51 141.089 149.389 141.604 149.155C142.119 148.922 142.579 148.581 142.952 148.155C143.325 147.729 143.603 147.228 143.767 146.686C143.932 146.144 143.979 145.573 143.906 145.012L140.028 114.998C139.955 114.436 140.003 113.865 140.169 113.323C140.334 112.781 140.613 112.281 140.986 111.856C141.36 111.431 141.819 111.09 142.335 110.857C142.85 110.624 143.409 110.503 143.974 110.504H163.396C163.963 110.505 164.523 110.384 165.04 110.15C165.556 109.916 166.017 109.574 166.391 109.147C166.765 108.72 167.044 108.218 167.209 107.675C167.374 107.131 167.421 106.559 167.347 105.996ZM62.7343 92.587L58.2789 57.958C58.2066 57.3965 58.2545 56.8261 58.4195 56.2846C58.5844 55.7432 58.8627 55.2432 59.2356 54.8179C59.6086 54.3927 60.0677 54.052 60.5824 53.8186C61.0971 53.5852 61.6555 53.4643 62.2204 53.4642H114.212C115.178 53.4633 116.112 53.8155 116.839 54.4548C117.565 55.0942 118.034 55.9769 118.158 56.9378L122.604 91.5716C122.676 92.1335 122.628 92.7044 122.463 93.2462C122.298 93.788 122.019 94.2882 121.645 94.7135C121.272 95.1388 120.812 95.4794 120.297 95.7125C119.782 95.9457 119.223 96.066 118.657 96.0655H66.6807C65.7134 96.0652 64.7794 95.7119 64.0531 95.0717C63.3268 94.4316 62.858 93.5483 62.7343 92.587Z" fill="#A6DD27"/>
<path opacity="0.4" d="M167.347 105.996L166.518 99.539C166.393 98.5782 165.924 97.6955 165.198 97.0555C164.472 96.4156 163.538 96.0619 162.571 96.0606H141.094C140.128 96.0615 139.194 95.7093 138.467 95.0699C137.741 94.4306 137.272 93.5479 137.148 92.587L132.693 57.958C132.619 57.3964 132.667 56.8256 132.831 56.2838C132.996 55.742 133.274 55.2417 133.647 54.8163C134.021 54.3909 134.48 54.0502 134.995 53.817C135.51 53.5839 136.069 53.4636 136.634 53.4642H156.056C156.621 53.4641 157.18 53.3431 157.695 53.1094C158.21 52.8757 158.669 52.5346 159.042 52.1088C159.415 51.683 159.694 51.1824 159.858 50.6404C160.023 50.0983 160.07 49.5273 159.997 48.9655L159.173 42.5041C159.049 41.5433 158.58 40.6606 157.854 40.0212C157.127 39.3819 156.193 39.0297 155.227 39.0305H133.754C132.788 39.0301 131.854 38.6767 131.129 38.0364C130.403 37.3962 129.935 36.513 129.813 35.5521L125.682 3.48817C125.558 2.52686 125.09 1.64359 124.363 1.00342C123.637 0.363262 122.703 0.0100192 121.736 0.00971471H115.356C114.79 0.00989277 114.231 0.130855 113.716 0.364537C113.201 0.598219 112.741 0.939256 112.368 1.36493C111.994 1.7906 111.715 2.29112 111.55 2.83316C111.385 3.37519 111.337 3.94628 111.409 4.50838L115.288 34.5222C115.36 35.0843 115.312 35.6553 115.147 36.1974C114.982 36.7394 114.703 37.2399 114.33 37.6656C113.956 38.0913 113.497 38.4323 112.981 38.666C112.466 38.8997 111.907 39.0206 111.341 39.0208H59.3358C58.3691 39.0204 57.4357 38.667 56.7102 38.0267C55.9847 37.3865 55.5169 36.5033 55.3943 35.5424L51.2637 3.47845C51.1411 2.51755 50.6733 1.63435 49.9478 0.994103C49.2223 0.353858 48.2889 0.000446736 47.3222 0H40.9421C40.3765 0.000178061 39.8175 0.121137 39.3022 0.354819C38.7869 0.588501 38.3273 0.929538 37.9539 1.35521C37.5805 1.78088 37.3019 2.28141 37.1367 2.82344C36.9714 3.36547 36.9234 3.93656 36.9957 4.49866L40.8742 34.5124C40.9465 35.0745 40.8985 35.6456 40.7333 36.1877C40.5681 36.7297 40.2895 37.2302 39.9161 37.6559C39.5427 38.0816 39.083 38.4226 38.5677 38.6563C38.0525 38.89 37.4934 39.0109 36.9279 39.0111H17.4918C16.9264 39.0106 16.3675 39.1309 15.8522 39.364C15.3369 39.5972 14.8772 39.9378 14.5037 40.3631C14.1302 40.7884 13.8516 41.2886 13.6863 41.8304C13.5211 42.3722 13.473 42.9431 13.5454 43.5049L14.3793 49.9614C14.502 50.9232 14.9705 51.807 15.697 52.4474C16.4235 53.0877 17.3581 53.4406 18.3257 53.4399H39.7979C40.7647 53.439 41.6987 53.7912 42.4251 54.4305C43.1515 55.0699 43.6205 55.9526 43.7443 56.9135L48.2046 91.5425C48.2769 92.1044 48.2289 92.6752 48.0637 93.217C47.8984 93.7588 47.6197 94.2591 47.2463 94.6844C46.8728 95.1097 46.413 95.4502 45.8978 95.6834C45.3825 95.9165 44.8235 96.0368 44.2582 96.0363H24.8367C24.2711 96.0365 23.712 96.1574 23.1968 96.3911C22.6815 96.6248 22.2219 96.9659 21.8484 97.3915C21.475 97.8172 21.1964 98.3177 21.0312 98.8597C20.866 99.4018 20.818 99.9729 20.8903 100.535L21.7242 106.991C21.8468 107.952 22.3146 108.836 23.0401 109.476C23.7656 110.116 24.699 110.469 25.6657 110.47H47.1428C48.1096 110.469 49.0436 110.821 49.77 111.461C50.4964 112.1 50.9654 112.983 51.0892 113.944L55.2149 146.007C55.3386 146.969 55.8074 147.852 56.5337 148.492C57.26 149.132 58.194 149.486 59.1613 149.486H65.5414C66.107 149.486 66.666 149.365 67.1813 149.131C67.6966 148.897 68.1562 148.556 68.5296 148.131C68.903 147.705 69.1816 147.204 69.3468 146.662C69.512 146.12 69.5601 145.549 69.4878 144.987L65.6093 114.973C65.5427 114.414 65.5955 113.846 65.764 113.309C65.9325 112.771 66.213 112.275 66.5869 111.854C66.9609 111.433 67.4197 111.096 67.9331 110.866C68.4465 110.636 69.0029 110.517 69.5653 110.519H121.556C122.521 110.514 123.455 110.862 124.183 111.497C124.91 112.131 125.383 113.01 125.513 113.968L129.638 146.032C129.762 146.993 130.231 147.876 130.957 148.516C131.683 149.157 132.617 149.51 133.585 149.51H139.965C140.53 149.51 141.089 149.389 141.604 149.155C142.119 148.922 142.579 148.581 142.952 148.155C143.325 147.729 143.603 147.228 143.767 146.686C143.932 146.144 143.979 145.573 143.906 145.012L140.028 114.998C139.955 114.436 140.003 113.865 140.169 113.323C140.334 112.781 140.613 112.281 140.986 111.856C141.36 111.431 141.819 111.09 142.335 110.857C142.85 110.624 143.409 110.503 143.974 110.504H163.396C163.963 110.505 164.523 110.384 165.04 110.15C165.556 109.916 166.017 109.574 166.391 109.147C166.765 108.72 167.044 108.218 167.209 107.675C167.374 107.131 167.421 106.559 167.347 105.996ZM62.7343 92.587L58.2789 57.958C58.2066 57.3965 58.2545 56.8261 58.4195 56.2846C58.5844 55.7432 58.8627 55.2432 59.2356 54.8179C59.6086 54.3927 60.0677 54.052 60.5824 53.8186C61.0971 53.5852 61.6555 53.4643 62.2204 53.4642H114.212C115.178 53.4633 116.112 53.8155 116.839 54.4548C117.565 55.0942 118.034 55.9769 118.158 56.9378L122.604 91.5716C122.676 92.1335 122.628 92.7044 122.463 93.2462C122.298 93.788 122.019 94.2882 121.645 94.7135C121.272 95.1388 120.812 95.4794 120.297 95.7125C119.782 95.9457 119.223 96.066 118.657 96.0655H66.6807C65.7134 96.0652 64.7794 95.7119 64.0531 95.0717C63.3268 94.4316 62.858 93.5483 62.7343 92.587Z" fill="black"/>
<path d="M75.7948 129.326L75.31 125.633L75.7948 125.57L76.2796 129.262L75.7948 129.326ZM143.814 79.6752L142.107 66.4366L142.592 66.3783L144.294 79.612L143.814 79.6752ZM63.18 31.3655L62.4868 26.0507L62.9716 25.9875L63.66 31.3315L63.18 31.3655ZM62.0747 22.7811L60.9111 13.7595L61.3959 13.6963L62.5546 22.718L62.0747 22.7811Z" fill="#A6DD27"/>
<path opacity="0.3" d="M75.7948 129.326L75.31 125.633L75.7948 125.57L76.2796 129.262L75.7948 129.326ZM143.814 79.6752L142.107 66.4366L142.592 66.3783L144.294 79.612L143.814 79.6752ZM63.18 31.3655L62.4868 26.0507L62.9716 25.9875L63.66 31.3315L63.18 31.3655ZM62.0747 22.7811L60.9111 13.7595L61.3959 13.6963L62.5546 22.718L62.0747 22.7811Z" fill="black"/>
<path d="M174.477 105.996L173.643 99.5391C173.519 98.5778 173.05 97.6945 172.324 97.0544C171.598 96.4142 170.664 96.061 169.696 96.0607H148.219C147.253 96.0604 146.32 95.7077 145.595 95.0684C144.87 94.4291 144.401 93.5471 144.278 92.5871L139.817 57.958C139.746 57.3963 139.794 56.8258 139.96 56.2843C140.126 55.7429 140.404 55.243 140.778 54.8178C141.151 54.3927 141.61 54.0521 142.125 53.8187C142.64 53.5854 143.199 53.4645 143.764 53.4642H163.185C163.751 53.4641 164.31 53.3431 164.825 53.1094C165.34 52.8757 165.8 52.5347 166.174 52.109C166.547 51.6834 166.826 51.1828 166.991 50.6408C167.156 50.0988 167.204 49.5277 167.132 48.9656L166.274 42.5042C166.151 41.5438 165.683 40.6611 164.957 40.0217C164.232 39.3822 163.298 39.0299 162.332 39.0306H140.855C139.888 39.0303 138.954 38.6771 138.227 38.0369C137.501 37.3967 137.032 36.5135 136.909 35.5522L132.783 3.48824C132.659 2.52693 132.19 1.64366 131.464 1.0035C130.738 0.363336 129.804 0.010093 128.836 0.00978851H122.456C121.891 0.00996657 121.332 0.130929 120.816 0.364611C120.301 0.598293 119.842 0.93933 119.468 1.365C119.095 1.79067 118.816 2.2912 118.651 2.83323C118.486 3.37526 118.438 3.94636 118.51 4.50846L122.388 34.5222C122.461 35.0843 122.413 35.6554 122.248 36.1975C122.082 36.7395 121.804 37.24 121.43 37.6657C121.057 38.0914 120.597 38.4324 120.082 38.6661C119.567 38.8998 119.008 39.0207 118.442 39.0209H66.4413C65.4746 39.0234 64.54 38.6733 63.812 38.0359C63.084 37.3985 62.6124 36.5173 62.4852 35.557L58.3595 3.4931C58.2358 2.53179 57.767 1.64852 57.0407 1.00836C56.3144 0.368195 55.3804 0.0149523 54.4131 0.0146477H48.0427C47.4773 0.0147306 46.9184 0.135673 46.4033 0.3694C45.8883 0.603126 45.4289 0.944258 45.0559 1.37003C44.6828 1.7958 44.4047 2.29641 44.2401 2.83845C44.0755 3.38049 44.0281 3.95148 44.1012 4.51331L47.9797 34.5271C48.052 35.0892 48.004 35.6603 47.8388 36.2023C47.6735 36.7443 47.395 37.2449 47.0215 37.6705C46.6481 38.0962 46.1885 38.4373 45.6732 38.6709C45.1579 38.9046 44.5989 39.0256 44.0333 39.0258H24.5973C24.0319 39.0252 23.4729 39.1456 22.9577 39.3787C22.4424 39.6118 21.9827 39.9524 21.6092 40.3777C21.2357 40.803 20.957 41.3032 20.7918 41.845C20.6265 42.3868 20.5785 42.9577 20.6509 43.5196L21.4799 49.9761C21.6036 50.9374 22.0724 51.8206 22.7987 52.4608C23.525 53.101 24.459 53.4542 25.4263 53.4545H46.9034C47.8702 53.4536 48.8042 53.8058 49.5306 54.4452C50.257 55.0846 50.726 55.9673 50.8498 56.9281L55.3052 91.5717C55.3783 92.1333 55.331 92.7041 55.1663 93.2459C55.0017 93.7877 54.7235 94.288 54.3504 94.7134C53.9772 95.1388 53.5178 95.4795 53.0027 95.7127C52.4877 95.9458 51.9289 96.0661 51.3637 96.0655H31.9421C31.3767 96.0656 30.8178 96.1866 30.3028 96.4203C29.7877 96.654 29.3283 96.9952 28.9553 97.4209C28.5822 97.8467 28.3041 98.3473 28.1395 98.8893C27.9749 99.4314 27.9275 100.002 28.0006 100.564L28.8297 107.021C28.9534 107.982 29.4222 108.865 30.1484 109.505C30.8747 110.146 31.8088 110.499 32.776 110.499H54.2434C55.2097 110.498 56.1431 110.851 56.8687 111.49C57.5943 112.13 58.0623 113.012 58.185 113.973L62.3155 146.037C62.4392 146.998 62.9081 147.881 63.6343 148.521C64.3606 149.162 65.2946 149.515 66.2619 149.515H72.6663C73.2318 149.515 73.7909 149.394 74.3061 149.16C74.8214 148.927 75.2811 148.586 75.6545 148.16C76.0279 147.734 76.3065 147.234 76.4717 146.692C76.6369 146.15 76.685 145.579 76.6126 145.016L72.7341 115.003C72.6617 114.441 72.7098 113.87 72.875 113.328C73.0403 112.786 73.3189 112.286 73.6924 111.861C74.0659 111.436 74.5256 111.095 75.0409 110.862C75.5562 110.629 76.1151 110.508 76.6805 110.509H128.662C129.628 110.509 130.561 110.862 131.286 111.501C132.011 112.14 132.48 113.022 132.603 113.982L136.734 146.046C136.857 147.007 137.324 147.89 138.05 148.531C138.775 149.171 139.709 149.524 140.676 149.525H147.056C147.621 149.525 148.18 149.404 148.696 149.17C149.211 148.936 149.67 148.595 150.044 148.17C150.417 147.744 150.696 147.243 150.861 146.701C151.026 146.159 151.074 145.588 151.002 145.026L147.124 115.012C147.051 114.451 147.099 113.88 147.264 113.339C147.429 112.798 147.707 112.298 148.08 111.872C148.453 111.447 148.912 111.106 149.427 110.873C149.942 110.64 150.5 110.519 151.065 110.519H170.491C171.063 110.524 171.628 110.407 172.15 110.174C172.672 109.942 173.138 109.599 173.516 109.17C173.894 108.741 174.175 108.235 174.341 107.688C174.507 107.14 174.553 106.563 174.477 105.996ZM69.8641 92.5871L65.3941 57.958C65.3225 57.3963 65.3711 56.8258 65.5367 56.2843C65.7022 55.7429 65.9809 55.243 66.3543 54.8178C66.7276 54.3927 67.187 54.0521 67.7019 53.8187C68.2168 53.5854 68.7753 53.4645 69.3405 53.4642H121.317C122.284 53.4644 123.217 53.817 123.943 54.4561C124.669 55.0953 125.139 55.9774 125.263 56.9378L129.719 91.5717C129.791 92.1332 129.743 92.7036 129.578 93.2451C129.413 93.7865 129.135 94.2865 128.762 94.7118C128.389 95.137 127.93 95.4777 127.415 95.7111C126.901 95.9445 126.342 96.0654 125.777 96.0655H73.7862C72.8186 96.0663 71.884 95.7134 71.1575 95.073C70.431 94.4327 69.9625 93.5488 69.8398 92.5871H69.8641Z" fill="#A6DD27"/>
<path opacity="0.3" d="M174.477 105.996L173.643 99.5391C173.519 98.5778 173.05 97.6945 172.324 97.0544C171.598 96.4142 170.664 96.061 169.696 96.0607H148.219C147.253 96.0604 146.32 95.7077 145.595 95.0684C144.87 94.4291 144.401 93.5471 144.278 92.5871L139.817 57.958C139.746 57.3963 139.794 56.8258 139.96 56.2843C140.126 55.7429 140.404 55.243 140.778 54.8178C141.151 54.3927 141.61 54.0521 142.125 53.8187C142.64 53.5854 143.199 53.4645 143.764 53.4642H163.185C163.751 53.4641 164.31 53.3431 164.825 53.1094C165.34 52.8757 165.8 52.5347 166.174 52.109C166.547 51.6834 166.826 51.1828 166.991 50.6408C167.156 50.0988 167.204 49.5277 167.132 48.9656L166.274 42.5042C166.151 41.5438 165.683 40.6611 164.957 40.0217C164.232 39.3822 163.298 39.0299 162.332 39.0306H140.855C139.888 39.0303 138.954 38.6771 138.227 38.0369C137.501 37.3967 137.032 36.5135 136.909 35.5522L132.783 3.48824C132.659 2.52693 132.19 1.64366 131.464 1.0035C130.738 0.363336 129.804 0.010093 128.836 0.00978851H122.456C121.891 0.00996657 121.332 0.130929 120.816 0.364611C120.301 0.598293 119.842 0.93933 119.468 1.365C119.095 1.79067 118.816 2.2912 118.651 2.83323C118.486 3.37526 118.438 3.94636 118.51 4.50846L122.388 34.5222C122.461 35.0843 122.413 35.6554 122.248 36.1975C122.082 36.7395 121.804 37.24 121.43 37.6657C121.057 38.0914 120.597 38.4324 120.082 38.6661C119.567 38.8998 119.008 39.0207 118.442 39.0209H66.4413C65.4746 39.0234 64.54 38.6733 63.812 38.0359C63.084 37.3985 62.6124 36.5173 62.4852 35.557L58.3595 3.4931C58.2358 2.53179 57.767 1.64852 57.0407 1.00836C56.3144 0.368195 55.3804 0.0149523 54.4131 0.0146477H48.0427C47.4773 0.0147306 46.9184 0.135673 46.4033 0.3694C45.8883 0.603126 45.4289 0.944258 45.0559 1.37003C44.6828 1.7958 44.4047 2.29641 44.2401 2.83845C44.0755 3.38049 44.0281 3.95148 44.1012 4.51331L47.9797 34.5271C48.052 35.0892 48.004 35.6603 47.8388 36.2023C47.6735 36.7443 47.395 37.2449 47.0215 37.6705C46.6481 38.0962 46.1885 38.4373 45.6732 38.6709C45.1579 38.9046 44.5989 39.0256 44.0333 39.0258H24.5973C24.0319 39.0252 23.4729 39.1456 22.9577 39.3787C22.4424 39.6118 21.9827 39.9524 21.6092 40.3777C21.2357 40.803 20.957 41.3032 20.7918 41.845C20.6265 42.3868 20.5785 42.9577 20.6509 43.5196L21.4799 49.9761C21.6036 50.9374 22.0724 51.8206 22.7987 52.4608C23.525 53.101 24.459 53.4542 25.4263 53.4545H46.9034C47.8702 53.4536 48.8042 53.8058 49.5306 54.4452C50.257 55.0846 50.726 55.9673 50.8498 56.9281L55.3052 91.5717C55.3783 92.1333 55.331 92.7041 55.1663 93.2459C55.0017 93.7877 54.7235 94.288 54.3504 94.7134C53.9772 95.1388 53.5178 95.4795 53.0027 95.7127C52.4877 95.9458 51.9289 96.0661 51.3637 96.0655H31.9421C31.3767 96.0656 30.8178 96.1866 30.3028 96.4203C29.7877 96.654 29.3283 96.9952 28.9553 97.4209C28.5822 97.8467 28.3041 98.3473 28.1395 98.8893C27.9749 99.4314 27.9275 100.002 28.0006 100.564L28.8297 107.021C28.9534 107.982 29.4222 108.865 30.1484 109.505C30.8747 110.146 31.8088 110.499 32.776 110.499H54.2434C55.2097 110.498 56.1431 110.851 56.8687 111.49C57.5943 112.13 58.0623 113.012 58.185 113.973L62.3155 146.037C62.4392 146.998 62.9081 147.881 63.6343 148.521C64.3606 149.162 65.2946 149.515 66.2619 149.515H72.6663C73.2318 149.515 73.7909 149.394 74.3061 149.16C74.8214 148.927 75.2811 148.586 75.6545 148.16C76.0279 147.734 76.3065 147.234 76.4717 146.692C76.6369 146.15 76.685 145.579 76.6126 145.016L72.7341 115.003C72.6617 114.441 72.7098 113.87 72.875 113.328C73.0403 112.786 73.3189 112.286 73.6924 111.861C74.0659 111.436 74.5256 111.095 75.0409 110.862C75.5562 110.629 76.1151 110.508 76.6805 110.509H128.662C129.628 110.509 130.561 110.862 131.286 111.501C132.011 112.14 132.48 113.022 132.603 113.982L136.734 146.046C136.857 147.007 137.324 147.89 138.05 148.531C138.775 149.171 139.709 149.524 140.676 149.525H147.056C147.621 149.525 148.18 149.404 148.696 149.17C149.211 148.936 149.67 148.595 150.044 148.17C150.417 147.744 150.696 147.243 150.861 146.701C151.026 146.159 151.074 145.588 151.002 145.026L147.124 115.012C147.051 114.451 147.099 113.88 147.264 113.339C147.429 112.798 147.707 112.298 148.08 111.872C148.453 111.447 148.912 111.106 149.427 110.873C149.942 110.64 150.5 110.519 151.065 110.519H170.491C171.063 110.524 171.628 110.407 172.15 110.174C172.672 109.942 173.138 109.599 173.516 109.17C173.894 108.741 174.175 108.235 174.341 107.688C174.507 107.14 174.553 106.563 174.477 105.996ZM69.8641 92.5871L65.3941 57.958C65.3225 57.3963 65.3711 56.8258 65.5367 56.2843C65.7022 55.7429 65.9809 55.243 66.3543 54.8178C66.7276 54.3927 67.187 54.0521 67.7019 53.8187C68.2168 53.5854 68.7753 53.4645 69.3405 53.4642H121.317C122.284 53.4644 123.217 53.817 123.943 54.4561C124.669 55.0953 125.139 55.9774 125.263 56.9378L129.719 91.5717C129.791 92.1332 129.743 92.7036 129.578 93.2451C129.413 93.7865 129.135 94.2865 128.762 94.7118C128.389 95.137 127.93 95.4777 127.415 95.7111C126.901 95.9445 126.342 96.0654 125.777 96.0655H73.7862C72.8186 96.0663 71.884 95.7134 71.1575 95.073C70.431 94.4327 69.9625 93.5488 69.8398 92.5871H69.8641Z" fill="black"/>
<path d="M147.058 148.101H140.678C140.05 148.1 139.444 147.87 138.973 147.455C138.502 147.039 138.198 146.465 138.118 145.842L133.987 113.778C133.818 112.48 133.184 111.289 132.202 110.425C131.221 109.562 129.96 109.085 128.654 109.085H76.673C75.909 109.084 75.1536 109.246 74.4572 109.561C73.7609 109.877 73.1396 110.337 72.6349 110.912C72.1301 111.486 71.7535 112.162 71.5303 112.894C71.307 113.627 71.2421 114.398 71.3401 115.157L75.2186 145.171C75.2655 145.536 75.2341 145.907 75.1266 146.258C75.0191 146.61 74.8379 146.935 74.5952 147.211C74.3524 147.487 74.0536 147.708 73.7188 147.859C73.3841 148.009 73.021 148.087 72.6539 148.086H66.2689C65.6404 148.087 65.0333 147.857 64.5612 147.442C64.0891 147.026 63.7845 146.452 63.7043 145.827L59.5786 113.763C59.4072 112.467 58.7722 111.276 57.7915 110.413C56.8107 109.55 55.5509 109.073 54.2456 109.07H32.7685C32.1406 109.068 31.5345 108.839 31.0629 108.423C30.5912 108.008 30.286 107.435 30.2039 106.811L29.3748 100.355C29.328 99.9901 29.3592 99.6199 29.4664 99.2685C29.5736 98.9171 29.7544 98.5927 29.9966 98.3168C30.2389 98.041 30.537 97.82 30.8712 97.6688C31.2054 97.5175 31.5679 97.4394 31.9346 97.4397H51.361C52.1248 97.4397 52.8798 97.2766 53.5758 96.9613C54.2717 96.6461 54.8927 96.1858 55.3973 95.6113C55.9018 95.0367 56.2785 94.361 56.502 93.6291C56.7256 92.8973 56.791 92.1261 56.6939 91.367L52.2337 56.7428C52.0644 55.4449 51.4301 54.2528 50.4491 53.3886C49.468 52.5244 48.207 52.0469 46.9007 52.0449H25.4236C24.7967 52.0443 24.1913 51.8153 23.7204 51.4006C23.2494 50.9859 22.945 50.4137 22.8638 49.7908L22.0299 43.3294C21.983 42.9645 22.0144 42.5939 22.1219 42.2421C22.2294 41.8904 22.4106 41.5657 22.6533 41.2898C22.8961 41.0138 23.1949 40.793 23.5297 40.6421C23.8644 40.4911 24.2275 40.4135 24.5946 40.4145H44.0161C44.7801 40.4153 45.5355 40.2527 46.2319 39.9377C46.9282 39.6227 47.5495 39.1624 48.0542 38.5877C48.559 38.0129 48.9356 37.3369 49.1588 36.6047C49.3821 35.8725 49.447 35.1011 49.349 34.3418L45.4706 4.32799C45.4237 3.96355 45.4549 3.59329 45.5621 3.24189C45.6693 2.8905 45.8501 2.56606 46.0924 2.29021C46.3346 2.01436 46.6328 1.79344 46.967 1.64219C47.3011 1.49094 47.6637 1.41284 48.0304 1.41309H54.4105C55.0384 1.41473 55.6445 1.64461 56.1161 2.06005C56.5877 2.4755 56.893 3.04829 56.9751 3.67214L61.1009 35.7361C61.2712 37.0331 61.9059 38.224 62.8869 39.0872C63.8678 39.9504 65.1283 40.4273 66.4338 40.4291H118.435C119.199 40.4298 119.954 40.2673 120.65 39.9523C121.347 39.6373 121.968 39.177 122.473 38.6023C122.977 38.0275 123.354 37.3515 123.577 36.6193C123.801 35.8871 123.865 35.1156 123.768 34.3563L119.889 4.34256C119.842 3.97812 119.873 3.60786 119.981 3.25647C120.088 2.90508 120.269 2.58063 120.511 2.30478C120.753 2.02893 121.051 1.80802 121.385 1.65677C121.72 1.50552 122.082 1.42741 122.449 1.42766H128.829C129.457 1.43033 130.062 1.66057 130.534 2.07582C131.005 2.49108 131.31 3.06328 131.394 3.68671L135.519 35.7506C135.689 37.0481 136.323 38.2396 137.304 39.103C138.285 39.9664 139.546 40.4429 140.852 40.4436H162.358C162.986 40.4454 163.591 40.6755 164.062 41.091C164.533 41.5065 164.837 42.0792 164.918 42.7027L165.752 49.1446C165.799 49.5095 165.768 49.8801 165.66 50.2319C165.553 50.5836 165.372 50.9083 165.129 51.1842C164.886 51.4602 164.587 51.681 164.252 51.8319C163.918 51.9829 163.555 52.0605 163.188 52.0595H143.742C142.978 52.0595 142.223 52.2226 141.527 52.5379C140.831 52.8531 140.21 53.3134 139.705 53.888C139.201 54.4625 138.824 55.1382 138.601 55.8701C138.377 56.6019 138.312 57.3731 138.409 58.1322L142.869 92.7613C143.038 94.0587 143.673 95.2502 144.654 96.1136C145.635 96.977 146.896 97.4535 148.202 97.4543H169.679C170.307 97.4549 170.914 97.6844 171.386 98.1C171.858 98.5157 172.163 99.0891 172.244 99.7133L173.073 106.17C173.12 106.534 173.088 106.905 172.981 107.256C172.874 107.607 172.693 107.932 172.451 108.208C172.209 108.483 171.911 108.704 171.576 108.856C171.242 109.007 170.88 109.085 170.513 109.085H151.087C150.322 109.082 149.566 109.244 148.869 109.558C148.172 109.873 147.55 110.333 147.045 110.908C146.54 111.483 146.163 112.16 145.941 112.893C145.718 113.626 145.654 114.398 145.754 115.157L149.632 145.171C149.678 145.536 149.645 145.906 149.537 146.257C149.429 146.608 149.248 146.932 149.005 147.208C148.763 147.483 148.465 147.704 148.13 147.855C147.796 148.007 147.434 148.085 147.068 148.086L147.058 148.101ZM76.673 108.973H128.664C129.998 108.976 131.285 109.464 132.287 110.347C133.288 111.23 133.936 112.447 134.109 113.773L138.239 145.837C138.315 146.429 138.603 146.973 139.048 147.368C139.494 147.764 140.068 147.984 140.663 147.989H147.043C147.392 147.987 147.736 147.911 148.053 147.765C148.37 147.62 148.653 147.409 148.882 147.145C149.112 146.882 149.282 146.573 149.383 146.238C149.484 145.904 149.513 145.552 149.467 145.205L145.589 115.191C145.489 114.415 145.555 113.627 145.783 112.879C146.012 112.13 146.396 111.439 146.912 110.852C147.428 110.264 148.062 109.794 148.774 109.471C149.485 109.149 150.257 108.982 151.038 108.983H170.46C170.808 108.981 171.153 108.905 171.47 108.759C171.787 108.614 172.069 108.402 172.299 108.139C172.528 107.876 172.699 107.567 172.8 107.232C172.9 106.898 172.929 106.545 172.884 106.199L172.05 99.7425C171.974 99.1507 171.686 98.6066 171.24 98.211C170.795 97.8153 170.221 97.5948 169.626 97.5903H148.149C146.815 97.5864 145.528 97.0977 144.527 96.215C143.526 95.3322 142.878 94.1154 142.704 92.7904L138.244 58.1614C138.144 57.3854 138.21 56.5969 138.439 55.8486C138.667 55.1003 139.051 54.4094 139.567 53.8218C140.083 53.2343 140.718 52.7637 141.429 52.4413C142.141 52.119 142.912 51.9524 143.693 51.9526H163.115C163.464 51.9508 163.808 51.8746 164.125 51.7291C164.442 51.5837 164.725 51.3723 164.954 51.109C165.183 50.8457 165.354 50.5366 165.455 50.2021C165.556 49.8675 165.584 49.5154 165.539 49.1689L164.783 42.7027C164.704 42.1118 164.416 41.5688 163.971 41.1735C163.526 40.7782 162.953 40.557 162.358 40.5505H140.881C139.547 40.5478 138.259 40.0596 137.257 39.1768C136.254 38.2939 135.606 37.0765 135.432 35.7506L131.306 3.68671C131.229 3.09537 130.941 2.55188 130.496 2.15639C130.05 1.7609 129.477 1.54005 128.882 1.53454H122.459C122.11 1.53717 121.766 1.61387 121.449 1.75958C121.133 1.90528 120.851 2.11668 120.621 2.37979C120.392 2.64291 120.221 2.95175 120.12 3.28591C120.019 3.62007 119.99 3.97194 120.034 4.31827L123.913 34.332C124.016 35.112 123.951 35.9051 123.723 36.6578C123.494 37.4105 123.108 38.1054 122.588 38.6957C122.069 39.2859 121.43 39.7577 120.713 40.0794C119.997 40.401 119.22 40.565 118.435 40.5602H66.4435C65.109 40.5575 63.8209 40.0693 62.8187 39.1865C61.8164 38.3037 61.1681 37.0862 60.9942 35.7604L56.8685 3.69643C56.7913 3.10508 56.5035 2.5616 56.0581 2.16611C55.6126 1.77062 55.0395 1.54977 54.4444 1.54426H48.0449C47.6962 1.54611 47.3519 1.62229 47.0348 1.76774C46.7177 1.91319 46.4352 2.12459 46.2059 2.38788C45.9766 2.65118 45.8059 2.96034 45.705 3.29484C45.6041 3.62934 45.5754 3.98152 45.6208 4.32799L49.4993 34.3418C49.6011 35.121 49.5352 35.913 49.306 36.6645C49.0768 37.4161 48.6897 38.1097 48.1707 38.6988C47.6517 39.288 47.0128 39.7589 46.2971 40.08C45.5813 40.401 44.8052 40.5648 44.021 40.5602H24.5994C24.251 40.5629 23.907 40.6396 23.5903 40.7853C23.2736 40.931 22.9914 41.1424 22.7623 41.4055C22.5332 41.6686 22.3624 41.9774 22.2612 42.3116C22.16 42.6458 22.1308 42.9976 22.1754 43.344L22.985 49.7908C23.0622 50.3821 23.35 50.9256 23.7954 51.3211C24.2409 51.7166 24.814 51.9374 25.4091 51.9429H46.8862C48.2207 51.9456 49.5087 52.4338 50.511 53.3166C51.5133 54.1995 52.1616 55.417 52.3355 56.7428L56.7909 91.3718C56.8916 92.1476 56.8259 92.9359 56.5984 93.6842C56.3708 94.4325 55.9865 95.1236 55.4712 95.7112C54.9559 96.2989 54.3215 96.7696 53.6102 97.0919C52.8989 97.4143 52.1271 97.5809 51.3465 97.5806H31.9443C31.5956 97.5824 31.2513 97.6586 30.9342 97.8041C30.6171 97.9495 30.3346 98.1609 30.1053 98.4242C29.876 98.6875 29.7053 98.9967 29.6044 99.3312C29.5036 99.6657 29.4749 100.018 29.5203 100.364L30.3493 106.821C30.4264 107.412 30.7143 107.956 31.1597 108.351C31.6052 108.747 32.1782 108.967 32.7734 108.973H54.2456C55.5795 108.976 56.867 109.464 57.8685 110.347C58.87 111.23 59.5173 112.447 59.6901 113.773L63.8206 145.837C63.8968 146.429 64.1843 146.973 64.63 147.368C65.0757 147.764 65.6493 147.984 66.2447 147.989H72.6684C73.0172 147.987 73.3615 147.911 73.6786 147.765C73.9956 147.62 74.2782 147.409 74.5075 147.145C74.7367 146.882 74.9075 146.573 75.0083 146.238C75.1092 145.904 75.1379 145.552 75.0925 145.205L71.214 115.191C71.1141 114.415 71.1804 113.627 71.4086 112.879C71.6367 112.13 72.0215 111.439 72.5371 110.852C73.0528 110.264 73.6876 109.794 74.3991 109.471C75.1106 109.149 75.8825 108.982 76.6633 108.983L76.673 108.973ZM125.779 97.5806H73.7884C72.4539 97.5778 71.1658 97.0897 70.1635 96.2069C69.1613 95.324 68.5129 94.1065 68.3391 92.7807L63.8788 58.1517C63.7789 57.3756 63.8452 56.5872 64.0734 55.8389C64.3015 55.0906 64.6863 54.3996 65.2019 53.8121C65.7176 53.2246 66.3524 52.7539 67.0639 52.4316C67.7754 52.1093 68.5473 51.9427 69.3281 51.9429H121.319C122.654 51.9456 123.942 52.4338 124.944 53.3166C125.946 54.1995 126.595 55.417 126.769 56.7428L131.224 91.3718C131.324 92.1474 131.258 92.9355 131.03 93.6834C130.802 94.4314 130.418 95.1221 129.902 95.7096C129.387 96.297 128.753 96.7678 128.042 97.0904C127.331 97.413 126.56 97.5801 125.779 97.5806ZM69.3281 52.0644C68.5643 52.0644 67.8093 52.2274 67.1133 52.5427C66.4174 52.858 65.7964 53.3182 65.2919 53.8928C64.7873 54.4674 64.4107 55.1431 64.1871 55.8749C63.9635 56.6068 63.8981 57.3779 63.9952 58.1371L68.4554 92.7661C68.6258 94.0632 69.2605 95.254 70.2415 96.1173C71.2224 96.9805 72.4828 97.4574 73.7884 97.4591H125.779C126.544 97.4599 127.299 97.2974 127.995 96.9823C128.692 96.6673 129.313 96.2071 129.818 95.6323C130.322 95.0576 130.699 94.3816 130.922 93.6494C131.145 92.9172 131.21 92.1457 131.112 91.3864L126.657 56.7622C126.488 55.4643 125.853 54.2723 124.872 53.408C123.891 52.5438 122.63 52.0663 121.324 52.0644H69.3281Z" fill="#A6DD27"/>
<path d="M106.57 129.388L110.376 131.618L116.121 123.126L112.315 120.891L106.57 129.388Z" fill="#E4897B"/>
<path d="M110.512 131.491L107.385 127.638C107.332 127.571 107.257 127.525 107.173 127.51C107.089 127.495 107.002 127.511 106.929 127.555L103.535 129.596C103.452 129.65 103.38 129.722 103.326 129.806C103.271 129.89 103.235 129.985 103.22 130.084C103.204 130.183 103.209 130.284 103.235 130.381C103.261 130.477 103.308 130.567 103.371 130.645C104.486 131.967 105.092 132.55 106.469 134.245C107.312 135.29 108.956 137.534 110.129 138.972C111.302 140.41 112.781 139.327 112.422 138.622C110.812 135.465 110.749 133.764 110.774 132.234C110.778 131.963 110.685 131.699 110.512 131.491Z" fill="#263238"/>
<path d="M111.942 133.906H111.85C111.229 133.809 110.57 132.721 110.235 132.084C110.228 132.071 110.225 132.056 110.227 132.041C110.229 132.026 110.235 132.012 110.245 132.001C110.255 131.989 110.269 131.982 110.284 131.978C110.298 131.975 110.314 131.977 110.328 131.982C110.531 132.07 112.325 132.862 112.436 133.44C112.446 133.492 112.442 133.546 112.425 133.596C112.408 133.646 112.379 133.691 112.34 133.726C112.289 133.782 112.228 133.826 112.159 133.857C112.091 133.888 112.017 133.905 111.942 133.906ZM110.488 132.196C110.997 133.114 111.52 133.692 111.893 133.751C111.96 133.762 112.028 133.757 112.092 133.735C112.155 133.713 112.212 133.675 112.257 133.624C112.278 133.605 112.293 133.58 112.303 133.553C112.312 133.526 112.315 133.497 112.31 133.469C112.218 133.08 111.089 132.483 110.488 132.196Z" fill="#A6DD27"/>
<path d="M111.729 132.381C111.229 132.377 110.735 132.277 110.274 132.085C110.263 132.08 110.253 132.072 110.246 132.062C110.239 132.051 110.235 132.039 110.235 132.027C110.233 132.014 110.235 132 110.24 131.988C110.245 131.976 110.254 131.966 110.264 131.959C110.308 131.93 111.287 131.264 111.981 131.4C112.079 131.419 112.173 131.457 112.256 131.513C112.34 131.569 112.411 131.641 112.465 131.725C112.616 131.954 112.558 132.1 112.465 132.177C112.255 132.337 111.991 132.41 111.729 132.381ZM110.454 132.007C111.05 132.245 112.146 132.328 112.369 132.08C112.369 132.056 112.451 131.988 112.33 131.808C112.287 131.74 112.23 131.681 112.164 131.636C112.097 131.591 112.021 131.56 111.942 131.546C111.408 131.548 110.888 131.716 110.454 132.027V132.007Z" fill="#A6DD27"/>
<path d="M100.595 62.4851L100.779 63.2235L100.988 64.0203C101.128 64.5547 101.288 65.0939 101.448 65.6332C101.771 66.7117 102.112 67.7886 102.471 68.8639C102.849 69.9327 103.213 71.0112 103.625 72.0751C103.824 72.6047 104.022 73.1439 104.231 73.6735L104.478 74.3099C104.53 74.4196 104.595 74.5224 104.672 74.6159C105.277 75.2258 106.011 75.6908 106.82 75.9762C107.812 76.3804 108.835 76.7053 109.879 76.9479C110.955 77.2005 112.061 77.4094 113.181 77.5843C114.3 77.7592 115.449 77.8952 116.574 78.0167L116.613 80.3049C114.195 80.5568 111.758 80.5568 109.341 80.3049C108.076 80.1776 106.824 79.9353 105.603 79.581C104.936 79.3822 104.287 79.1271 103.664 78.8183C102.949 78.4718 102.294 78.0125 101.724 77.458C101.395 77.1293 101.109 76.7585 100.876 76.3552C100.81 76.2499 100.751 76.1413 100.697 76.0297L100.585 75.8013L100.391 75.3981C100.129 74.8589 99.8676 74.3196 99.6252 73.7706C99.1404 72.6727 98.6556 71.5699 98.2289 70.4428C97.8023 69.3157 97.3902 68.1789 97.0218 67.0421C96.8424 66.4591 96.6727 65.8712 96.537 65.2785L96.3042 64.3749C96.2364 64.0591 96.1733 63.7871 96.1055 63.4033L100.595 62.4851Z" fill="#E4897B"/>
<path d="M99.1588 57.6713C100.977 58.1328 102.252 65.6338 102.252 65.6338L97.239 69.0345C97.239 69.0345 92.4345 61.4703 93.8453 59.4639C95.29 57.3943 96.5069 56.9911 99.1588 57.6713Z" fill="#A6DD27"/>
<path opacity="0.2" d="M99.1588 57.6713C100.977 58.1328 102.252 65.6338 102.252 65.6338L97.239 69.0345C97.239 69.0345 92.4345 61.4703 93.8453 59.4639C95.29 57.3943 96.5069 56.9911 99.1588 57.6713Z" fill="black"/>
<path d="M99.3377 60.3968L95.4592 61.3004L95.0859 65.1141C95.746 66.462 96.4742 67.7755 97.2676 69.0492L100.307 66.9796C100.147 65.2258 99.8225 61.5822 99.3377 60.3968Z" fill="#A6DD27"/>
<path opacity="0.3" d="M99.3377 60.3968L95.4592 61.3004L95.0859 65.1141C95.746 66.462 96.4742 67.7755 97.2676 69.0492L100.307 66.9796C100.147 65.2258 99.8225 61.5822 99.3377 60.3968Z" fill="black"/>
<path d="M115.908 77.9691L119.035 74.7918L119.447 79.2662C119.447 79.2662 117.101 80.8597 115.477 80.0047L115.908 77.9691Z" fill="#E4897B"/>
<path d="M122.715 74.3104L122.855 78.0803L119.447 79.2608L119.035 74.7865L122.715 74.3104Z" fill="#E4897B"/>
<path d="M100.293 138.127H104.705L106.125 127.886H101.709L100.293 138.127Z" fill="#E4897B"/>
<path d="M104.992 136.807L100.629 134.47C100.554 134.429 100.467 134.417 100.384 134.436C100.301 134.454 100.228 134.503 100.178 134.572L97.8365 137.774C97.7807 137.857 97.7429 137.951 97.7256 138.049C97.7083 138.148 97.7119 138.249 97.7361 138.346C97.7604 138.443 97.8047 138.534 97.8662 138.613C97.9278 138.692 98.0052 138.757 98.0935 138.804C99.6303 139.591 100.416 139.892 102.34 140.917C103.523 141.549 106.49 143.293 108.129 144.167C109.768 145.042 110.708 143.463 110.107 142.953C107.407 140.669 106.098 138.808 105.53 137.395C105.428 137.14 105.237 136.931 104.992 136.807Z" fill="#263238"/>
<path d="M80.6472 40.4004C80.5357 45.2585 74.6016 43.2521 73.9374 48.8487C73.5641 51.9919 69.7632 52.3174 69.0893 55.1643C68.43 57.9189 71.111 59.9205 69.0893 63.3504C66.3841 67.9413 64.8715 75.9476 80.0509 76.7783C91.3373 77.3953 95.3079 65.9058 93.3929 58.8468C91.4779 51.7879 90.4113 50.6997 92.5105 48.7564C94.6098 46.8131 97.9744 45.8415 96.8981 39.9048C96.0642 35.3138 94.0377 35.8531 94.0377 35.8531C93.9359 33.3171 80.9139 29.5909 80.6472 40.4004Z" fill="#263238"/>
<path d="M116.12 123.126L113.158 127.503L109.348 125.273L112.31 120.891L116.12 123.126Z" fill="#CE6F64"/>
<path d="M101.709 127.892H106.125L105.388 133.168H100.977L101.709 127.892Z" fill="#CE6F64"/>
<path d="M99.157 57.6722C99.157 57.6722 101.261 58.4155 97.0481 84.3581H79.11C79.4106 77.0709 79.4155 72.5431 75.9297 57.541C78.4394 57.0236 80.9832 56.6891 83.5412 56.5403C86.2511 56.3457 88.9713 56.3457 91.6812 56.5403C95.1912 56.8609 99.157 57.6722 99.157 57.6722Z" fill="#A6DD27"/>
<path opacity="0.2" d="M99.157 57.6722C99.157 57.6722 101.261 58.4155 97.0481 84.3581H79.11C79.4106 77.0709 79.4155 72.5431 75.9297 57.541C78.4394 57.0236 80.9832 56.6891 83.5412 56.5403C86.2511 56.3457 88.9713 56.3457 91.6812 56.5403C95.1912 56.8609 99.157 57.6722 99.157 57.6722Z" fill="black"/>
<path d="M84.3634 47.362C84.8773 49.9854 85.3912 54.7901 83.5586 56.5439C83.5586 56.5439 84.2761 59.2062 89.1388 59.2062C93.822 59.2062 91.6986 56.5439 91.6986 56.5439C88.7897 55.8443 88.8527 53.6727 89.3618 51.6323L84.3634 47.362Z" fill="#E4897B"/>
<path d="M86.4007 49.1019L89.358 51.6282C89.2332 52.1058 89.1505 52.5935 89.1108 53.0856C87.9909 52.9253 86.4588 51.6962 86.3425 50.5254C86.277 50.0512 86.2967 49.5691 86.4007 49.1019Z" fill="#CE6F64"/>
<path d="M84.0595 40.4449C83.5747 44.8173 83.245 46.6342 85.0291 49.2382C87.7053 53.1539 93.1594 52.8235 94.9532 48.7038C96.5676 44.997 97.1251 38.5016 93.2176 36.0191C92.359 35.4691 91.3742 35.1484 90.357 35.0874C89.3397 35.0265 88.3239 35.2274 87.406 35.671C86.4881 36.1145 85.6987 36.7861 85.113 37.6217C84.5272 38.4573 84.1646 39.4292 84.0595 40.4449Z" fill="#E4897B"/>
<path d="M84.0368 43.0187C84.6525 44.1653 94.0772 38.9427 93.0058 36.1396C91.9343 33.3364 89.1273 34.3518 89.1273 34.3518C89.1273 34.3518 84.1483 35.4886 83.3095 38.078C82.4708 40.6674 84.0368 43.0187 84.0368 43.0187Z" fill="#263238"/>
<path d="M82.2229 43.5207C82.3103 44.3621 82.7142 45.1386 83.3525 45.6923C84.2058 46.4161 85.0542 45.77 85.1706 44.7206C85.2772 43.783 84.9621 42.2916 83.9391 41.9515C82.9162 41.6114 82.1259 42.5053 82.2229 43.5207Z" fill="#E4897B"/>
<path d="M97.0492 84.3566C97.0492 84.3566 124.945 87.048 124.654 100.529C124.354 114.555 114.304 127.186 114.304 127.186L109.034 124.198C109.034 124.198 114.851 111.854 114.551 103.444C114.308 96.2542 87.5566 94.8745 87.5566 94.8745L83.8672 84.3566H97.0492Z" fill="#A6DD27"/>
<path opacity="0.6" d="M97.0492 84.3566C97.0492 84.3566 124.945 87.048 124.654 100.529C124.354 114.555 114.304 127.186 114.304 127.186L109.034 124.198C109.034 124.198 114.851 111.854 114.551 103.444C114.308 96.2542 87.5566 94.8745 87.5566 94.8745L83.8672 84.3566H97.0492Z" fill="#FAFAFA"/>
<path d="M106.77 92.2616L107.332 97.9942C111.235 99.2185 114.236 100.909 114.531 103.173C115.191 98.1011 111.661 95.1036 106.77 92.2616Z" fill="#A6DD27"/>
<path opacity="0.4" d="M106.77 92.2616L107.332 97.9942C111.235 99.2185 114.236 100.909 114.531 103.173C115.191 98.1011 111.661 95.1036 106.77 92.2616Z" fill="#FAFAFA"/>
<path d="M92.3166 84.3566C92.3166 84.3566 111.457 90.7111 111.942 98.5764C112.834 113.059 106.478 132.146 106.478 132.146H100.437C100.437 132.146 100.777 119.481 101.499 106.359C102.401 89.8754 73.3798 106.131 79.1297 84.3566H92.3166Z" fill="#A6DD27"/>
<path opacity="0.6" d="M92.3166 84.3566C92.3166 84.3566 111.457 90.7111 111.942 98.5764C112.834 113.059 106.478 132.146 106.478 132.146H100.437C100.437 132.146 100.777 119.481 101.499 106.359C102.401 89.8754 73.3798 106.131 79.1297 84.3566H92.3166Z" fill="#FAFAFA"/>
<path d="M90.3709 42.8193C90.3079 43.1691 90.4436 43.4849 90.6715 43.5286C90.8994 43.5724 91.1563 43.3149 91.1999 42.9651C91.2436 42.6153 91.1272 42.2947 90.8994 42.2558C90.6715 42.2169 90.4339 42.4647 90.3709 42.8193Z" fill="#263238"/>
<path d="M94.3302 43.5288C94.272 43.8785 94.4029 44.1943 94.6356 44.2381C94.8683 44.2818 95.1204 44.0291 95.164 43.6745C95.2077 43.3199 95.0913 43.0089 94.8586 42.9652C94.6259 42.9215 94.3932 43.1741 94.3302 43.5288Z" fill="#263238"/>
<path d="M94.7539 42.9898L95.6363 42.8977C95.6363 42.8977 95.0884 43.4746 94.7539 42.9898Z" fill="#263238"/>
<path d="M93.1754 43.9624C93.342 44.8056 93.6208 45.6226 94.0044 46.3914C93.8021 46.4844 93.5822 46.5326 93.3596 46.5326C93.1371 46.5326 92.9171 46.4844 92.7148 46.3914L93.1754 43.9624Z" fill="#DE5753"/>
<path d="M90.7151 47.3323H90.6861C89.9815 47.0003 89.43 46.4112 89.1444 45.6854C89.1414 45.6771 89.1402 45.6683 89.1408 45.6595C89.1414 45.6507 89.1438 45.6422 89.148 45.6344C89.1521 45.6266 89.1577 45.6198 89.1646 45.6144C89.1715 45.6089 89.1795 45.605 89.188 45.6028C89.1959 45.5997 89.2044 45.5983 89.2129 45.5986C89.2214 45.5989 89.2298 45.6009 89.2375 45.6046C89.2452 45.6082 89.2521 45.6134 89.2577 45.6197C89.2634 45.6261 89.2677 45.6336 89.2704 45.6417C89.5439 46.3276 90.0623 46.887 90.7248 47.2108C90.7406 47.2183 90.7529 47.2315 90.7593 47.2478C90.7656 47.264 90.7654 47.2821 90.7588 47.2983C90.7543 47.3067 90.7481 47.3141 90.7406 47.3199C90.7331 47.3258 90.7244 47.33 90.7151 47.3323Z" fill="#263238"/>
<path d="M89.9324 41.2465C89.9135 41.2465 89.895 41.2421 89.8782 41.2337C89.8613 41.2253 89.8467 41.213 89.8354 41.1979C89.8221 41.1865 89.8114 41.1724 89.8041 41.1564C89.7968 41.1405 89.793 41.1232 89.793 41.1056C89.793 41.0881 89.7968 41.0707 89.8041 41.0548C89.8114 41.0389 89.8221 41.0247 89.8354 41.0133C90.0696 40.7973 90.352 40.6405 90.659 40.556C90.9659 40.4715 91.2886 40.4617 91.6001 40.5275C91.6342 40.5365 91.6633 40.5587 91.681 40.5893C91.6987 40.6198 91.7036 40.6561 91.6946 40.6902C91.6856 40.7244 91.6635 40.7536 91.633 40.7713C91.6026 40.7891 91.5663 40.794 91.5322 40.785C91.2617 40.731 90.9822 40.743 90.7173 40.82C90.4523 40.8969 90.2097 41.0365 90.0099 41.2271C89.9865 41.2409 89.9596 41.2477 89.9324 41.2465Z" fill="#263238"/>
<path d="M96.4895 41.9511C96.4638 41.9493 96.4391 41.9407 96.4178 41.9262C96.3965 41.9117 96.3794 41.8918 96.3683 41.8685C96.2652 41.6134 96.1034 41.3863 95.8962 41.2056C95.689 41.025 95.4421 40.8959 95.1757 40.8289C95.1404 40.8229 95.1089 40.8032 95.088 40.7741C95.0671 40.745 95.0586 40.7088 95.0642 40.6734C95.0712 40.6389 95.0913 40.6086 95.1203 40.5886C95.1492 40.5687 95.1847 40.5608 95.2193 40.5665C95.5302 40.6385 95.8192 40.7848 96.0615 40.9929C96.3038 41.201 96.4922 41.4647 96.6107 41.7616C96.6187 41.7774 96.6232 41.7947 96.624 41.8124C96.6249 41.8301 96.622 41.8477 96.6156 41.8642C96.6092 41.8807 96.5994 41.8957 96.5869 41.9081C96.5744 41.9206 96.5594 41.9303 96.5429 41.9365C96.5269 41.9465 96.5083 41.9515 96.4895 41.9511Z" fill="#263238"/>
<path d="M106.646 138.38C106.128 138.38 105.425 137.836 105.032 137.486C105.02 137.478 105.011 137.466 105.007 137.452C105.003 137.437 105.003 137.422 105.008 137.409C105.012 137.395 105.02 137.382 105.032 137.373C105.043 137.363 105.056 137.357 105.071 137.355C105.25 137.355 106.826 137.209 107.155 137.642C107.191 137.687 107.214 137.741 107.221 137.799C107.229 137.856 107.221 137.914 107.199 137.967C107.172 138.061 107.122 138.146 107.054 138.215C106.985 138.284 106.9 138.334 106.806 138.361C106.754 138.373 106.7 138.379 106.646 138.38ZM105.26 137.491C105.9 138.026 106.452 138.298 106.768 138.215C106.838 138.195 106.901 138.158 106.952 138.106C107.003 138.054 107.04 137.989 107.059 137.919C107.077 137.891 107.087 137.859 107.087 137.826C107.087 137.793 107.077 137.761 107.059 137.734C106.826 137.452 105.808 137.457 105.26 137.491Z" fill="#A6DD27"/>
<path d="M105.08 137.506C105.067 137.507 105.053 137.504 105.042 137.497C105.031 137.49 105.022 137.479 105.017 137.467C105.011 137.456 105.008 137.443 105.008 137.431C105.008 137.418 105.011 137.405 105.017 137.394C105.041 137.35 105.637 136.238 106.248 136.092C106.322 136.071 106.399 136.067 106.474 136.082C106.549 136.096 106.619 136.128 106.68 136.175C106.748 136.21 106.801 136.269 106.831 136.34C106.86 136.411 106.863 136.49 106.84 136.563C106.709 137.01 105.618 137.491 105.085 137.506H105.08ZM106.379 136.223H106.277C105.841 136.325 105.385 137.039 105.211 137.326C105.72 137.248 106.592 136.84 106.694 136.505C106.694 136.452 106.719 136.369 106.593 136.282C106.529 136.24 106.455 136.22 106.379 136.223Z" fill="#A6DD27"/>
<path d="M90.793 42.2558L91.6802 42.1637C91.6802 42.1637 91.1275 42.7455 90.793 42.2558Z" fill="#263238"/>
<path d="M78.8586 83.3129L78.718 84.921C78.6549 85.0473 78.8004 85.1736 79.0089 85.1736H97.1359C97.3008 85.1736 97.4317 85.0959 97.4414 84.9939L97.6062 83.3858C97.6062 83.2741 97.4753 83.1769 97.3008 83.1769H79.1494C79.0935 83.1738 79.0377 83.1846 78.9869 83.2083C78.9362 83.232 78.8921 83.268 78.8586 83.3129Z" fill="#263238"/>
<path d="M81.2983 85.3382H80.8135C80.7165 85.3382 80.6438 85.2896 80.6487 85.2264L80.8765 83.1374C80.8765 83.0743 80.9686 83.0257 81.0656 83.0257H81.5504C81.6474 83.0257 81.7201 83.0743 81.7152 83.1374L81.4874 85.2264C81.4777 85.2896 81.4001 85.3382 81.2983 85.3382Z" fill="#A6DD27"/>
<path opacity="0.6" d="M81.2983 85.3382H80.8135C80.7165 85.3382 80.6438 85.2896 80.6487 85.2264L80.8765 83.1374C80.8765 83.0743 80.9686 83.0257 81.0656 83.0257H81.5504C81.6474 83.0257 81.7201 83.0743 81.7152 83.1374L81.4874 85.2264C81.4777 85.2896 81.4001 85.3382 81.2983 85.3382Z" fill="#FAFAFA"/>
<path d="M95.7746 85.3382H95.2898C95.1928 85.3382 95.1201 85.2896 95.1298 85.2264L95.3576 83.1374C95.3576 83.0743 95.4449 83.0257 95.5419 83.0257H96.0267C96.1236 83.0257 96.1964 83.0743 96.1867 83.1374L95.9588 85.2264C95.9443 85.2896 95.8715 85.3382 95.7746 85.3382Z" fill="#A6DD27"/>
<path opacity="0.6" d="M95.7746 85.3382H95.2898C95.1928 85.3382 95.1201 85.2896 95.1298 85.2264L95.3576 83.1374C95.3576 83.0743 95.4449 83.0257 95.5419 83.0257H96.0267C96.1236 83.0257 96.1964 83.0743 96.1867 83.1374L95.9588 85.2264C95.9443 85.2896 95.8715 85.3382 95.7746 85.3382Z" fill="#FAFAFA"/>
<path d="M88.5333 85.3382H88.0485C87.9515 85.3382 87.8739 85.2896 87.8836 85.2264L88.1115 83.1374C88.1115 83.0743 88.2036 83.0257 88.3006 83.0257H88.7854C88.8823 83.0257 88.9551 83.0743 88.9502 83.1374L88.7224 85.2264C88.7127 85.2896 88.6302 85.3382 88.5333 85.3382Z" fill="#A6DD27"/>
<path opacity="0.6" d="M88.5333 85.3382H88.0485C87.9515 85.3382 87.8739 85.2896 87.8836 85.2264L88.1115 83.1374C88.1115 83.0743 88.2036 83.0257 88.3006 83.0257H88.7854C88.8823 83.0257 88.9551 83.0743 88.9502 83.1374L88.7224 85.2264C88.7127 85.2896 88.6302 85.3382 88.5333 85.3382Z" fill="#FAFAFA"/>
<path d="M80.168 64.5069L77.8555 66.4793C78.3403 69.1027 78.6796 71.2889 78.893 73.2321C79.3244 71.284 80.4298 65.9983 80.168 64.5069Z" fill="#A6DD27"/>
<path opacity="0.3" d="M80.168 64.5069L77.8555 66.4793C78.3403 69.1027 78.6796 71.2889 78.893 73.2321C79.3244 71.284 80.4298 65.9983 80.168 64.5069Z" fill="black"/>
<path d="M129.159 71.9441H97.7096L93.1523 90.5558H124.602L129.159 71.9441Z" fill="#FAFAFA"/>
<path d="M113.22 87.0927L93.9878 91.5865L81.6445 88.1178L81.7706 87.0927H113.22Z" fill="#FAFAFA"/>
<path d="M78.623 63.9376C78.2497 65.1765 77.8424 66.4541 77.4788 67.7173C77.1152 68.9804 76.7322 70.2532 76.4025 71.5212C76.0729 72.7892 75.7577 74.0523 75.5153 75.2912C75.399 75.9081 75.2875 76.5251 75.2148 77.1081C75.1629 77.5175 75.1354 77.9295 75.1323 78.3421C75.2389 78.673 75.4216 78.9742 75.6656 79.2214C76.0335 79.6215 76.4413 79.9829 76.8825 80.2999C77.8918 81.0203 78.9569 81.6588 80.0677 82.2092C81.207 82.797 82.3997 83.3314 83.6165 83.827C84.8334 84.3225 86.0745 84.7986 87.2914 85.2844L86.729 87.4803C85.3376 87.2617 84.0141 86.9508 82.6663 86.6156C81.3185 86.2803 80.0047 85.8383 78.6811 85.3524C77.3136 84.8514 75.9956 84.2236 74.7445 83.4772C74.0492 83.0603 73.3993 82.5719 72.8052 82.0197C72.059 81.3448 71.4939 80.4928 71.1617 79.5421C71.0704 79.2525 71.0071 78.9548 70.9727 78.653V78.4198V78.2449V77.934C70.9727 77.5259 70.9727 77.1373 70.9727 76.7535C71.0114 75.9956 71.0939 75.296 71.2005 74.5673C71.3993 73.1487 71.6853 71.7787 71.9859 70.4281C72.605 67.7403 73.3607 65.0859 74.25 62.4753L78.623 63.9376Z" fill="#E4897B"/>
<path d="M75.9489 57.5644C74.1551 58.1134 71.4062 65.1772 71.4062 65.1772L78.373 70.1665C78.373 70.1665 81.5049 64.1278 80.7486 61.8007C79.9438 59.3571 78.0045 56.9183 75.9489 57.5644Z" fill="#A6DD27"/>
<path opacity="0.2" d="M75.9489 57.5644C74.1551 58.1134 71.4062 65.1772 71.4062 65.1772L78.373 70.1665C78.373 70.1665 81.5049 64.1278 80.7486 61.8007C79.9438 59.3571 78.0045 56.9183 75.9489 57.5644Z" fill="black"/>
<path d="M86.3872 85.4205L90.576 84.3566L88.5785 88.384C88.5785 88.384 85.7521 88.5054 84.8164 86.9265L86.3872 85.4205Z" fill="#E4897B"/>
<path d="M93.9547 85.8869L92.1027 89.171L88.5781 88.384L90.5755 84.3566L93.9547 85.8869Z" fill="#E4897B"/>
<path d="M130.128 71.9441H98.6783L94.1211 90.5558H125.571L130.128 71.9441Z" fill="#263238"/>
<path d="M125.569 90.5569L125.443 91.5868H93.9883L94.1143 90.5569H125.569Z" fill="#263238"/>
<path d="M92.254 37.8509C96.4912 39.5512 96.8403 41.9949 96.6173 40.2799C96.2973 37.8169 94.2563 36.0436 92.7921 35.4461C91.934 35.0866 90.402 37.1076 92.254 37.8509Z" fill="#263238"/>
<path d="M84.3558 40.0752L84.0697 40.4104C84.025 40.4566 84 40.5185 84 40.5829C84 40.6473 84.025 40.7091 84.0697 40.7553L86.358 42.8444C86.4037 42.8864 86.4634 42.9097 86.5253 42.9097C86.5872 42.9097 86.6469 42.8864 86.6926 42.8444L87.0853 42.48C87.1112 42.4568 87.1319 42.4283 87.1461 42.3965C87.1603 42.3647 87.1676 42.3302 87.1676 42.2954C87.1676 42.2606 87.1603 42.2261 87.1461 42.1943C87.1319 42.1625 87.1112 42.134 87.0853 42.1108L84.6854 40.0509C84.6372 40.0135 84.5768 39.9953 84.516 39.9997C84.4551 40.0042 84.398 40.0311 84.3558 40.0752Z" fill="#A6DD27"/>
<path opacity="0.3" d="M84.3558 40.0752L84.0697 40.4104C84.025 40.4566 84 40.5185 84 40.5829C84 40.6473 84.025 40.7091 84.0697 40.7553L86.358 42.8444C86.4037 42.8864 86.4634 42.9097 86.5253 42.9097C86.5872 42.9097 86.6469 42.8864 86.6926 42.8444L87.0853 42.48C87.1112 42.4568 87.1319 42.4283 87.1461 42.3965C87.1603 42.3647 87.1676 42.3302 87.1676 42.2954C87.1676 42.2606 87.1603 42.2261 87.1461 42.1943C87.1319 42.1625 87.1112 42.134 87.0853 42.1108L84.6854 40.0509C84.6372 40.0135 84.5768 39.9953 84.516 39.9997C84.4551 40.0042 84.398 40.0311 84.3558 40.0752Z" fill="black"/>
<path d="M83.7719 56.2336C83.8204 56.6028 84.2276 58.4246 87.6892 59.1096C87.6892 59.1096 86.6614 60.2319 86.0796 62.9184C86.0796 62.9184 80.0097 60.5331 81.852 56.666C81.8666 56.6349 81.8882 56.6078 81.9152 56.5867C81.9421 56.5656 81.9736 56.5511 82.0072 56.5445L83.6943 56.185C83.7026 56.1828 83.7112 56.1824 83.7197 56.1837C83.7282 56.185 83.7363 56.188 83.7435 56.1926C83.7508 56.1971 83.757 56.2031 83.7619 56.2102C83.7668 56.2172 83.7702 56.2252 83.7719 56.2336Z" fill="#A6DD27"/>
<path opacity="0.6" d="M83.7719 56.2336C83.8204 56.6028 84.2276 58.4246 87.6892 59.1096C87.6892 59.1096 86.6614 60.2319 86.0796 62.9184C86.0796 62.9184 80.0097 60.5331 81.852 56.666C81.8666 56.6349 81.8882 56.6078 81.9152 56.5867C81.9421 56.5656 81.9736 56.5511 82.0072 56.5445L83.6943 56.185C83.7026 56.1828 83.7112 56.1824 83.7197 56.1837C83.7282 56.185 83.7363 56.188 83.7435 56.1926C83.7508 56.1971 83.757 56.2031 83.7619 56.2102C83.7668 56.2172 83.7702 56.2252 83.7719 56.2336Z" fill="#FAFAFA"/>
<path d="M91.5032 56.5151C91.9202 56.9572 93.0595 58.4583 90.1797 59.1482C90.1797 59.1482 91.9299 60.1198 92.5116 62.8064C92.5116 62.8064 96.8216 59.8381 92.8995 56.6122C92.8949 56.6101 92.89 56.609 92.8849 56.609C92.8799 56.609 92.8749 56.6101 92.8704 56.6122L91.5565 56.4276C91.5466 56.4284 91.537 56.4315 91.5284 56.4367C91.5199 56.442 91.5128 56.4491 91.5075 56.4577C91.5023 56.4662 91.4992 56.4759 91.4985 56.4859C91.4977 56.4958 91.4993 56.5058 91.5032 56.5151Z" fill="#A6DD27"/>
<path opacity="0.6" d="M91.5032 56.5151C91.9202 56.9572 93.0595 58.4583 90.1797 59.1482C90.1797 59.1482 91.9299 60.1198 92.5116 62.8064C92.5116 62.8064 96.8216 59.8381 92.8995 56.6122C92.8949 56.6101 92.89 56.609 92.8849 56.609C92.8799 56.609 92.8749 56.6101 92.8704 56.6122L91.5565 56.4276C91.5466 56.4284 91.537 56.4315 91.5284 56.4367C91.5199 56.442 91.5128 56.4491 91.5075 56.4577C91.5023 56.4662 91.4992 56.4759 91.4985 56.4859C91.4977 56.4958 91.4993 56.5058 91.5032 56.5151Z" fill="#FAFAFA"/>
<path d="M132.648 28.5611C131.911 20.9289 125.215 14.7444 117.696 14.7493C110.177 14.7542 104.669 20.9386 105.421 28.5708C105.692 31.0472 106.551 33.4226 107.926 35.4983C109.301 37.5741 111.151 39.2899 113.323 40.5025L113.202 45.3606L117.236 42.0328C118.264 42.2714 119.316 42.3936 120.372 42.3971C127.892 42.3826 133.389 36.1884 132.648 28.5611Z" fill="#A6DD27"/>
<path opacity="0.6" d="M132.648 28.5611C131.911 20.9289 125.215 14.7444 117.696 14.7493C110.177 14.7542 104.669 20.9386 105.421 28.5708C105.692 31.0472 106.551 33.4226 107.926 35.4983C109.301 37.5741 111.151 39.2899 113.323 40.5025L113.202 45.3606L117.236 42.0328C118.264 42.2714 119.316 42.3936 120.372 42.3971C127.892 42.3826 133.389 36.1884 132.648 28.5611Z" fill="#FAFAFA"/>
<path d="M120.185 26.1602C116.855 25.1545 114.503 21.5838 114.503 21.5838C114.503 21.5838 113.475 21.5255 113.534 22.4679C113.641 23.7729 114.239 24.9883 115.206 25.8687L113.645 25.7812C113.096 25.75 112.545 25.8108 112.016 25.961L111.531 26.1019C111.324 26.1652 111.132 26.2709 110.967 26.4123C110.802 26.5538 110.668 26.7279 110.574 26.9237C110.48 27.1195 110.427 27.3327 110.419 27.55C110.411 27.7673 110.448 27.9838 110.528 28.186L111.565 31.2515C111.909 32.2432 112.597 33.0778 113.505 33.6029C114.273 34.0619 115.174 34.2452 116.06 34.1227C117.621 33.8847 120.05 33.5203 120.466 33.4426L121.586 33.3454L121.257 26.4711L120.185 26.1602Z" fill="#FAFAFA"/>
<path d="M126.04 34.2731H121.677C121.509 34.2673 121.348 34.2014 121.225 34.0873C121.101 33.9732 121.022 33.8185 121.003 33.6513L120.246 25.8296C120.237 25.7514 120.244 25.672 120.267 25.5967C120.291 25.5215 120.33 25.4521 120.382 25.3932C120.434 25.3344 120.499 25.2874 120.571 25.2554C120.643 25.2234 120.72 25.2072 120.799 25.2078H125.162C125.332 25.2126 125.494 25.2787 125.619 25.3939C125.743 25.5091 125.822 25.6655 125.841 25.8345L126.597 33.6513C126.606 33.7298 126.599 33.8093 126.575 33.8845C126.551 33.9598 126.511 34.0291 126.458 34.0878C126.405 34.1466 126.341 34.1935 126.269 34.2254C126.197 34.2574 126.119 34.2736 126.04 34.2731Z" fill="#A6DD27"/>
<path d="M61.9526 65.9289L57.5893 61.7848C57.6522 60.9208 57.6424 60.053 57.5602 59.1906C56.7409 50.7568 49.3427 43.9213 41.033 43.9262C32.7234 43.9311 26.6536 50.7714 27.4583 59.2052C28.2631 67.6389 35.671 74.4744 43.9807 74.4695C46.542 74.5121 49.0615 73.8157 51.2388 72.4633C53.4162 71.111 55.1595 69.1597 56.261 66.8422L61.9526 65.9289Z" fill="#E1197E"/>
<path d="M49.4883 53.7359C47.2146 51.6323 43.8597 51.6372 41.998 53.7359C39.7242 51.6372 36.3693 51.6372 34.5028 53.7359C32.6363 55.8347 32.966 59.2451 35.2397 61.3438L43.4815 68.9469L50.2349 61.339C52.0918 59.2402 51.7621 55.8347 49.4883 53.7359Z" fill="#A6DD27"/>
<path opacity="0.6" d="M49.4883 53.7359C47.2146 51.6323 43.8597 51.6372 41.998 53.7359C39.7242 51.6372 36.3693 51.6372 34.5028 53.7359C32.6363 55.8347 32.966 59.2451 35.2397 61.3438L43.4815 68.9469L50.2349 61.339C52.0918 59.2402 51.7621 55.8347 49.4883 53.7359Z" fill="#FAFAFA"/>
</svg>
