<svg width="108" height="108" viewBox="0 0 108 108" fill="none" xmlns="http://www.w3.org/2000/svg">
<g filter="url(#filter0_dii)">
<rect x="4" width="100" height="100" rx="20" fill="#A6DD27"/>
</g>
<g filter="url(#filter1_d)">
<path d="M77.2969 70.0684L62.0801 54.8516C64.4414 51.7988 65.7188 48.0664 65.7188 44.1406C65.7188 39.4414 63.8848 35.0352 60.5684 31.7129C57.252 28.3906 52.834 26.5625 48.1406 26.5625C43.4473 26.5625 39.0293 28.3965 35.7129 31.7129C32.3906 35.0293 30.5625 39.4414 30.5625 44.1406C30.5625 48.834 32.3965 53.252 35.7129 56.5684C39.0293 59.8906 43.4414 61.7188 48.1406 61.7188C52.0664 61.7188 55.793 60.4414 58.8457 58.0859L74.0625 73.2969C74.1071 73.3415 74.1601 73.3769 74.2184 73.4011C74.2767 73.4253 74.3392 73.4377 74.4023 73.4377C74.4655 73.4377 74.528 73.4253 74.5863 73.4011C74.6446 73.3769 74.6976 73.3415 74.7422 73.2969L77.2969 70.748C77.3415 70.7034 77.3769 70.6505 77.4011 70.5921C77.4253 70.5338 77.4377 70.4713 77.4377 70.4082C77.4377 70.3451 77.4253 70.2826 77.4011 70.2243C77.3769 70.166 77.3415 70.113 77.2969 70.0684ZM57.4219 53.4219C54.9375 55.9004 51.6445 57.2656 48.1406 57.2656C44.6367 57.2656 41.3438 55.9004 38.8594 53.4219C36.3809 50.9375 35.0156 47.6445 35.0156 44.1406C35.0156 40.6367 36.3809 37.3379 38.8594 34.8594C41.3438 32.3809 44.6367 31.0156 48.1406 31.0156C51.6445 31.0156 54.9434 32.375 57.4219 34.8594C59.9004 37.3438 61.2656 40.6367 61.2656 44.1406C61.2656 47.6445 59.9004 50.9434 57.4219 53.4219Z" fill="#FAFAFA"/>
</g>
<defs>
<filter id="filter0_dii" x="0" y="0" width="108" height="108" filterUnits="userSpaceOnUse" color-interpolation-filters="sRGB">
<feFlood flood-opacity="0" result="BackgroundImageFix"/>
<feColorMatrix in="SourceAlpha" type="matrix" values="0 0 0 0 0 0 0 0 0 0 0 0 0 0 0 0 0 0 127 0"/>
<feOffset dy="4"/>
<feGaussianBlur stdDeviation="2"/>
<feColorMatrix type="matrix" values="0 0 0 0 0 0 0 0 0 0 0 0 0 0 0 0 0 0 0.25 0"/>
<feBlend mode="normal" in2="BackgroundImageFix" result="effect1_dropShadow"/>
<feBlend mode="normal" in="SourceGraphic" in2="effect1_dropShadow" result="shape"/>
<feColorMatrix in="SourceAlpha" type="matrix" values="0 0 0 0 0 0 0 0 0 0 0 0 0 0 0 0 0 0 127 0" result="hardAlpha"/>
<feOffset dx="4"/>
<feGaussianBlur stdDeviation="2"/>
<feComposite in2="hardAlpha" operator="arithmetic" k2="-1" k3="1"/>
<feColorMatrix type="matrix" values="0 0 0 0 0 0 0 0 0 0 0 0 0 0 0 0 0 0 0.25 0"/>
<feBlend mode="normal" in2="shape" result="effect2_innerShadow"/>
<feColorMatrix in="SourceAlpha" type="matrix" values="0 0 0 0 0 0 0 0 0 0 0 0 0 0 0 0 0 0 127 0" result="hardAlpha"/>
<feOffset dx="-4"/>
<feGaussianBlur stdDeviation="2"/>
<feComposite in2="hardAlpha" operator="arithmetic" k2="-1" k3="1"/>
<feColorMatrix type="matrix" values="0 0 0 0 0 0 0 0 0 0 0 0 0 0 0 0 0 0 0.25 0"/>
<feBlend mode="normal" in2="effect2_innerShadow" result="effect3_innerShadow"/>
</filter>
<filter id="filter1_d" x="20" y="20" width="68" height="68" filterUnits="userSpaceOnUse" color-interpolation-filters="sRGB">
<feFlood flood-opacity="0" result="BackgroundImageFix"/>
<feColorMatrix in="SourceAlpha" type="matrix" values="0 0 0 0 0 0 0 0 0 0 0 0 0 0 0 0 0 0 127 0"/>
<feOffset dy="4"/>
<feGaussianBlur stdDeviation="2"/>
<feColorMatrix type="matrix" values="0 0 0 0 0.14902 0 0 0 0 0.196078 0 0 0 0 0.219608 0 0 0 0.25 0"/>
<feBlend mode="normal" in2="BackgroundImageFix" result="effect1_dropShadow"/>
<feBlend mode="normal" in="SourceGraphic" in2="effect1_dropShadow" result="shape"/>
</filter>
</defs>
</svg>
