<svg width="60" height="60" viewBox="0 0 60 60" fill="none" xmlns="http://www.w3.org/2000/svg">
<g clip-path="url(#clip0)">
<path d="M51.1558 8.71923C45.5422 3.09983 38.0777 0.00342853 30.1249 0C13.7368 0 0.400214 13.3369 0.393653 29.7298C0.391743 34.9698 1.76043 40.0849 4.36195 44.5937L0.144043 60L15.9049 55.8659C20.2473 58.2349 25.1366 59.4832 30.1121 59.4852H30.1247H30.1249C46.5103 59.4852 59.8489 46.146 59.8558 29.7539C59.8586 21.8091 56.7687 14.339 51.1558 8.71923ZM30.1249 54.4638H30.1152C25.6803 54.4614 21.3313 53.2703 17.5379 51.0186L16.6351 50.4833L7.2823 52.9363L9.77938 43.8176L9.19119 42.8827C6.71737 38.948 5.4114 34.4008 5.41326 29.7317C5.4187 16.1064 16.5036 5.02167 30.1342 5.02167C36.7349 5.02441 42.9388 7.59815 47.6046 12.2688C52.2702 16.9395 54.8377 23.1484 54.8358 29.7518C54.83 43.3775 43.7447 54.4638 30.1249 54.4638Z" fill="#E0E0E0"/>
<path d="M1.50879 58.2902L5.53402 43.5877C3.05071 39.2848 1.74479 34.403 1.74635 29.4033C1.75287 13.7595 14.4804 1.03223 30.1185 1.03223C37.7084 1.03566 44.832 3.99046 50.188 9.35331C55.5451 14.7161 58.4936 21.8445 58.4905 29.4255C58.484 45.0696 45.7557 57.7981 30.1196 57.7981C30.1185 57.7981 30.1204 57.7981 30.1196 57.7981H30.107C25.3587 57.7965 20.6932 56.6042 16.5494 54.345L1.50879 58.2902Z" fill="url(#paint0_linear)"/>
<path fill-rule="evenodd" clip-rule="evenodd" d="M22.7778 17.1088C22.2278 15.8854 21.6486 15.8609 21.1253 15.8395C20.6973 15.8212 20.2073 15.8223 19.7181 15.8223C19.2284 15.8223 18.4328 16.0063 17.76 16.7414C17.0867 17.4765 15.1895 19.2535 15.1895 22.8676C15.1895 26.4821 17.8212 29.9746 18.188 30.4651C18.5552 30.9549 23.2682 38.6086 30.7323 41.5531C36.9355 44.0001 38.1979 43.5134 39.5443 43.3909C40.8908 43.2685 43.889 41.6143 44.501 39.8989C45.113 38.1838 45.113 36.7137 44.9294 36.4064C44.7458 36.1003 44.2562 35.9166 43.5217 35.5493C42.7873 35.1819 39.1771 33.4045 38.5039 33.1597C37.8307 32.9148 37.341 32.7923 36.8514 33.5278C36.3618 34.2625 34.9553 35.9166 34.5268 36.4064C34.0984 36.8973 33.67 36.9586 32.9356 36.5912C32.2011 36.2227 29.836 35.4478 27.0303 32.9453C24.8473 30.9984 23.3734 28.5938 22.945 27.8584C22.5166 27.1237 22.899 26.7258 23.2674 26.3596C23.5971 26.0305 24.0019 25.502 24.3691 25.0731C24.7355 24.6441 24.8579 24.338 25.1027 23.8482C25.3475 23.3576 25.2251 22.9287 25.0415 22.5614C24.8579 22.194 23.4308 18.5613 22.7778 17.1088Z" fill="white"/>
<path d="M50.913 8.62503C45.3638 3.07013 37.985 0.00933688 30.1235 0.00585938C13.9235 0.00585938 0.740049 13.1896 0.733537 29.3944C0.731628 34.5743 2.0846 39.6306 4.65625 44.0877L0.486816 59.3171L16.0668 55.2304C20.3594 57.5721 25.1925 58.8062 30.1109 58.8081H30.1234H30.1235C46.3208 58.8081 59.5062 45.6221 59.5131 29.4181C59.5158 21.5646 56.4614 14.1803 50.913 8.62503ZM30.1235 53.8444H30.114C25.7299 53.8421 21.4308 52.6647 17.681 50.4389L16.7886 49.9097L7.54311 52.3345L10.0115 43.3205L9.43007 42.3964C6.98465 38.5068 5.69366 34.0118 5.69557 29.3963C5.70091 15.9275 16.6585 4.96997 30.1327 4.96997C36.6577 4.97267 42.7903 7.51688 47.4027 12.1339C52.0147 16.751 54.5527 22.8886 54.5508 29.4162C54.545 42.8854 43.587 53.8444 30.1235 53.8444Z" fill="white"/>
</g>
<defs>
<linearGradient id="paint0_linear" x1="29.9997" y1="58.2902" x2="29.9997" y2="1.03232" gradientUnits="userSpaceOnUse">
<stop stop-color="#20B038"/>
<stop offset="1" stop-color="#60D66A"/>
</linearGradient>
<clipPath id="clip0">
<rect width="59.7156" height="60" fill="white" transform="translate(0.14209)"/>
</clipPath>
</defs>
</svg>
