<svg width="102" height="60" viewBox="0 0 102 60" fill="none" xmlns="http://www.w3.org/2000/svg">
<g clip-path="url(#clip0)">
<path d="M10.1209 0H91.8377C97.0095 0 101.196 4.18628 101.196 9.35804V40.5506C101.196 45.7224 97.0095 49.9086 91.8377 49.9086H62.533L66.5554 59.7588L48.8656 49.9086H10.1617C4.99029 49.9086 0.804012 45.7224 0.804012 40.5506V9.35804C0.762836 4.22745 4.94872 0 10.1209 0Z" fill="#9B5C8F"/>
<path d="M6.52071 8.52927C7.09209 7.75359 7.94895 7.34574 9.09169 7.26418C11.1733 7.10065 12.3568 8.07986 12.6423 10.2022C13.9074 18.7316 15.2948 25.9552 16.7639 31.8724L25.7011 14.8548C26.5176 13.3038 27.538 12.4877 28.7623 12.4061C30.558 12.2838 31.6595 13.4261 32.1086 15.834C33.129 21.2614 34.4348 25.8732 35.9854 29.7908C37.0466 19.4254 38.8423 11.9571 41.3725 7.34574C41.9842 6.203 42.8823 5.63163 44.0658 5.54967C45.0046 5.46849 45.8615 5.75398 46.6368 6.36614C47.4121 6.97829 47.8203 7.75359 47.9019 8.69241C47.9427 9.42692 47.8203 10.0391 47.494 10.6512C45.9023 13.5897 44.596 18.5277 43.5352 25.3834C42.5152 32.0355 42.1478 37.2187 42.3925 40.9324C42.4744 41.952 42.3109 42.8501 41.9031 43.6257C41.4129 44.5234 40.6788 45.0132 39.7399 45.0948C38.6788 45.1763 37.5772 44.6869 36.516 43.585C32.7207 39.7077 29.7007 33.9128 27.4972 26.1999C24.8442 31.4234 22.8854 35.341 21.6203 37.9528C19.2125 42.5646 17.1721 44.9316 15.458 45.054C14.356 45.1356 13.4176 44.1967 12.6015 42.2383C10.5203 36.892 8.27562 26.5669 5.86816 11.2634C5.70464 10.2022 5.94934 9.26339 6.52071 8.52927ZM94.2211 14.9363C92.7521 12.3654 90.5889 10.8148 87.6917 10.2022C86.916 10.0391 86.1819 9.95751 85.4878 9.95751C81.5701 9.95751 78.387 11.9979 75.8976 16.0791C73.7752 19.5477 72.7144 23.3838 72.7144 27.5873C72.7144 30.7297 73.3674 33.423 74.6733 35.6677C76.1423 38.2387 78.3054 39.7893 81.2027 40.4014C81.978 40.565 82.7125 40.6465 83.4066 40.6465C87.365 40.6465 90.5482 38.6061 92.9968 34.525C95.1188 31.0152 96.1799 27.1791 96.1799 22.9759C96.2207 19.7928 95.527 17.1399 94.2211 14.9363ZM89.0791 26.2407C88.5078 28.934 87.4874 30.9336 85.9772 32.2803C84.794 33.3414 83.6921 33.7901 82.6721 33.5861C81.6925 33.3822 80.876 32.5254 80.2642 30.9336C79.774 29.6685 79.5297 28.4034 79.5297 27.2199C79.5297 26.1999 79.6113 25.1795 79.8152 24.241C80.1827 22.5677 80.8764 20.9352 81.978 19.3846C83.325 17.3846 84.7533 16.5689 86.2223 16.8544C87.2019 17.0583 88.0184 17.9156 88.6301 19.5069C89.1199 20.772 89.3646 22.0371 89.3646 23.2206C89.3646 24.2818 89.2831 25.3018 89.0791 26.2403V26.2407ZM68.674 14.9363C67.205 12.3654 65.0011 10.8148 62.1446 10.2022C61.3693 10.0391 60.6348 9.95751 59.9407 9.95751C56.0231 9.95751 52.8399 11.9979 50.3505 16.0791C48.2286 19.5477 47.1674 23.3838 47.1674 27.5873C47.1674 30.7297 47.8203 33.423 49.1262 35.6677C50.5952 38.2387 52.7584 39.7893 55.6556 40.4014C56.4313 40.565 57.1654 40.6465 57.8595 40.6465C61.818 40.6465 65.0011 38.6061 67.4497 34.525C69.5721 31.0152 70.6329 27.1791 70.6329 22.9759C70.6329 19.7928 69.9799 17.1399 68.674 14.9363ZM63.4913 26.2407C62.9199 28.934 61.8995 30.9336 60.3897 32.2803C59.2062 33.3414 58.1042 33.7901 57.0839 33.5861C56.1046 33.3822 55.2886 32.5254 54.676 30.9336C54.1866 29.6685 53.9419 28.4034 53.9419 27.2199C53.9419 26.1999 54.0235 25.1795 54.2274 24.241C54.5948 22.5677 55.2886 20.9352 56.3905 19.3846C57.7372 17.3846 59.1654 16.5689 60.6344 16.8544C61.614 17.0583 62.4305 17.9156 63.0423 19.5069C63.5325 20.772 63.7768 22.0371 63.7768 23.2206C63.818 24.2818 63.6952 25.3018 63.4913 26.2403V26.2407Z" fill="white"/>
</g>
<defs>
<clipPath id="clip0">
<rect width="100.398" height="60" fill="white" transform="translate(0.800781)"/>
</clipPath>
</defs>
</svg>
