<svg width="188" height="161" viewBox="0 0 188 161" fill="none" xmlns="http://www.w3.org/2000/svg">
<path d="M64.7117 40.4812C97.7273 47.8124 144.221 -36.2831 172.689 18.8464C195.897 63.8373 149.035 100.988 111.937 99.1745C74.2625 97.332 39.3125 156.85 12.2164 101.022C3.92612 83.9448 0.207623 57.4516 12.6188 40.0497C32.3651 12.3589 44.5824 36.0253 64.7117 40.4812Z" fill="#E1197E"/>
<path opacity="0.9" d="M64.7117 40.4812C97.7273 47.8124 144.221 -36.2831 172.689 18.8464C195.897 63.8373 149.035 100.988 111.937 99.1745C74.2625 97.332 39.3125 156.85 12.2164 101.022C3.92612 83.9448 0.207623 57.4516 12.6188 40.0497C32.3651 12.3589 44.5824 36.0253 64.7117 40.4812Z" fill="white" fill-opacity="0.7"/>
<path d="M94 161.001C145.915 161.001 188 158.544 188 155.512C188 152.481 145.915 150.023 94 150.023C42.0852 150.023 0 152.481 0 155.512C0 158.544 42.0852 161.001 94 161.001Z" fill="#F5F5F5"/>
<path d="M116.458 8.82862C116.012 7.69815 115.342 6.66952 114.488 5.80451C113.635 4.9395 112.615 4.25596 111.491 3.79493C110.366 3.33391 109.16 3.10492 107.945 3.12171C106.73 3.1385 105.531 3.40074 104.42 3.89266C100.289 5.71576 98.0495 11.0154 99.6057 15.2483C100.383 17.3855 101.942 19.1479 103.969 20.1794C104.812 20.5833 105.527 21.2126 106.034 21.9976L107.314 24.0438C107.734 24.7135 108.375 25.2156 109.125 25.4634C109.876 25.7113 110.689 25.6893 111.425 25.4014L114.654 24.1262C115.389 23.8335 115.998 23.2936 116.377 22.5995C116.756 21.9055 116.88 21.101 116.729 20.3248L116.244 17.8714C116.089 17.0028 116.178 16.108 116.501 15.2871C117.289 13.2035 117.274 10.9013 116.458 8.82862Z" fill="#E1197E"/>
<path d="M111.852 29.4831C111.645 29.4825 111.441 29.4396 111.251 29.357C111.068 29.2797 110.903 29.1665 110.765 29.0241C110.627 28.8817 110.518 28.713 110.446 28.528C110.305 28.1581 110.314 27.7473 110.473 27.3844C110.632 27.0216 110.927 26.7358 111.295 26.5887L115.576 24.8967C115.945 24.7538 116.357 24.7627 116.72 24.9216C117.083 25.0806 117.369 25.3766 117.515 25.7452C117.592 25.9278 117.631 26.124 117.631 26.3221C117.631 26.5202 117.592 26.7164 117.515 26.899C117.356 27.2661 117.058 27.5554 116.686 27.7038L112.424 29.3764C112.243 29.4501 112.048 29.4864 111.852 29.4831ZM116.128 25.2604C116 25.2597 115.873 25.2844 115.755 25.3331L111.455 27.0251C111.266 27.098 111.103 27.2255 110.987 27.3914C110.871 27.5574 110.807 27.7542 110.803 27.9566C110.8 28.1591 110.856 28.358 110.966 28.528C111.076 28.698 111.235 28.8313 111.421 28.911C111.545 28.9638 111.679 28.991 111.814 28.991C111.948 28.991 112.082 28.9638 112.206 28.911L116.487 27.2238C116.612 27.174 116.725 27.0999 116.821 27.0058C116.917 26.9118 116.993 26.7997 117.045 26.676C117.099 26.553 117.127 26.4201 117.127 26.2857C117.127 26.1514 117.099 26.0185 117.045 25.8955C116.967 25.702 116.833 25.5365 116.66 25.4205C116.487 25.3046 116.283 25.2437 116.075 25.2458L116.128 25.2604Z" fill="#263238"/>
<path d="M114.036 32.0932C113.906 32.0918 113.778 32.0655 113.658 32.0156C113.436 31.9102 113.263 31.7249 113.173 31.4969L113.1 31.3078C113.055 31.1932 113.032 31.0708 113.034 30.9475C113.036 30.8243 113.063 30.7026 113.112 30.5895C113.161 30.4764 113.232 30.3742 113.32 30.2886C113.409 30.203 113.514 30.1359 113.629 30.0909L116.3 29.034C116.533 28.9496 116.789 28.9573 117.016 29.0555C117.243 29.1537 117.424 29.3351 117.522 29.5625L117.595 29.7516C117.684 29.9831 117.678 30.2406 117.58 30.4683C117.481 30.6959 117.296 30.8756 117.066 30.9684L114.366 32.0253C114.261 32.068 114.149 32.091 114.036 32.0932ZM116.63 29.451C116.573 29.4526 116.517 29.4641 116.465 29.4849L113.794 30.5418C113.738 30.5632 113.687 30.5954 113.644 30.6366C113.601 30.6778 113.567 30.727 113.543 30.7816C113.519 30.8361 113.506 30.8948 113.505 30.9544C113.504 31.0139 113.515 31.0731 113.537 31.1284L113.609 31.3175C113.631 31.3732 113.664 31.4241 113.706 31.4672C113.747 31.5102 113.797 31.5447 113.852 31.5686C113.907 31.5924 113.966 31.6052 114.026 31.6062C114.086 31.6073 114.145 31.5965 114.201 31.5744L116.872 30.5176C116.928 30.4957 116.979 30.4631 117.022 30.4215C117.066 30.3799 117.1 30.3302 117.124 30.2752C117.147 30.2206 117.159 30.1621 117.159 30.103C117.159 30.044 117.147 29.9855 117.124 29.9309L117.052 29.7419C117.015 29.6588 116.957 29.5876 116.882 29.5362C116.808 29.4847 116.72 29.4552 116.63 29.451Z" fill="#263238"/>
<path d="M106.078 17.4304C105.748 17.431 105.423 17.3415 105.14 17.1714C104.856 17.0013 104.624 16.7572 104.469 16.4652C104.314 16.1733 104.242 15.8446 104.259 15.5145C104.277 15.1844 104.385 14.8653 104.57 14.5918C104.756 14.3182 105.013 14.1004 105.313 13.9618C105.613 13.8232 105.945 13.7691 106.274 13.8053C106.602 13.8414 106.915 13.9665 107.178 14.167C107.441 14.3676 107.644 14.636 107.765 14.9433L108.434 16.6353L106.742 17.2995C106.531 17.3853 106.306 17.4297 106.078 17.4304ZM106.078 14.2792C105.881 14.2771 105.686 14.3187 105.507 14.4012C105.327 14.4837 105.169 14.6048 105.042 14.756C104.915 14.9072 104.824 15.0846 104.774 15.2754C104.724 15.4662 104.717 15.6657 104.754 15.8595C104.79 16.0533 104.87 16.2366 104.986 16.3961C105.101 16.5556 105.251 16.6875 105.424 16.7821C105.597 16.8767 105.789 16.9318 105.986 16.9433C106.183 16.9548 106.38 16.9225 106.563 16.8486L107.804 16.3638L107.319 15.1276C107.219 14.8802 107.046 14.6688 106.824 14.5209C106.602 14.373 106.34 14.2955 106.073 14.2985L106.078 14.2792Z" fill="white"/>
<path d="M111.439 25.5671L107.808 16.3594L111.148 15.0406L114.779 24.2482L114.328 24.4276L110.872 15.6709L108.433 16.6358L111.89 25.3877L111.439 25.5671Z" fill="white"/>
<path d="M110.873 15.6702L110.209 13.9782C110.076 13.6437 110.046 13.2775 110.122 12.9259C110.198 12.5743 110.376 12.253 110.635 12.0029C110.893 11.7527 111.22 11.5849 111.574 11.5206C111.928 11.4563 112.293 11.4985 112.623 11.6417C112.953 11.785 113.233 12.0229 113.428 12.3254C113.623 12.6279 113.723 12.9813 113.717 13.341C113.711 13.7006 113.598 14.0504 113.393 14.3459C113.188 14.6414 112.899 14.8695 112.565 15.0012L110.873 15.6702ZM111.896 11.976C111.73 11.9782 111.565 12.0111 111.411 12.0729C111.248 12.1371 111.099 12.2328 110.973 12.3547C110.847 12.4765 110.747 12.6221 110.677 12.783C110.608 12.9438 110.571 13.1168 110.569 13.292C110.567 13.4672 110.599 13.6411 110.664 13.8037L111.149 15.04L112.385 14.5552C112.674 14.4418 112.915 14.2311 113.065 13.9595C113.215 13.6879 113.266 13.3724 113.209 13.0673C113.151 12.7622 112.989 12.4868 112.75 12.2885C112.511 12.0901 112.211 11.9813 111.901 11.9808L111.896 11.976Z" fill="white"/>
<path d="M118.403 38.7798C116.582 38.7823 114.764 38.6347 112.968 38.3386L113.05 37.8538C114.813 38.1448 116.597 38.2907 118.383 38.2901L118.403 38.7798Z" fill="#A6DD27"/>
<path d="M128.423 43.8018L128.68 43.2781C129.574 41.2873 129.754 39.0489 129.189 36.9409C127.303 37.6171 125.354 38.1044 123.371 38.3955L123.299 37.9106C125.331 37.6066 127.326 37.0931 129.252 36.3785L129.495 36.2912L129.567 36.5336C130.183 38.6375 130.103 40.8839 129.339 42.9387C135.298 40.5677 141.518 32.1504 141.518 22.1233C141.518 13.2212 131.138 5.97724 118.378 5.97724C105.618 5.97724 95.2427 13.2212 95.2427 22.1233C95.2427 28.5963 100.755 34.4293 109.302 36.9797L109.162 37.4646C100.435 34.8511 94.7725 28.8388 94.7725 22.1427C94.7725 12.9739 105.37 5.51176 118.392 5.51176C131.414 5.51176 142.017 12.9739 142.017 22.1427C142.017 32.6838 135.23 41.4938 128.976 43.6127L128.423 43.8018Z" fill="#A6DD27"/>
<path d="M141.882 9.60736L125.732 12.4932C124.572 12.7005 123.8 13.8087 124.007 14.9686L125.726 24.5912C125.933 25.7511 127.041 26.5233 128.201 26.3161L144.351 23.4302C145.511 23.223 146.283 22.1147 146.076 20.9549L144.357 11.3323C144.15 10.1724 143.042 9.40012 141.882 9.60736Z" fill="#A6DD27"/>
<path d="M138.005 17.4458L132.284 15.3805L133.356 21.363L138.005 17.4458Z" fill="white"/>
<path d="M77.1619 97.5339H35.9723C35.1182 97.5339 34.4258 98.2263 34.4258 99.0805V101.277C34.4258 102.131 35.1182 102.823 35.9723 102.823H77.1619C78.016 102.823 78.7084 102.131 78.7084 101.277V99.0805C78.7084 98.2263 78.016 97.5339 77.1619 97.5339Z" fill="#A6DD27"/>
<path d="M76.6945 152.6H77.9211L76.5103 102.824H74.8086L76.6945 152.6Z" fill="#A6DD27"/>
<path opacity="0.3" d="M76.6945 152.6H77.9211L76.5103 102.824H74.8086L76.6945 152.6Z" fill="white"/>
<path d="M65.3828 152.6H64.1562L65.5719 102.824H67.2687L65.3828 152.6Z" fill="#A6DD27"/>
<path opacity="0.3" d="M65.3828 152.6H64.1562L65.5719 102.824H67.2687L65.3828 152.6Z" fill="white"/>
<path d="M47.7453 152.6H48.9767L47.5611 102.824H45.8594L47.7453 152.6Z" fill="#A6DD27"/>
<path opacity="0.3" d="M47.7453 152.6H48.9767L47.5611 102.824H45.8594L47.7453 152.6Z" fill="white"/>
<path d="M36.4424 152.6H35.2109L36.6266 102.824H38.3234L36.4424 152.6Z" fill="#A6DD27"/>
<path opacity="0.3" d="M36.4424 152.6H35.2109L36.6266 102.824H38.3234L36.4424 152.6Z" fill="white"/>
<path d="M89.7878 139.95L94.1608 138.472L90.5635 128.26L86.1953 129.739L89.7878 139.95Z" fill="#FFC3BD"/>
<path d="M93.8361 136.785L89.0462 138.908C89.0065 138.922 88.9704 138.944 88.9402 138.974C88.91 139.003 88.8865 139.038 88.8713 139.077C88.8561 139.117 88.8495 139.159 88.8521 139.201C88.8547 139.242 88.8663 139.283 88.8862 139.32L90.7042 143.015C90.818 143.208 90.9978 143.354 91.2105 143.427C91.4232 143.499 91.6548 143.492 91.8629 143.407C93.5161 142.646 94.2579 142.205 96.3668 141.279C97.6661 140.712 100.279 139.699 101.898 138.656C103.518 137.614 102.248 136.111 101.452 136.411C99.5665 137.129 96.4298 137.1 94.7136 136.731C94.4226 136.658 94.1161 136.677 93.8361 136.785Z" fill="#263238"/>
<path opacity="0.2" d="M86.1953 129.744L90.5683 128.26L92.6191 134.102L88.1733 135.372L86.1953 129.744Z" fill="black"/>
<path d="M58.8131 83.7257C58.8131 83.7257 80.6296 87.6628 82.3895 94.8292C85.8462 108.997 93.6419 131.155 93.6419 131.155L85.342 133.58C85.342 133.58 73.4738 108.168 71.9806 99.6148C59.7391 99.6148 44.8312 100.585 42.8919 95.4061C41.1903 90.8096 41.7963 83.7451 41.7963 83.7451L58.8131 83.7257Z" fill="#263238"/>
<path d="M84.8862 135.029L94.5824 131.829L93.7534 127.452L83.1797 131.175L84.8862 135.029Z" fill="#A6DD27"/>
<path d="M70.7848 141.503L75.6135 141.872L72.7773 129.954L68.2734 130.972L70.7848 141.503Z" fill="#FFC3BD"/>
<path d="M75.4906 140.707L70.2885 140.13C70.2467 140.122 70.2037 140.123 70.1624 140.134C70.1212 140.144 70.0827 140.164 70.0495 140.19C70.0164 140.217 69.9894 140.251 69.9704 140.289C69.9514 140.327 69.9409 140.368 69.9395 140.411L69.668 144.522C69.6772 144.745 69.7627 144.957 69.9102 145.124C70.0576 145.291 70.258 145.402 70.4776 145.438C72.2859 145.608 73.1538 145.594 75.4421 145.846C76.848 146.001 79.6211 146.432 81.5458 146.33C83.4705 146.229 83.1215 144.294 82.2779 144.163C80.2853 143.839 77.5898 142.248 76.2856 141.07C76.0654 140.869 75.7872 140.741 75.4906 140.707Z" fill="#263238"/>
<path opacity="0.2" d="M68.2734 130.976L72.7773 129.958L74.2075 135.979L69.6552 136.779L68.2734 130.976Z" fill="black"/>
<path d="M47.4604 83.7257C47.4604 83.7257 73.9844 87.6967 72.7676 97.7384C71.0174 112.217 75.5116 133.158 75.5116 133.158L67.0032 134.68C67.0032 134.68 60.7491 108.653 60.7006 99.9688C52.071 99.9688 36.9934 100.585 35.0638 95.3867C33.3621 90.7902 33.9681 83.7257 33.9681 83.7257H47.4604Z" fill="#263238"/>
<path d="M66.4155 136.095L76.3978 133.923L76.0293 129.487L65.1211 132.081L66.4155 136.095Z" fill="#A6DD27"/>
<path d="M61.4511 55.822C62.159 58.5955 62.8522 61.3931 63.531 64.1811C64.2097 66.9691 64.8739 69.762 65.5769 72.516L66.1053 74.567L66.3768 75.5755L66.5174 76.0604V76.1234V76.1525C66.5174 76.1525 66.5174 76.1089 66.4932 76.0895C66.4565 75.9903 66.4111 75.8945 66.3574 75.8034L66.2847 75.6919L66.2314 75.6192L66.1344 75.5125C66.0326 75.4155 66.0181 75.4301 66.0423 75.4543C66.0945 75.5081 66.1531 75.5554 66.2168 75.5949C66.4302 75.7388 66.6538 75.8668 66.8859 75.978C67.4095 76.235 68.0203 76.4628 68.6457 76.715C71.1668 77.6508 73.9496 78.4459 76.6548 79.3042L76.2282 82.3976C74.7394 82.4149 73.2508 82.3566 71.7679 82.2231C70.2591 82.0988 68.7586 81.8883 67.2737 81.5927C66.4765 81.438 65.6896 81.2339 64.9175 80.9818C64.472 80.8394 64.0363 80.6677 63.6134 80.4678C63.3534 80.3468 63.1023 80.2075 62.8619 80.0509C62.5277 79.8377 62.2201 79.5854 61.9457 79.2993C61.8584 79.2023 61.776 79.1102 61.679 78.9841L61.5433 78.7999L61.4075 78.572C61.3076 78.4015 61.2217 78.2231 61.1506 78.0387L61.073 77.8156L60.8839 77.2823L60.5203 76.2253C60.2828 75.5222 60.0355 74.8191 59.8367 74.1209C58.9592 71.3184 58.1593 68.5304 57.4127 65.723C56.6661 62.9156 55.9582 60.1131 55.3086 57.2718L61.4511 55.822Z" fill="#FFC3BD"/>
<path d="M54.6346 52.4657C57.2962 49.4983 61.5141 51.5736 63.2933 58.2163C64.1563 61.4455 63.8848 63.1328 63.8848 63.1328L54.7025 65.9645C52.7293 61.6006 51.0131 56.5095 54.6346 52.4657Z" fill="#A6DD27"/>
<g opacity="0.2">
<path opacity="0.2" d="M54.6346 52.4657C57.2962 49.4983 61.5141 51.5736 63.2933 58.2163C64.1563 61.4455 63.8848 63.1328 63.8848 63.1328L54.7025 65.9645C52.7293 61.6006 51.0131 56.5095 54.6346 52.4657Z" fill="black"/>
</g>
<path d="M81.4682 78.0577L80.6441 77.8056C80.145 77.6546 79.6205 77.6068 79.1024 77.665L77.3328 77.8734C76.7623 78.0089 76.2269 78.2634 75.7615 78.6201C75.2962 78.9769 74.9114 79.4279 74.6324 79.9436L74.0312 81.1168C74.3318 83.2791 78.7145 82.5713 78.7145 82.5713H82.85L82.7142 79.6333C82.6934 79.2745 82.5627 78.9308 82.3398 78.6489C82.1169 78.367 81.8126 78.1606 81.4682 78.0577Z" fill="#FFC3BD"/>
<path d="M84.3059 73.3251C84.1884 74.1215 83.8528 74.8698 83.3363 75.4873C82.8951 76.1321 82.4394 76.7721 81.9788 77.4266C81.0528 78.6919 80.1074 79.9379 79.07 81.1257C79.0245 81.177 78.9619 81.21 78.8939 81.2185C78.8259 81.2269 78.7571 81.2102 78.7005 81.1715C78.644 81.1328 78.6035 81.0747 78.5867 81.0083C78.5699 80.9418 78.578 80.8715 78.6094 80.8106C79.3269 79.4046 80.1365 78.0665 80.9656 76.7381C81.3825 76.0756 81.8091 75.4179 82.2455 74.765C82.6221 74.0512 83.1872 73.4543 83.8793 73.039C83.9305 73.0077 83.9895 72.9914 84.0495 72.992C84.1096 72.9926 84.1682 73.0101 84.2188 73.0425C84.2694 73.0748 84.3098 73.1208 84.3355 73.175C84.3612 73.2293 84.3711 73.2897 84.3641 73.3493L84.3059 73.3251Z" fill="#263238"/>
<path d="M55.2501 49.591L50.0771 48.1364L43.4207 47.8261C42.4112 47.7788 41.4142 48.0644 40.5829 48.6391C39.7516 49.2138 39.1322 50.0457 38.8198 51.0069C37.5496 54.8858 36.3958 60.4715 35.5328 65.3056C34.5089 71.3941 33.9884 77.5566 33.9766 83.7306H58.8134C59.3225 69.9361 60.9466 63.1964 61.9065 58.3138C62.1881 56.8673 61.9814 55.3682 61.3189 54.0518C60.6564 52.7355 59.5756 51.6764 58.2462 51.0408L55.2501 49.591Z" fill="#A6DD27"/>
<path d="M48.3125 50.5597C48.9428 52.1789 51.3814 55.6405 54.2175 56.9931C55.7931 55.8538 56.1325 53.3667 56.3701 52.2032L48.3125 50.5597Z" fill="white"/>
<path d="M56.3725 52.2048C56.5564 51.5648 56.4797 50.878 56.1592 50.2944C55.7568 49.6641 55.8586 48.9416 56.261 48.1998C56.58 47.609 56.9798 47.0656 57.4488 46.5852L54.1957 42.7789L51.5438 39.7049C51.3159 42.5801 51.0929 46.1439 48.824 48.3743C48.024 49.1647 47.8544 49.4022 48.3149 50.5611C48.9452 52.1805 51.2238 54.44 54.0357 55.7928C54.6448 55.3808 55.1653 54.8512 55.5666 54.235C55.968 53.6188 56.242 52.9285 56.3725 52.2048Z" fill="#FFC3BD"/>
<path opacity="0.2" d="M56.4481 45.9284L54.6107 42.9468C54.5768 43.0244 54.5331 43.1068 54.4895 43.1941C54.3241 43.5632 54.1911 43.946 54.092 44.3382C53.7574 45.6617 54.8822 47.5525 56.1136 48.4542C56.167 48.3718 56.2106 48.2846 56.2591 48.1973C56.5726 47.6375 56.9448 47.1125 57.3693 46.6314C57.3936 46.6128 57.4195 46.5966 57.4469 46.5829L56.4481 45.9284Z" fill="black"/>
<path d="M62.8687 38.8014C63.2954 41.5502 67.232 34.4768 65.031 32.9254C62.3452 31.025 62.064 33.5702 62.8687 38.8014Z" fill="#263238"/>
<path d="M51.6637 35.2152C51.4115 39.6808 51.0285 42.2748 53.0793 44.8543C56.1627 48.7333 62.0822 47.4532 63.7161 43.1815C65.1705 39.3317 65.3499 32.6793 61.0593 30.3228C56.7687 27.9664 51.9158 30.7544 51.6637 35.2152Z" fill="#FFC3BD"/>
<path d="M60.4653 32.5332C60.4653 32.5332 63.3209 35.3357 65.3571 34.1769C67.3933 33.0181 67.8054 30.0167 65.3571 27.3888C64.179 26.1233 62.3949 24.8868 58.8945 24.9644C59.1707 25.2335 59.5013 25.4402 59.8642 25.5705C59.8642 25.5705 55.4233 24.8287 52.3302 26.1039C52.5779 26.4767 52.9101 26.7857 53.2998 27.0057C50.2891 26.7778 47.3609 27.9754 49.4213 30.8022C46.6918 31.0689 46.081 34.56 47.5354 36.8631C48.9898 39.1662 49.2468 40.8923 51.1909 41.9396C51.1909 38.8026 51.9132 38.0607 51.9132 38.0607C53.3144 37.4643 54.9288 34.4775 54.6039 32.9696C57.6001 34.1769 60.795 34.5745 60.4653 32.5332Z" fill="#263238"/>
<path d="M50.1348 30.7008C49.1847 30.0237 48.4466 29.0906 48.0065 28.0101C47.6574 29.5712 49.2718 31.3505 49.2718 31.3505L50.1348 30.7008Z" fill="#263238"/>
<path d="M49.4345 37.6533C49.4676 38.6758 49.8688 39.6519 50.5641 40.4022C51.4901 41.3718 52.7506 40.5477 52.9881 39.3017C53.182 38.1818 52.7069 36.4704 51.5337 35.9662C50.3604 35.462 49.4005 36.4025 49.4345 37.6533Z" fill="#FFC3BD"/>
<path d="M58.9732 37.5173C58.9005 37.8858 59.0314 38.23 59.2689 38.2882C59.5065 38.3464 59.7537 38.0943 59.8362 37.7258C59.9186 37.3574 59.778 37.0131 59.5404 36.955C59.3029 36.8968 59.0459 37.1537 58.9732 37.5173Z" fill="#263238"/>
<path d="M63.0961 38.5008C63.0185 38.8693 63.1543 39.2087 63.3918 39.2668C63.6294 39.325 63.8766 39.0729 63.9591 38.7045C64.0415 38.336 63.896 37.9918 63.6585 37.9385C63.4209 37.8851 63.1688 38.1324 63.0961 38.5008Z" fill="#263238"/>
<path d="M61.7248 38.4722C61.8319 39.5283 62.0798 40.5653 62.4617 41.5556C61.783 41.8999 60.9297 41.3811 60.9297 41.3811L61.7248 38.4722Z" fill="#ED847E"/>
<path d="M60.1674 43.4413C59.7405 43.352 59.3361 43.177 58.9786 42.927C58.6211 42.6771 58.318 42.3573 58.0876 41.9869C58.0783 41.9741 58.0719 41.9595 58.0687 41.944C58.0655 41.9285 58.0657 41.9125 58.0691 41.8971C58.0726 41.8817 58.0793 41.8672 58.0888 41.8546C58.0983 41.8419 58.1103 41.8315 58.1242 41.8239C58.138 41.8162 58.1533 41.8117 58.1691 41.8104C58.1848 41.8092 58.2007 41.8113 58.2155 41.8166C58.2304 41.8219 58.244 41.8304 58.2554 41.8413C58.2667 41.8523 58.2756 41.8656 58.2815 41.8803C58.5384 42.276 58.8827 42.6077 59.2877 42.8497C59.6928 43.0918 60.148 43.2378 60.6183 43.2765C60.6325 43.277 60.6466 43.2806 60.6594 43.2869C60.6722 43.2932 60.6835 43.3021 60.6927 43.3131C60.7018 43.324 60.7086 43.3368 60.7125 43.3506C60.7163 43.3643 60.7173 43.3787 60.7152 43.3929C60.7146 43.4073 60.7111 43.4215 60.7049 43.4345C60.6986 43.4476 60.6898 43.4592 60.6789 43.4687C60.668 43.4783 60.6553 43.4855 60.6416 43.4899C60.6278 43.4944 60.6133 43.496 60.5989 43.4947C60.4541 43.4855 60.31 43.4677 60.1674 43.4413Z" fill="#263238"/>
<path d="M58.4338 36.0334C58.4 36.0198 58.37 35.9982 58.3465 35.9704C58.3099 35.9251 58.2924 35.8673 58.2978 35.8093C58.3033 35.7513 58.3312 35.6978 58.3756 35.6601C58.6381 35.4336 58.9523 35.2752 59.2906 35.1991C59.6288 35.123 59.9806 35.1315 60.3148 35.2238C60.3701 35.2424 60.4157 35.2823 60.4417 35.3345C60.4676 35.3868 60.4716 35.4473 60.453 35.5025C60.4344 35.5578 60.3945 35.6034 60.3422 35.6294C60.29 35.6553 60.2295 35.6594 60.1742 35.6407C59.9111 35.574 59.6357 35.5718 59.3716 35.6343C59.1074 35.6967 58.8622 35.822 58.6568 35.9995C58.6262 36.0249 58.5893 36.0415 58.55 36.0475C58.5107 36.0535 58.4705 36.0486 58.4338 36.0334Z" fill="#263238"/>
<path d="M63.6069 36.1171C63.5998 36.0819 63.5998 36.0457 63.6069 36.0105C63.6239 35.9549 63.6614 35.9078 63.7119 35.879C63.7624 35.8501 63.8219 35.8417 63.8784 35.8553C64.2124 35.9443 64.5196 36.1136 64.7731 36.3486C65.0266 36.5835 65.2188 36.8769 65.3329 37.2031C65.341 37.2308 65.3436 37.2598 65.3404 37.2885C65.3372 37.3172 65.3284 37.345 65.3144 37.3702C65.3004 37.3955 65.2816 37.4177 65.259 37.4356C65.2363 37.4535 65.2104 37.4668 65.1826 37.4746C65.1549 37.4827 65.1259 37.4853 65.0972 37.4821C65.0685 37.4789 65.0407 37.4701 65.0155 37.4561C64.9902 37.4422 64.968 37.4233 64.9501 37.4007C64.9321 37.378 64.9189 37.3521 64.9111 37.3243C64.8178 37.0691 64.6634 36.8407 64.4614 36.659C64.2594 36.4773 64.016 36.3478 63.7524 36.282C63.7164 36.2686 63.6844 36.2466 63.659 36.2178C63.6336 36.189 63.6157 36.1545 63.6069 36.1171Z" fill="#263238"/>
<path d="M44.459 54.4838C43.5282 57.1408 42.5973 59.9094 41.7683 62.6247C41.3465 63.9823 40.9635 65.3448 40.6193 66.6879C40.2857 67.9778 40.0267 69.2859 39.8436 70.6056C39.8436 70.7511 39.8048 70.9111 39.8 71.0517V71.265C39.8 71.3329 39.8 71.4347 39.8 71.4008C39.8 71.3669 39.7612 71.4299 39.8 71.5317C39.9229 71.9023 40.1228 72.2427 40.3866 72.5305C41.2194 73.4525 42.164 74.2669 43.1985 74.9549C45.5331 76.5291 47.9707 77.9448 50.4949 79.1926L49.4574 82.1794C47.955 81.8515 46.4737 81.4338 45.0214 80.9285C43.5417 80.4214 42.097 79.8172 40.6969 79.1199C39.1614 78.3709 37.7411 77.4059 36.479 76.2543C35.6771 75.5153 35.031 74.6235 34.5786 73.6312C34.2962 72.9937 34.132 72.3103 34.0938 71.6141C34.0938 71.396 34.0938 71.3184 34.0938 71.202V70.8626C34.0938 70.6347 34.0938 70.4262 34.0938 70.208C34.1772 68.5936 34.3798 66.9876 34.6998 65.403C34.9907 63.8708 35.3543 62.3871 35.747 60.9131C36.5336 57.9855 37.4738 55.1014 38.5637 52.2728L44.459 54.4838Z" fill="#FFC3BD"/>
<path d="M43.0973 47.7953C47.8387 47.7517 48.7356 51.4415 46.1564 57.289C45.1695 59.4021 43.9638 61.4058 42.5591 63.2674L34.7197 59.1024C35.7669 54.4331 37.6819 47.8438 43.0973 47.7953Z" fill="#A6DD27"/>
<path d="M56.1871 78.7259L54.4515 77.7563C54.1676 77.6006 53.8416 77.5395 53.5206 77.5817L51.4359 77.8726C50.0348 78.0181 49.0119 79.0895 48.2507 80.0203L47.3635 81.1063C47.3199 83.2977 52.8564 82.7838 52.8564 82.7838L57.7046 82.7207L57.5543 80.8106C57.516 80.3773 57.3711 79.9602 57.1325 79.5965C56.894 79.2328 56.5692 78.9337 56.1871 78.7259Z" fill="#FFC3BD"/>
<path d="M159.616 81.643H28.3828V87.7855H159.616V81.643Z" fill="#E1197E"/>
<path opacity="0.3" d="M70.9492 81.643H28.3828V87.7855H70.9492V81.643Z" fill="white"/>
<path d="M31.8977 87.7863H29.8906V155.513H31.8977V87.7863Z" fill="#E1197E"/>
<path opacity="0.7" d="M32.0071 88.0005H30V155.727H32.0071V88.0005Z" fill="white"/>
<path d="M69.4446 87.7863H67.4375V155.513H69.4446V87.7863Z" fill="#E1197E"/>
<path opacity="0.7" d="M69.554 88.0005H67.5469V155.727H69.554V88.0005Z" fill="white"/>
<path d="M120.566 87.7863H118.559V155.513H120.566V87.7863Z" fill="#E1197E"/>
<path opacity="0.7" d="M120.675 88.0005H118.668V155.727H120.675V88.0005Z" fill="white"/>
<path d="M158.113 87.7863H156.105V155.513H158.113V87.7863Z" fill="#E1197E"/>
<path opacity="0.7" d="M158.113 87.7863H156.105V155.513H158.113V87.7863Z" fill="white"/>
<path d="M145.393 54.4898H109.517C108.902 54.5119 108.313 54.7423 107.846 55.1431C107.379 55.5439 107.062 56.0914 106.947 56.6959L103.205 79.4314C103.147 79.7024 103.152 79.9829 103.219 80.2517C103.286 80.5206 103.412 80.7708 103.59 80.9836C103.767 81.1964 103.99 81.3662 104.243 81.4803C104.495 81.5944 104.77 81.6498 105.047 81.6424H140.923C141.539 81.6211 142.13 81.3906 142.598 80.9887C143.066 80.5868 143.383 80.0376 143.497 79.4314L147.24 56.6959C147.297 56.4247 147.293 56.144 147.226 55.875C147.159 55.606 147.031 55.3558 146.853 55.1432C146.675 54.9307 146.451 54.7614 146.198 54.6482C145.945 54.535 145.67 54.4808 145.393 54.4898Z" fill="#263238"/>
<path d="M122.609 80.1604H88.8321C88.6098 80.1604 88.4297 80.3405 88.4297 80.5628V81.2415C88.4297 81.4637 88.6098 81.6439 88.8321 81.6439H122.609C122.831 81.6439 123.011 81.4637 123.011 81.2415V80.5628C123.011 80.3405 122.831 80.1604 122.609 80.1604Z" fill="#263238"/>
<path opacity="0.2" d="M145.393 54.4896H110.302C109.687 54.5118 109.098 54.7421 108.631 55.1429C108.165 55.5438 107.848 56.0913 107.733 56.6958L103.99 79.4312C103.932 79.7024 103.936 79.9832 104.002 80.2524C104.069 80.5217 104.195 80.7723 104.373 80.9853C104.55 81.1984 104.774 81.3682 105.027 81.482C105.28 81.5958 105.555 81.6506 105.832 81.6422H140.899C141.515 81.621 142.106 81.3904 142.574 80.9885C143.042 80.5867 143.359 80.0374 143.473 79.4312L147.216 56.6958C147.273 56.4266 147.268 56.1481 147.203 55.8809C147.137 55.6138 147.012 55.3649 146.837 55.1528C146.661 54.9408 146.44 54.771 146.19 54.6562C145.941 54.5413 145.668 54.4844 145.393 54.4896Z" fill="white"/>
<path d="M52.5312 80.1583C52.5312 80.1583 64.0843 81.8794 69.6596 79.6056C72.2679 80.8613 81.5569 81.4818 84.7906 80.1583C83.7919 81.317 81.4454 81.6418 81.4454 81.6418H57.0739C54.7323 81.6418 52.9433 80.6189 52.5312 80.1583Z" fill="#A6DD27"/>
<path opacity="0.7" d="M52.5312 80.1583C52.5312 80.1583 64.0843 81.8794 69.6596 79.6056C72.2679 80.8613 81.5569 81.4818 84.7906 80.1583C83.7919 81.317 81.4454 81.6418 81.4454 81.6418H57.0739C54.7323 81.6418 52.9433 80.6189 52.5312 80.1583Z" fill="white"/>
</svg>
