<svg width="188" height="165" viewBox="0 0 188 165" fill="none" xmlns="http://www.w3.org/2000/svg">
<path d="M128.225 13.7224C125.627 12.6087 122.989 11.5628 120.337 10.5314C109.046 6.17356 97.435 2.3483 85.3874 0.74072C62.2134 -2.32433 38.9134 3.8784 25.1593 23.9295C20.9303 30.1685 17.9992 37.1925 16.5401 44.5845C15.081 51.9766 15.1236 59.586 16.6655 66.9613C22.5268 94.2417 48.0764 109.204 72.7048 117.382C88.1702 122.515 103.98 127.066 120.289 123.076C139.386 118.399 155.651 103.601 163.107 85.5211C170.157 68.4236 169.105 48.2369 157.212 33.5992C150.241 25.0384 138.28 18.0367 128.225 13.7224Z" fill="#A6DD27"/>
<path opacity="0.8" d="M128.225 13.7224C125.627 12.6087 122.989 11.5628 120.337 10.5314C109.046 6.17356 97.435 2.3483 85.3874 0.74072C62.2134 -2.32433 38.9134 3.8784 25.1593 23.9295C20.9303 30.1685 17.9992 37.1925 16.5401 44.5845C15.081 51.9766 15.1236 59.586 16.6655 66.9613C22.5268 94.2417 48.0764 109.204 72.7048 117.382C88.1702 122.515 103.98 127.066 120.289 123.076C139.386 118.399 155.651 103.601 163.107 85.5211C170.157 68.4236 169.105 48.2369 157.212 33.5992C150.241 25.0384 138.28 18.0367 128.225 13.7224Z" fill="white" fill-opacity="0.5"/>
<path d="M94 165C145.915 165 188 162.546 188 159.519C188 156.491 145.915 154.037 94 154.037C42.0852 154.037 0 156.491 0 159.519C0 162.546 42.0852 165 94 165Z" fill="#F5F5F5"/>
<path d="M121.747 11.9316H65.9551C62.0406 11.9316 58.8672 15.1011 58.8672 19.0108V152.435C58.8672 156.345 62.0406 159.514 65.9551 159.514H121.747C125.662 159.514 128.835 156.345 128.835 152.435V19.0108C128.835 15.1011 125.662 11.9316 121.747 11.9316Z" fill="#E1197E"/>
<path opacity="0.7" d="M121.747 11.9316H65.9551C62.0406 11.9316 58.8672 15.1011 58.8672 19.0108V152.435C58.8672 156.345 62.0406 159.514 65.9551 159.514H121.747C125.662 159.514 128.835 156.345 128.835 152.435V19.0108C128.835 15.1011 125.662 11.9316 121.747 11.9316Z" fill="white"/>
<path d="M123.614 11.6789H67.8223C63.9078 11.6789 60.7344 14.8483 60.7344 18.758V152.182C60.7344 156.092 63.9078 159.261 67.8223 159.261H123.614C127.529 159.261 130.702 156.092 130.702 152.182V18.758C130.702 14.8483 127.529 11.6789 123.614 11.6789Z" fill="#E1197E"/>
<path opacity="0.2" d="M123.614 11.6789H67.8223C63.9078 11.6789 60.7344 14.8483 60.7344 18.758V152.182C60.7344 156.092 63.9078 159.261 67.8223 159.261H123.614C127.529 159.261 130.702 156.092 130.702 152.182V18.758C130.702 14.8483 127.529 11.6789 123.614 11.6789Z" fill="black"/>
<path d="M98.449 152.759C98.4499 153.383 98.2655 153.993 97.9191 154.512C97.5726 155.031 97.0798 155.436 96.5029 155.675C95.926 155.914 95.291 155.977 94.6783 155.855C94.0656 155.734 93.5028 155.434 93.0611 154.993C92.6194 154.551 92.3188 153.989 92.1971 153.377C92.0755 152.765 92.1384 152.131 92.3779 151.555C92.6174 150.979 93.0227 150.487 93.5424 150.141C94.0622 149.795 94.6731 149.61 95.2977 149.611C96.1335 149.611 96.935 149.943 97.526 150.533C98.1169 151.123 98.449 151.924 98.449 152.759Z" fill="#E1197E"/>
<path opacity="0.4" d="M98.449 152.759C98.4499 153.383 98.2655 153.993 97.9191 154.512C97.5726 155.031 97.0798 155.436 96.5029 155.675C95.926 155.914 95.291 155.977 94.6783 155.855C94.0656 155.734 93.5028 155.434 93.0611 154.993C92.6194 154.551 92.3188 153.989 92.1971 153.377C92.0755 152.765 92.1384 152.131 92.3779 151.555C92.6174 150.979 93.0227 150.487 93.5424 150.141C94.0622 149.795 94.6731 149.61 95.2977 149.611C96.1335 149.611 96.935 149.943 97.526 150.533C98.1169 151.123 98.449 151.924 98.449 152.759Z" fill="black"/>
<path d="M130.146 148.144H60.5273V21.3194H130.631L130.146 148.144Z" fill="#E1197E"/>
<path opacity="0.8" d="M130.758 148.075L60.4844 148.158V21.3286L130.695 21.256L130.758 148.075Z" fill="white"/>
<path opacity="0.33" d="M55.227 23.4457H54.7422V29.8469H55.227V23.4457Z" fill="#E1197E"/>
<path opacity="0.33" d="M55.227 31.623H54.7422V33.6276H55.227V31.623Z" fill="#E1197E"/>
<path d="M115.572 26.5688H67.28C64.6185 26.5688 62.4609 28.7236 62.4609 31.3818V60.1729C62.4609 62.8311 64.6185 64.986 67.28 64.986H115.572C118.233 64.986 120.391 62.8311 120.391 60.1729V31.3818C120.391 28.7236 118.233 26.5688 115.572 26.5688Z" fill="white"/>
<path opacity="0.27" d="M73.8074 41.3539C77.0756 39.9891 78.6173 36.2366 77.2509 32.9725C75.8844 29.7083 72.1273 28.1685 68.859 29.5333C65.5908 30.898 64.0491 34.6505 65.4156 37.9147C66.7821 41.1789 70.5392 42.7186 73.8074 41.3539Z" fill="#E1197E"/>
<path d="M76.6273 35.4449C76.6314 36.3248 76.4111 37.1913 75.9874 37.9628C75.3723 39.0959 74.3639 39.9657 73.1519 40.4085C71.9398 40.8513 70.6075 40.8366 69.4055 40.3673C68.2035 39.8979 67.2145 39.0062 66.6246 37.8598C66.0346 36.7133 65.8843 35.3911 66.2018 34.1417C66.5194 32.8924 67.2829 31.8019 68.3489 31.0753C69.415 30.3486 70.71 30.036 71.9906 30.1961C73.2713 30.3561 74.4492 30.9779 75.3031 31.9445C76.1569 32.9111 76.6279 34.1559 76.6273 35.4449Z" fill="white"/>
<path opacity="0.27" d="M75.9881 37.9566C75.5337 38.7938 74.8614 39.4928 74.0422 39.9799C73.223 40.467 72.2873 40.7242 71.3339 40.7242C70.3805 40.7242 69.4448 40.467 68.6256 39.9799C67.8064 39.4928 67.1341 38.7938 66.6797 37.9566C68.0576 37.0379 69.6771 36.5476 71.3339 36.5476C72.9906 36.5476 74.6102 37.0379 75.9881 37.9566Z" fill="#E1197E"/>
<path opacity="0.27" d="M71.3367 35.9823C72.6379 35.9823 73.6928 34.9287 73.6928 33.6291C73.6928 32.3294 72.6379 31.2758 71.3367 31.2758C70.0354 31.2758 68.9805 32.3294 68.9805 33.6291C68.9805 34.9287 70.0354 35.9823 71.3367 35.9823Z" fill="#E1197E"/>
<path d="M116.837 68.5352H66.0146C64.052 68.5352 62.4609 70.1243 62.4609 72.0845V78.4325C62.4609 80.3927 64.052 81.9817 66.0146 81.9817H116.837C118.8 81.9817 120.391 80.3927 120.391 78.4325V72.0845C120.391 70.1243 118.8 68.5352 116.837 68.5352Z" fill="white"/>
<path opacity="0.6" d="M130.237 83.2836L137.087 102.139C137.264 102.632 137.238 103.175 137.015 103.649C136.793 104.124 136.392 104.491 135.899 104.671L99.9601 117.692C99.4669 117.868 98.9238 117.843 98.449 117.622C97.9742 117.401 97.606 117.001 97.4246 116.51L90.5742 97.6502C90.3965 97.1576 90.4217 96.6148 90.6444 96.1409C90.8672 95.667 91.2691 95.3007 91.762 95.1226L127.701 82.0973C128.195 81.921 128.738 81.9467 129.213 82.1689C129.688 82.3911 130.056 82.7918 130.237 83.2836Z" fill="#E1197E"/>
<path d="M129.146 82.143L118.873 99.0274C117.922 100.593 116.464 101.787 114.74 102.411C113.016 103.036 111.13 103.053 109.395 102.46L90.6719 96.0786C90.8974 95.6297 91.2858 95.2834 91.7579 95.1102L127.697 82.0849C128.17 81.9212 128.688 81.942 129.146 82.143Z" fill="#E1197E"/>
<path opacity="0.5" d="M129.146 82.143L118.873 99.0274C117.922 100.593 116.464 101.787 114.74 102.411C113.016 103.036 111.13 103.053 109.395 102.46L90.6719 96.0786C90.8974 95.6297 91.2858 95.2834 91.7579 95.1102L127.697 82.0849C128.17 81.9212 128.688 81.942 129.146 82.143Z" fill="white"/>
<path opacity="0.6" d="M118.966 115.692L118.636 132.678C118.626 133.121 118.441 133.542 118.121 133.85C117.802 134.157 117.373 134.326 116.93 134.319L84.5492 133.69C84.3295 133.685 84.1129 133.638 83.9116 133.55C83.7104 133.462 83.5285 133.335 83.3763 133.177C83.2241 133.018 83.1047 132.832 83.0247 132.627C82.9448 132.423 82.906 132.205 82.9105 131.985L83.2353 114.999C83.2412 114.77 83.2936 114.543 83.3894 114.335C83.4853 114.126 83.6225 113.938 83.7929 113.784C84.1083 113.502 84.5188 113.35 84.9419 113.358L117.322 113.982C117.767 113.993 118.189 114.178 118.497 114.498C118.805 114.819 118.974 115.248 118.966 115.692Z" fill="#E1197E"/>
<path d="M118.456 114.457L105.192 124.684C103.962 125.631 102.445 126.131 100.892 126.101C99.3384 126.071 97.842 125.513 96.6494 124.519L83.8164 113.784C84.1319 113.502 84.5423 113.35 84.9654 113.358L117.346 113.982C117.762 113.997 118.158 114.167 118.456 114.457Z" fill="#E1197E"/>
<path opacity="0.5" d="M118.456 114.457L105.192 124.684C103.962 125.631 102.445 126.131 100.892 126.101C99.3384 126.071 97.842 125.513 96.6494 124.519L83.8164 113.784C84.1319 113.502 84.5423 113.35 84.9654 113.358L117.346 113.982C117.762 113.997 118.158 114.167 118.456 114.457Z" fill="white"/>
<path d="M86.3008 15.6739C86.3017 15.4539 86.368 15.239 86.4911 15.0565C86.6142 14.874 86.7887 14.732 86.9925 14.6485C87.1963 14.5649 87.4204 14.5436 87.6364 14.5871C87.8523 14.6306 88.0506 14.737 88.206 14.893C88.3615 15.0489 88.4672 15.2474 88.5098 15.4633C88.5525 15.6792 88.5301 15.9029 88.4456 16.1061C88.361 16.3093 88.2181 16.4829 88.0348 16.6051C87.8516 16.7273 87.6362 16.7925 87.4158 16.7925C87.269 16.7925 87.1236 16.7635 86.988 16.7072C86.8524 16.651 86.7293 16.5685 86.6257 16.4646C86.5221 16.3606 86.44 16.2373 86.3843 16.1016C86.3285 15.9659 86.3002 15.8206 86.3008 15.6739Z" fill="#E1197E"/>
<path d="M91.2713 14.5592H100.536C100.831 14.5605 101.114 14.6783 101.323 14.8868C101.532 15.0954 101.65 15.3779 101.651 15.6729C101.651 15.9687 101.534 16.2525 101.325 16.4621C101.116 16.6717 100.832 16.7902 100.536 16.7914H91.2713C90.9751 16.7902 90.6915 16.6717 90.4825 16.4621C90.2736 16.2525 90.1562 15.9687 90.1563 15.6729C90.1575 15.3779 90.2754 15.0954 90.4843 14.8868C90.6931 14.6783 90.976 14.5605 91.2713 14.5592Z" fill="#E1197E"/>
<path opacity="0.4" d="M86.3008 15.6739C86.3017 15.4539 86.368 15.239 86.4911 15.0565C86.6142 14.874 86.7887 14.732 86.9925 14.6485C87.1963 14.5649 87.4204 14.5436 87.6364 14.5871C87.8523 14.6306 88.0506 14.737 88.206 14.893C88.3615 15.0489 88.4672 15.2474 88.5098 15.4633C88.5525 15.6792 88.5301 15.9029 88.4456 16.1061C88.361 16.3093 88.2181 16.4829 88.0348 16.6051C87.8516 16.7273 87.6362 16.7925 87.4158 16.7925C87.269 16.7925 87.1236 16.7635 86.988 16.7072C86.8524 16.651 86.7293 16.5685 86.6257 16.4646C86.5221 16.3606 86.44 16.2373 86.3843 16.1016C86.3285 15.9659 86.3002 15.8206 86.3008 15.6739Z" fill="black"/>
<path opacity="0.4" d="M91.2713 14.5592H100.536C100.831 14.5605 101.114 14.6783 101.323 14.8868C101.532 15.0954 101.65 15.3779 101.651 15.6729C101.651 15.9687 101.534 16.2525 101.325 16.4621C101.116 16.6717 100.832 16.7902 100.536 16.7914H91.2713C90.9751 16.7902 90.6915 16.6717 90.4825 16.4621C90.2736 16.2525 90.1562 15.9687 90.1563 15.6729C90.1575 15.3779 90.2754 15.0954 90.4843 14.8868C90.6931 14.6783 90.976 14.5605 91.2713 14.5592Z" fill="black"/>
<path d="M130.799 36.9992H126.178C125.105 36.9992 124.234 37.8685 124.234 38.9409V52.9975C124.234 54.0698 125.105 54.9392 126.178 54.9392H130.799C131.872 54.9392 132.743 54.0698 132.743 52.9975V38.9409C132.743 37.8685 131.872 36.9992 130.799 36.9992Z" fill="#E1197E"/>
<path opacity="0.8" d="M130.799 36.9992H126.178C125.105 36.9992 124.234 37.8685 124.234 38.9409V52.9975C124.234 54.0698 125.105 54.9392 126.178 54.9392H130.799C131.872 54.9392 132.743 54.0698 132.743 52.9975V38.9409C132.743 37.8685 131.872 36.9992 130.799 36.9992Z" fill="white"/>
<path d="M131.284 60.114H125.694C124.888 60.114 124.234 60.7666 124.234 61.5715V68.7766C124.234 69.5815 124.888 70.234 125.694 70.234H131.284C132.089 70.234 132.743 69.5815 132.743 68.7766V61.5715C132.743 60.7666 132.089 60.114 131.284 60.114Z" fill="#E1197E"/>
<path opacity="0.8" d="M131.284 60.114H125.694C124.888 60.114 124.234 60.7666 124.234 61.5715V68.7766C124.234 69.5815 124.888 70.234 125.694 70.234H131.284C132.089 70.234 132.743 69.5815 132.743 68.7766V61.5715C132.743 60.7666 132.089 60.114 131.284 60.114Z" fill="white"/>
<path d="M69.2617 144.601L72.8251 144.945L76.5339 136.476L72.9705 136.128L69.2617 144.601Z" fill="#E4897B"/>
<path d="M33.0859 118.662L35.1173 121.736L42.9033 118.023L40.8671 114.943L33.0859 118.662Z" fill="#E4897B"/>
<path d="M76.5271 136.476L74.6169 140.844H70.8984L72.9589 136.128L76.5271 136.476Z" fill="#CE6F64"/>
<path d="M40.8658 114.946L42.8972 118.021L38.8878 119.933L36.8516 116.859L40.8658 114.946Z" fill="#CE6F64"/>
<path d="M109.33 57.921L109.447 58.1825L109.597 58.4875C109.694 58.6909 109.805 58.8991 109.917 59.1073C110.145 59.5189 110.402 59.9353 110.644 60.3324C111.155 61.1452 111.717 61.9248 112.326 62.6663C112.947 63.4006 113.609 64.099 114.309 64.7581C114.673 65.0776 115.027 65.4069 115.405 65.7265L115.972 66.172L116.103 66.2785C116.042 66.2593 115.978 66.2464 115.914 66.2398C115.774 66.2253 115.632 66.247 115.502 66.3027C115.423 66.3257 115.352 66.3711 115.298 66.4334C115.264 66.4819 115.352 66.4044 115.424 66.2785C115.616 65.9254 115.768 65.5518 115.875 65.1648C116.141 64.2244 116.35 63.2688 116.501 62.3031C116.666 61.3057 116.801 60.284 116.908 59.2623C117.015 58.2406 117.126 57.1995 117.223 56.1827L119.094 56.1537C119.211 57.2334 119.259 58.2842 119.303 59.3591C119.347 60.4341 119.327 61.4993 119.303 62.5888C119.26 63.709 119.132 64.8243 118.92 65.925C118.797 66.5592 118.6 67.1767 118.333 67.765C118.14 68.1814 117.874 68.5601 117.548 68.8835C117.295 69.1209 116.999 69.3067 116.675 69.4307C116.298 69.5718 115.893 69.6215 115.492 69.576C115.168 69.5333 114.853 69.4351 114.561 69.2854C114.445 69.2269 114.332 69.1623 114.222 69.0918L114.038 68.9707L113.33 68.4865C112.845 68.1669 112.419 67.8134 111.977 67.46C111.105 66.7325 110.287 65.9428 109.529 65.097C108.777 64.2438 108.085 63.3394 107.459 62.3903C107.149 61.9061 106.863 61.4219 106.586 60.9376C106.451 60.681 106.32 60.4292 106.194 60.1629L106.009 59.7513C105.946 59.6061 105.898 59.4899 105.82 59.2913L109.33 57.921Z" fill="#E4897B"/>
<path d="M110.973 60.4237L107.715 64.9124L109.063 66.2343L112.529 62.0701L110.973 60.4237Z" fill="#F5F5F5"/>
<path d="M105.856 54.5031C109.526 55.4715 112.057 60.6138 112.057 60.6138L107.819 66.5454C107.819 66.5454 102.719 60.1393 102.85 58.1153C102.976 55.9945 103.645 53.9075 105.856 54.5031Z" fill="#E1197E"/>
<path opacity="0.7" d="M105.856 54.5031C109.526 55.4715 112.057 60.6138 112.057 60.6138L107.819 66.5454C107.819 66.5454 102.719 60.1393 102.85 58.1153C102.976 55.9945 103.645 53.9075 105.856 54.5031Z" fill="white"/>
<path d="M109.027 56.397C109.027 56.397 110.234 57.8206 96.2619 74.7098L83.332 67.1465C86.6287 62.0187 88.5341 58.7793 92.3398 46.5191C94.3725 47.2021 96.3525 48.0323 98.2642 49.0031C100.293 50.0238 102.255 51.1704 104.14 52.4362C106.525 54.1406 109.027 56.397 109.027 56.397Z" fill="#E1197E"/>
<path opacity="0.7" d="M109.027 56.397C109.027 56.397 110.234 57.8206 96.2619 74.7098L83.332 67.1465C86.6287 62.0187 88.5341 58.7793 92.3398 46.5191C94.3725 47.2021 96.3525 48.0323 98.2642 49.0031C100.293 50.0238 102.255 51.1704 104.14 52.4362C106.525 54.1406 109.027 56.397 109.027 56.397Z" fill="white"/>
<path d="M107.345 54.9387C106.434 54.1833 105.265 53.2488 104.136 52.4353C102.261 51.1535 100.297 50.0062 98.2597 49.0022C97.1155 48.4067 95.9423 47.8837 94.9436 47.4867C94.7836 47.753 94.9145 48.5665 95.4041 49.7576C97.2658 52.1544 101.59 55.6843 105.197 56.3864C106.875 56.1443 107.398 55.6117 107.345 54.9387Z" fill="#F5F5F5"/>
<path d="M95.4023 49.7573C96.4887 52.1753 97.9353 54.4151 99.6929 56.4007C101.523 56.5831 103.366 56.5831 105.196 56.4007C101.589 55.684 97.264 52.1541 95.4023 49.7573Z" fill="#F5F5F5"/>
<path d="M96.2726 74.7101C96.2726 74.7101 96.4811 107.888 90.5906 117.466C84.4626 127.426 76.4729 139.575 76.4729 139.575L69.5547 139.241C69.5547 139.241 77.6219 121.267 80.6665 112.924C84.8602 101.424 86.7994 69.1707 86.7994 69.1707L96.2726 74.7101Z" fill="#E1197E"/>
<path opacity="0.4" d="M96.2726 74.7101C96.2726 74.7101 96.4811 107.888 90.5906 117.466C84.4626 127.426 76.4729 139.575 76.4729 139.575L69.5547 139.241C69.5547 139.241 77.6219 121.267 80.6665 112.924C84.8602 101.424 86.7994 69.1707 86.7994 69.1707L96.2726 74.7101Z" fill="black"/>
<path opacity="0.2" d="M88.9114 75.6334C87.7912 76.5825 86.8275 77.7018 86.0559 78.9502C85.8377 81.4197 85.5711 84.1942 85.2656 87.0995C87.3746 84.2378 89.0423 79.2165 88.9114 75.6334Z" fill="black"/>
<path d="M92.8529 72.7292C92.8529 72.7292 78.2165 93.4824 69.0972 104.687C61.7281 113.718 40.3964 120.182 40.3964 120.182L37.793 115.824C37.793 115.824 54.7614 106.362 59.8228 100.252C76.0252 80.6896 75.8215 70.5454 83.3458 67.1995L92.8529 72.7292Z" fill="#E1197E"/>
<path opacity="0.4" d="M92.8529 72.7292C92.8529 72.7292 78.2165 93.4824 69.0972 104.687C61.7281 113.718 40.3964 120.182 40.3964 120.182L37.793 115.824C37.793 115.824 54.7614 106.362 59.8228 100.252C76.0252 80.6896 75.8215 70.5454 83.3458 67.1995L92.8529 72.7292Z" fill="black"/>
<path d="M117.263 56.638L116.293 52.7643L119.992 53.8393C119.992 53.8393 119.89 56.4443 118.61 57.2917L117.263 56.638Z" fill="#E4897B"/>
<path d="M117.472 49.6568L120.071 50.969L120.008 53.8598L116.309 52.7848L117.472 49.6568Z" fill="#E4897B"/>
<path d="M71.0031 51.0803L67.6094 48.9982L71.0031 47.1872C71.0031 47.1872 72.7435 49.1241 72.4235 50.6251L71.0031 51.0803Z" fill="#E4897B"/>
<path d="M66.2617 45.9423L69.0397 45.0707L71.0177 47.1867L67.6095 48.9977L66.2617 45.9423Z" fill="#E4897B"/>
<path d="M35.9712 121.412L34.764 117.451C34.7428 117.383 34.6977 117.325 34.6372 117.288C34.5766 117.251 34.5046 117.236 34.4344 117.248L31.1619 117.732C31.0799 117.747 31.0022 117.78 30.9337 117.827C30.8652 117.875 30.8076 117.936 30.7646 118.008C30.7215 118.079 30.6941 118.159 30.684 118.241C30.6739 118.324 30.6815 118.408 30.7062 118.487C31.1522 119.858 31.4334 120.502 31.9667 122.24C32.2915 123.315 32.8587 125.731 33.3096 127.213C33.7605 128.694 35.2488 128.326 35.1955 127.668C34.9483 124.724 35.4331 123.218 35.9324 122.051C36.0175 121.849 36.0312 121.623 35.9712 121.412Z" fill="#263238"/>
<path d="M73.3002 143.845H68.9369C68.8582 143.845 68.7819 143.872 68.7197 143.92C68.6575 143.968 68.6129 144.035 68.5927 144.111L67.6231 147.573C67.5993 147.655 67.5952 147.74 67.611 147.824C67.6269 147.907 67.6623 147.986 67.7143 148.053C67.7663 148.12 67.8335 148.173 67.9103 148.21C67.9871 148.246 68.0714 148.263 68.1563 148.261C69.6883 148.236 70.4349 148.149 72.3596 148.149C73.5426 148.149 76.6066 148.27 78.2404 148.27C79.8742 148.27 80.1796 146.653 79.5155 146.508C76.5436 145.854 74.837 144.949 73.9207 144.087C73.7521 143.93 73.5303 143.844 73.3002 143.845Z" fill="#263238"/>
<path d="M83.5906 66.2744L82.3301 67.0927C82.2332 67.1556 82.2865 67.3106 82.4368 67.3977L96.0115 75.3242C96.1278 75.392 96.2587 75.392 96.3072 75.3242L97.1023 74.2348C97.1556 74.1573 97.1023 74.0314 96.9665 73.9588L83.8767 66.3034C83.8365 66.2723 83.7884 66.2531 83.7378 66.248C83.6873 66.2428 83.6363 66.252 83.5906 66.2744Z" fill="#263238"/>
<path d="M91.2734 52.0721C90.3571 52.8033 89.4845 53.394 88.5585 54.0089C87.6325 54.6239 86.692 55.1517 85.7223 55.6746C83.7766 56.7381 81.7284 57.6028 79.6089 58.2555C79.3471 58.3475 79.0659 58.4104 78.7992 58.483C78.5326 58.5557 78.2756 58.6283 77.9557 58.6961C77.2607 58.8518 76.5442 58.8879 75.837 58.8026C75.0873 58.7136 74.366 58.4624 73.7233 58.0666C73.1258 57.6894 72.6019 57.207 72.1767 56.643C71.4591 55.644 70.9451 54.5137 70.6641 53.3165C70.5205 52.7646 70.4169 52.2031 70.3538 51.6363C70.2768 51.0715 70.2396 50.502 70.2423 49.9319L72.104 49.7721C72.3285 50.7173 72.6318 51.6422 73.0106 52.537C73.3402 53.3566 73.8185 54.1084 74.4214 54.7546C74.6377 54.9982 74.9014 55.1951 75.1965 55.3333C75.4916 55.4715 75.8119 55.5481 76.1376 55.5584C76.4799 55.5558 76.8198 55.502 77.146 55.3986C77.5678 55.2631 78.0623 55.1081 78.5132 54.9435C80.3792 54.2428 82.1839 53.3893 83.9091 52.3917C84.7915 51.9075 85.6351 51.3506 86.4883 50.8132C87.3416 50.2757 88.1803 49.6704 88.9124 49.1184L91.2734 52.0721Z" fill="#E4897B"/>
<path d="M85.2773 50.8032L86.9548 55.8681L88.5304 54.9239L87.0566 49.9026L85.2773 50.8032Z" fill="#F5F5F5"/>
<path d="M36.3431 123.488C36.2614 123.487 36.1814 123.465 36.1103 123.425C35.708 123.183 35.5964 122.326 35.5625 121.837C35.5623 121.82 35.5667 121.803 35.5752 121.789C35.5838 121.774 35.5961 121.762 35.611 121.754C35.6259 121.746 35.6425 121.742 35.6595 121.742C35.6764 121.742 35.6931 121.746 35.708 121.754C35.8243 121.851 36.8424 122.723 36.7794 123.178C36.7727 123.23 36.7521 123.28 36.7197 123.322C36.6873 123.364 36.6443 123.396 36.5952 123.415C36.5182 123.459 36.4317 123.484 36.3431 123.488ZM35.7564 122.035C35.8195 122.689 35.9794 123.144 36.1976 123.275C36.2477 123.301 36.3034 123.315 36.36 123.315C36.4166 123.315 36.4724 123.301 36.5224 123.275C36.5903 123.241 36.6049 123.202 36.6049 123.168C36.6388 122.921 36.154 122.394 35.7564 122.035Z" fill="#E1197E"/>
<path d="M36.9562 122.437C36.4585 122.394 35.9844 122.206 35.5939 121.894C35.5861 121.882 35.582 121.868 35.582 121.853C35.582 121.839 35.5861 121.824 35.5939 121.812C35.5973 121.797 35.6045 121.784 35.6147 121.773C35.6249 121.762 35.6378 121.754 35.6521 121.749C35.6957 121.749 36.7138 121.43 37.1695 121.71C37.2272 121.744 37.2766 121.791 37.3143 121.846C37.352 121.901 37.3771 121.964 37.3877 122.03C37.4074 122.097 37.4037 122.168 37.3773 122.232C37.3508 122.297 37.3032 122.35 37.2423 122.383C37.1527 122.424 37.0545 122.443 36.9562 122.437ZM35.8411 121.87C36.2144 122.127 36.9077 122.354 37.1356 122.229C37.1695 122.229 37.2132 122.17 37.1938 122.059C37.1867 122.018 37.1704 121.978 37.1461 121.944C37.1218 121.909 37.09 121.881 37.0532 121.861C36.658 121.738 36.2343 121.741 35.8411 121.87Z" fill="#E1197E"/>
<path d="M75.238 144.567C74.8347 144.56 74.4333 144.509 74.0405 144.417C74.0228 144.413 74.0068 144.403 73.9947 144.389C73.9826 144.375 73.9749 144.358 73.9727 144.34C73.9725 144.322 73.9775 144.304 73.9869 144.289C73.9963 144.273 74.0099 144.261 74.026 144.253C74.3169 144.112 75.8101 143.439 76.2076 143.705C76.2457 143.732 76.2758 143.769 76.2946 143.812C76.3134 143.854 76.3202 143.901 76.3143 143.948C76.3122 144.029 76.2915 144.109 76.2537 144.181C76.2159 144.253 76.162 144.316 76.0961 144.364C75.8381 144.519 75.5382 144.59 75.238 144.567ZM74.346 144.301C74.8308 144.388 75.6453 144.485 75.9895 144.224C76.0361 144.191 76.0741 144.147 76.1003 144.097C76.1264 144.046 76.14 143.99 76.1398 143.933C76.1426 143.918 76.1414 143.902 76.1363 143.888C76.1312 143.874 76.1223 143.861 76.1107 143.851C75.8925 143.705 74.9956 144.015 74.346 144.301Z" fill="#E1197E"/>
<path d="M74.0588 144.416C74.0417 144.423 74.0226 144.423 74.0055 144.416C73.992 144.406 73.9819 144.393 73.9766 144.377C73.9714 144.362 73.9713 144.345 73.9764 144.329C73.9764 144.261 74.3546 142.678 75.2272 142.789C75.4551 142.813 75.5133 142.929 75.5278 143.017C75.586 143.433 74.5873 144.227 74.0734 144.431L74.0588 144.416ZM75.1497 142.939C74.6261 142.939 74.3109 143.787 74.18 144.169C74.6649 143.893 75.3727 143.264 75.3387 143.021C75.3387 142.983 75.2854 142.954 75.1933 142.944L75.1497 142.939Z" fill="#E1197E"/>
<path d="M84.483 68.7678L84.134 68.5644C84.0661 68.5208 84.0322 68.453 84.0612 68.4143L85.1084 67.0052C85.1375 66.9665 85.2199 66.9665 85.2878 67.0052L85.6417 67.2134C85.7096 67.2522 85.7435 67.32 85.7145 67.3587L84.6673 68.7678C84.6382 68.8065 84.5557 68.8065 84.483 68.7678Z" fill="#E1197E"/>
<path d="M94.9361 74.8734L94.5871 74.6652C94.5192 74.6265 94.4853 74.5587 94.5144 74.52L95.5615 73.1109C95.5906 73.0722 95.6731 73.0722 95.7409 73.1109L96.0948 73.3143C96.1627 73.3579 96.1966 73.4256 96.1627 73.4644L95.1204 74.8734C95.0913 74.9122 95.0089 74.9122 94.9361 74.8734Z" fill="#E1197E"/>
<path d="M89.7124 71.8184L89.3585 71.6151C89.2907 71.5763 89.2567 71.5085 89.2907 71.4649L90.333 70.0607C90.3669 70.0172 90.4445 70.0172 90.5172 70.0607L90.8663 70.2641C90.939 70.3028 90.9681 70.3706 90.939 70.4142L89.8918 71.8184C89.8627 71.862 89.7803 71.862 89.7124 71.8184Z" fill="#E1197E"/>
<path opacity="0.4" d="M84.483 68.7678L84.134 68.5644C84.0661 68.5208 84.0322 68.453 84.0612 68.4143L85.1084 67.0052C85.1375 66.9665 85.2199 66.9665 85.2878 67.0052L85.6417 67.2134C85.7096 67.2522 85.7435 67.32 85.7145 67.3587L84.6673 68.7678C84.6382 68.8065 84.5557 68.8065 84.483 68.7678Z" fill="black"/>
<path opacity="0.4" d="M94.9361 74.8734L94.5871 74.6652C94.5192 74.6265 94.4853 74.5587 94.5144 74.52L95.5615 73.1109C95.5906 73.0722 95.6731 73.0722 95.7409 73.1109L96.0948 73.3143C96.1627 73.3579 96.1966 73.4256 96.1627 73.4644L95.1204 74.8734C95.0913 74.9122 95.0089 74.9122 94.9361 74.8734Z" fill="black"/>
<path opacity="0.4" d="M89.7124 71.8184L89.3585 71.6151C89.2907 71.5763 89.2567 71.5085 89.2907 71.4649L90.333 70.0607C90.3669 70.0172 90.4445 70.0172 90.5172 70.0607L90.8663 70.2641C90.939 70.3028 90.9681 70.3706 90.939 70.4142L89.8918 71.8184C89.8627 71.862 89.7803 71.862 89.7124 71.8184Z" fill="black"/>
<path d="M99.4091 49.9706C99.4091 47.0654 98.4395 35.6332 103.21 34.6647C104.718 33.0765 112.189 32.9119 113.333 36.9502C114.846 42.2523 112.606 55.1904 112.606 55.1904L99.4091 49.9706Z" fill="#263238"/>
<path d="M113.603 55.2202C113.587 55.2184 113.571 55.2134 113.557 55.2056C113.543 55.1978 113.531 55.1873 113.521 55.1747C113.511 55.1621 113.504 55.1476 113.5 55.1321C113.495 55.1167 113.494 55.1005 113.496 55.0846C113.496 54.9539 115.072 42.0109 113.331 36.888C112.846 35.4838 111.499 34.5008 109.501 34.1135C106.903 33.605 104.091 34.2394 103.31 35.14C103.288 35.1622 103.257 35.1746 103.225 35.1746C103.194 35.1746 103.163 35.1622 103.141 35.14C103.118 35.1165 103.105 35.0853 103.105 35.0528C103.105 35.0203 103.118 34.9891 103.141 34.9657C104.052 33.9101 107.111 33.3823 109.564 33.8617C111.649 34.2636 113.074 35.3143 113.579 36.796C115.334 41.9819 113.768 54.9684 113.753 55.0991C113.753 55.1175 113.748 55.1356 113.74 55.1521C113.732 55.1686 113.721 55.1831 113.706 55.1946C113.692 55.2062 113.675 55.2144 113.657 55.2189C113.639 55.2233 113.621 55.2237 113.603 55.2202Z" fill="#263238"/>
<path d="M102.725 42.7426C101.993 44.844 100.335 48.5192 98.2742 49.0034C98.2742 49.0034 97.6682 51.2211 101.183 53.2741C105.062 55.5306 104.15 52.4364 104.15 52.4364C102.337 50.703 103.302 49.1729 104.528 47.9236L102.725 42.7426Z" fill="#E4897B"/>
<path d="M103.447 44.8532L104.513 47.9183C104.225 48.2077 103.961 48.5202 103.723 48.8528C102.986 48.2669 102.196 46.8385 102.603 45.9475C102.816 45.5352 103.102 45.1646 103.447 44.8532Z" fill="#CE6F64"/>
<path d="M102.751 38.5526C101.748 42.0728 101.249 43.54 102.368 45.9175C104.051 49.5006 108.593 49.9606 110.61 46.8133C112.443 43.9806 113.771 38.7027 110.882 36.1606C110.248 35.5977 109.481 35.2053 108.654 35.0202C107.826 34.8352 106.965 34.8637 106.152 35.103C105.338 35.3423 104.599 35.7846 104.005 36.3881C103.41 36.9917 102.978 37.7366 102.751 38.5526Z" fill="#E4897B"/>
<path d="M101.715 40.7712C104.221 41.7057 110.112 38.6019 111.716 36.6989C111.93 33.7646 105.041 34.9219 105.041 34.9219C105.041 34.9219 101.366 33.7937 101.715 40.7712Z" fill="#263238"/>
<path d="M101.123 41.4718C100.96 42.1597 101.076 42.8842 101.448 43.4861C101.932 44.2802 102.824 43.9703 103.212 43.1859C103.561 42.4693 103.721 41.1861 102.97 40.668C102.803 40.5581 102.611 40.4915 102.412 40.4744C102.212 40.4573 102.012 40.4901 101.828 40.5699C101.645 40.6497 101.484 40.774 101.361 40.9315C101.238 41.089 101.156 41.2747 101.123 41.4718Z" fill="#E4897B"/>
<path d="M107.641 41.3574C107.539 41.6382 107.607 41.9191 107.791 41.982C107.976 42.045 108.203 41.8707 108.305 41.5898C108.407 41.309 108.334 41.033 108.15 40.9652C107.966 40.8974 107.738 41.0766 107.641 41.3574Z" fill="#263238"/>
<path d="M110.81 42.4756C110.713 42.7564 110.781 43.0324 110.965 43.1002C111.149 43.168 111.377 42.9888 111.474 42.708C111.571 42.4272 111.503 42.1463 111.324 42.0834C111.144 42.0204 110.912 42.1947 110.81 42.4756Z" fill="#263238"/>
<path d="M111.242 42.0695L111.984 42.1132C111.984 42.1132 111.451 42.5204 111.242 42.0695Z" fill="#263238"/>
<path d="M109.804 42.6606C109.829 43.3873 109.953 44.1073 110.172 44.8008C109.993 44.8533 109.805 44.8657 109.62 44.8373C109.436 44.8088 109.26 44.7402 109.105 44.6362L109.804 42.6606Z" fill="#DE5753"/>
<path d="M107.759 45.4002H107.73C107.35 45.2767 107.004 45.0642 106.723 44.7804C106.441 44.4966 106.231 44.1496 106.111 43.7684C106.107 43.7454 106.111 43.7215 106.124 43.7017C106.136 43.6819 106.156 43.6677 106.179 43.6619C106.19 43.6591 106.202 43.6586 106.213 43.6606C106.224 43.6625 106.235 43.6668 106.245 43.6732C106.254 43.6796 106.263 43.6879 106.269 43.6977C106.275 43.7074 106.279 43.7183 106.281 43.7297C106.398 44.0802 106.595 44.3986 106.857 44.6599C107.119 44.9212 107.438 45.1183 107.788 45.2356C107.808 45.2424 107.824 45.2559 107.835 45.2736C107.845 45.2914 107.849 45.3123 107.846 45.3326C107.842 45.353 107.832 45.3714 107.816 45.3847C107.8 45.3979 107.78 45.4052 107.759 45.4051V45.4002Z" fill="#263238"/>
<path d="M107.497 40.2485C107.458 40.2491 107.42 40.2364 107.388 40.2124C107.357 40.1884 107.335 40.1545 107.326 40.1164C107.316 40.0782 107.32 40.0379 107.336 40.0021C107.352 39.9662 107.38 39.9369 107.415 39.9189C107.656 39.7827 107.926 39.7059 108.202 39.695C108.479 39.684 108.754 39.7392 109.005 39.8559C109.028 39.8651 109.048 39.879 109.065 39.8967C109.082 39.9144 109.095 39.9355 109.103 39.9586C109.112 39.9816 109.115 40.0061 109.113 40.0306C109.111 40.055 109.104 40.0787 109.093 40.1003C109.081 40.1218 109.065 40.1407 109.046 40.1557C109.026 40.1706 109.004 40.1813 108.98 40.1871C108.956 40.1928 108.931 40.1935 108.907 40.189C108.883 40.1846 108.86 40.1751 108.84 40.1613C108.64 40.0724 108.421 40.0322 108.202 40.044C107.983 40.0558 107.77 40.1193 107.58 40.2292C107.554 40.2425 107.526 40.2491 107.497 40.2485Z" fill="#263238"/>
<path d="M112.82 41.5314C112.782 41.5314 112.745 41.5184 112.715 41.4947C112.685 41.471 112.664 41.4378 112.655 41.4007C112.606 41.1876 112.508 40.9889 112.368 40.8207C112.228 40.6524 112.051 40.5194 111.85 40.4323C111.806 40.4168 111.77 40.385 111.749 40.3434C111.729 40.3019 111.725 40.2539 111.739 40.2095C111.746 40.1875 111.757 40.1671 111.772 40.1497C111.788 40.1323 111.806 40.1181 111.827 40.1081C111.848 40.0982 111.871 40.0926 111.894 40.0917C111.917 40.0908 111.94 40.0947 111.962 40.103C112.218 40.2082 112.446 40.3736 112.624 40.5852C112.803 40.7968 112.929 41.0482 112.99 41.3184C112.995 41.3406 112.997 41.3638 112.994 41.3866C112.99 41.4094 112.983 41.4313 112.971 41.4511C112.959 41.4709 112.944 41.4882 112.925 41.502C112.907 41.5158 112.886 41.5258 112.863 41.5314H112.82Z" fill="#263238"/>
<path d="M108.055 40.9547L108.796 40.9984C108.796 40.9984 108.278 41.4008 108.055 40.9547Z" fill="#263238"/>
<path d="M92.3461 46.5177C90.8189 46.1546 86.1211 49.7281 86.1211 49.7281L88.1137 56.076C88.1137 56.076 93.0248 53.3596 93.4805 51.3598C93.9314 49.2874 94.0865 46.9342 92.3461 46.5177Z" fill="#E1197E"/>
<path opacity="0.7" d="M92.3461 46.5177C90.8189 46.1546 86.1211 49.7281 86.1211 49.7281L88.1137 56.076C88.1137 56.076 93.0248 53.3596 93.4805 51.3598C93.9314 49.2874 94.0865 46.9342 92.3461 46.5177Z" fill="white"/>
<path d="M148.291 6.12033H112.318C110.775 6.12033 109.295 6.73251 108.204 7.82219C107.113 8.91188 106.5 10.3898 106.5 11.9309V23.0677C106.5 24.6087 107.113 26.0867 108.204 27.1763C109.295 28.266 110.775 28.8782 112.318 28.8782H115.324V34.5919L121.044 28.8782H148.291C149.834 28.8782 151.313 28.266 152.404 27.1763C153.495 26.0867 154.108 24.6087 154.108 23.0677V11.9309C154.108 10.3898 153.495 8.91188 152.404 7.82219C151.313 6.73251 149.834 6.12033 148.291 6.12033Z" fill="#7AA31A"/>
<path opacity="0.3" d="M148.291 6.12033H112.318C110.775 6.12033 109.295 6.73251 108.204 7.82219C107.113 8.91188 106.5 10.3898 106.5 11.9309V23.0677C106.5 24.6087 107.113 26.0867 108.204 27.1763C109.295 28.266 110.775 28.8782 112.318 28.8782H115.324V34.5919L121.044 28.8782H148.291C149.834 28.8782 151.313 28.266 152.404 27.1763C153.495 26.0867 154.108 24.6087 154.108 23.0677V11.9309C154.108 10.3898 153.495 8.91188 152.404 7.82219C151.313 6.73251 149.834 6.12033 148.291 6.12033Z" fill="#7AA31A"/>
<g opacity="0.54">
<path opacity="0.54" d="M147.445 10.7496H113.15C112.413 10.7496 111.816 11.3457 111.816 12.0812C111.816 12.8166 112.413 13.4127 113.15 13.4127H147.445C148.181 13.4127 148.778 12.8166 148.778 12.0812C148.778 11.3457 148.181 10.7496 147.445 10.7496Z" fill="#F5F5F5"/>
</g>
<g opacity="0.54">
<path opacity="0.54" d="M147.441 18.704H125.459C125.105 18.7027 124.765 18.5615 124.514 18.3111C124.264 18.0608 124.122 17.7216 124.121 17.3676C124.122 17.014 124.264 16.6753 124.515 16.4257C124.766 16.1761 125.105 16.036 125.459 16.036H147.441C147.794 16.036 148.133 16.1763 148.383 16.426C148.633 16.6757 148.774 17.0144 148.774 17.3676C148.774 17.7212 148.633 18.0604 148.384 18.3108C148.134 18.5613 147.795 18.7027 147.441 18.704Z" fill="#F5F5F5"/>
</g>
<g opacity="0.54">
<path opacity="0.54" d="M118.933 18.704H113.15C112.796 18.7027 112.457 18.5613 112.207 18.3108C111.957 18.0604 111.816 17.7212 111.816 17.3676C111.816 17.0144 111.957 16.6757 112.207 16.426C112.457 16.1763 112.796 16.036 113.15 16.036H118.933C119.287 16.036 119.626 16.1763 119.876 16.426C120.126 16.6757 120.267 17.0144 120.267 17.3676C120.267 17.7212 120.126 18.0604 119.876 18.3108C119.627 18.5613 119.287 18.7027 118.933 18.704Z" fill="#F5F5F5"/>
</g>
<g opacity="0.54">
<path opacity="0.54" d="M138.879 23.9923H113.15C112.796 23.9923 112.457 23.852 112.207 23.6023C111.957 23.3526 111.816 23.0139 111.816 22.6608C111.816 22.3072 111.957 21.968 112.207 21.7175C112.457 21.467 112.796 21.3256 113.15 21.3243H138.879C139.233 21.3256 139.572 21.467 139.822 21.7175C140.071 21.968 140.212 22.3072 140.212 22.6608C140.212 23.0139 140.071 23.3526 139.821 23.6023C139.571 23.852 139.232 23.9923 138.879 23.9923Z" fill="#F5F5F5"/>
</g>
</svg>
