<svg width="188" height="161" viewBox="0 0 188 161" fill="none" xmlns="http://www.w3.org/2000/svg">
<path d="M121.329 0.0191498C90.9247 0.882452 44.5471 28.887 33.6742 58.5318C23.4389 86.4453 40.0598 124.056 71.1013 123.615C106.841 123.112 140.831 98.1958 157.874 68.2728C173.454 40.978 158.276 -1.02641 121.329 0.0191498Z" fill="#A6DD27"/>
<path opacity="0.9" d="M121.329 0.0191498C90.9247 0.882452 44.5471 28.887 33.6742 58.5318C23.4389 86.4453 40.0598 124.056 71.1013 123.615C106.841 123.112 140.831 98.1958 157.874 68.2728C173.454 40.978 158.276 -1.02641 121.329 0.0191498Z" fill="white" fill-opacity="0.6"/>
<path d="M92.9519 161C144.288 161 185.904 158.57 185.904 155.571C185.904 152.573 144.288 150.142 92.9519 150.142C41.616 150.142 0 152.573 0 155.571C0 158.57 41.616 161 92.9519 161Z" fill="#F5F5F5"/>
<path opacity="0.6" d="M21.4521 36.1349C21.1836 34.6672 20.9183 33.2012 20.6562 31.7368L21.1357 31.6457C21.3993 33.1133 21.6678 34.5761 21.9315 36.0437L21.4521 36.1349Z" fill="#A6DD27"/>
<path opacity="0.6" d="M22.292 37.9474L21.7969 38.0381L22.2685 40.6139L22.7636 40.5232L22.292 37.9474Z" fill="#A6DD27"/>
<path opacity="0.8" d="M153.351 90.8142L32.6851 91.8262C28.0876 68.1861 25.9734 46.7427 22.0039 23.0402C62.4034 24.1193 100.665 22.9443 141.064 24.0234C144.842 46.3254 148.938 68.589 153.351 90.8142Z" fill="#E1197E"/>
<path d="M33.3754 91.0871C33.3461 91.0876 33.3176 91.0778 33.2948 91.0594C33.272 91.041 33.2564 91.0151 33.2508 90.9864C30.6284 77.4853 28.7923 64.3775 27.0185 51.6965C25.7625 42.7182 24.4633 33.4329 22.8812 23.9414C22.8777 23.9231 22.8782 23.9043 22.8828 23.8863C22.8875 23.8682 22.8961 23.8515 22.9081 23.8372C22.92 23.823 22.935 23.8116 22.9519 23.8039C22.9688 23.7962 22.9873 23.7923 23.0059 23.7927L140.35 24.7519C140.379 24.7533 140.408 24.7645 140.43 24.7835C140.453 24.8026 140.468 24.8286 140.474 24.8574C144.147 46.4735 148.169 68.3822 152.426 89.9648C152.431 89.983 152.431 90.0021 152.427 90.0204C152.422 90.0387 152.414 90.0558 152.402 90.0703C152.391 90.0849 152.376 90.0968 152.36 90.1051C152.343 90.1134 152.325 90.1179 152.306 90.1183L33.3754 91.1111V91.0871ZM23.1545 24.0421C24.7269 33.4904 26.0309 42.747 27.2678 51.6582C29.0368 64.3007 30.8681 77.3702 33.5001 90.8329L152.172 89.8353C147.924 68.3343 143.921 46.5119 140.264 24.9773L23.1545 24.0421Z" fill="#FAFAFA"/>
<path opacity="0.5" d="M117.84 81.2457C114.555 65.022 111.432 48.7775 108.473 32.5123L136.072 32.8576C139.003 48.8926 142.092 64.9053 145.339 80.8955L117.84 81.2457Z" fill="#FAFAFA"/>
<path d="M112.658 35.826L112.652 36.3293L123.251 36.4441L123.257 35.9407L112.658 35.826Z" fill="#FAFAFA"/>
<path d="M112.904 37.1752L112.898 37.6786L121.029 37.7609L121.034 37.2576L112.904 37.1752Z" fill="#FAFAFA"/>
<path opacity="0.7" d="M130.789 36.9631C130.645 36.1861 131.086 35.5674 131.776 35.5722C132.151 35.6107 132.503 35.7731 132.776 36.0336C133.048 36.2941 133.226 36.638 133.282 37.0111C133.426 37.788 132.985 38.4067 132.294 38.4019C131.919 38.3651 131.566 38.2033 131.293 37.9424C131.02 37.6816 130.843 37.3368 130.789 36.9631Z" fill="#A6DD27"/>
<path opacity="0.7" d="M130.264 36.9584C130.063 35.8601 130.691 34.9728 131.674 34.9872C132.202 35.0379 132.699 35.2628 133.086 35.6265C133.473 35.9902 133.728 36.4722 133.812 36.9967C134.013 38.095 133.385 38.9727 132.407 38.9679C131.878 38.9182 131.38 38.6938 130.992 38.33C130.604 37.9662 130.348 37.4837 130.264 36.9584Z" fill="#A6DD27"/>
<path opacity="0.7" d="M115.416 50.796C114.751 47.2789 114.094 43.7697 113.445 40.2686L133.926 40.4412C134.565 43.9136 135.218 47.386 135.886 50.8584L115.416 50.796Z" fill="#A6DD27"/>
<path d="M133.076 41.1068C133.187 41.1187 133.291 41.1663 133.372 41.2424C133.453 41.3186 133.508 41.4191 133.527 41.5289C134.041 44.2818 134.559 47.0348 135.08 49.7878C135.09 49.8353 135.091 49.8844 135.082 49.9322C135.073 49.98 135.054 50.0254 135.027 50.066C135.003 50.1025 134.969 50.1322 134.929 50.1523C134.89 50.1724 134.846 50.1823 134.802 50.1811L116.264 50.1139C116.152 50.103 116.047 50.0559 115.965 49.9796C115.882 49.9034 115.827 49.8023 115.808 49.6919C115.281 46.9101 114.76 44.1299 114.245 41.3514C114.234 41.3034 114.233 41.2537 114.241 41.2051C114.249 41.1566 114.267 41.1101 114.293 41.0684C114.319 41.0321 114.354 41.0027 114.394 40.9826C114.434 40.9626 114.479 40.9525 114.523 40.9533L133.076 41.1068ZM133.048 40.891L114.49 40.7375C114.416 40.7407 114.345 40.7608 114.28 40.7962C114.216 40.8316 114.16 40.8813 114.118 40.9416C114.076 41.0019 114.048 41.0711 114.037 41.1438C114.026 41.2165 114.031 41.2908 114.053 41.361C114.571 44.1427 115.094 46.9229 115.621 49.7014C115.647 49.866 115.727 50.0171 115.849 50.1309C115.97 50.2447 116.126 50.3147 116.292 50.3297L134.831 50.3921C134.904 50.3887 134.975 50.3687 135.039 50.3335C135.103 50.2984 135.158 50.2491 135.2 50.1895C135.242 50.1298 135.27 50.0613 135.282 49.9892C135.293 49.9171 135.288 49.8433 135.267 49.7734C134.746 47.0236 134.228 44.2722 133.714 41.5193C133.688 41.3555 133.609 41.2049 133.488 41.0912C133.367 40.9774 133.212 40.907 133.048 40.891Z" fill="#FAFAFA"/>
<path opacity="0.2" d="M122.331 46.6906C122.134 45.6451 122.728 44.7962 123.658 44.8057C124.162 44.8547 124.636 45.0696 125.005 45.4168C125.373 45.764 125.617 46.2239 125.696 46.7242C125.892 47.7745 125.298 48.6426 124.373 48.6139C123.868 48.5649 123.393 48.3494 123.023 48.0013C122.654 47.6532 122.41 47.1922 122.331 46.6906Z" fill="black"/>
<path opacity="0.2" d="M117.182 44.5562C116.986 43.5059 117.58 42.6378 118.51 42.6378C119.013 42.6891 119.485 42.9048 119.854 43.2516C120.222 43.5984 120.466 44.0569 120.547 44.5562C120.744 45.6066 120.15 46.4507 119.224 46.4507C118.724 46.4008 118.254 46.1887 117.885 45.8467C117.516 45.5047 117.27 45.0515 117.182 44.5562Z" fill="black"/>
<path opacity="0.2" d="M126.026 44.2295C125.829 43.1792 126.424 42.3111 127.349 42.3446C127.853 42.3944 128.326 42.6096 128.694 42.9566C129.063 43.3037 129.306 43.7631 129.387 44.2631C129.583 45.3086 128.993 46.1527 128.063 46.1479C127.559 46.099 127.086 45.884 126.717 45.5368C126.348 45.1896 126.105 44.7298 126.026 44.2295Z" fill="black"/>
<path opacity="0.7" d="M120.375 76.2244C119.186 70.2964 118.019 64.3668 116.875 58.4356H137.331C138.469 64.3061 139.626 70.1733 140.802 76.0374L120.375 76.2244Z" fill="#A6DD27"/>
<path opacity="0.1" d="M119.827 65.7685L119.223 62.6894L136.644 62.6366C136.841 63.6534 137.042 64.6702 137.239 65.6869L119.827 65.7685Z" fill="black"/>
<path opacity="0.1" d="M121.52 74.3684C121.314 73.3421 121.112 72.3157 120.906 71.2893L138.313 71.1599C138.515 72.1766 138.721 73.1934 138.922 74.2102L121.52 74.3684Z" fill="black"/>
<path opacity="0.1" d="M120.664 70.0851C120.462 69.0587 120.259 68.0324 120.055 67.006L137.471 66.9149C137.67 67.9316 137.869 68.9484 138.071 69.9652L120.664 70.0851Z" fill="black"/>
<path d="M115.856 52.8626L115.855 53.366L129.725 53.3927L129.726 52.8893L115.856 52.8626Z" fill="#FAFAFA"/>
<path d="M127.164 54.8481H116.238V55.3515H127.164V54.8481Z" fill="#FAFAFA"/>
<path d="M78.2119 81.9946L78.1687 81.7884C74.856 65.3233 71.6584 48.5896 68.6621 32.0622L68.6094 31.76L96.7217 32.1101L96.76 32.3164C99.718 48.6232 102.882 65.0979 106.166 81.3423L106.224 81.6445L78.2119 81.9946ZM69.2134 32.2732C72.1809 48.6328 75.345 65.189 78.6242 81.4862L105.61 81.1457C102.364 65.0595 99.229 48.7335 96.2998 32.6137L69.2134 32.2732Z" fill="#FAFAFA"/>
<path d="M72.9431 34.6722L72.9375 35.1755L78.4072 35.2367L78.4128 34.7333L72.9431 34.6722Z" fill="#FAFAFA"/>
<path d="M73.1889 36.0195L73.1836 36.5228L77.3781 36.5668L77.3834 36.0634L73.1889 36.0195Z" fill="#FAFAFA"/>
<path d="M92.7643 38.2488C92.3289 38.21 91.9191 38.0265 91.6002 37.7274C91.2813 37.4284 91.0717 37.0311 91.0049 36.599C90.9556 36.3746 90.9568 36.142 91.0082 35.9181C91.0595 35.6942 91.1599 35.4845 91.3021 35.304C91.4207 35.167 91.5682 35.058 91.734 34.985C91.8998 34.912 92.0798 34.8768 92.2609 34.882C92.6954 34.9218 93.1041 35.1058 93.4221 35.4047C93.74 35.7037 93.9489 36.1004 94.0155 36.5318C94.0643 36.7552 94.0634 36.9865 94.0129 37.2095C93.9624 37.4324 93.8634 37.6415 93.7231 37.822C93.607 37.9623 93.4601 38.0739 93.2938 38.148C93.1274 38.222 92.9462 38.2565 92.7643 38.2488ZM91.5082 36.5126C91.5573 36.828 91.7071 37.119 91.9352 37.342C92.1634 37.5651 92.4576 37.7082 92.7739 37.75C92.8772 37.7527 92.9798 37.7316 93.0737 37.6883C93.1676 37.6451 93.2504 37.5809 93.3156 37.5006C93.4087 37.3777 93.4734 37.2357 93.5049 37.0847C93.5364 36.9337 93.5339 36.7777 93.4978 36.6277C93.4473 36.313 93.297 36.0228 93.0691 35.8C92.8412 35.5772 92.5478 35.4336 92.2321 35.3903C92.1278 35.3871 92.024 35.4074 91.9286 35.4497C91.8331 35.4921 91.7485 35.5554 91.6808 35.6349C91.5901 35.76 91.5277 35.9032 91.4979 36.0548C91.4681 36.2063 91.4716 36.3626 91.5082 36.5126Z" fill="#FAFAFA"/>
<path d="M96.678 50.9863L75.6848 50.9L75.6465 50.6937C74.9689 47.1158 74.301 43.5347 73.6426 39.9504L73.5898 39.6531L94.583 39.8305L94.6213 40.0368C95.2765 43.5827 95.9397 47.1254 96.6109 50.665L96.678 50.9863ZM76.1163 50.4204L96.0691 50.4827C95.4299 47.1094 94.7987 43.7346 94.1755 40.3581L74.2035 40.1854C74.8363 43.5971 75.4739 47.0087 76.1163 50.4204Z" fill="#FAFAFA"/>
<path d="M76.0344 50.9009L75.7852 50.4644C81.8832 46.9297 88.1011 43.3758 94.2662 39.913L94.5107 40.3494C88.3504 43.8026 82.1373 47.3566 76.0344 50.9009Z" fill="#FAFAFA"/>
<path d="M96.2627 50.9632C88.7983 47.4093 81.2381 43.769 73.793 40.1527L74.0135 39.7019C81.4586 43.3182 89.0189 46.9536 96.4832 50.5028L96.2627 50.9632Z" fill="#FAFAFA"/>
<path d="M80.7342 76.8727L80.6959 76.6664C79.4925 70.6521 78.2988 64.5466 77.1435 58.5131L77.0859 58.2158H98.0551L98.0934 58.422C99.244 64.4028 100.428 70.4459 101.617 76.3835L101.675 76.6856L80.7342 76.8727ZM77.6948 58.7194C78.8214 64.5802 79.9815 70.5178 81.1465 76.3643L101.061 76.1676C99.9104 70.4123 98.755 64.5179 97.638 58.705L77.6948 58.7194Z" fill="#FAFAFA"/>
<path d="M81.1278 76.8001L80.7539 76.4596C86.3102 70.3925 92.0007 64.2823 97.6625 58.2871L98.0316 58.6324C92.3699 64.618 86.6793 70.7282 81.1278 76.8001Z" fill="#FAFAFA"/>
<path d="M101.216 76.6183C93.2295 70.7143 85.1611 64.676 77.2461 58.6665L77.5481 58.2636C85.4775 64.2731 93.5411 70.3115 101.518 76.2107L101.216 76.6183Z" fill="#FAFAFA"/>
<path d="M76.3525 52.7854L76.3516 53.2888L90.2207 53.3155L90.2217 52.8121L76.3525 52.7854Z" fill="#FAFAFA"/>
<path d="M87.6717 54.81H76.7461V55.3134H87.6717V54.81Z" fill="#FAFAFA"/>
<g opacity="0.6">
<path opacity="0.6" d="M29.6055 31.2642C32.0504 44.5559 34.6073 57.8251 37.276 71.072C38.0047 74.7075 38.7397 78.3446 39.4812 81.9832C39.5723 82.4149 40.1476 82.4101 40.0565 81.9832C37.3495 68.7363 34.7415 55.4671 32.2326 42.1754C31.5487 38.5367 30.8695 34.8949 30.1951 31.2498C30.1136 30.8134 29.5384 30.8038 29.6199 31.2498L29.6055 31.2642Z" fill="#FAFAFA"/>
<path opacity="0.6" d="M38.719 81.384C46.153 81.2657 53.5949 81.2002 61.0449 81.1874C63.1447 81.1874 65.2461 81.1874 67.3491 81.1874C67.723 81.1874 67.6223 80.5163 67.2484 80.5163C59.7952 80.4939 52.3485 80.5243 44.9081 80.6074C42.8083 80.6297 40.7117 80.6585 38.6183 80.6936C38.2492 80.6936 38.3499 81.384 38.719 81.3744V81.384Z" fill="#FAFAFA"/>
<path opacity="0.6" d="M67.2153 81.0248C64.5371 67.9506 61.9578 54.8652 59.4777 41.7686C58.781 38.1779 58.113 34.5856 57.4738 30.9917C57.3923 30.5601 56.817 30.5505 56.8937 30.9917C59.3195 44.1011 61.8444 57.1977 64.4683 70.2815C65.1874 73.869 65.9145 77.4549 66.6496 81.0392C66.7407 81.4709 67.316 81.4613 67.2249 81.0392L67.2153 81.0248Z" fill="#FAFAFA"/>
<path opacity="0.6" d="M58.1998 31.6146C50.7402 31.5539 43.2743 31.434 35.802 31.2551C33.6926 31.2039 31.5832 31.148 29.4738 31.0873C29.0999 31.0873 29.191 31.7584 29.5601 31.768C37.0388 31.979 44.5111 32.1292 51.9771 32.2187C54.0833 32.2474 56.1879 32.2698 58.2909 32.2858C58.66 32.2858 58.5737 31.6194 58.1998 31.6146Z" fill="#FAFAFA"/>
<path opacity="0.6" d="M37.7016 54.7361L50.8133 54.4437L54.289 54.367C54.6581 54.367 54.567 53.691 54.1979 53.6958L40.6979 53.9883L37.6105 54.0602C37.2413 54.0602 37.3324 54.7457 37.7016 54.7361Z" fill="#FAFAFA"/>
<path opacity="0.6" d="M34.1605 36.0847L41.692 35.9889C42.0611 35.9889 41.9748 35.3081 41.6057 35.3129L34.0694 35.4088C33.7051 35.4088 33.7914 36.0895 34.1605 36.0847Z" fill="#FAFAFA"/>
<path opacity="0.6" d="M42.1327 77.6728C48.0006 77.7927 53.7918 77.3373 59.6214 77.1934C61.0596 77.1599 62.469 77.1407 63.9025 77.1695C64.2716 77.1695 64.1709 76.5031 63.8018 76.4983C57.9291 76.3785 52.1379 76.8243 46.3083 76.9777C44.8701 77.0113 43.4606 77.0352 42.032 77.0065C41.6581 77.0065 41.7588 77.6776 42.1327 77.6824V77.6728Z" fill="#FAFAFA"/>
<path opacity="0.6" d="M38.7318 60.0124C45.7982 59.8301 52.8742 59.715 59.931 59.4848L59.5955 59.149C60.7892 65.0819 62.0548 71.0099 63.1478 76.9475C63.2246 77.3743 63.7998 77.3743 63.7183 76.9475C62.6253 71.0099 61.3645 65.0867 60.1707 59.1538C60.1614 59.068 60.1231 58.9879 60.062 58.9269C60.001 58.8658 59.921 58.8274 59.8352 58.8181C52.7783 59.0483 45.7023 59.1586 38.6359 59.3361C38.2667 59.3361 38.3626 60.0267 38.7318 60.0171V60.0124Z" fill="#FAFAFA"/>
<path opacity="0.6" d="M42.2716 77.6246C46.965 72.9196 51.5098 68.0323 56.1744 63.3081C57.464 62.0084 58.7536 60.723 60.0671 59.4712C60.326 59.217 59.9569 58.6367 59.6932 58.8909C54.8991 63.5192 50.2921 68.4208 45.6227 73.2409C44.3858 74.5215 43.1441 75.7972 41.8881 77.0538C41.6292 77.3128 42.0032 77.898 42.2668 77.6342L42.2716 77.6246Z" fill="#FAFAFA"/>
<path opacity="0.6" d="M63.6028 77.0101C56.9726 72.6553 50.5534 67.7584 44.0239 63.1014C42.2501 61.84 40.4715 60.593 38.669 59.3844C38.3238 59.1542 38.1177 59.7441 38.4628 59.9743C45.1361 64.4443 51.6081 69.3891 58.1951 74.0222C59.9162 75.2356 61.6468 76.4202 63.4015 77.5809C63.7466 77.8063 63.948 77.226 63.6028 76.9957V77.0101Z" fill="#FAFAFA"/>
<path opacity="0.6" d="M38.4046 59.0538C39.4306 65.1497 40.49 71.2599 41.794 77.3366C41.8899 77.7683 42.4604 77.7683 42.3693 77.3366C41.0605 71.2599 40.0011 65.1545 38.9799 59.0538C38.908 58.6222 38.3327 58.6174 38.4046 59.0538Z" fill="#FAFAFA"/>
<path opacity="0.6" d="M36.9466 51.4092C42.8097 51.4811 48.6249 51.2031 54.4641 51.1216C55.9023 51.1216 57.3117 51.088 58.7451 51.1216C59.1143 51.1216 59.0232 50.4552 58.6493 50.4504C52.7861 50.3689 46.971 50.647 41.127 50.7285C39.6888 50.7285 38.2793 50.762 36.8507 50.7285C36.4816 50.7285 36.5775 51.4044 36.9466 51.4092Z" fill="#FAFAFA"/>
<path opacity="0.6" d="M34.9922 40.5117C42.0682 40.3966 49.149 40.3294 56.2202 40.1904L55.8895 39.8546C56.6038 43.5141 57.3852 47.1783 57.9797 50.8473C58.0468 51.2742 58.6221 51.2838 58.5549 50.8473C57.9605 47.1783 57.1791 43.5189 56.4647 39.8594C56.4264 39.6772 56.2922 39.5141 56.1292 39.5189C49.0579 39.658 41.9771 39.7251 34.9011 39.8306C34.532 39.8306 34.6183 40.5165 34.9922 40.5117Z" fill="#FAFAFA"/>
<path opacity="0.6" d="M37.0849 51.379C42.1474 48.5014 47.1236 45.451 52.167 42.5398C53.5573 41.7388 54.9571 40.9427 56.3618 40.1657C56.6734 39.9931 56.3043 39.4079 55.9926 39.5806C50.8582 42.4199 45.8293 45.4606 40.7667 48.4438C39.4196 49.2304 38.0677 50.0217 36.711 50.7939C36.3994 50.9714 36.7733 51.5565 37.0849 51.379Z" fill="#FAFAFA"/>
<path opacity="0.6" d="M58.3419 50.7329C52.1672 48.0758 46.0691 45.0111 39.9328 42.1478C38.2452 41.3613 36.5769 40.5891 34.8654 39.8457C34.4963 39.6874 34.434 40.3253 34.7983 40.498C41.0306 43.2222 47.1718 46.3157 53.3609 49.1741C54.9973 49.9319 56.6368 50.6673 58.2796 51.3804C58.6439 51.5386 58.7015 50.9008 58.3419 50.7329Z" fill="#FAFAFA"/>
<path opacity="0.6" d="M34.7084 39.7737C35.2453 43.5339 35.811 47.318 36.602 51.0686C36.6931 51.5003 37.2684 51.505 37.1773 51.0686C36.3863 47.3228 35.8206 43.5387 35.2597 39.7785C35.1974 39.3421 34.6221 39.3373 34.6844 39.7785L34.7084 39.7737Z" fill="#FAFAFA"/>
<path opacity="0.6" d="M53.2361 33.7204C52.9197 33.7314 52.6196 33.8633 52.3975 34.0891C52.1754 34.3148 52.0483 34.6172 52.0424 34.9338C52.0222 35.3224 52.0938 35.7102 52.2512 36.066C52.4086 36.4217 52.6474 36.7355 52.9485 36.9818C53.1959 37.1819 53.5057 37.2886 53.8238 37.2833C54.1419 37.2781 54.448 37.1612 54.6887 36.953C54.9205 36.7409 55.0948 36.4735 55.1954 36.1758C55.296 35.878 55.3196 35.5597 55.264 35.2504C55.2278 35.0365 55.1462 34.833 55.0246 34.6534C54.903 34.4739 54.7443 34.3225 54.5593 34.2096C54.2333 34.0034 53.797 33.7684 53.4662 33.9027C53.3922 33.938 53.335 34.0011 53.3072 34.0783C53.2794 34.1556 53.2831 34.2406 53.3176 34.3151C53.3799 34.483 53.5621 34.6125 53.7011 34.5501C53.8402 34.4878 54.1326 34.6604 54.2908 34.7564C54.3819 34.7979 54.4632 34.8583 54.5293 34.9335C54.5954 35.0087 54.6448 35.0971 54.6743 35.1928C54.7218 35.3917 54.7191 35.5994 54.6663 35.7969C54.6136 35.9945 54.5126 36.1759 54.3723 36.3247C54.2444 36.467 54.0733 36.5634 53.8854 36.5989C53.6974 36.6344 53.503 36.6072 53.332 36.5213C53.1252 36.3834 52.9531 36.1996 52.8292 35.9841C52.7053 35.7686 52.6329 35.5273 52.6177 35.2791C52.6008 35.1739 52.606 35.0662 52.633 34.9631C52.66 34.8599 52.7082 34.7635 52.7745 34.68C52.8408 34.5966 52.9238 34.5278 53.0181 34.4782C53.1124 34.4286 53.2161 34.3992 53.3224 34.3919C53.6964 34.3919 53.6053 33.7252 53.2361 33.7204Z" fill="#FAFAFA"/>
</g>
<path d="M68.0575 26.594C66.2597 26.5652 64.8791 28.0999 64.8407 30.1479C64.8024 32.1958 66.0344 34.7282 67.8514 35.7114C68.6473 36.1336 69.5677 36.2573 70.4468 36.0603C71.3259 35.8634 72.1056 35.3586 72.6454 34.6371C73.6618 33.3565 74.2275 30.9728 73.1248 29.1791C72.8458 28.7229 72.4774 28.328 72.0417 28.0181C71.6061 27.7082 71.1122 27.4897 70.5899 27.3759C70.0676 27.262 69.5276 27.2552 69.0026 27.3557C68.4776 27.4563 67.9783 27.6621 67.535 27.9609C67.2425 28.1719 67.6069 28.757 67.9041 28.546C68.5697 28.082 69.3808 27.8749 70.1873 27.9631C70.9937 28.0513 71.741 28.4287 72.2907 29.0256C73.5227 30.4213 73.2063 32.5508 72.4153 33.7834C72.0495 34.4085 71.4935 34.9002 70.8285 35.1866C70.1635 35.4731 69.4244 35.5394 68.7191 35.3757C67.046 34.944 65.742 32.9153 65.4735 31.0592C65.1667 28.9824 66.3125 27.1983 68.139 27.2223C68.5082 27.2223 68.4219 26.5604 68.0527 26.5556L68.0575 26.594Z" fill="#FAFAFA"/>
<path d="M95.2343 67.8553C97.1519 70.9823 100.728 72.3876 103.466 71.2125C106.309 69.9943 108.231 66.3493 107.521 62.6275C106.836 59.0544 103.787 56.1383 100.771 55.1168C97.9813 54.1575 94.2036 54.6372 93.101 57.6779C91.8353 61.2366 94.4816 65.8841 97.5738 67.8169C97.9238 68.0327 98.1299 67.462 97.7847 67.2462C96.4403 66.3899 95.3364 65.2047 94.5775 63.8025C93.8153 62.4213 93.2256 60.7906 93.3646 59.2846C93.6715 55.865 97.0513 54.8866 99.827 55.51C101.321 55.8802 102.706 56.5966 103.872 57.6014C105.038 58.6061 105.952 59.8711 106.539 61.2942C107.924 64.7138 106.481 68.4644 104.094 70.095C101.519 71.8504 97.7032 70.8241 95.6754 67.5147C95.45 67.1454 94.9994 67.4812 95.2295 67.8505L95.2343 67.8553Z" fill="#FAFAFA"/>
<path d="M63.9006 53.7778C65.1283 53.5501 66.3795 53.476 67.6255 53.5573C67.9995 53.5812 67.9084 52.9101 67.5345 52.8909C66.2381 52.8103 64.9368 52.8924 63.6608 53.1354C63.5122 53.1641 63.4547 53.3847 63.517 53.5429C63.5396 53.6232 63.5916 53.692 63.6627 53.7355C63.7338 53.7791 63.8188 53.7942 63.9006 53.7778Z" fill="#FAFAFA"/>
<path d="M66.6188 51.7866C68.0795 52.3532 69.5058 53.005 70.8902 53.7386C70.8663 53.5468 70.8375 53.3549 70.8087 53.1631L68.1145 54.6019C67.985 54.6739 67.985 54.9185 68.0761 55.0815C68.0952 55.1166 68.121 55.1476 68.1521 55.1727C68.1832 55.1978 68.2189 55.2164 68.2573 55.2275C68.2956 55.2387 68.3358 55.2421 68.3755 55.2377C68.4151 55.2332 68.4535 55.2209 68.4884 55.2014L71.1827 53.7626C71.3648 53.6667 71.2977 53.283 71.1012 53.1871C69.6682 52.4275 68.1923 51.7517 66.6811 51.1631C66.3119 51.0192 66.2496 51.6667 66.6188 51.8106V51.7866Z" fill="#FAFAFA"/>
<path d="M102.971 53.8254C104.199 53.6018 105.45 53.5293 106.696 53.6097C107.07 53.6097 106.979 52.9769 106.605 52.9529C105.309 52.8755 104.008 52.956 102.731 53.1926C102.583 53.2214 102.525 53.4371 102.587 53.5953C102.612 53.6741 102.664 53.7411 102.735 53.7836C102.806 53.826 102.89 53.8409 102.971 53.8254Z" fill="#FAFAFA"/>
<path d="M105.689 51.8857C107.146 52.4448 108.57 53.0853 109.955 53.8041C109.931 53.6171 109.903 53.43 109.879 53.2382L107.18 54.677C107.045 54.749 107.05 54.984 107.136 55.1231C107.176 55.193 107.241 55.2448 107.318 55.2672C107.395 55.2896 107.478 55.2809 107.549 55.243L110.243 53.8041C110.425 53.7082 110.363 53.3245 110.166 53.243C108.736 52.4958 107.263 51.8328 105.756 51.2574C105.382 51.1183 105.319 51.737 105.689 51.8857Z" fill="#FAFAFA"/>
<path d="M180.034 142.102C180.082 142.109 180.131 142.109 180.178 142.102C180.682 142.102 181.238 141.321 181.525 140.87C181.536 140.855 181.541 140.836 181.541 140.817C181.541 140.799 181.536 140.78 181.525 140.765C181.514 140.75 181.5 140.739 181.483 140.732C181.466 140.726 181.447 140.723 181.43 140.726C181.271 140.765 179.862 141.076 179.685 141.551C179.665 141.603 179.659 141.659 179.668 141.714C179.678 141.769 179.701 141.82 179.737 141.863C179.804 141.976 179.91 142.061 180.034 142.102ZM181.238 140.98C180.835 141.57 180.442 141.939 180.173 141.939C180.115 141.941 180.057 141.926 180.005 141.897C179.954 141.869 179.911 141.827 179.881 141.776C179.864 141.759 179.853 141.737 179.849 141.713C179.845 141.689 179.848 141.664 179.857 141.642C179.948 141.383 180.682 141.119 181.238 140.98Z" fill="#A6DD27"/>
<path d="M180.224 140.879C180.631 140.985 181.057 140.999 181.471 140.922C181.486 140.917 181.499 140.908 181.51 140.897C181.521 140.885 181.529 140.871 181.533 140.855C181.54 140.842 181.544 140.827 181.544 140.812C181.544 140.797 181.54 140.782 181.533 140.769C181.499 140.735 180.718 139.949 180.143 139.983C180.069 139.983 179.997 140.001 179.931 140.034C179.865 140.068 179.808 140.116 179.764 140.174C179.711 140.228 179.678 140.298 179.67 140.373C179.662 140.448 179.68 140.523 179.721 140.587C179.854 140.734 180.03 140.836 180.224 140.879ZM181.245 140.778C180.766 140.836 180.004 140.707 179.855 140.481C179.855 140.443 179.812 140.39 179.889 140.289C179.918 140.252 179.955 140.222 179.997 140.201C180.039 140.181 180.086 140.17 180.133 140.17C180.558 140.251 180.948 140.464 181.245 140.778Z" fill="#A6DD27"/>
<path d="M157.511 151.771C157.927 151.764 158.341 151.717 158.748 151.632C158.767 151.628 158.784 151.619 158.796 151.605C158.809 151.592 158.818 151.574 158.82 151.556C158.823 151.537 158.82 151.517 158.812 151.5C158.803 151.483 158.789 151.469 158.772 151.46C158.59 151.364 156.994 150.558 156.519 150.827C156.475 150.852 156.438 150.888 156.412 150.932C156.386 150.976 156.371 151.025 156.37 151.076C156.361 151.161 156.372 151.246 156.403 151.326C156.434 151.405 156.484 151.476 156.548 151.532C156.833 151.718 157.172 151.803 157.511 151.771ZM158.437 151.498C157.569 151.642 156.917 151.608 156.672 151.393C156.63 151.355 156.597 151.309 156.577 151.256C156.557 151.203 156.55 151.146 156.557 151.091C156.557 151.071 156.561 151.051 156.57 151.033C156.58 151.016 156.593 151.001 156.61 150.99C156.869 150.846 157.78 151.186 158.437 151.498Z" fill="#A6DD27"/>
<path d="M158.732 151.619C158.749 151.624 158.767 151.624 158.785 151.619C158.799 151.61 158.81 151.597 158.817 151.581C158.823 151.566 158.826 151.549 158.823 151.532C158.823 151.46 158.631 149.754 157.677 149.854C157.423 149.878 157.346 150.008 157.332 150.113C157.26 150.559 158.214 151.413 158.694 151.628L158.732 151.619ZM157.749 150.022C158.32 150.022 158.54 150.957 158.612 151.36C158.133 151.067 157.471 150.401 157.514 150.128C157.514 150.104 157.514 150.041 157.696 150.022H157.749Z" fill="#A6DD27"/>
<path d="M172.259 41.6393C172.59 42.119 172.853 42.5026 173.122 42.9391C173.39 43.3755 173.64 43.7928 173.894 44.2245C174.373 45.0878 174.852 45.975 175.289 46.8671C176.164 48.6533 176.928 50.4922 177.575 52.3731C177.738 52.8527 177.878 53.3323 178.055 53.8119L178.117 54.0085C178.141 54.1045 178.17 54.1956 178.194 54.2963C178.239 54.5018 178.271 54.7101 178.29 54.9198C178.327 55.3896 178.271 55.8621 178.127 56.3107C177.846 57.1269 177.299 57.8248 176.574 58.2915C176.04 58.6327 175.458 58.8929 174.848 59.0637C173.814 59.3558 172.748 59.5169 171.674 59.5433C171.161 59.5433 170.653 59.5433 170.15 59.5433C169.646 59.5433 169.152 59.4857 168.625 59.4138L168.654 57.4138C169.536 57.2843 170.471 57.1212 171.343 56.9342C172.176 56.7538 172.988 56.492 173.769 56.1524C174.071 56.0222 174.352 55.8476 174.603 55.6344C174.795 55.4618 174.795 55.3515 174.757 55.3706C174.718 55.3898 174.733 55.3706 174.718 55.3371L174.603 55.0493C174.431 54.6224 174.268 54.1908 174.085 53.7687C173.381 52.0613 172.59 50.3875 171.741 48.7472C171.31 47.9319 170.849 47.1309 170.399 46.3491C170.169 45.9527 169.934 45.5594 169.694 45.1693C169.459 44.7904 169.215 44.3779 168.989 44.0566L172.259 41.6393Z" fill="#FFC3BD"/>
<path d="M169.567 38.0092C172.271 38.46 174.303 43.2849 174.303 43.2849L169.831 50.1817C169.831 50.1817 165.458 45.5391 165.88 41.5487C166.154 38.954 166.911 37.5631 169.567 38.0092Z" fill="#A6DD27"/>
<path opacity="0.6" d="M169.567 38.0092C172.271 38.46 174.303 43.2849 174.303 43.2849L169.831 50.1817C169.831 50.1817 165.458 45.5391 165.88 41.5487C166.154 38.954 166.911 37.5631 169.567 38.0092Z" fill="black"/>
<path opacity="0.2" d="M168.287 43.1985C168.934 44.4935 168.939 47.6493 168.891 49.0498C167.84 47.7462 166.994 46.2908 166.379 44.7333C167.06 43.4431 167.86 42.3496 168.287 43.1985Z" fill="black"/>
<path d="M169.608 57.659L167.781 54.7094L166.199 57.4336C166.199 57.4336 167.542 59.5535 169.2 59.448L169.608 57.659Z" fill="#FFC3BD"/>
<path d="M164.782 53.4325L162.859 54.5404L166.201 57.4324L167.783 54.7083L164.782 53.4325Z" fill="#FFC3BD"/>
<path d="M151.517 27.0008C151.584 27.3124 151.474 27.6048 151.273 27.6528C151.071 27.7007 150.851 27.4946 150.793 27.1733C150.736 26.8521 150.837 26.5741 151.038 26.5213C151.239 26.4686 151.431 26.6939 151.517 27.0008Z" fill="#263238"/>
<path d="M151.128 26.5268L150.332 26.498C150.332 26.498 150.845 26.9822 151.128 26.5268Z" fill="#263238"/>
<path d="M151.324 27.3705C151.202 28.1459 150.974 28.901 150.648 29.6151C150.833 29.6891 151.032 29.7214 151.231 29.7098C151.43 29.6982 151.624 29.6429 151.799 29.5479L151.324 27.3705Z" fill="#ED847E"/>
<path d="M150.69 25.7294C150.725 25.7281 150.759 25.7166 150.788 25.6962C150.817 25.6757 150.84 25.6473 150.853 25.6143C150.932 25.3892 151.063 25.1855 151.234 25.0192C151.405 24.8528 151.613 24.7284 151.84 24.6555C151.864 24.6499 151.887 24.6395 151.907 24.6251C151.927 24.6108 151.943 24.5926 151.956 24.5717C151.969 24.5507 151.978 24.5275 151.982 24.5032C151.986 24.4789 151.985 24.4541 151.979 24.4302C151.974 24.4063 151.963 24.3837 151.949 24.3638C151.934 24.3438 151.916 24.3269 151.895 24.314C151.874 24.3011 151.851 24.2924 151.827 24.2885C151.803 24.2846 151.778 24.2855 151.754 24.2912C151.467 24.3773 151.205 24.5292 150.988 24.7348C150.771 24.9404 150.604 25.194 150.503 25.4753C150.487 25.5224 150.489 25.5739 150.51 25.6193C150.53 25.6647 150.567 25.7006 150.613 25.7198C150.637 25.7302 150.664 25.7335 150.69 25.7294Z" fill="#263238"/>
<path d="M161.666 29.5081C161.306 31.8678 161.033 36.1651 162.744 37.5992C162.744 37.5992 162.203 39.9972 157.84 40.3186C153.046 40.6591 155.443 38.1172 155.443 38.1172C158.032 37.3114 157.883 35.393 157.361 33.6184L161.666 29.5081Z" fill="#FFC3BD"/>
<path d="M149.409 45.8016C149.131 46.3723 148.882 46.8519 148.594 47.3555C148.307 47.8591 148.029 48.3147 147.731 48.8279C147.147 49.7871 146.499 50.7464 145.843 51.648C144.514 53.4991 143.032 55.235 141.413 56.8374L140.794 57.4322L140.641 57.5808L140.373 57.8111C140.167 57.9774 139.943 58.1205 139.706 58.2379C139.203 58.4928 138.645 58.618 138.081 58.6024C137.596 58.5848 137.118 58.4775 136.672 58.2859C136.001 57.9868 135.386 57.5747 134.855 57.0677C134.403 56.6416 133.983 56.1832 133.599 55.696C132.212 53.8644 131.076 51.8563 130.219 49.7248L131.988 48.7991C133.16 50.5183 134.474 52.137 135.914 53.6384C136.245 53.9681 136.599 54.2742 136.974 54.5545C137.261 54.7799 137.585 54.9535 137.932 55.0677C138.047 55.1012 138.115 55.0677 138.119 55.0677C138.124 55.0677 138.071 55.0677 138.062 55.0677C138.052 55.0677 138.062 55.0677 138.062 55.0677C138.072 55.0508 138.085 55.0362 138.1 55.0245L138.23 54.8806L138.752 54.3051C140.133 52.7474 141.414 51.1039 142.587 49.3843C143.177 48.521 143.728 47.6337 144.28 46.7464C144.548 46.3003 144.817 45.8495 145.071 45.3987C145.325 44.9478 145.588 44.473 145.799 44.075L149.409 45.8016Z" fill="#FFC3BD"/>
<path d="M132.196 49.2018L131.903 46.0172L128.902 47.6815C128.902 47.6815 129.382 50.1275 130.988 50.5879L132.196 49.2018Z" fill="#FFC3BD"/>
<path d="M129.843 44.5312L127.422 44.5935L128.889 47.6822L131.904 46.018L129.843 44.5312Z" fill="#FFC3BD"/>
<path d="M163.166 151.354L159.225 151.647L158.051 142.592L161.991 142.299L163.166 151.354Z" fill="#FFC3BD"/>
<path d="M185.786 138.9L182.402 141.025L176.625 134.008L180.01 131.883L185.786 138.9Z" fill="#FFC3BD"/>
<path d="M181.364 140.28L184.557 137.115C184.609 137.059 184.681 137.024 184.758 137.017C184.835 137.01 184.911 137.031 184.974 137.077L187.764 139.172C187.835 139.229 187.893 139.301 187.934 139.383C187.974 139.464 187.997 139.553 188 139.644C188.004 139.735 187.987 139.826 187.952 139.91C187.917 139.994 187.864 140.07 187.797 140.132C186.661 141.216 186.062 141.681 184.657 143.077C183.794 143.93 182.615 145.268 181.421 146.434C180.228 147.599 179.024 146.53 179.427 145.954C181.196 143.283 180.908 142.29 181.057 140.933C181.077 140.685 181.186 140.454 181.364 140.28Z" fill="#263238"/>
<path d="M158.975 151.085H163.419C163.497 151.084 163.572 151.11 163.632 151.159C163.691 151.209 163.732 151.277 163.745 151.354L164.34 154.86C164.351 154.947 164.344 155.037 164.318 155.122C164.292 155.206 164.249 155.284 164.19 155.351C164.131 155.417 164.059 155.47 163.978 155.506C163.897 155.542 163.81 155.561 163.721 155.56C162.178 155.536 161.43 155.445 159.483 155.445C158.285 155.445 155.806 155.569 154.152 155.569C152.498 155.569 152.369 153.929 153.055 153.781C156.127 153.119 157.321 152.203 158.328 151.325C158.508 151.17 158.738 151.085 158.975 151.085Z" fill="#263238"/>
<path opacity="0.2" d="M158.059 142.592L158.706 147.623L162.627 147.172L161.999 142.299L158.059 142.592Z" fill="black"/>
<path opacity="0.2" d="M180.01 131.887L176.625 134.012L179.017 136.914L182.479 134.875L180.01 131.887Z" fill="black"/>
<path d="M167.788 61.9887L151.723 63.135C146.929 40.3918 148.808 39.8978 148.808 39.8978C150.037 39.4143 151.294 39.0058 152.572 38.6748L152.792 38.622C153.837 38.3774 154.058 38.3487 155.448 38.1184C157.845 37.8499 160.036 37.6676 162.745 37.6005H163.262C163.742 37.6005 164.221 37.6005 164.701 37.6005C165.017 37.6005 165.333 37.6005 165.631 37.634L166.652 37.706C168.378 37.8259 169.605 37.9985 169.605 37.9985C167.054 51.5332 167.256 55.5284 167.788 61.9887Z" fill="#A6DD27"/>
<path opacity="0.6" d="M167.788 61.9887L151.723 63.135C146.929 40.3918 148.808 39.8978 148.808 39.8978C150.037 39.4143 151.294 39.0058 152.572 38.6748L152.792 38.622C153.837 38.3774 154.058 38.3487 155.448 38.1184C157.845 37.8499 160.036 37.6676 162.745 37.6005H163.262C163.742 37.6005 164.221 37.6005 164.701 37.6005C165.017 37.6005 165.333 37.6005 165.631 37.634L166.652 37.706C168.378 37.8259 169.605 37.9985 169.605 37.9985C167.054 51.5332 167.256 55.5284 167.788 61.9887Z" fill="black"/>
<path opacity="0.2" d="M150.433 45.2599L151.871 45.1975C151.661 47.0728 150.548 50.1903 149.609 52.1471C149.263 50.0848 149.009 48.3678 148.832 46.9385L150.433 45.2599Z" fill="black"/>
<path d="M149.371 39.6837C146.974 40.1633 144.721 44.5374 143.844 46.4414L147.679 52.2831C147.679 52.2831 153.12 46.2016 152.655 44.0578C152.19 41.8228 150.541 39.4583 149.371 39.6837Z" fill="#A6DD27"/>
<g opacity="0.6">
<path opacity="0.6" d="M149.367 39.6837C146.97 40.1633 144.717 44.5374 143.84 46.4414L147.675 52.2831C147.675 52.2831 153.116 46.2016 152.651 44.0578C152.186 41.8228 150.537 39.4583 149.367 39.6837Z" fill="black"/>
</g>
<path d="M161.727 23.5901C162.322 27.451 162.653 29.0672 161.152 31.4941C158.889 35.1391 154.014 35.1631 152.278 31.5948C150.72 28.3814 150.015 22.6165 153.419 20.1848C154.141 19.6364 154.994 19.2859 155.893 19.1681C156.792 19.0503 157.707 19.1692 158.546 19.5131C159.385 19.857 160.119 20.414 160.677 21.129C161.235 21.844 161.597 22.6923 161.727 23.5901Z" fill="#FFC3BD"/>
<path d="M153.375 27.2553C152.335 29.6534 150.259 33.145 152.167 35.2793C152.167 35.2793 152.167 34.6797 152.431 34.5454C152.661 35.073 161.424 36.7948 163.246 33.9315C163.288 34.1518 163.288 34.378 163.246 34.5982C163.796 34.2482 164.215 33.7251 164.435 33.1113C164.655 32.4974 164.666 31.8276 164.464 31.2074C163.644 28.2577 164.603 21.783 161.276 19.783C158.318 18.0084 150.422 16.7566 153.375 27.2553Z" fill="#263238"/>
<path d="M155.548 18.9479C152.983 18.0846 150.73 19.8784 150.332 23.3124C151.392 24.6841 153.415 24.7896 153.415 24.7896L155.548 18.9479Z" fill="#263238"/>
<path d="M153.877 26.3487C153.81 27.0717 153.522 27.7567 153.053 28.3103C152.406 29.092 151.71 28.8331 151.581 28.0705C151.466 27.3846 151.662 26.152 152.468 25.6244C153.273 25.0969 153.92 25.5381 153.877 26.3487Z" fill="#FFC3BD"/>
<path d="M155.969 62.8328C155.969 62.8328 156.928 68.8424 158.164 76.7416C158.979 82.0173 159.905 88.1468 160.729 93.9069C161.209 97.2018 161.635 100.382 162 103.211C164.061 119.254 177.561 136.458 177.561 136.458L182.499 133.614C182.499 133.614 174.541 118.569 172.475 103.585C168.285 73.1589 173.246 68.7129 167.791 61.9743L155.969 62.8328Z" fill="#7AA31A"/>
<path opacity="0.2" d="M157.047 68.2329C157.354 70.5542 157.742 73.5086 158.164 76.7604C158.979 82.0361 159.904 88.1656 160.729 93.9257C162.229 86.885 164.195 73.8395 159.43 69.1297C158.495 68.2041 157.694 67.9499 157.047 68.2329Z" fill="black"/>
<path d="M177.074 136.954L183.24 133.4L181.931 131.021L175.027 135.049L177.074 136.954Z" fill="#A6DD27"/>
<path opacity="0.7" d="M177.074 136.954L183.24 133.4L181.931 131.021L175.027 135.049L177.074 136.954Z" fill="#263238"/>
<path d="M151.961 63.1653C151.961 63.1653 147.239 94.0428 148.016 105.98C148.826 118.402 157.796 146.383 157.796 146.383L163.477 145.649C163.477 145.649 157.959 118.479 157.901 106.23C157.834 92.8773 164.464 62.2733 164.464 62.2733L151.961 63.1653Z" fill="#7AA31A"/>
<path d="M156.584 146.707L164.69 145.657L164.47 142.655L155.773 144.117L156.584 146.707Z" fill="#A6DD27"/>
<path opacity="0.7" d="M156.584 146.707L164.69 145.657L164.47 142.655L155.773 144.117L156.584 146.707Z" fill="#263238"/>
<path d="M167.987 61.0394L168.773 62.4111C168.835 62.5214 168.706 62.6413 168.519 62.6557L151.673 63.8499C151.529 63.8499 151.404 63.7972 151.39 63.7061L151.184 62.2672C151.184 62.1713 151.294 62.0802 151.452 62.0658L167.733 60.9387C167.78 60.9331 167.828 60.9394 167.872 60.9569C167.917 60.9745 167.956 61.0029 167.987 61.0394Z" fill="#263238"/>
<path d="M165.878 62.9966L166.314 62.9678C166.401 62.9678 166.468 62.9103 166.458 62.8576L166.175 61.0215C166.175 60.9687 166.089 60.9304 166.003 60.9352L165.567 60.9639C165.48 60.9639 165.413 61.0215 165.423 61.0742L165.706 62.9103C165.715 62.963 165.816 63.0062 165.878 62.9966Z" fill="#A6DD27"/>
<path d="M154.875 63.8047L155.311 63.7711C155.398 63.7711 155.46 63.7184 155.45 63.6657L155.168 61.8295C155.168 61.772 155.081 61.7336 154.995 61.7432L154.559 61.772C154.472 61.772 154.405 61.8247 154.415 61.8823L154.703 63.7184C154.707 63.7711 154.789 63.8095 154.875 63.8047Z" fill="#A6DD27"/>
</svg>
