<svg width="188" height="166" viewBox="0 0 188 166" fill="none" xmlns="http://www.w3.org/2000/svg">
<path d="M66.7892 26.8384C76.5727 36.1693 90.0941 40.9004 103.751 42.4645C169.264 44.8397 191.987 129.411 112.623 128.522C72.5488 129.232 48.5797 108.835 27.2965 85.4036C-17.7327 40.1038 16.8343 6.71431 32.0864 3.4113C47.2659 0.419168 57.1269 18.0951 66.7892 26.8384Z" fill="#A6DD27"/>
<path opacity="0.9" d="M66.7892 26.8384C76.5727 36.1693 90.0941 40.9004 103.751 42.4645C169.264 44.8397 191.987 129.411 112.623 128.522C72.5488 129.232 48.5797 108.835 27.2965 85.4036C-17.7327 40.1038 16.8343 6.71431 32.0864 3.4113C47.2659 0.419168 57.1269 18.0951 66.7892 26.8384Z" fill="white" fill-opacity="0.6"/>
<path d="M94 165.999C145.915 165.999 188 163.538 188 160.501C188 157.464 145.915 155.002 94 155.002C42.0852 155.002 0 157.464 0 160.501C0 163.538 42.0852 165.999 94 165.999Z" fill="#F5F5F5"/>
<path d="M111.819 131.897H46.4861C44.9239 131.877 43.4273 131.265 42.2981 130.183C41.1689 129.101 40.4912 127.631 40.4017 126.068L34.9767 7.86408C34.9363 7.11054 35.0503 6.35669 35.3115 5.6489C35.5727 4.94111 35.9757 4.29434 36.4956 3.74837C37.0156 3.2024 37.6415 2.76878 38.3349 2.47417C39.0284 2.17956 39.7746 2.03019 40.5278 2.03525H105.871C107.429 2.05968 108.921 2.67429 110.046 3.75556C111.171 4.83684 111.846 6.30466 111.936 7.86408L117.351 126.058C117.393 126.811 117.28 127.564 117.021 128.272C116.761 128.979 116.36 129.626 115.842 130.173C115.324 130.72 114.7 131.155 114.008 131.451C113.317 131.748 112.572 131.899 111.819 131.897Z" fill="#263238"/>
<path d="M67.0906 0H57.2344V0.484811H67.0906V0Z" fill="#E1197E"/>
<path d="M54.0005 0H51.3486V0.484811H54.0005V0Z" fill="#E1197E"/>
<path d="M112.502 131.557H47.1639C45.6017 131.538 44.1051 130.925 42.9759 129.844C41.8467 128.762 41.169 127.291 41.0795 125.728L35.6642 7.52946C35.6238 6.77591 35.7378 6.02207 35.999 5.31428C36.2602 4.60649 36.6632 3.95972 37.1831 3.41375C37.7031 2.86778 38.329 2.43416 39.0224 2.13955C39.7159 1.84494 40.4621 1.69557 41.2153 1.70062H106.553C108.115 1.72019 109.612 2.33263 110.741 3.41439C111.87 4.49615 112.548 5.96673 112.638 7.52946L118.053 125.728C118.093 126.482 117.979 127.236 117.718 127.944C117.457 128.651 117.054 129.298 116.534 129.844C116.014 130.39 115.388 130.824 114.695 131.118C114.001 131.413 113.255 131.562 112.502 131.557Z" fill="#E1197E"/>
<path d="M47.0554 129.128C46.1433 129.12 45.2687 128.764 44.6094 128.132C43.9502 127.5 43.5558 126.641 43.5066 125.728L38.0912 7.52926C38.066 7.08966 38.1311 6.64955 38.2826 6.23621C38.4341 5.82287 38.6687 5.4451 38.9719 5.12632C39.275 4.80754 39.6403 4.55454 40.0451 4.38301C40.4498 4.21147 40.8855 4.12505 41.3249 4.1291H106.668C107.58 4.13765 108.454 4.49397 109.114 5.12559C109.773 5.75721 110.167 6.6167 110.217 7.52926L115.632 125.728C115.656 126.168 115.591 126.608 115.439 127.021C115.287 127.434 115.053 127.811 114.75 128.13C114.447 128.448 114.082 128.701 113.677 128.873C113.273 129.045 112.837 129.132 112.398 129.128H47.0554Z" fill="white"/>
<path d="M74.9887 34.7211C72.0082 34.6899 69.1511 33.5242 66.9967 31.4604C64.8423 29.3966 63.552 26.5892 63.3872 23.6074C63.3076 22.1682 63.5234 20.7279 64.0212 19.3755C64.519 18.0231 65.2882 16.7873 66.2814 15.7444C67.2746 14.7015 68.4706 13.8737 69.7956 13.3121C71.1207 12.7505 72.5465 12.4671 73.9852 12.4792C76.9653 12.5116 79.8218 13.6776 81.9759 15.7412C84.1301 17.8047 85.4208 20.6115 85.5867 23.5929C85.6677 25.0324 85.4529 26.4734 84.9557 27.8264C84.4584 29.1795 83.6892 30.4158 82.6957 31.459C81.7023 32.5022 80.5057 33.33 79.18 33.8911C77.8543 34.4522 76.4278 34.7347 74.9887 34.7211ZM73.9852 12.829C72.5938 12.8175 71.2149 13.092 69.9335 13.6353C68.6521 14.1787 67.4955 14.9794 66.5351 15.9881C65.5747 16.9968 64.8308 18.192 64.3494 19.5C63.868 20.808 63.6594 22.2009 63.7363 23.5929C63.8961 26.4849 65.1477 29.2077 67.2373 31.2093C69.3269 33.2108 72.098 34.3413 74.9887 34.3714C76.3801 34.3828 77.759 34.1083 79.0404 33.565C80.3218 33.0216 81.4784 32.2209 82.4388 31.2122C83.3992 30.2035 84.1431 29.0083 84.6245 27.7003C85.1059 26.3923 85.3145 24.9994 85.2376 23.6074C85.0778 20.7155 83.8262 17.9926 81.7366 15.9911C79.647 13.9895 76.8759 12.8591 73.9852 12.829Z" fill="#E0E0E0"/>
<path d="M66.6579 31.2384H67.7778C67.6353 31.3957 67.5251 31.5797 67.4535 31.7797C67.382 31.9797 67.3505 32.1919 67.3608 32.4041C67.3855 32.8617 67.5832 33.2927 67.9137 33.6094C68.2442 33.9261 68.6827 34.1048 69.1401 34.1091C69.3607 34.1114 69.5794 34.0683 69.7826 33.9825C69.9859 33.8966 70.1693 33.7698 70.3216 33.6099C70.4739 33.45 70.5918 33.2605 70.668 33.0531C70.7441 32.8457 70.7768 32.6248 70.7642 32.4041C70.7377 31.9645 70.5515 31.5498 70.2406 31.2384H79.452C79.166 31.5569 79.0177 31.9762 79.0399 32.4041C79.0646 32.8617 79.2623 33.2927 79.5928 33.6094C79.9233 33.9261 80.3619 34.1048 80.8192 34.1091C81.0394 34.1108 81.2575 34.0672 81.4602 33.981C81.6629 33.8948 81.8458 33.7679 81.9976 33.6081C82.1493 33.4483 82.2668 33.259 82.3426 33.0519C82.4184 32.8448 82.4511 32.6244 82.4385 32.4041C82.416 31.9645 82.2311 31.5489 81.9197 31.2384H83.0348L82.9863 30.1649H66.6094L66.6579 31.2384Z" fill="#E1197E"/>
<path d="M87.1777 16.234H85.0009H83.5465H63.3008L67.1114 28.4843H82.3151L84.7634 17.3075H87.2262L87.1777 16.234Z" fill="#E1197E"/>
<path d="M76.0275 101.469H49.9834C49.9405 101.469 49.8993 101.453 49.8686 101.423C49.8378 101.393 49.8199 101.352 49.8186 101.309L48.6211 75.2153C48.6206 75.1709 48.6361 75.1278 48.6647 75.0939C48.6807 75.0782 48.6997 75.0658 48.7205 75.0574C48.7413 75.0491 48.7635 75.045 48.7859 75.0453H74.83C74.8721 75.0452 74.9126 75.0613 74.9433 75.0902C74.9739 75.1191 74.9924 75.1586 74.9948 75.2007L76.1923 101.294C76.1932 101.317 76.1893 101.339 76.181 101.36C76.1726 101.381 76.16 101.4 76.1438 101.416C76.1293 101.433 76.1115 101.446 76.0914 101.455C76.0713 101.464 76.0495 101.469 76.0275 101.469ZM50.1386 101.139H75.8335L74.6555 75.395H48.9605L50.1386 101.139Z" fill="#E0E0E0"/>
<path d="M67.5774 78.9081H56.3686C56.3326 78.9074 56.2968 78.9142 56.2634 78.9279C56.2301 78.9417 56.2 78.9623 56.175 78.9882C56.1499 79.0142 56.1305 79.0451 56.118 79.079C56.1054 79.1128 56.1 79.1489 56.102 79.185L56.1359 79.9233L56.388 85.4316L56.9261 97.1281C56.9261 97.2569 56.9772 97.3805 57.0681 97.4716C57.1591 97.5627 57.2824 97.6138 57.411 97.6138H61.1876C61.2468 97.6145 61.3056 97.6034 61.3606 97.5813C61.4155 97.5592 61.4656 97.5265 61.5079 97.485C61.5502 97.4435 61.5839 97.394 61.6072 97.3395C61.6304 97.2849 61.6427 97.2263 61.6434 97.167L61.8906 85.4364H62.6227L63.9462 97.167C63.956 97.2889 64.0113 97.4027 64.1012 97.4856C64.1911 97.5684 64.3089 97.6142 64.431 97.6138H68.2126C68.2749 97.614 68.3367 97.6013 68.3939 97.5765C68.4512 97.5518 68.5028 97.5155 68.5455 97.47C68.5882 97.4244 68.6212 97.3706 68.6423 97.3118C68.6634 97.253 68.6722 97.1905 68.6683 97.1281L68.1301 85.4316L67.878 79.9233L67.8441 79.185C67.8408 79.1143 67.8119 79.0472 67.7628 78.9962C67.7138 78.9453 67.6479 78.914 67.5774 78.9081Z" fill="#E0E0E0"/>
<path d="M106.918 101.469H80.874C80.8312 101.469 80.79 101.453 80.7592 101.423C80.7284 101.393 80.7105 101.352 80.7092 101.309L79.5117 75.2153C79.5112 75.1709 79.5267 75.1278 79.5554 75.0939C79.5714 75.0782 79.5903 75.0658 79.6111 75.0574C79.6319 75.0491 79.6542 75.045 79.6766 75.0453H105.721C105.763 75.0452 105.803 75.0613 105.834 75.0902C105.865 75.1191 105.883 75.1586 105.885 75.2007L107.088 101.294C107.089 101.317 107.085 101.339 107.076 101.36C107.068 101.381 107.055 101.4 107.039 101.416C107.024 101.433 107.006 101.447 106.985 101.456C106.964 101.465 106.941 101.47 106.918 101.469ZM81.0292 101.139H106.724L105.546 75.395H79.8511L81.0292 101.139Z" fill="#E0E0E0"/>
<path d="M99.5351 97.9393H87.9481L87.1094 79.593H98.6915L99.5351 97.9393Z" fill="#E0E0E0"/>
<path d="M85.13 88.4188L82.5508 83.3089L87.108 79.593L89.6339 83.5372L85.13 88.4188Z" fill="#E0E0E0"/>
<path d="M101.477 88.4188L103.591 83.3089L98.6896 79.593L96.5273 83.5372L101.477 88.4188Z" fill="#E0E0E0"/>
<path d="M90.043 79.593C90.0848 80.3621 90.4173 81.0863 90.9729 81.6186C91.5285 82.1509 92.2655 82.4514 93.0343 82.4589C93.405 82.4628 93.7726 82.3904 94.1142 82.246C94.4558 82.1017 94.7642 81.8885 95.0201 81.6198C95.2761 81.351 95.4741 81.0324 95.6021 80.6838C95.73 80.3351 95.785 79.9639 95.7637 79.593H90.043Z" fill="#EBEBEB"/>
<path d="M105.495 70.597H79.451C79.3884 70.5971 79.3282 70.5728 79.283 70.5294C79.2378 70.4859 79.2111 70.4266 79.2086 70.3639L77.9966 44.2944C77.9945 44.2618 77.999 44.229 78.0098 44.1981C78.0206 44.1672 78.0376 44.1389 78.0596 44.1147C78.0829 44.0904 78.1107 44.0711 78.1415 44.0577C78.1723 44.0444 78.2055 44.0373 78.239 44.037H104.283C104.346 44.0369 104.406 44.0612 104.451 44.1046C104.496 44.1481 104.523 44.2074 104.525 44.2701L105.718 70.3639C105.72 70.3965 105.716 70.4293 105.705 70.4602C105.694 70.4911 105.677 70.5194 105.655 70.5436C105.609 70.5793 105.553 70.5982 105.495 70.597ZM79.6837 70.1113H105.243L104.07 44.4984H78.5105L79.6837 70.1113Z" fill="#E1197E"/>
<path d="M100.215 54.446L97.3881 54.2371L97.4511 54.0234C97.5019 53.8404 97.5098 53.6482 97.4742 53.4616C97.4387 53.2751 97.3606 53.0993 97.2461 52.9479C97.1317 52.7966 96.9838 52.6737 96.8142 52.589C96.6446 52.5042 96.4577 52.4598 96.2682 52.4593H93.3302C93.14 52.4588 92.9527 52.5066 92.7859 52.5983C92.6191 52.69 92.4782 52.8227 92.3765 52.9838C92.2748 53.1449 92.2155 53.3292 92.2043 53.5196C92.193 53.7099 92.2301 53.8999 92.3121 54.0719L92.6757 54.8977L92.4333 54.9608L91.7595 55.1406L90.6347 55.432L89.9608 55.6069L88.8409 55.8983L88.167 56.0732L85.3842 56.8018C84.2303 57.1321 83.2607 57.8267 83.3189 59.0459C83.3554 59.6561 83.6203 60.2301 84.0606 60.6533C84.501 61.0765 85.0844 61.3177 85.6945 61.3288H99.3322C99.5831 61.3321 99.832 61.2832 100.063 61.1854C100.294 61.0875 100.503 60.9428 100.675 60.7603C100.848 60.5778 100.981 60.3615 101.066 60.1249C101.151 59.8884 101.186 59.6368 101.17 59.3859L100.981 55.2377C100.967 55.0364 100.882 54.8465 100.742 54.7016C100.602 54.5567 100.415 54.4661 100.215 54.446Z" fill="#E1197E"/>
<path opacity="0.3" d="M94.177 55.8073L93.5128 55.987L91.7578 55.1418L92.4365 54.9621L94.177 55.8073Z" fill="white"/>
<path opacity="0.3" d="M92.4005 56.2867L91.7363 56.4664L89.957 55.6066L90.6309 55.4318L92.4005 56.2867Z" fill="white"/>
<path opacity="0.3" d="M90.6269 56.7689L89.9627 56.9486L88.1641 56.0743L88.8379 55.8994L90.6269 56.7689Z" fill="white"/>
<path opacity="0.3" d="M101.138 58.2601L101.186 59.4016C101.203 59.6524 101.168 59.9041 101.083 60.1406C100.998 60.3771 100.865 60.5935 100.692 60.776C100.52 60.9585 100.311 61.1032 100.08 61.2011C99.8489 61.2989 99.6 61.3478 99.3491 61.3445H97.0898C97.2057 60.4789 97.6334 59.6857 98.2923 59.114C98.9513 58.5423 99.7961 58.2317 100.668 58.2407C100.825 58.2373 100.982 58.2438 101.138 58.2601Z" fill="white"/>
<path d="M74.6056 70.5246H48.5616C48.519 70.5235 48.4785 70.5063 48.4479 70.4767C48.4174 70.447 48.3991 70.4069 48.3967 70.3643L47.1992 44.2706C47.1989 44.2481 47.203 44.2258 47.2114 44.205C47.2197 44.1842 47.232 44.1652 47.2477 44.1491C47.2622 44.1324 47.2801 44.1191 47.3001 44.1098C47.3202 44.1006 47.342 44.0958 47.3641 44.0957H73.413C73.4555 44.0969 73.496 44.114 73.5266 44.1437C73.5571 44.1733 73.5754 44.2134 73.5778 44.256L74.7704 70.3497C74.7717 70.3719 74.7684 70.394 74.7609 70.4149C74.7535 70.4358 74.7418 70.4549 74.7268 70.4712C74.695 70.5042 74.6514 70.5234 74.6056 70.5246ZM48.7215 70.1943H74.4165L73.2336 44.426H47.5386L48.7215 70.1943Z" fill="#E0E0E0"/>
<path d="M70.2414 52.9788L70.3432 55.1452C70.3579 55.3665 70.3235 55.5883 70.2424 55.7947C70.1614 56.0011 70.0356 56.187 69.8743 56.3388C69.713 56.4907 69.52 56.6049 69.3094 56.6731C69.0987 56.7414 68.8756 56.762 68.6561 56.7335C68.4679 56.7101 68.2784 56.6987 68.0888 56.6995C67.4833 56.6967 66.885 56.8312 66.3387 57.093C65.6478 57.434 65.072 57.9706 64.6825 58.6363C64.293 59.3019 64.1069 60.0674 64.1473 60.838V60.94C64.1675 61.3427 64.0752 61.7431 63.8807 62.0961C63.6956 62.4242 63.4263 62.6968 63.1007 62.8856C62.775 63.0743 62.4049 63.1724 62.0287 63.1695H60.5064C60.1197 63.1658 59.7399 63.0657 59.4014 62.8783C59.0629 62.6909 58.7762 62.4221 58.5671 62.0961C58.3399 61.7516 58.2093 61.3524 58.189 60.94V60.838C58.149 59.998 57.8622 59.1886 57.3648 58.5113C56.9212 57.9012 56.3308 57.4133 55.6486 57.093C55.0911 56.8338 54.4839 56.6995 53.8693 56.6995C53.6797 56.6985 53.4902 56.7099 53.3021 56.7335C53.0763 56.7569 52.8481 56.7338 52.6316 56.6655C52.415 56.5971 52.2147 56.4851 52.0431 56.3363C51.8714 56.1875 51.7319 56.0051 51.6333 55.8002C51.5346 55.5953 51.4789 55.3724 51.4695 55.1452L51.3726 52.9788C51.3665 52.8882 51.3793 52.7974 51.4101 52.7121C51.4408 52.6267 51.489 52.5487 51.5514 52.483C51.6138 52.4172 51.6892 52.3652 51.7728 52.3301C51.8563 52.2951 51.9462 52.2778 52.0367 52.2793H69.519C69.7054 52.2828 69.8836 52.3568 70.0176 52.4866C70.1517 52.6164 70.2316 52.7923 70.2414 52.9788Z" fill="#E0E0E0"/>
<path d="M63.8643 62.0978C63.6792 62.4259 63.4099 62.6985 63.0843 62.8873C62.7586 63.076 62.3885 63.1741 62.0123 63.1713H60.49C60.1033 63.1675 59.7236 63.0674 59.385 62.88C59.0465 62.6926 58.7598 62.4238 58.5508 62.0978C58.7402 61.5673 59.0899 61.1091 59.5513 60.787C60.0127 60.4649 60.5628 60.2949 61.1251 60.3006C61.7053 60.307 62.2715 60.4796 62.7569 60.7981C63.2423 61.1165 63.6265 61.5675 63.8643 62.0978Z" fill="#EBEBEB"/>
<path d="M89.4404 122.922H69.4371C68.3041 122.909 67.2182 122.465 66.3992 121.681C65.5802 120.896 65.0891 119.829 65.0253 118.696L64.7635 113.061C64.7344 112.514 64.8172 111.967 65.0069 111.454C65.1965 110.94 65.489 110.471 65.8663 110.074C66.2436 109.678 66.6978 109.363 67.201 109.15C67.7042 108.936 68.2457 108.827 68.7923 108.83H88.7956C89.929 108.845 91.0149 109.289 91.8338 110.075C92.6527 110.86 93.1436 111.927 93.2074 113.061L93.4692 118.696C93.4983 119.242 93.4154 119.789 93.2257 120.303C93.036 120.816 92.7435 121.285 92.3661 121.681C91.9887 122.077 91.5345 122.391 91.0313 122.604C90.5282 122.818 89.9867 122.926 89.4404 122.922Z" fill="#E1197E"/>
<path d="M69.5352 112.871H72.9288C73.4086 112.842 73.882 112.992 74.2572 113.293C74.4096 113.424 74.5335 113.584 74.6211 113.765C74.7087 113.945 74.7581 114.142 74.7663 114.343C74.7883 114.668 74.6861 114.989 74.4802 115.241C74.312 115.425 74.0978 115.561 73.8597 115.635C74.2318 115.701 74.5722 115.887 74.8293 116.164C75.0507 116.426 75.1726 116.758 75.1735 117.102C75.1925 117.388 75.1321 117.673 74.999 117.927C74.87 118.169 74.6771 118.371 74.4414 118.51C74.2276 118.616 73.9957 118.681 73.7579 118.7C73.4883 118.743 73.2163 118.771 72.9434 118.782H69.8067L69.5352 112.871ZM71.4744 115.188H72.2695C72.4761 115.21 72.6838 115.158 72.8561 115.042C72.9112 114.987 72.9529 114.919 72.9781 114.845C73.0033 114.771 73.0113 114.692 73.0016 114.615C73.0024 114.538 72.9864 114.462 72.9545 114.392C72.9227 114.323 72.8758 114.261 72.8173 114.211C72.6437 114.098 72.437 114.047 72.2307 114.066H71.4259L71.4744 115.188ZM71.5811 117.51H72.5119C72.7442 117.533 72.9775 117.475 73.1712 117.344C73.2323 117.287 73.2794 117.217 73.3088 117.138C73.3383 117.06 73.3492 116.976 73.3409 116.893C73.34 116.812 73.3208 116.732 73.2847 116.66C73.2485 116.587 73.1965 116.524 73.1325 116.475C72.9294 116.35 72.6913 116.293 72.4537 116.315H71.5277L71.5811 117.51Z" fill="white"/>
<path d="M79.5711 112.87H81.394L81.5588 116.392C81.5734 116.72 81.5324 117.049 81.4376 117.363C81.3428 117.668 81.1766 117.947 80.9528 118.174C80.756 118.387 80.5142 118.553 80.245 118.66C79.8368 118.802 79.4067 118.869 78.9748 118.859C78.6603 118.858 78.3461 118.837 78.0343 118.796C77.7345 118.77 77.442 118.69 77.1713 118.558C76.9264 118.428 76.7065 118.255 76.5217 118.048C76.3372 117.852 76.1938 117.621 76.0999 117.368C75.9844 117.046 75.9126 116.709 75.8866 116.367L75.7266 112.846H77.5446L77.7094 116.45C77.7076 116.733 77.8173 117.005 78.0149 117.208C78.1158 117.301 78.2343 117.373 78.3633 117.42C78.4923 117.466 78.6293 117.487 78.7663 117.48C78.8994 117.488 79.0326 117.468 79.1577 117.422C79.2828 117.376 79.3972 117.305 79.4935 117.213C79.5827 117.108 79.6494 116.987 79.6894 116.856C79.7295 116.724 79.742 116.586 79.7263 116.45L79.5711 112.87Z" fill="white"/>
<path d="M82.0039 112.869H84.0256L85.3055 114.861L86.406 112.869H88.4228L86.2848 116.303L86.4011 118.781H84.5734L84.4571 116.303L82.0039 112.869Z" fill="white"/>
<path d="M138.799 51.2306C139.284 51.8183 139.647 52.3381 140.035 52.9015C140.423 53.465 140.777 54.0236 141.131 54.5919C141.836 55.7405 142.483 56.924 143.07 58.1378C143.366 58.7401 143.637 59.357 143.904 59.9787C144.17 60.6004 144.389 61.2319 144.621 61.8779C145.071 63.1638 145.436 64.4782 145.712 65.8124V65.9047C145.741 66.0288 145.751 66.1565 145.741 66.2836C145.671 67.3044 145.548 68.3209 145.373 69.3291C145.203 70.3297 144.98 71.3158 144.718 72.2873C144.456 73.2587 144.151 74.2302 143.817 75.1483C143.473 76.0962 143.08 77.0252 142.638 77.9315C142.53 78.158 142.342 78.3366 142.111 78.4329C141.879 78.5292 141.62 78.5366 141.384 78.4535C141.147 78.3705 140.949 78.2029 140.828 77.9829C140.707 77.7629 140.672 77.5059 140.728 77.2612V77.2175C140.922 76.3286 141.121 75.3863 141.271 74.4634C141.422 73.5405 141.582 72.6079 141.688 71.6801C141.795 70.7523 141.892 69.8343 141.955 68.9163C142.018 67.9982 142.028 67.085 142.032 66.1816L142.081 66.6673C141.761 65.5135 141.377 64.3783 140.932 63.2671C140.476 62.1499 139.962 61.0473 139.419 59.969C138.876 58.8907 138.256 57.8269 137.611 56.7923C137.286 56.2774 136.961 55.7625 136.617 55.2622C136.273 54.7619 135.914 54.247 135.599 53.805L135.555 53.7516C135.222 53.3219 135.073 52.7774 135.141 52.2376C135.209 51.6979 135.488 51.2072 135.917 50.8736C136.345 50.5399 136.889 50.3906 137.428 50.4585C137.966 50.5263 138.456 50.8058 138.789 51.2355L138.799 51.2306Z" fill="#FF8B7B"/>
<path d="M141.262 76.3162L138.809 79.5366L142.876 79.3423C142.876 79.3423 144.006 77.0254 143.031 75.6702L141.262 76.3162Z" fill="#FF8B7B"/>
<path d="M138.847 82.9114L142.246 82.5617L142.876 79.3412L138.809 79.5355L138.847 82.9114Z" fill="#FF8B7B"/>
<path d="M132.061 41.6483C131.673 44.0479 131.358 48.4244 133.074 49.9544C131.799 52.1781 129.852 53.9385 127.513 54.9818C124.265 53.0971 125.69 50.1924 125.69 50.1924C128.318 49.4687 128.182 47.5015 127.659 45.6654L132.061 41.6483Z" fill="#FF8B7B"/>
<path d="M123.47 36.9742C123.426 37.2948 123.218 37.528 122.985 37.4988C122.752 37.4697 122.646 37.188 122.689 36.8674C122.733 36.5468 122.941 36.3088 123.15 36.3379C123.358 36.3671 123.518 36.6537 123.47 36.9742Z" fill="#263238"/>
<path d="M123.264 36.3726L122.527 36.0381C122.527 36.0381 122.833 36.6974 123.264 36.3726Z" fill="#263238"/>
<path d="M123.29 37.6994C122.902 38.3894 122.421 39.022 121.859 39.5792C122.006 39.7195 122.181 39.8262 122.373 39.8916C122.564 39.957 122.768 39.9797 122.97 39.9581L123.29 37.6994Z" fill="#FF5652"/>
<path d="M124.605 35.3816C124.65 35.3983 124.7 35.3983 124.746 35.3816C124.767 35.369 124.787 35.3522 124.802 35.3322C124.817 35.3121 124.828 35.2892 124.835 35.2647C124.841 35.2403 124.842 35.2149 124.839 35.1899C124.835 35.1649 124.826 35.1409 124.813 35.1193C124.667 34.852 124.458 34.6242 124.205 34.455C123.952 34.2859 123.662 34.1805 123.359 34.1478C123.309 34.1464 123.261 34.1643 123.224 34.1978C123.187 34.2313 123.164 34.2777 123.16 34.3275C123.159 34.378 123.176 34.4271 123.21 34.465C123.243 34.5028 123.289 34.5266 123.34 34.5315C123.576 34.5609 123.803 34.6462 124 34.7805C124.197 34.9148 124.36 35.0942 124.474 35.3039C124.489 35.3254 124.509 35.3435 124.531 35.3569C124.554 35.3703 124.579 35.3787 124.605 35.3816Z" fill="#263238"/>
<path d="M134.416 37.1939C133.616 41.0798 133.359 42.7702 131.09 44.5042C127.672 47.1224 123.062 45.2814 122.684 41.2207C122.34 37.5631 123.707 31.7925 127.774 30.7725C128.67 30.5435 129.61 30.5478 130.504 30.7851C131.398 31.0223 132.217 31.4846 132.882 32.128C133.548 32.7714 134.038 33.5745 134.306 34.4612C134.575 35.3478 134.613 36.2885 134.416 37.1939Z" fill="#FF8B7B"/>
<path d="M124.008 75.0225C124.008 75.0225 123.038 105.255 123.276 117.495C123.547 130.226 123.668 159.963 123.668 159.963H125.889C125.889 159.963 131.993 135.249 130.48 117.495C132.768 103.861 134.32 75.0225 134.32 75.0225H124.008Z" fill="#FF8B7B"/>
<path d="M124.672 75.0225C124.672 75.0225 132.647 105.255 135.692 117.495C138.853 130.226 145.718 159.963 145.718 159.963H147.938C147.938 159.963 148.423 135.249 142.901 117.495C142.101 103.861 137.112 75.0225 137.112 75.0225H124.672Z" fill="#FF8B7B"/>
<path d="M119.251 53.4802C119.267 52.7361 119.54 52.0206 120.025 51.4568C120.51 50.893 121.176 50.5161 121.908 50.3909C123.202 50.1723 124.904 49.9052 126.494 49.7692C128.954 49.5893 131.423 49.5893 133.883 49.7692C134.852 49.8274 135.749 49.8954 136.583 49.9926C137.076 50.0488 137.552 50.2076 137.98 50.4589C138.408 50.7103 138.779 51.0485 139.069 51.4519C139.359 51.8554 139.561 52.3151 139.664 52.8016C139.766 53.2881 139.765 53.7905 139.662 54.2768C137.374 65.0504 137.664 69.0237 137.912 75.0226C144.612 84.8442 142.905 98.7799 143.729 110.68L122.272 118.209C121.147 98.5905 121.637 78.0244 122.33 75.0226C120.289 62.4469 119.208 56.3946 119.251 53.4802Z" fill="#E1197E"/>
<path opacity="0.2" d="M132.246 102.729L133.216 89.1287L137.206 86.564L132.246 102.729Z" fill="#263238"/>
<path d="M138.062 75.3233L122.169 76.5085C122.119 76.5153 122.068 76.5115 122.019 76.4972C121.97 76.4828 121.925 76.4584 121.886 76.4255C121.847 76.3925 121.815 76.3517 121.793 76.3058C121.771 76.2598 121.759 76.2098 121.757 76.1588L121.699 74.8327C121.701 74.6986 121.75 74.5695 121.84 74.4694C121.929 74.3694 122.051 74.3051 122.184 74.2887L138.115 73.1035C138.165 73.0974 138.216 73.1018 138.264 73.1164C138.312 73.1311 138.357 73.1556 138.395 73.1885C138.434 73.2214 138.465 73.2619 138.487 73.3075C138.508 73.3531 138.52 73.4027 138.522 73.4532L138.585 74.7793C138.582 74.9192 138.526 75.0527 138.429 75.1535C138.332 75.2542 138.201 75.3148 138.062 75.3233Z" fill="#263238"/>
<path d="M127.883 49.5025L131.655 50.406L132.435 49.5705L131.194 49.2742L127.883 49.5025Z" fill="#FF8B7B"/>
<path d="M123.115 53.1702C123.115 53.8745 123.115 54.4574 123.115 55.0889C123.115 55.7203 123.042 56.3226 122.989 56.9347C122.877 58.1636 122.674 59.3633 122.441 60.5874C121.964 63.0314 121.196 65.4091 120.153 67.6694L119.721 68.5389C119.639 68.6943 119.595 68.806 119.484 68.9906C119.373 69.1786 119.251 69.3602 119.12 69.5346C118.574 70.3145 117.786 70.8928 116.88 71.1806C115.973 71.4685 114.997 71.45 114.102 71.1279C113.412 70.8853 112.759 70.5468 112.163 70.1224C111.123 69.3672 110.179 68.488 109.351 67.5043C108.939 67.0185 108.571 66.5328 108.212 66.0471C107.853 65.5613 107.514 65.0756 107.184 64.517C107.051 64.3023 107.003 64.0458 107.048 63.7972C107.093 63.5487 107.228 63.3257 107.428 63.1716C107.628 63.0174 107.878 62.943 108.129 62.9627C108.38 62.9824 108.615 63.0949 108.789 63.2784L108.813 63.3027C109.569 64.0944 110.408 64.891 111.237 65.605C112.026 66.3061 112.891 66.9156 113.816 67.4217C114.192 67.6431 114.599 67.8069 115.023 67.9074C115.258 67.9765 115.51 67.9627 115.736 67.8686C115.912 67.7499 116.058 67.5919 116.163 67.4071L116.269 67.2128C116.303 67.1448 116.366 66.9845 116.41 66.8777L116.715 66.1539C117.506 64.1123 118.092 61.9971 118.466 59.8394C118.655 58.7513 118.781 57.6487 118.892 56.5509C118.946 56.002 118.984 55.4483 119.009 54.9043C119.033 54.3602 119.052 53.7822 119.052 53.3159V53.2382C119.068 52.7099 119.287 52.2082 119.663 51.8374C120.039 51.4665 120.543 51.2551 121.07 51.2469C121.598 51.2388 122.108 51.4346 122.495 51.7937C122.882 52.1528 123.116 52.6475 123.149 53.1751L123.115 53.1702Z" fill="#FF8B7B"/>
<path d="M109.181 63.7928L106.68 60.6063L105.855 64.6039C105.855 64.6039 107.795 66.2797 109.361 65.6725L109.181 63.7928Z" fill="#FF8B7B"/>
<path d="M103.412 59.8001L102.898 63.1857L105.851 64.604L106.685 60.6064L103.412 59.8001Z" fill="#FF8B7B"/>
<path d="M125.772 38.5679C126.94 40.0251 121.893 41.2297 123.716 45.3439C125.539 49.4581 120.807 47.7726 123.464 53.3974C126.082 58.9397 135.497 61.8444 140.917 59.5663C138.818 59.1825 137.136 56.5838 138.905 55.3064C141.441 53.4654 142.071 50.823 140.704 48.3992C139.337 45.9754 135.982 42.1623 137.524 39.1945C139.409 35.566 139.463 33.0111 135.584 30.1695C131.619 27.2551 122.713 24.8264 122.979 30.2327C123.246 35.6389 125.772 38.5679 125.772 38.5679Z" fill="#263238"/>
<path d="M135.802 42.5416L131.167 42.0898C130.933 42.0726 130.706 42.0031 130.502 41.8864C130.298 41.7697 130.123 41.6088 129.99 41.4154C129.856 41.2221 129.768 41.0012 129.731 40.7691C129.694 40.537 129.709 40.2994 129.775 40.074C129.913 39.5734 130.218 39.1357 130.641 38.8348C131.063 38.5339 131.576 38.3883 132.093 38.4225L136.723 38.8791C136.957 38.8963 137.184 38.9658 137.388 39.0825C137.591 39.1992 137.766 39.3602 137.9 39.5535C138.033 39.7469 138.122 39.9677 138.159 40.1998C138.196 40.432 138.181 40.6695 138.114 40.8949C137.975 41.3932 137.67 41.8287 137.249 42.1284C136.828 42.4281 136.317 42.574 135.802 42.5416Z" fill="#E1197E"/>
<path d="M126.967 38.2C126.704 38.9242 126.165 39.5145 125.469 39.8418C124.543 40.2644 123.917 39.4726 124.043 38.5157C124.155 37.6511 124.776 36.3882 125.769 36.3688C125.986 36.3683 126.2 36.422 126.391 36.5251C126.582 36.6283 126.744 36.7775 126.863 36.9593C126.982 37.1412 127.054 37.3499 127.072 37.5665C127.09 37.7832 127.054 38.0009 126.967 38.2Z" fill="#FF8B7B"/>
<path d="M123.518 159.275H126.15C126.22 159.274 126.289 159.298 126.344 159.343C126.398 159.387 126.436 159.449 126.451 159.518L126.96 162.063C126.977 162.14 126.977 162.22 126.96 162.296C126.942 162.373 126.907 162.445 126.857 162.506C126.808 162.568 126.745 162.617 126.674 162.65C126.602 162.684 126.524 162.7 126.446 162.699C125.045 162.675 124.618 162.592 122.858 162.592C121.346 162.592 121.011 162.704 118.592 162.704C117.137 162.704 117.496 161.519 118.107 161.427C120.289 161.106 121.205 160.941 122.805 159.775C123.086 159.59 123.207 159.275 123.518 159.275Z" fill="#263238"/>
<path d="M145.325 159.275H147.958C148.029 159.275 148.097 159.299 148.153 159.343C148.208 159.387 148.247 159.449 148.263 159.518L148.748 162.063C148.766 162.139 148.766 162.219 148.748 162.295C148.731 162.372 148.696 162.443 148.647 162.504C148.598 162.566 148.536 162.615 148.465 162.649C148.395 162.682 148.317 162.7 148.239 162.699C146.833 162.675 147.269 162.699 145.524 162.699H143.008C141.554 162.699 141.917 161.558 142.523 161.422C143.73 161.15 144.036 160.717 144.603 159.77C144.668 159.631 144.77 159.511 144.897 159.424C145.024 159.337 145.172 159.285 145.325 159.275Z" fill="#263238"/>
</svg>
