<svg width="210" height="32" viewBox="0 0 210 32" fill="none" xmlns="http://www.w3.org/2000/svg">
<g clip-path="url(#clip0)">
<path d="M36.1247 26.4761V4.89734H40.2555V26.4761H36.1247Z" fill="white"/>
<path d="M45.092 26.4761V10.9506H48.4989V12.6236C49.8738 11.6624 51.4616 10.6464 53.2806 10.6464C56.3894 10.6464 57.8859 12.6783 57.8859 15.8479V26.4761H54.181V16.3772C54.181 14.2844 53.524 13.6274 52.2646 13.6274C51.6039 13.6435 50.9539 13.7981 50.3566 14.081C49.7593 14.3639 49.228 14.769 48.797 15.27V26.4761H45.092Z" fill="white"/>
<path d="M62.1019 8.06692V4.59924H65.8068V8.06692H62.1019ZM65.8068 26.476H62.1019V10.9506H65.8068V26.476Z" fill="white"/>
<path d="M70.619 10.9506V5.79164H74.324V10.9506H77.3658V13.9376H74.324V22.7103C74.324 23.5498 74.7437 23.7932 75.6745 23.7932C76.2517 23.7537 76.8228 23.6517 77.3779 23.489V26.5308C76.4083 26.67 75.4311 26.7492 74.4517 26.7681C71.6897 26.7681 70.6129 25.3871 70.6129 23.1787V13.9255H68.4654V10.9506H70.619Z" fill="white"/>
<path d="M91.9665 11.1148C90.981 8.95513 89.7825 8.073 87.6289 8.073C84.5871 8.073 83.0905 11.1148 83.0905 15.8966C83.0905 20.4411 84.7939 23.3125 87.6593 23.3125C88.2397 23.3474 88.821 23.2631 89.3676 23.0648C89.9141 22.8664 90.4142 22.5583 90.8371 22.1593C91.26 21.7603 91.5968 21.279 91.8266 20.7449C92.0564 20.2109 92.1744 19.6354 92.1734 19.054H88.0791V15.5863H96.1521V26.47H93.1589V24.2677C92.4859 25.0971 91.6266 25.7559 90.6508 26.1904C89.675 26.6249 88.6104 26.8228 87.5437 26.7681C81.6852 26.7681 78.9658 22.108 78.9658 16.0122C78.9658 10.5369 81.0585 4.59315 87.9635 4.59315C92.2646 4.59315 94.7772 6.92319 95.7871 10.0684L91.9665 11.1148Z" fill="white"/>
<path d="M99.6806 26.4761V10.9506H103.087V13.6091H103.148C104.043 11.7536 105.302 10.7072 107.51 10.6464V14.5643C107.293 14.5329 107.073 14.5227 106.853 14.5338C105.028 14.5338 103.386 16.657 103.386 17.0403V26.4761H99.6806Z" fill="white"/>
<path d="M117.798 26.476L117.554 25.1255C116.155 26.1905 114.446 26.7693 112.687 26.7741C112.133 26.8078 111.578 26.7248 111.058 26.5305C110.537 26.3363 110.063 26.0351 109.667 25.6464C109.27 25.2578 108.959 24.7902 108.754 24.274C108.55 23.7578 108.455 23.2044 108.478 22.6494C108.478 19.1209 111.343 17.2654 117.384 16.5658V15.2091C117.384 13.9924 116.423 13.384 115.109 13.384C114.425 13.3832 113.752 13.5586 113.155 13.8931C112.559 14.2277 112.058 14.7102 111.702 15.2943L109.311 13.4692C110.266 11.8266 112.84 10.5734 115.115 10.6342C119.294 10.7255 121.095 12.2586 121.095 16.9125V24.2129C121.068 24.9706 121.168 25.7275 121.393 26.4517L117.798 26.476ZM117.414 19.0357C114.932 19.5163 112.213 20.0213 112.213 22.2053C112.192 22.4476 112.224 22.6915 112.306 22.9203C112.389 23.1491 112.52 23.3574 112.69 23.5308C112.861 23.7042 113.067 23.8386 113.294 23.9248C113.522 24.0111 113.765 24.0471 114.008 24.0304C115.17 24.0304 116.636 23.0449 117.414 22.3878V19.0357Z" fill="white"/>
<path d="M124.824 26.476V10.9506H128.195V12.6236C129.6 11.3338 130.738 10.6464 132.855 10.6464C133.645 10.6138 134.427 10.8115 135.106 11.2155C135.786 11.6194 136.333 12.2122 136.681 12.9217C137.356 12.178 138.184 11.5895 139.109 11.1967C140.033 10.804 141.031 10.6162 142.035 10.6464C143.653 10.6464 145.862 11.6076 145.862 15.3125V26.476H142.151V15.6289C142.151 14.3696 141.646 13.6821 140.325 13.6274C139.37 13.6274 138.087 14.4913 137.223 15.3004V26.476H133.518V15.6289C133.518 14.3696 133.007 13.6821 131.662 13.6274C130.707 13.6274 129.424 14.4913 128.56 15.3004V26.476H124.824Z" fill="white"/>
<path d="M149.725 26.476V10.9506H153.095V12.6236C154.5 11.3338 155.638 10.6464 157.761 10.6464C158.551 10.6145 159.333 10.8126 160.012 11.2165C160.691 11.6203 161.239 12.2127 161.588 12.9217C162.262 12.1782 163.089 11.5897 164.012 11.1969C164.935 10.8041 165.932 10.6163 166.935 10.6464C168.554 10.6464 170.762 11.6076 170.762 15.3125V26.476H167.057V15.6289C167.057 14.3696 166.546 13.6821 165.202 13.6274C164.246 13.6274 162.963 14.4913 162.099 15.3004V26.476H158.394V15.6289C158.394 14.3696 157.883 13.6821 156.538 13.6274C155.583 13.6274 154.3 14.4913 153.436 15.3004V26.476H149.725Z" fill="white"/>
<path d="M177.138 19.3034C177.198 22.5338 178.634 23.7871 180.368 23.7871C182.102 23.7871 182.905 23.0084 183.83 21.9316L186.531 23.6106C185.095 25.819 183.002 26.7741 180.015 26.7741C175.976 26.7741 173.439 23.6411 173.439 18.7072C173.439 13.7734 175.976 10.6342 180.192 10.6342C184.256 10.6038 186.537 14.0411 186.537 17.7825V19.3034H177.138ZM183.118 16.7909C183.057 14.6312 181.901 13.384 180.125 13.384C178.348 13.384 177.198 14.6433 177.138 16.7909H183.118Z" fill="white"/>
<path d="M189.335 26.4761V10.9506H192.736V13.6091H192.797C193.691 11.7536 194.957 10.7072 197.159 10.6464V14.5643C196.941 14.5329 196.721 14.5227 196.502 14.5338C194.677 14.5338 193.034 16.657 193.034 17.0403V26.4761H189.335Z" fill="white"/>
<path d="M207.087 15.0327C206.345 14.2236 205.36 13.384 204.192 13.384C202.756 13.384 202.099 13.9924 202.099 14.911C202.099 17.5696 209.886 16.4259 209.886 22.1141C209.886 25.3384 207.452 26.7741 204.173 26.7741C203.006 26.7976 201.852 26.522 200.821 25.9736C199.791 25.4252 198.917 24.6222 198.284 23.6411L200.767 21.816C201.63 23.0327 202.798 24.0548 204.38 24.0548C205.694 24.0548 206.595 23.3369 206.595 22.2966C206.595 19.6319 198.826 20.5871 198.826 15.1787C198.826 12.2829 201.259 10.6646 203.96 10.6646C204.989 10.6404 206.011 10.8388 206.956 11.2462C207.901 11.6536 208.747 12.2604 209.436 13.0251L207.087 15.0327Z" fill="white"/>
<path d="M16.1095 21.1164H16.0304C15.6721 21.215 15.356 21.4285 15.1307 21.7241C14.9054 22.0198 14.7834 22.3812 14.7834 22.7529C14.7834 23.1245 14.9054 23.4859 15.1307 23.7816C15.356 24.0772 15.6721 24.2907 16.0304 24.3894V24.3894H16.1156H16.2068C16.849 24.5069 17.5008 24.564 18.1536 24.5597C18.7969 24.5739 19.4403 24.5311 20.076 24.4319H20.1734H20.2646C20.6268 24.3375 20.9473 24.1256 21.1761 23.8295C21.4049 23.5333 21.529 23.1697 21.529 22.7954C21.529 22.4212 21.4049 22.0576 21.1761 21.7614C20.9473 21.4653 20.6268 21.2534 20.2646 21.1589H20.1734H20.076C18.7921 20.9338 17.4787 20.9338 16.1947 21.1589L16.1095 21.1164Z" fill="white"/>
<path d="M18.1536 7.99999C17.6737 8.00599 17.2062 8.1538 16.81 8.42481C16.4139 8.69582 16.1067 9.07794 15.9272 9.52309C15.7477 9.96824 15.7038 10.4565 15.8011 10.9266C15.8984 11.3966 16.1325 11.8273 16.474 12.1646C16.8155 12.5019 17.2492 12.7307 17.7204 12.8221C18.1916 12.9136 18.6793 12.8637 19.1222 12.6786C19.5651 12.4936 19.9433 12.1817 20.2094 11.7822C20.4755 11.3827 20.6175 10.9134 20.6175 10.4335C20.6175 10.1113 20.5536 9.79237 20.4294 9.49513C20.3052 9.19789 20.1232 8.92826 19.894 8.70189C19.6648 8.47552 19.393 8.29691 19.0942 8.17642C18.7954 8.05594 18.4757 7.99596 18.1536 7.99999V7.99999Z" fill="white"/>
<path d="M28.1794 -3.27662e-05H3.84484C3.34079 -0.00243686 2.84123 0.0947672 2.37485 0.285996C1.90848 0.477225 1.48448 0.75871 1.12721 1.11428C0.769936 1.46986 0.486437 1.89251 0.292991 2.35797C0.0995453 2.82343 -3.46153e-05 3.32253 -2.88822e-05 3.82658V28.1612C-0.00243298 28.6644 0.0946137 29.1632 0.285537 29.6288C0.47646 30.0945 0.757497 30.5178 1.11251 30.8745C1.46751 31.2312 1.8895 31.5143 2.35422 31.7074C2.81894 31.9006 3.31724 32 3.8205 32H28.1551C28.6568 32 29.1536 31.9011 29.6172 31.7091C30.0807 31.5171 30.5019 31.2357 30.8566 30.881C31.2114 30.5262 31.4928 30.105 31.6848 29.6415C31.8768 29.178 31.9756 28.6812 31.9756 28.1794V28.1794V3.84483C31.9788 3.34311 31.8832 2.84567 31.6942 2.38092C31.5051 1.91616 31.2264 1.49319 30.8739 1.13616C30.5213 0.779129 30.102 0.495028 29.6397 0.30008C29.1773 0.105131 28.6812 0.00315274 28.1794 -3.27662e-05V-3.27662e-05ZM9.8494 26.4638H7.38552V9.8494H9.8494V26.4638ZM9.8494 7.37943H7.38552V4.94597H9.8494V7.37943ZM23.0813 10.4578V10.6889C23.0204 11.9538 22.4755 13.1469 21.5594 14.0211C20.6432 14.8953 19.426 15.3839 18.1597 15.3855C17.7515 15.3855 17.36 15.5477 17.0713 15.8363C16.7827 16.125 16.6205 16.5165 16.6205 16.9247C16.6205 17.3329 16.7827 17.7244 17.0713 18.013C17.36 18.3017 17.7515 18.4638 18.1597 18.4638C18.9408 18.4604 19.7207 18.5276 20.4897 18.6646H20.581H20.6905C20.9994 18.725 21.2997 18.8231 21.5848 18.9566C22.2918 19.2757 22.8949 19.7872 23.3252 20.4326C23.7555 21.078 23.9956 21.8314 24.0182 22.6068V22.9232C24.0053 23.2861 23.946 23.646 23.8418 23.9939C23.618 24.7067 23.2069 25.3464 22.6516 25.8461C22.0962 26.3459 21.4168 26.6874 20.6844 26.8349L20.4715 26.8714C18.9337 27.1392 17.3613 27.1392 15.8235 26.8714L15.6106 26.8349C14.7018 26.6464 13.8824 26.1585 13.2836 25.4494C12.6847 24.7402 12.3409 23.8507 12.3072 22.9232V22.7589V22.6068C12.319 22.2433 12.3804 21.883 12.4897 21.5361C12.6612 20.9778 12.9487 20.4622 13.3335 20.0229C13.7183 19.5836 14.1916 19.2306 14.7224 18.987C14.7224 18.987 14.7224 18.9384 14.6798 18.908C14.2671 18.1934 14.0864 17.3683 14.1627 16.5466C14.239 15.725 14.5685 14.9473 15.1057 14.3209C14.3011 13.6884 13.7137 12.8208 13.4253 11.8388C13.1368 10.8569 13.1616 9.80947 13.4963 8.8423C13.831 7.87513 14.4588 7.03635 15.2924 6.44268C16.1261 5.84901 17.1241 5.52999 18.1475 5.53001H24.6144V7.99997H22.4182C22.8512 8.74679 23.08 9.59448 23.0813 10.4578V10.4578Z" fill="white"/>
</g>
<defs>
<clipPath id="clip0">
<rect width="209.874" height="32" fill="white"/>
</clipPath>
</defs>
</svg>
