<svg width="210" height="32" viewBox="0 0 210 32" fill="none" xmlns="http://www.w3.org/2000/svg">
<g clip-path="url(#clip0)">
<path d="M36.1465 26.476V4.89731H40.2798V26.476H36.1465Z" fill="#A3125B"/>
<path d="M45.1191 26.476V10.9505H48.528V12.6235C49.9038 11.6623 51.4926 10.6464 53.3127 10.6464C56.4233 10.6464 57.9207 12.6783 57.9207 15.8479V26.476H54.2136V16.3772C54.2136 14.2844 53.5561 13.6274 52.2961 13.6274C51.635 13.6435 50.9846 13.798 50.3869 14.081C49.7893 14.3639 49.2576 14.7689 48.8263 15.2699V26.476H45.1191Z" fill="#A3125B"/>
<path d="M62.1394 8.06689V4.59921H65.8466V8.06689H62.1394ZM65.8466 26.476H62.1394V10.9505H65.8466V26.476Z" fill="#A3125B"/>
<path d="M70.6615 10.9506V5.79163H74.3687V10.9506H77.4123V13.9376H74.3687V22.7103C74.3687 23.5498 74.7887 23.7931 75.72 23.7931C76.2975 23.7536 76.869 23.6516 77.4245 23.489V26.5308C76.4543 26.67 75.4764 26.7492 74.4965 26.7681C71.7329 26.7681 70.6554 25.3871 70.6554 23.1787V13.9255H68.5066V10.9506H70.6615Z" fill="#A3125B"/>
<path d="M92.022 11.1148C91.0359 8.95512 89.8367 8.07299 87.6818 8.07299C84.6381 8.07299 83.1406 11.1148 83.1406 15.8966C83.1406 20.441 84.8451 23.3125 87.7122 23.3125C88.2929 23.3474 88.8746 23.2631 89.4215 23.0648C89.9683 22.8664 90.4688 22.5583 90.8919 22.1593C91.3151 21.7603 91.652 21.279 91.882 20.7449C92.1119 20.2108 92.23 19.6354 92.229 19.054H88.1322V15.5863H96.2101V26.4699H93.2151V24.2677C92.5417 25.0971 91.6818 25.7559 90.7055 26.1904C89.7291 26.6249 88.6639 26.8228 87.5965 26.768C81.7344 26.768 79.0134 22.108 79.0134 16.0122C79.0134 10.5369 81.1075 4.59314 88.0166 4.59314C92.3203 4.59314 94.8343 6.92318 95.8448 10.0684L92.022 11.1148Z" fill="#A3125B"/>
<path d="M99.7407 26.476V10.9505H103.15V13.6091H103.21C104.105 11.7536 105.365 10.7072 107.575 10.6464V14.5642C107.357 14.5329 107.137 14.5227 106.918 14.5338C105.091 14.5338 103.448 16.657 103.448 17.0403V26.476H99.7407Z" fill="#A3125B"/>
<path d="M117.869 26.476L117.625 25.1255C116.225 26.1904 114.515 26.7693 112.755 26.7741C112.2 26.8077 111.645 26.7248 111.124 26.5305C110.604 26.3363 110.13 26.0351 109.733 25.6464C109.336 25.2577 109.025 24.7902 108.82 24.274C108.615 23.7578 108.52 23.2043 108.543 22.6494C108.543 19.1209 111.41 17.2654 117.455 16.5658V15.2091C117.455 13.9924 116.493 13.384 115.178 13.384C114.493 13.3832 113.82 13.5585 113.223 13.8931C112.626 14.2277 112.125 14.7102 111.769 15.2943L109.377 13.4692C110.332 11.8266 112.907 10.5734 115.184 10.6342C119.366 10.7255 121.168 12.2585 121.168 16.9125V24.2129C121.14 24.9706 121.241 25.7275 121.466 26.4517L117.869 26.476ZM117.485 19.0357C115.001 19.5163 112.28 20.0213 112.28 22.2053C112.26 22.4476 112.292 22.6915 112.374 22.9203C112.456 23.1491 112.587 23.3573 112.758 23.5307C112.929 23.7041 113.135 23.8386 113.362 23.9248C113.59 24.0111 113.833 24.0471 114.076 24.0304C115.239 24.0304 116.706 23.0448 117.485 22.3878V19.0357Z" fill="#A3125B"/>
<path d="M124.899 26.476V10.9506H128.272V12.6236C129.678 11.3338 130.816 10.6464 132.935 10.6464C133.725 10.6138 134.508 10.8115 135.187 11.2155C135.867 11.6194 136.415 12.2122 136.764 12.9217C137.439 12.178 138.267 11.5895 139.192 11.1967C140.117 10.804 141.116 10.6162 142.12 10.6464C143.74 10.6464 145.949 11.6076 145.949 15.3125V26.476H142.236V15.6289C142.236 14.3696 141.731 13.6821 140.41 13.6274C139.454 13.6274 138.17 14.4913 137.305 15.3004V26.476H133.598V15.6289C133.598 14.3696 133.087 13.6821 131.742 13.6274C130.786 13.6274 129.501 14.4913 128.637 15.3004V26.476H124.899Z" fill="#A3125B"/>
<path d="M149.815 26.476V10.9506H153.187V12.6236C154.593 11.3338 155.732 10.6464 157.856 10.6464C158.646 10.6145 159.429 10.8126 160.108 11.2165C160.788 11.6203 161.336 12.2127 161.685 12.9217C162.359 12.1782 163.187 11.5897 164.11 11.1969C165.034 10.8041 166.032 10.6163 167.036 10.6464C168.655 10.6464 170.865 11.6076 170.865 15.3125V26.476H167.157V15.6289C167.157 14.3696 166.646 13.6821 165.301 13.6274C164.345 13.6274 163.061 14.4913 162.196 15.3004V26.476H158.489V15.6289C158.489 14.3696 157.978 13.6821 156.632 13.6274C155.677 13.6274 154.392 14.4913 153.528 15.3004V26.476H149.815Z" fill="#A3125B"/>
<path d="M177.244 19.3034C177.305 22.5338 178.742 23.7871 180.477 23.7871C182.212 23.7871 183.015 23.0083 183.94 21.9315L186.643 23.6106C185.206 25.819 183.112 26.7741 180.124 26.7741C176.082 26.7741 173.543 23.641 173.543 18.7072C173.543 13.7734 176.082 10.6342 180.3 10.6342C184.366 10.6038 186.649 14.041 186.649 17.7825V19.3034H177.244ZM183.228 16.7909C183.167 14.6312 182.011 13.384 180.233 13.384C178.456 13.384 177.305 14.6433 177.244 16.7909H183.228Z" fill="#A3125B"/>
<path d="M189.449 26.476V10.9505H192.852V13.6091H192.913C193.808 11.7536 195.074 10.7072 197.277 10.6464V14.5642C197.06 14.5329 196.84 14.5227 196.62 14.5338C194.794 14.5338 193.15 16.657 193.15 17.0403V26.476H189.449Z" fill="#A3125B"/>
<path d="M207.212 15.0327C206.469 14.2235 205.483 13.384 204.315 13.384C202.878 13.384 202.221 13.9924 202.221 14.911C202.221 17.5696 210.012 16.4258 210.012 22.114C210.012 25.3384 207.577 26.7741 204.296 26.7741C203.128 26.7976 201.974 26.522 200.942 25.9736C199.911 25.4252 199.037 24.6222 198.404 23.641L200.887 21.8159C201.752 23.0327 202.921 24.0547 204.503 24.0547C205.818 24.0547 206.719 23.3369 206.719 22.2965C206.719 19.6319 198.946 20.587 198.946 15.1787C198.946 12.2829 201.381 10.6646 204.083 10.6646C205.113 10.6404 206.135 10.8387 207.081 11.2462C208.026 11.6536 208.873 12.2604 209.562 13.0251L207.212 15.0327Z" fill="#A3125B"/>
<path d="M16.1191 21.1164H16.04C15.6814 21.215 15.3651 21.4285 15.1397 21.7241C14.9143 22.0198 14.7922 22.3812 14.7922 22.7529C14.7922 23.1245 14.9143 23.4859 15.1397 23.7816C15.3651 24.0772 15.6814 24.2907 16.04 24.3894H16.1252H16.2165C16.8591 24.5069 17.5112 24.564 18.1644 24.5597C18.8082 24.5739 19.4519 24.5311 20.088 24.4319H20.1854H20.2767C20.6391 24.3375 20.9598 24.1256 21.1888 23.8295C21.4177 23.5333 21.5419 23.1697 21.5419 22.7954C21.5419 22.4212 21.4177 22.0576 21.1888 21.7614C20.9598 21.4653 20.6391 21.2534 20.2767 21.1589H20.1854H20.088C18.8033 20.9338 17.4891 20.9338 16.2043 21.1589L16.1191 21.1164Z" fill="#A3125B"/>
<path d="M18.1645 8.00001C17.6843 8.00601 17.2165 8.15381 16.8201 8.42482C16.4237 8.69584 16.1164 9.07795 15.9367 9.52311C15.7571 9.96826 15.7132 10.4566 15.8106 10.9266C15.9079 11.3966 16.1422 11.8274 16.4839 12.1646C16.8256 12.5019 17.2595 12.7307 17.731 12.8222C18.2025 12.9136 18.6905 12.8637 19.1336 12.6786C19.5768 12.4936 19.9553 12.1817 20.2215 11.7822C20.4878 11.3827 20.6298 10.9135 20.6299 10.4335C20.6299 10.1113 20.5659 9.79238 20.4416 9.49514C20.3174 9.1979 20.1353 8.92828 19.906 8.70191C19.6766 8.47554 19.4046 8.29693 19.1057 8.17644C18.8067 8.05595 18.4868 7.99598 18.1645 8.00001Z" fill="#A3125B"/>
<path d="M28.1965 -1.75074e-05H3.84722C3.34287 -0.0024216 2.84301 0.0947824 2.37635 0.286011C1.9097 0.47724 1.48544 0.758725 1.12796 1.1143C0.770472 1.46987 0.486802 1.89253 0.29324 2.35799C0.0996777 2.82345 3.78867e-05 3.32254 4.36233e-05 3.8266V28.1612C-0.00236193 28.6645 0.0947431 29.1632 0.285781 29.6289C0.476819 30.0945 0.758025 30.5178 1.11325 30.8745C1.46847 31.2312 1.89071 31.5143 2.35571 31.7074C2.82071 31.9006 3.31931 32 3.82287 32H28.1721C28.6741 32 29.1712 31.9012 29.635 31.7092C30.0989 31.5172 30.5203 31.2357 30.8753 30.881C31.2302 30.5262 31.5118 30.105 31.7039 29.6415C31.8961 29.178 31.9949 28.6812 31.9949 28.1794V3.84485C31.9981 3.34313 31.9024 2.84569 31.7133 2.38093C31.5241 1.91617 31.2452 1.49321 30.8925 1.13618C30.5398 0.779144 30.1201 0.495044 29.6576 0.300095C29.195 0.105146 28.6985 0.003168 28.1965 -1.75074e-05ZM9.8554 26.4639H7.39004V9.84941H9.8554V26.4639ZM9.8554 7.37945H7.39004V4.94599H9.8554V7.37945ZM23.0953 10.4578V10.689C23.0344 11.9538 22.4891 13.1469 21.5724 14.0211C20.6557 14.8954 19.4378 15.3839 18.1707 15.3855C17.7622 15.3855 17.3705 15.5477 17.0817 15.8363C16.7928 16.125 16.6306 16.5165 16.6306 16.9247C16.6306 17.3329 16.7928 17.7244 17.0817 18.0131C17.3705 18.3017 17.7622 18.4639 18.1707 18.4639C18.9523 18.4604 19.7326 18.5276 20.5021 18.6646H20.5934H20.703C21.0121 18.725 21.3126 18.8231 21.5978 18.9566C22.3053 19.2757 22.9087 19.7872 23.3393 20.4326C23.7698 21.078 24.0101 21.8314 24.0327 22.6068V22.9232C24.0198 23.2861 23.9605 23.646 23.8562 23.9939C23.6323 24.7067 23.221 25.3464 22.6653 25.8462C22.1095 26.3459 21.4297 26.6874 20.6969 26.835L20.4838 26.8715C18.9452 27.1392 17.3718 27.1392 15.8331 26.8715L15.6201 26.835C14.7107 26.6464 13.8908 26.1585 13.2916 25.4494C12.6924 24.7402 12.3484 23.8508 12.3147 22.9232V22.7589V22.6068C12.3264 22.2433 12.3879 21.883 12.4973 21.5361C12.6689 20.9779 12.9566 20.4622 13.3416 20.0229C13.7266 19.5836 14.2002 19.2306 14.7313 18.9871C14.7313 18.9871 14.7313 18.9384 14.6887 18.908C14.2758 18.1934 14.095 17.3683 14.1713 16.5467C14.2476 15.725 14.5773 14.9473 15.1148 14.3209C14.3098 13.6884 13.722 12.8208 13.4334 11.8389C13.1448 10.8569 13.1696 9.80948 13.5045 8.84231C13.8394 7.87515 14.4676 7.03637 15.3017 6.4427C16.1359 5.84903 17.1344 5.53 18.1585 5.53002H24.6293V7.99998H22.4318C22.8651 8.7468 23.0939 9.5945 23.0953 10.4578Z" fill="#A3125B"/>
</g>
<defs>
<clipPath id="clip0">
<rect width="210" height="32" fill="white"/>
</clipPath>
</defs>
</svg>
