<svg width="188" height="169" viewBox="0 0 188 169" fill="none" xmlns="http://www.w3.org/2000/svg">
<path d="M93.3355 17.5065C68.3872 25.9069 13.3417 -8.02853 4.97874 33.108C-1.89587 66.8693 32.7002 100.747 77.7004 112.271C109.645 120.454 152.987 106.4 160.38 66.7097C165.005 41.8856 146.321 13.5408 131.568 7.89216C113.13 0.841011 109.606 12.0368 93.3355 17.5065Z" fill="#A6DD27"/>
<path opacity="0.9" d="M93.3355 17.5065C68.3872 25.9069 13.3417 -8.02853 4.97874 33.108C-1.89587 66.8693 32.7002 100.747 77.7004 112.271C109.645 120.454 152.987 106.4 160.38 66.7097C165.005 41.8856 146.321 13.5408 131.568 7.89216C113.13 0.841011 109.606 12.0368 93.3355 17.5065Z" fill="white" fill-opacity="0.6"/>
<path d="M94 169.001C145.915 169.001 188 166.55 188 163.526C188 160.502 145.915 158.051 94 158.051C42.0852 158.051 0 160.502 0 163.526C0 166.55 42.0852 169.001 94 169.001Z" fill="#F5F5F5"/>
<path d="M63.2384 24.2625C63.2403 23.3617 63.1673 22.4624 63.0202 21.5736C62.3705 17.6454 60.3534 14.0714 57.3236 11.4798C54.2938 8.8882 50.4452 7.44491 46.4543 7.40361H46.3088C43.6314 7.40523 40.9926 8.04195 38.6105 9.26122C36.2283 10.4805 34.1709 12.2474 32.6081 14.4161C32.3511 14.7691 32.1232 15.1318 31.8905 15.4945C31.8716 15.5185 31.8553 15.5444 31.8421 15.5719C30.2506 18.1976 29.4121 21.2087 29.418 24.277V24.3109C29.428 27.877 30.5707 31.3482 32.682 34.226C34.7933 37.1038 37.7645 39.2401 41.169 40.3281C44.5736 41.4161 48.2361 41.3998 51.6308 40.2816C55.0254 39.1633 57.9774 37.0006 60.0629 34.1041C60.315 33.7511 60.5477 33.3932 60.7756 33.0257C60.7945 33.0017 60.8108 32.9758 60.8241 32.9483C62.4136 30.3293 63.2489 27.3241 63.2384 24.2625ZM30.1404 23.8805C30.1964 21.1192 30.9698 18.4197 32.385 16.0459H37.6743C36.8661 18.5802 36.4428 21.221 36.4187 23.8805H30.1404ZM38.4161 16.0459H45.9598V23.8805H37.1459C37.1619 21.2192 37.5904 18.5765 38.4161 16.0459ZM46.687 15.3204V8.10486C47.7355 8.19968 48.7397 8.57198 49.5958 9.18332C51.3945 10.4117 52.9022 12.5686 53.9591 15.3204H46.687ZM54.2209 16.0459C54.8207 17.8575 55.2111 19.7316 55.3845 21.6316C55.4572 22.3861 55.4911 23.1357 55.5008 23.8805H46.687V16.0459H54.2209ZM44.8932 8.30798C45.2412 8.20933 45.5987 8.14773 45.9598 8.1242V15.3349H38.6876C40.0451 11.6885 42.2461 9.03824 44.8932 8.29347V8.30798ZM45.9598 24.6204V32.455H38.4306C37.8307 30.6389 37.4436 28.7596 37.2768 26.8547C37.2089 26.1003 37.1701 25.3507 37.1604 24.6059L45.9598 24.6204ZM45.9598 33.1804V40.396C44.9113 40.3005 43.9073 39.9283 43.0509 39.3175C41.2571 38.0892 39.7493 35.9322 38.6876 33.1804H45.9598ZM47.7535 40.2074C47.4056 40.3065 47.0481 40.3681 46.687 40.3912V33.1659H53.9591C52.6017 36.7979 50.4006 39.453 47.7535 40.1929V40.2074ZM46.687 32.4695V24.6107H55.5008C55.4871 27.2722 55.0586 29.9153 54.2306 32.4453L46.687 32.4695ZM56.228 24.6107H62.5306C62.4719 27.3716 61.6987 30.0705 60.2859 32.4453H54.9724C55.7807 29.911 56.2039 27.2701 56.228 24.6107ZM62.5306 23.8853H56.228C56.228 23.1212 56.1796 22.3474 56.1068 21.5688C55.9414 19.6943 55.569 17.8437 54.9966 16.0507H60.2762C61.2965 17.7787 61.9853 19.6811 62.3076 21.6607C62.423 22.3955 62.491 23.1369 62.5112 23.8805L62.5306 23.8853ZM55.8063 11.1516C57.3909 12.2903 58.7572 13.704 59.8399 15.3253H54.73C53.644 12.3317 52.0102 9.96195 50.0079 8.58848L49.8528 8.48692C51.9907 8.96448 54.0093 9.86932 55.7869 11.1468L55.8063 11.1516ZM42.7794 8.49659C40.7383 9.83621 39.0609 12.2736 37.9313 15.3253H32.8408L33.1947 14.8078C35.497 11.6017 38.902 9.3534 42.76 8.49175L42.7794 8.49659ZM30.1743 24.6107H36.4526C36.4526 25.3748 36.5011 26.1486 36.5738 26.9273C36.7416 28.8014 37.1139 30.6517 37.684 32.4453H32.3753C31.353 30.7183 30.664 28.8155 30.344 26.8354C30.2233 26.0996 30.1553 25.3562 30.1404 24.6107H30.1743ZM32.8602 33.1708H37.9313C39.0173 36.1644 40.6511 38.5341 42.6533 39.9076L42.8133 40.0091C38.7397 39.0862 35.1768 36.6383 32.8602 33.1708ZM49.8819 39.9946C51.9181 38.6598 53.5955 36.2176 54.73 33.1659H59.8108C59.6944 33.34 59.5781 33.5141 59.4569 33.6834C57.1526 36.8909 53.7434 39.1381 49.8819 39.9946Z" fill="#E1197E"/>
<path opacity="0.8" d="M63.2384 24.2625C63.2403 23.3617 63.1673 22.4624 63.0202 21.5736C62.3705 17.6454 60.3534 14.0714 57.3236 11.4798C54.2938 8.8882 50.4452 7.44491 46.4543 7.40361H46.3088C43.6314 7.40523 40.9926 8.04195 38.6105 9.26122C36.2283 10.4805 34.1709 12.2474 32.6081 14.4161C32.3511 14.7691 32.1232 15.1318 31.8905 15.4945C31.8716 15.5185 31.8553 15.5444 31.8421 15.5719C30.2506 18.1976 29.4121 21.2087 29.418 24.277V24.3109C29.428 27.877 30.5707 31.3482 32.682 34.226C34.7933 37.1038 37.7645 39.2401 41.169 40.3281C44.5736 41.4161 48.2361 41.3998 51.6308 40.2816C55.0254 39.1633 57.9774 37.0006 60.0629 34.1041C60.315 33.7511 60.5477 33.3932 60.7756 33.0257C60.7945 33.0017 60.8108 32.9758 60.8241 32.9483C62.4136 30.3293 63.2489 27.3241 63.2384 24.2625ZM30.1404 23.8805C30.1964 21.1192 30.9698 18.4197 32.385 16.0459H37.6743C36.8661 18.5802 36.4428 21.221 36.4187 23.8805H30.1404ZM38.4161 16.0459H45.9598V23.8805H37.1459C37.1619 21.2192 37.5904 18.5765 38.4161 16.0459ZM46.687 15.3204V8.10486C47.7355 8.19968 48.7397 8.57198 49.5958 9.18332C51.3945 10.4117 52.9022 12.5686 53.9591 15.3204H46.687ZM54.2209 16.0459C54.8207 17.8575 55.2111 19.7316 55.3845 21.6316C55.4572 22.3861 55.4911 23.1357 55.5008 23.8805H46.687V16.0459H54.2209ZM44.8932 8.30798C45.2412 8.20933 45.5987 8.14773 45.9598 8.1242V15.3349H38.6876C40.0451 11.6885 42.2461 9.03824 44.8932 8.29347V8.30798ZM45.9598 24.6204V32.455H38.4306C37.8307 30.6389 37.4436 28.7596 37.2768 26.8547C37.2089 26.1003 37.1701 25.3507 37.1604 24.6059L45.9598 24.6204ZM45.9598 33.1804V40.396C44.9113 40.3005 43.9073 39.9283 43.0509 39.3175C41.2571 38.0892 39.7493 35.9322 38.6876 33.1804H45.9598ZM47.7535 40.2074C47.4056 40.3065 47.0481 40.3681 46.687 40.3912V33.1659H53.9591C52.6017 36.7979 50.4006 39.453 47.7535 40.1929V40.2074ZM46.687 32.4695V24.6107H55.5008C55.4871 27.2722 55.0586 29.9153 54.2306 32.4453L46.687 32.4695ZM56.228 24.6107H62.5306C62.4719 27.3716 61.6987 30.0705 60.2859 32.4453H54.9724C55.7807 29.911 56.2039 27.2701 56.228 24.6107ZM62.5306 23.8853H56.228C56.228 23.1212 56.1796 22.3474 56.1068 21.5688C55.9414 19.6943 55.569 17.8437 54.9966 16.0507H60.2762C61.2965 17.7787 61.9853 19.6811 62.3076 21.6607C62.423 22.3955 62.491 23.1369 62.5112 23.8805L62.5306 23.8853ZM55.8063 11.1516C57.3909 12.2903 58.7572 13.704 59.8399 15.3253H54.73C53.644 12.3317 52.0102 9.96195 50.0079 8.58848L49.8528 8.48692C51.9907 8.96448 54.0093 9.86932 55.7869 11.1468L55.8063 11.1516ZM42.7794 8.49659C40.7383 9.83621 39.0609 12.2736 37.9313 15.3253H32.8408L33.1947 14.8078C35.497 11.6017 38.902 9.3534 42.76 8.49175L42.7794 8.49659ZM30.1743 24.6107H36.4526C36.4526 25.3748 36.5011 26.1486 36.5738 26.9273C36.7416 28.8014 37.1139 30.6517 37.684 32.4453H32.3753C31.353 30.7183 30.664 28.8155 30.344 26.8354C30.2233 26.0996 30.1553 25.3562 30.1404 24.6107H30.1743ZM32.8602 33.1708H37.9313C39.0173 36.1644 40.6511 38.5341 42.6533 39.9076L42.8133 40.0091C38.7397 39.0862 35.1768 36.6383 32.8602 33.1708ZM49.8819 39.9946C51.9181 38.6598 53.5955 36.2176 54.73 33.1659H59.8108C59.6944 33.34 59.5781 33.5141 59.4569 33.6834C57.1526 36.8909 53.7434 39.1381 49.8819 39.9946Z" fill="#FAFAFA"/>
<path d="M173.651 32.3012H21.2266V69.1432H173.651V32.3012Z" fill="#E1197E"/>
<path opacity="0.6" d="M173.651 32.3012H21.2266V69.1432H173.651V32.3012Z" fill="#FAFAFA"/>
<path d="M170.214 35.7302H17.7891V72.5722H170.214V35.7302Z" fill="#E1197E"/>
<path opacity="0.3" d="M170.214 35.7302H17.7891V72.5722H170.214V35.7302Z" fill="black"/>
<path d="M166.776 39.1592H14.3516V76.0012H166.776V39.1592Z" fill="#E1197E"/>
<path opacity="0.1" d="M166.776 39.1592H14.3516V76.0012H166.776V39.1592Z" fill="#FAFAFA"/>
<path d="M159.504 68.7463V46.4128L21.6237 46.4128V68.7463H159.504Z" fill="#E1197E"/>
<path opacity="0.9" d="M159.504 68.7463V46.4128L21.6237 46.4128V68.7463H159.504Z" fill="#FAFAFA"/>
<path d="M136.312 46.4129V68.7464H137.122V46.4129H136.312Z" fill="#E1197E"/>
<path opacity="0.6" d="M136.312 46.4129V68.7464H137.122V46.4129H136.312Z" fill="#FAFAFA"/>
<path d="M25.0586 49.4939V65.6661H25.8682V49.4939H25.0586Z" fill="#E1197E"/>
<path opacity="0.6" d="M25.0586 49.4939V65.6661H25.8682V49.4939H25.0586Z" fill="#FAFAFA"/>
<path d="M147.537 60.3994C146.949 60.3991 146.37 60.2542 145.851 59.9774C145.332 59.7006 144.89 59.3004 144.563 58.8124C144.237 58.3244 144.036 57.7636 143.978 57.1796C143.921 56.5955 144.008 56.0064 144.233 55.4642C144.459 54.9221 144.814 54.4437 145.269 54.0714C145.724 53.6991 146.263 53.4444 146.84 53.3298C147.417 53.2153 148.014 53.2444 148.577 53.4146C149.14 53.5849 149.652 53.8909 150.068 54.3058C150.569 54.8049 150.91 55.441 151.048 56.1336C151.186 56.8261 151.115 57.544 150.844 58.1963C150.573 58.8487 150.115 59.4062 149.526 59.7983C148.937 60.1905 148.245 60.3997 147.537 60.3994ZM147.537 54.2332C146.934 54.2334 146.349 54.4424 145.883 54.8246C145.416 55.2067 145.097 55.7384 144.98 56.329C144.862 56.9196 144.954 57.5325 145.239 58.0633C145.524 58.5941 145.984 59.0099 146.542 59.2398C147.1 59.4697 147.72 59.4995 148.298 59.3241C148.875 59.1487 149.374 58.779 149.709 58.278C150.043 57.777 150.193 57.1757 150.133 56.5765C150.073 55.9774 149.807 55.4176 149.38 54.9925C149.14 54.7462 148.854 54.55 148.538 54.4155C148.221 54.281 147.881 54.2108 147.537 54.2091V54.2332Z" fill="#E1197E"/>
<path d="M152.177 61.9171C152.113 61.9168 152.049 61.9038 151.99 61.8789C151.931 61.854 151.878 61.8177 151.833 61.772L149.384 59.3297C149.334 59.2863 149.292 59.233 149.263 59.173C149.234 59.113 149.218 59.0476 149.215 58.981C149.213 58.9144 149.224 58.848 149.248 58.786C149.273 58.7239 149.31 58.6675 149.357 58.6204C149.404 58.5733 149.461 58.5364 149.523 58.5121C149.585 58.4878 149.652 58.4765 149.718 58.4791C149.785 58.4817 149.851 58.498 149.911 58.527C149.971 58.5561 150.024 58.5972 150.068 58.6478L152.516 61.0901C152.606 61.1807 152.657 61.3033 152.657 61.431C152.657 61.5588 152.606 61.6814 152.516 61.772C152.427 61.8631 152.305 61.9152 152.177 61.9171Z" fill="#E1197E"/>
<g opacity="0.6">
<path opacity="0.6" d="M147.541 60.3994C146.953 60.3991 146.374 60.2542 145.855 59.9774C145.336 59.7006 144.894 59.3004 144.567 58.8124C144.241 58.3244 144.04 57.7636 143.982 57.1796C143.924 56.5955 144.012 56.0064 144.237 55.4642C144.462 54.9221 144.818 54.4437 145.273 54.0714C145.728 53.6991 146.267 53.4444 146.844 53.3298C147.421 53.2153 148.018 53.2444 148.581 53.4146C149.144 53.5849 149.656 53.8909 150.072 54.3058C150.573 54.8049 150.914 55.441 151.052 56.1336C151.19 56.8261 151.119 57.544 150.848 58.1963C150.577 58.8487 150.118 59.4062 149.53 59.7983C148.941 60.1905 148.249 60.3997 147.541 60.3994ZM147.541 54.2332C146.938 54.2334 146.353 54.4424 145.886 54.8246C145.42 55.2067 145.101 55.7384 144.984 56.329C144.866 56.9196 144.958 57.5325 145.243 58.0633C145.528 58.5941 145.988 59.0099 146.546 59.2398C147.104 59.4697 147.724 59.4995 148.302 59.3241C148.879 59.1487 149.378 58.779 149.712 58.278C150.047 57.777 150.197 57.1757 150.137 56.5765C150.077 55.9774 149.811 55.4176 149.384 54.9925C149.144 54.7462 148.858 54.55 148.542 54.4155C148.225 54.281 147.885 54.2108 147.541 54.2091V54.2332Z" fill="#FAFAFA"/>
<path opacity="0.6" d="M152.181 61.9165C152.117 61.9162 152.053 61.9033 151.994 61.8784C151.935 61.8535 151.881 61.8171 151.837 61.7714L149.388 59.3292C149.337 59.2858 149.296 59.2325 149.267 59.1725C149.238 59.1125 149.222 59.0471 149.219 58.9805C149.217 58.9139 149.228 58.8475 149.252 58.7854C149.277 58.7234 149.313 58.667 149.361 58.6199C149.408 58.5727 149.464 58.5358 149.527 58.5115C149.589 58.4872 149.656 58.476 149.722 58.4786C149.789 58.4811 149.855 58.4975 149.915 58.5265C149.975 58.5555 150.028 58.5966 150.072 58.6473L152.52 61.0895C152.61 61.1801 152.661 61.3027 152.661 61.4305C152.661 61.5582 152.61 61.6808 152.52 61.7714C152.431 61.8625 152.309 61.9147 152.181 61.9165Z" fill="#FAFAFA"/>
</g>
<path d="M114.649 10.0299H99.4062V10.4081H114.649V10.0299Z" fill="#E1197E"/>
<path d="M114.649 11.6315H99.4062V12.0096H114.649V11.6315Z" fill="#E1197E"/>
<path d="M114.649 13.2369H99.4062V13.615H114.649V13.2369Z" fill="#E1197E"/>
<path d="M114.649 14.8364H99.4062V15.2146H114.649V14.8364Z" fill="#E1197E"/>
<path d="M114.649 16.438H99.4062V16.8161H114.649V16.438Z" fill="#E1197E"/>
<path d="M109.345 18.0434H99.4062V18.4215H109.345V18.0434Z" fill="#E1197E"/>
<g opacity="0.5">
<path opacity="0.5" d="M114.649 10.0299H99.4062V10.4081H114.649V10.0299Z" fill="#FAFAFA"/>
<path opacity="0.5" d="M114.649 11.6321H99.4062V12.0102H114.649V11.6321Z" fill="#FAFAFA"/>
<path opacity="0.5" d="M114.649 13.2375H99.4062V13.6157H114.649V13.2375Z" fill="#FAFAFA"/>
<path opacity="0.5" d="M114.649 14.839H99.4062V15.2172H114.649V14.839Z" fill="#FAFAFA"/>
<path opacity="0.5" d="M114.649 16.4386H99.4062V16.8168H114.649V16.4386Z" fill="#FAFAFA"/>
<path opacity="0.5" d="M109.345 18.044H99.4062V18.4222H109.345V18.044Z" fill="#FAFAFA"/>
</g>
<path d="M22.9013 79.1835H6.66016V79.4259H22.9013V79.1835Z" fill="#E1197E"/>
<path d="M22.9013 80.2084H6.66016V80.4508H22.9013V80.2084Z" fill="#E1197E"/>
<path d="M22.9013 81.2332H6.66016V81.4756H22.9013V81.2332Z" fill="#E1197E"/>
<path d="M22.9013 82.258H6.66016V82.5004H22.9013V82.258Z" fill="#E1197E"/>
<path d="M22.9013 83.2848H6.66016V83.5272H22.9013V83.2848Z" fill="#E1197E"/>
<path d="M16.8703 84.3135H6.66016V84.5559H16.8703V84.3135Z" fill="#E1197E"/>
<g opacity="0.4">
<path opacity="0.4" d="M22.9013 79.1835H6.66016V79.4259H22.9013V79.1835Z" fill="#FAFAFA"/>
<path opacity="0.4" d="M22.9013 80.2083H6.66016V80.4507H22.9013V80.2083Z" fill="#FAFAFA"/>
<path opacity="0.4" d="M22.9013 81.235H6.66016V81.4775H22.9013V81.235Z" fill="#FAFAFA"/>
<path opacity="0.4" d="M22.9013 82.2599H6.66016V82.5023H22.9013V82.2599Z" fill="#FAFAFA"/>
<path opacity="0.4" d="M22.9013 83.2847H6.66016V83.5271H22.9013V83.2847Z" fill="#FAFAFA"/>
<path opacity="0.4" d="M16.8703 84.3153H6.66016V84.5577H16.8703V84.3153Z" fill="#FAFAFA"/>
</g>
<path d="M76.2828 12.4049C75.4701 12.4049 74.6908 12.727 74.1162 13.3002C73.5416 13.8734 73.2188 14.6508 73.2188 15.4614V25.5448C73.2187 26.3555 73.5416 27.1329 74.1162 27.7061C74.6908 28.2793 75.4701 28.6013 76.2828 28.6013C77.0954 28.6013 77.8747 28.2793 78.4493 27.7061C79.0239 27.1329 79.3468 26.3555 79.3468 25.5448V15.4614C79.3468 14.6508 79.0239 13.8734 78.4493 13.3002C77.8747 12.727 77.0954 12.4049 76.2828 12.4049Z" fill="#E1197E"/>
<path opacity="0.2" d="M76.2828 12.4049C75.4701 12.4049 74.6908 12.727 74.1162 13.3002C73.5416 13.8734 73.2188 14.6508 73.2188 15.4614V25.5448C73.2187 26.3555 73.5416 27.1329 74.1162 27.7061C74.6908 28.2793 75.4701 28.6013 76.2828 28.6013C77.0954 28.6013 77.8747 28.2793 78.4493 27.7061C79.0239 27.1329 79.3468 26.3555 79.3468 25.5448V15.4614C79.3468 14.6508 79.0239 13.8734 78.4493 13.3002C77.8747 12.727 77.0954 12.4049 76.2828 12.4049Z" fill="#FAFAFA"/>
<path d="M83.9596 6.39246C83.1495 6.3963 82.3739 6.72001 81.8024 7.29279C81.231 7.86557 80.9101 8.64081 80.9102 9.44892V25.5437C80.9102 26.3543 81.233 27.1318 81.8076 27.705C82.3822 28.2782 83.1615 28.6002 83.9742 28.6002C84.7868 28.6002 85.5661 28.2782 86.1407 27.705C86.7154 27.1318 87.0382 26.3543 87.0382 25.5437V9.44892C87.0382 9.04632 86.9584 8.64768 86.8036 8.27591C86.6487 7.90413 86.4217 7.56654 86.1356 7.28253C85.8495 6.99852 85.5101 6.77369 85.1366 6.62094C84.7632 6.4682 84.3632 6.39055 83.9596 6.39246Z" fill="#E1197E"/>
<path opacity="0.3" d="M83.9596 6.39246C83.1495 6.3963 82.3739 6.72001 81.8024 7.29279C81.231 7.86557 80.9101 8.64081 80.9102 9.44892V25.5437C80.9102 26.3543 81.233 27.1318 81.8076 27.705C82.3822 28.2782 83.1615 28.6002 83.9742 28.6002C84.7868 28.6002 85.5661 28.2782 86.1407 27.705C86.7154 27.1318 87.0382 26.3543 87.0382 25.5437V9.44892C87.0382 9.04632 86.9584 8.64768 86.8036 8.27591C86.6487 7.90413 86.4217 7.56654 86.1356 7.28253C85.8495 6.99852 85.5101 6.77369 85.1366 6.62094C84.7632 6.4682 84.3632 6.39055 83.9596 6.39246Z" fill="black"/>
<path d="M91.6343 18.4155C90.8217 18.4155 90.0424 18.7375 89.4677 19.3107C88.8931 19.8839 88.5703 20.6613 88.5703 21.472V25.544C88.5703 26.3546 88.8931 27.1321 89.4677 27.7053C90.0424 28.2785 90.8217 28.6005 91.6343 28.6005C92.0371 28.6011 92.436 28.5225 92.8083 28.3692C93.1806 28.2159 93.519 27.9909 93.804 27.707C94.0891 27.4231 94.3152 27.0859 94.4695 26.7148C94.6238 26.3437 94.7032 25.9458 94.7032 25.544V21.472C94.7032 21.0702 94.6238 20.6723 94.4695 20.3012C94.3152 19.93 94.0891 19.5929 93.804 19.309C93.519 19.0251 93.1806 18.8001 92.8083 18.6468C92.436 18.4935 92.0371 18.4149 91.6343 18.4155Z" fill="#E1197E"/>
<path opacity="0.6" d="M91.6343 18.4155C90.8217 18.4155 90.0424 18.7375 89.4677 19.3107C88.8931 19.8839 88.5703 20.6613 88.5703 21.472V25.544C88.5703 26.3546 88.8931 27.1321 89.4677 27.7053C90.0424 28.2785 90.8217 28.6005 91.6343 28.6005C92.0371 28.6011 92.436 28.5225 92.8083 28.3692C93.1806 28.2159 93.519 27.9909 93.804 27.707C94.0891 27.4231 94.3152 27.0859 94.4695 26.7148C94.6238 26.3437 94.7032 25.9458 94.7032 25.544V21.472C94.7032 21.0702 94.6238 20.6723 94.4695 20.3012C94.3152 19.93 94.0891 19.5929 93.804 19.309C93.519 19.0251 93.1806 18.8001 92.8083 18.6468C92.436 18.4935 92.0371 18.4149 91.6343 18.4155Z" fill="#FAFAFA"/>
<path d="M156.354 87.545H168.741L147.594 65.6661L156.354 87.545Z" fill="#E1197E"/>
<g opacity="0.1">
<path opacity="0.1" d="M156.35 87.545H168.737L147.59 65.6661L156.35 87.545Z" fill="black"/>
</g>
<g style="mix-blend-mode:multiply">
<path d="M144.445 75.9962L147.592 65.6661L149.376 75.9962H144.445Z" fill="#E1197E"/>
</g>
<path d="M147.594 65.6661V96.2791L149.785 94.098L156.354 87.545L147.594 65.6661Z" fill="#E1197E"/>
<path opacity="0.3" d="M147.594 65.6661V96.2791L149.785 94.098L156.354 87.545L147.594 65.6661Z" fill="#FAFAFA"/>
<path d="M169.495 0H142.346C140.97 0.00508779 139.651 0.552267 138.678 1.52238C137.705 2.4925 137.155 3.80697 137.148 5.17955V19.1658C137.155 20.5375 137.704 21.8513 138.676 22.8212C139.649 23.7912 140.966 24.339 142.341 24.3453H162.262L162.116 29.2347L167.144 24.3453H169.485C170.861 24.3402 172.18 23.793 173.153 22.8229C174.126 21.8528 174.676 20.5383 174.683 19.1658V5.17955C174.676 3.80864 174.128 2.49561 173.156 1.52577C172.185 0.555931 170.869 0.00762985 169.495 0ZM141.735 5.95817C141.735 5.57338 141.888 5.20435 142.161 4.93226C142.434 4.66017 142.803 4.50732 143.189 4.50732H149.438C149.824 4.50732 150.194 4.66017 150.467 4.93226C150.74 5.20435 150.893 5.57338 150.893 5.95817C150.893 6.34296 150.74 6.71199 150.467 6.98408C150.194 7.25617 149.824 7.40902 149.438 7.40902H143.184C142.799 7.40774 142.431 7.25432 142.159 6.98237C141.887 6.71042 141.735 6.34212 141.735 5.95817ZM167.953 19.4995H157.152C156.943 19.536 156.728 19.5264 156.523 19.4715C156.318 19.4165 156.128 19.3175 155.965 19.1813C155.803 19.0451 155.672 18.8751 155.582 18.6832C155.493 18.4913 155.446 18.2821 155.446 18.0704C155.446 17.8587 155.493 17.6495 155.582 17.4576C155.672 17.2657 155.803 17.0957 155.965 16.9595C156.128 16.8233 156.318 16.7242 156.523 16.6693C156.728 16.6143 156.943 16.6048 157.152 16.6413H167.953C168.162 16.6048 168.377 16.6143 168.582 16.6693C168.787 16.7242 168.977 16.8233 169.14 16.9595C169.302 17.0957 169.433 17.2657 169.523 17.4576C169.612 17.6495 169.659 17.8587 169.659 18.0704C169.659 18.2821 169.612 18.4913 169.523 18.6832C169.433 18.8751 169.302 19.0451 169.14 19.1813C168.977 19.3175 168.787 19.4165 168.582 19.4715C168.377 19.5264 168.162 19.536 167.953 19.4995ZM167.953 13.4494H144.639C144.43 13.4859 144.215 13.4764 144.01 13.4214C143.805 13.3665 143.615 13.2674 143.452 13.1312C143.29 12.995 143.159 12.825 143.069 12.6331C142.98 12.4412 142.933 12.232 142.933 12.0203C142.933 11.8086 142.98 11.5994 143.069 11.4075C143.159 11.2156 143.29 11.0456 143.452 10.9094C143.615 10.7732 143.805 10.6742 144.01 10.6192C144.215 10.5642 144.43 10.5547 144.639 10.5912H167.953C168.162 10.5547 168.377 10.5642 168.582 10.6192C168.787 10.6742 168.977 10.7732 169.14 10.9094C169.302 11.0456 169.433 11.2156 169.523 11.4075C169.612 11.5994 169.659 11.8086 169.659 12.0203C169.659 12.232 169.612 12.4412 169.523 12.6331C169.433 12.825 169.302 12.995 169.14 13.1312C168.977 13.2674 168.787 13.3665 168.582 13.4214C168.377 13.4764 168.162 13.4859 167.953 13.4494ZM167.953 7.39935H154.151C153.765 7.39935 153.395 7.24649 153.122 6.97441C152.85 6.70232 152.696 6.33329 152.696 5.9485C152.696 5.56371 152.85 5.19468 153.122 4.92259C153.395 4.6505 153.765 4.49765 154.151 4.49765H167.953C168.339 4.49765 168.709 4.6505 168.982 4.92259C169.255 5.19468 169.408 5.56371 169.408 5.9485C169.408 6.33329 169.255 6.70232 168.982 6.97441C168.709 7.24649 168.339 7.39935 167.953 7.39935Z" fill="#E1197E"/>
<path d="M127.037 44.3322C125.878 41.1548 124.107 38.2339 121.825 35.7335H83.2781C80.9963 38.2339 79.2259 41.1548 78.0664 44.3322L83.3993 70.8151C87.4791 75.2269 92.9641 78.0937 98.9226 78.9286C104.881 79.7635 110.946 78.5149 116.086 75.395C121.226 72.2752 125.125 67.4764 127.121 61.8138C129.116 56.1513 129.085 49.9743 127.032 44.3322H127.037Z" fill="#A6DD27"/>
<path opacity="0.1" d="M127.037 44.3322C125.878 41.1548 124.107 38.2339 121.825 35.7335H83.2781C80.9963 38.2339 79.2259 41.1548 78.0664 44.3322L83.3993 70.8151C87.4791 75.2269 92.9641 78.0937 98.9226 78.9286C104.881 79.7635 110.946 78.5149 116.086 75.395C121.226 72.2752 125.125 67.4764 127.121 61.8138C129.116 56.1513 129.085 49.9743 127.032 44.3322H127.037Z" fill="#FAFAFA"/>
<path d="M128.576 54.4051C128.301 60.5116 125.869 66.3242 121.711 70.8143H83.4112C80.1779 67.3095 77.9708 62.9868 77.0305 58.3171C76.0901 53.6474 76.4525 48.8098 78.0783 44.3314H127.044C128.22 47.5546 128.741 50.9791 128.576 54.4051Z" fill="#A6DD27"/>
<path opacity="0.9" d="M128.576 54.4051C128.301 60.5116 125.869 66.3242 121.711 70.8143H83.4112C80.1779 67.3095 77.9708 62.9868 77.0305 58.3171C76.0901 53.6474 76.4525 48.8098 78.0783 44.3314H127.044C128.22 47.5546 128.741 50.9791 128.576 54.4051Z" fill="#FAFAFA"/>
<path opacity="0.3" d="M128.574 54.4051C128.273 60.831 125.587 66.9157 121.039 71.4767C116.491 76.0377 110.406 78.7492 103.966 79.0844C97.526 79.4196 91.1909 77.3545 86.192 73.2903C81.193 69.2262 77.8873 63.4534 76.917 57.0936C75.9468 50.7338 77.3814 44.2413 80.942 38.8778C84.5027 33.5143 89.9351 29.6627 96.1836 28.0716C102.432 26.4806 109.05 27.2636 114.753 30.2685C120.455 33.2735 124.833 38.2857 127.037 44.3313C128.213 47.5546 128.736 50.9788 128.574 54.4051Z" fill="white"/>
<path opacity="0.4" d="M117.237 31.7483L79.7809 65.824C79.5934 65.479 79.4092 65.1308 79.2282 64.7794C78.0829 62.4923 77.2871 60.0472 76.8672 57.5251L109.219 28.0922C112.081 28.8447 114.794 30.0814 117.237 31.7483Z" fill="white"/>
<path opacity="0.4" d="M127.254 44.9571L92.0613 76.9919C88.4108 75.3853 85.1795 72.9628 82.6172 69.9118L121.072 34.9268C123.875 37.7546 125.989 41.1861 127.254 44.9571Z" fill="white"/>
<path d="M128.564 38.2246C125.594 33.0859 121.161 28.9416 115.829 26.3163C110.496 23.691 104.503 22.7026 98.6066 23.4761C92.7107 24.2496 87.1772 26.7503 82.7064 30.6618C78.2355 34.5733 75.0283 39.7197 73.4903 45.45C71.9524 51.1803 72.153 57.2369 74.0667 62.8534C75.9804 68.47 79.5211 73.3941 84.241 77.0027C88.9609 80.6113 94.6477 82.7422 100.582 83.1259C106.516 83.5096 112.431 82.1287 117.579 79.158C124.473 75.1792 129.502 68.6336 131.562 60.9588C133.622 53.2839 132.544 45.1072 128.564 38.2246ZM82.0226 65.0364C79.6786 60.9867 78.591 56.3346 78.8973 51.6684C79.2037 47.0021 80.8903 42.5313 83.7438 38.8212C86.5973 35.1111 90.4896 32.3284 94.9285 30.8249C99.3674 29.3214 104.153 29.1647 108.682 30.3746C113.21 31.5845 117.277 34.1067 120.368 37.6222C123.459 41.1377 125.436 45.4886 126.048 50.1248C126.661 54.7609 125.881 59.4742 123.808 63.6684C121.736 67.8627 118.463 71.3496 114.403 73.6883C111.708 75.2412 108.732 76.2492 105.647 76.6548C102.561 77.0604 99.4252 76.8556 96.4187 76.0522C93.4122 75.2487 90.5939 73.8624 88.1246 71.9723C85.6553 70.0822 83.5835 67.7253 82.0275 65.0364H82.0226Z" fill="#A6DD27"/>
<path opacity="0.1" d="M128.564 38.2246C125.594 33.0859 121.161 28.9416 115.829 26.3163C110.496 23.691 104.503 22.7026 98.6066 23.4761C92.7107 24.2496 87.1772 26.7503 82.7064 30.6618C78.2355 34.5733 75.0283 39.7197 73.4903 45.45C71.9524 51.1803 72.153 57.2369 74.0667 62.8534C75.9804 68.47 79.5211 73.3941 84.241 77.0027C88.9609 80.6113 94.6477 82.7422 100.582 83.1259C106.516 83.5096 112.431 82.1287 117.579 79.158C124.473 75.1792 129.502 68.6336 131.562 60.9588C133.622 53.2839 132.544 45.1072 128.564 38.2246ZM82.0226 65.0364C79.6786 60.9867 78.591 56.3346 78.8973 51.6684C79.2037 47.0021 80.8903 42.5313 83.7438 38.8212C86.5973 35.1111 90.4896 32.3284 94.9285 30.8249C99.3674 29.3214 104.153 29.1647 108.682 30.3746C113.21 31.5845 117.277 34.1067 120.368 37.6222C123.459 41.1377 125.436 45.4886 126.048 50.1248C126.661 54.7609 125.881 59.4742 123.808 63.6684C121.736 67.8627 118.463 71.3496 114.403 73.6883C111.708 75.2412 108.732 76.2492 105.647 76.6548C102.561 77.0604 99.4252 76.8556 96.4187 76.0522C93.4122 75.2487 90.5939 73.8624 88.1246 71.9723C85.6553 70.0822 83.5835 67.7253 82.0275 65.0364H82.0226Z" fill="black"/>
<path d="M33.4304 84.042L37.1441 84.9028L34.0655 87.1952C34.0655 87.1952 31.8596 86.1989 31.7578 84.6368L33.4304 84.042Z" fill="#E4897B"/>
<path d="M39.1327 87.3687L36.4565 89.1484L34.0664 87.1946L37.145 84.907L39.1327 87.3687Z" fill="#E4897B"/>
<path d="M81.141 68.9955C77.1946 71.8972 73.1465 74.6539 69.0789 77.3476C65.0113 80.0414 60.8904 82.6674 56.7502 85.2451C52.6099 87.8228 48.4308 90.3473 44.2372 92.7992C42.1428 94.0469 40.029 95.256 37.9346 96.4844C36.8943 97.1451 35.76 97.6456 34.5701 97.9691C33.9352 98.1371 33.2859 98.2456 32.6308 98.2931C31.9035 98.3523 31.1715 98.3149 30.454 98.1819C29.9413 98.0807 29.4536 97.8796 29.0188 97.5902C28.584 97.3008 28.2108 96.9287 27.9203 96.4953C27.6299 96.0618 27.428 95.5754 27.3261 95.064C27.2243 94.5526 27.2246 94.0262 27.327 93.515C27.3602 93.3506 27.4055 93.189 27.4627 93.0313C27.6968 92.3457 28.0229 91.695 28.4323 91.0969C28.7976 90.5591 29.2131 90.0571 29.6735 89.5977C30.5503 88.7317 31.552 88.0014 32.6454 87.431C34.764 86.2268 36.8681 85.013 39.0012 83.8184C43.2482 81.4245 47.5339 79.0935 51.8293 76.7914C56.1247 74.4894 60.4735 72.26 64.8465 70.0837C69.2195 67.9074 73.6264 65.7891 78.1255 63.8353C78.8044 63.5359 79.5704 63.4972 80.2762 63.7268C80.9819 63.9563 81.5778 64.4379 81.9494 65.079C82.3209 65.7201 82.4419 66.4755 82.2892 67.2002C82.1364 67.9249 81.7206 68.5677 81.1216 69.0052L81.141 68.9955Z" fill="#A6DD27"/>
<path opacity="0.1" d="M81.141 68.9955C77.1946 71.8972 73.1465 74.6539 69.0789 77.3476C65.0113 80.0414 60.8904 82.6674 56.7502 85.2451C52.6099 87.8228 48.4308 90.3473 44.2372 92.7992C42.1428 94.0469 40.029 95.256 37.9346 96.4844C36.8943 97.1451 35.76 97.6456 34.5701 97.9691C33.9352 98.1371 33.2859 98.2456 32.6308 98.2931C31.9035 98.3523 31.1715 98.3149 30.454 98.1819C29.9413 98.0807 29.4536 97.8796 29.0188 97.5902C28.584 97.3008 28.2108 96.9287 27.9203 96.4953C27.6299 96.0618 27.428 95.5754 27.3261 95.064C27.2243 94.5526 27.2246 94.0262 27.327 93.515C27.3602 93.3506 27.4055 93.189 27.4627 93.0313C27.6968 92.3457 28.0229 91.695 28.4323 91.0969C28.7976 90.5591 29.2131 90.0571 29.6735 89.5977C30.5503 88.7317 31.552 88.0014 32.6454 87.431C34.764 86.2268 36.8681 85.013 39.0012 83.8184C43.2482 81.4245 47.5339 79.0935 51.8293 76.7914C56.1247 74.4894 60.4735 72.26 64.8465 70.0837C69.2195 67.9074 73.6264 65.7891 78.1255 63.8353C78.8044 63.5359 79.5704 63.4972 80.2762 63.7268C80.9819 63.9563 81.5778 64.4379 81.9494 65.079C82.3209 65.7201 82.4419 66.4755 82.2892 67.2002C82.1364 67.9249 81.7206 68.5677 81.1216 69.0052L81.141 68.9955Z" fill="black"/>
<path d="M38.8116 61.1331C38.5692 61.5248 38.2928 61.9988 38.031 62.4437C37.7692 62.8886 37.5123 63.3529 37.2699 63.822C36.7851 64.7457 36.3003 65.6839 35.8155 66.6367C35.3306 67.5894 34.938 68.5711 34.5404 69.5384C34.3465 70.022 34.1429 70.5056 33.9635 70.9892L33.692 71.7292C33.6387 71.8694 33.629 71.9274 33.595 72.029C33.5611 72.1306 33.5465 72.2273 33.5175 72.324C33.3282 73.2797 33.2324 74.2515 33.2314 75.2257C33.2072 76.2655 33.2314 77.3246 33.2896 78.3934C33.3478 79.4622 33.4059 80.5358 33.5029 81.6095C33.5999 82.6831 33.6968 83.7761 33.7986 84.84L31.9273 85.2221C31.5976 84.1436 31.3407 83.07 31.0837 81.9819C30.8268 80.8937 30.6328 79.8007 30.4438 78.6884C30.2547 77.5761 30.1286 76.4589 30.0462 75.3031C29.9454 74.0927 29.9763 72.8749 30.1383 71.6711C30.1674 71.5019 30.1917 71.3423 30.2353 71.1875C30.2789 71.0327 30.3226 70.8151 30.3613 70.7039L30.5989 69.8817C30.754 69.3352 30.9334 68.7936 31.1176 68.2568C31.4909 67.1783 31.8982 66.1192 32.3539 65.0746C32.8096 64.03 33.2944 63.0095 33.8083 62.0036C34.075 61.52 34.3562 61.0025 34.6422 60.5044C34.9283 60.0063 35.2143 59.5372 35.5731 59.01L38.8116 61.1331Z" fill="#E4897B"/>
<path d="M36.742 160.991C36.4149 160.98 36.0898 160.935 35.7724 160.855C35.7554 160.853 35.7397 160.845 35.7276 160.832C35.7154 160.82 35.7073 160.805 35.7045 160.788C35.7014 160.77 35.7035 160.752 35.7103 160.736C35.7172 160.72 35.7287 160.706 35.7433 160.696C35.8742 160.609 37.0184 159.874 37.4595 160.072C37.5086 160.094 37.5507 160.13 37.5814 160.174C37.6121 160.218 37.6303 160.27 37.6341 160.323C37.6568 160.41 37.6553 160.5 37.6296 160.586C37.604 160.671 37.5552 160.748 37.4886 160.807C37.2702 160.956 37.005 161.021 36.742 160.991ZM36.0003 160.73C36.6596 160.86 37.1541 160.836 37.3432 160.662C37.3847 160.622 37.4151 160.572 37.4313 160.517C37.4474 160.462 37.4488 160.403 37.4353 160.348C37.4347 160.323 37.4271 160.299 37.4134 160.278C37.3996 160.258 37.3803 160.242 37.3577 160.231C37.1299 160.13 36.4657 160.449 36.0003 160.73Z" fill="#A6DD27"/>
<path d="M35.7671 160.86C35.7529 160.864 35.7377 160.864 35.7235 160.86C35.7095 160.853 35.698 160.841 35.6903 160.828C35.6825 160.814 35.6789 160.798 35.6798 160.783C35.6798 160.739 35.6798 159.656 36.0919 159.293C36.1428 159.247 36.2028 159.213 36.268 159.192C36.3332 159.171 36.4021 159.165 36.4701 159.172C36.5415 159.173 36.6105 159.199 36.6653 159.244C36.72 159.29 36.7573 159.354 36.7707 159.424C36.8579 159.844 36.1695 160.657 35.801 160.874C35.7887 160.872 35.7771 160.867 35.7671 160.86ZM36.4119 159.332C36.3384 159.332 36.2677 159.36 36.2131 159.409C35.9747 159.759 35.8526 160.176 35.8641 160.599C36.2228 160.309 36.6494 159.699 36.5961 159.443C36.5961 159.399 36.5622 159.351 36.4507 159.337L36.4119 159.332Z" fill="#A6DD27"/>
<path d="M53.9135 160.99C53.514 160.984 53.1162 160.939 52.7257 160.855C52.7071 160.853 52.6898 160.844 52.6766 160.831C52.6634 160.818 52.655 160.801 52.653 160.782C52.6508 160.764 52.6543 160.745 52.6629 160.729C52.6716 160.712 52.685 160.699 52.7014 160.69C52.8711 160.603 54.374 159.839 54.8346 160.091C54.8789 160.113 54.9165 160.147 54.9437 160.189C54.9709 160.23 54.9868 160.278 54.9897 160.328C55.0003 160.407 54.9908 160.488 54.962 160.564C54.9332 160.639 54.8861 160.706 54.8249 160.758C54.5568 160.937 54.235 161.019 53.9135 160.99ZM53.0214 160.729C53.8601 160.869 54.4758 160.831 54.7086 160.627C54.7472 160.591 54.7766 160.547 54.7944 160.497C54.8121 160.447 54.8176 160.394 54.8104 160.342C54.8102 160.322 54.8047 160.303 54.7945 160.286C54.7843 160.269 54.7696 160.255 54.7522 160.245C54.5001 160.11 53.6371 160.434 53.0214 160.729Z" fill="#A6DD27"/>
<path d="M52.7407 160.86C52.733 160.863 52.7248 160.865 52.7165 160.865C52.7082 160.865 52.6999 160.863 52.6922 160.86C52.6783 160.853 52.667 160.842 52.66 160.828C52.653 160.814 52.6507 160.798 52.6535 160.783C52.6535 160.739 52.7456 159.724 53.2158 159.332C53.3509 159.219 53.525 159.163 53.7006 159.177C53.9479 159.201 54.0158 159.327 54.0352 159.428C54.103 159.854 53.2158 160.667 52.765 160.879L52.7407 160.86ZM53.6425 159.332C53.5286 159.333 53.4187 159.374 53.3322 159.448C53.0541 159.775 52.8847 160.181 52.8474 160.609C53.3031 160.333 53.9091 159.694 53.8655 159.438C53.8655 159.438 53.8655 159.351 53.691 159.337L53.6425 159.332Z" fill="#A6DD27"/>
<path d="M44.5519 46.609C44.8476 48.8675 45.5215 53.4473 43.8828 54.8305C43.8828 54.8305 44.3676 57.1325 48.4982 57.3985C53.0651 57.6935 50.8253 55.2802 50.8253 55.2802C48.3722 54.5258 48.5564 52.6832 49.1042 50.9809L44.5519 46.609Z" fill="#E4897B"/>
<path d="M53.0219 42.0206C52.9928 42.02 52.9644 42.0116 52.9395 41.9964C52.9184 41.9858 52.8997 41.9709 52.8845 41.9528C52.8693 41.9347 52.8579 41.9137 52.8511 41.8911C52.8443 41.8685 52.8422 41.8447 52.8449 41.8213C52.8476 41.7978 52.855 41.7751 52.8668 41.7546C52.9927 41.4988 53.1789 41.2772 53.4094 41.1087C53.6399 40.9403 53.9078 40.83 54.1903 40.7874C54.2337 40.7891 54.275 40.8064 54.3066 40.8361C54.3381 40.8659 54.3578 40.906 54.362 40.9491C54.3661 40.9922 54.3544 41.0354 54.3291 41.0706C54.3038 41.1057 54.2665 41.1306 54.2243 41.1404C54.0032 41.1789 53.7941 41.268 53.6132 41.4005C53.4324 41.5331 53.2848 41.7056 53.1819 41.9045C53.1681 41.9364 53.146 41.964 53.1179 41.9845C53.0897 42.0049 53.0566 42.0174 53.0219 42.0206Z" fill="#263238"/>
<path d="M54.3242 44.0041C54.6582 44.6683 55.0824 45.2834 55.5847 45.8321C55.4407 45.9571 55.2711 46.0491 55.0877 46.1017C54.9043 46.1543 54.7115 46.1663 54.523 46.1368L54.3242 44.0041Z" fill="#DE5753"/>
<path d="M54.0039 43.5101C54.033 43.8148 54.2172 44.0421 54.4112 44.0227C54.6051 44.0034 54.7505 43.7471 54.7214 43.4424C54.6924 43.1377 54.5081 42.9104 54.3094 42.9297C54.1106 42.9491 53.9748 43.2102 54.0039 43.5101Z" fill="#263238"/>
<path d="M54.2461 42.9536L54.9539 42.6773C54.9539 42.6773 54.6146 43.2784 54.2461 42.9536Z" fill="#263238"/>
<path d="M48.5898 160.769H52.3665L52.6186 152.054H48.8419L48.5898 160.769Z" fill="#E4897B"/>
<path d="M31.4414 160.769H35.2181L36.4301 152.054H32.6583L31.4414 160.769Z" fill="#E4897B"/>
<path d="M35.4532 160.332H31.2111C31.1384 160.332 31.0679 160.357 31.0126 160.404C30.9573 160.451 30.921 160.517 30.9105 160.589L30.4257 163.935C30.4161 164.02 30.4246 164.105 30.4504 164.186C30.4763 164.267 30.5189 164.342 30.5757 164.405C30.6324 164.469 30.7019 164.52 30.7797 164.554C30.8574 164.589 30.9416 164.607 31.0269 164.607C32.4813 164.583 33.2182 164.496 35.0847 164.496C36.2289 164.496 37.9063 164.612 39.4917 164.612C41.077 164.612 41.1594 163.05 40.5001 162.91C37.5427 162.276 37.0773 161.401 36.0786 160.564C35.9042 160.416 35.6826 160.333 35.4532 160.332Z" fill="#263238"/>
<path d="M52.4947 160.332H48.2574C48.1844 160.331 48.1133 160.356 48.0579 160.403C48.0024 160.45 47.9664 160.516 47.9568 160.589L47.472 163.935C47.4632 164.02 47.4723 164.106 47.4987 164.187C47.5251 164.268 47.5683 164.342 47.6254 164.406C47.6825 164.469 47.7523 164.52 47.8303 164.554C47.9082 164.589 47.9926 164.607 48.078 164.608C49.5325 164.583 50.2694 164.496 52.131 164.496C53.28 164.496 55.6508 164.612 57.2361 164.612C58.8214 164.612 58.9039 163.05 58.2445 162.91C55.2872 162.277 54.1236 161.401 53.1249 160.564C52.9493 160.415 52.7258 160.332 52.4947 160.332Z" fill="#263238"/>
<path d="M52.6137 152.054L52.4876 156.547H48.7109L48.8418 152.054H52.6137Z" fill="#CE6F64"/>
<path d="M32.6567 152.054H36.4333L35.8079 156.547H32.0312L32.6567 152.054Z" fill="#CE6F64"/>
<path d="M40.4235 61.7136C39.7067 62.8306 38.8765 63.8711 37.9461 64.8184L37.5146 64.5331L32.7344 61.3654C32.7344 61.3654 35.3427 55.562 37.3061 55.267C39.1824 54.9671 40.5495 56.9016 41.1846 58.9715C41.427 59.7211 41.0246 60.7367 40.4235 61.7136Z" fill="#A6DD27"/>
<path opacity="0.6" d="M40.4235 61.7136C39.7067 62.8306 38.8765 63.8711 37.9461 64.8184L37.5146 64.5331L32.7344 61.3654C32.7344 61.3654 35.3427 55.562 37.3061 55.267C39.1824 54.9671 40.5495 56.9016 41.1846 58.9715C41.427 59.7211 41.0246 60.7367 40.4235 61.7136Z" fill="#FAFAFA"/>
<path d="M40.4206 61.7125C39.7038 62.8296 38.8737 63.87 37.9432 64.8174L37.5117 64.532C37.725 62.791 38.4038 61.0645 39.1795 60.518C39.6546 60.5664 40.0764 61.0693 40.4206 61.7125Z" fill="#A6DD27"/>
<path opacity="0.4" d="M40.4206 61.7125C39.7038 62.8296 38.8737 63.87 37.9432 64.8174L37.5117 64.532C37.725 62.791 38.4038 61.0645 39.1795 60.518C39.6546 60.5664 40.0764 61.0693 40.4206 61.7125Z" fill="#FAFAFA"/>
<path d="M56.7747 64.61C56.5468 66.0609 56.2511 67.768 55.8535 69.7944C55.3687 72.3866 54.69 75.4963 53.8319 79.2153L38.5361 78.248C39.1954 72.0529 39.4524 68.2226 37.3047 55.2859C39.4761 54.9833 41.6669 54.8394 43.8593 54.8555C46.1813 54.8403 48.5013 54.9906 50.8018 55.3052C53.7689 55.7888 57.1044 56.6787 57.1044 56.6787C57.1044 56.6787 57.9576 57.0124 56.7747 64.61Z" fill="#A6DD27"/>
<path opacity="0.6" d="M56.7747 64.61C56.5468 66.0609 56.2511 67.768 55.8535 69.7944C55.3687 72.3866 54.69 75.4963 53.8319 79.2153L38.5361 78.248C39.1954 72.0529 39.4524 68.2226 37.3047 55.2859C39.4761 54.9833 41.6669 54.8394 43.8593 54.8555C46.1813 54.8403 48.5013 54.9906 50.8018 55.3052C53.7689 55.7888 57.1044 56.6787 57.1044 56.6787C57.1044 56.6787 57.9576 57.0124 56.7747 64.61Z" fill="#FAFAFA"/>
<path d="M56.7724 64.6099C56.5445 66.0608 56.2488 67.768 55.8513 69.7943C55.01 68.0095 54.3113 66.1611 53.7617 64.2666H56.6027L56.7724 64.6099Z" fill="#A6DD27"/>
<path opacity="0.4" d="M56.7724 64.6099C56.5445 66.0608 56.2488 67.768 55.8513 69.7943C55.01 68.0095 54.3113 66.1611 53.7617 64.2666H56.6027L56.7724 64.6099Z" fill="#FAFAFA"/>
<path d="M43.7166 43.4321C44.2935 47.1221 44.4632 48.6987 46.5237 50.4252C49.6216 53.0271 54.0382 51.5085 54.5764 47.717C55.0612 44.3075 54.0334 38.8426 50.247 37.7109C49.4142 37.456 48.5298 37.418 47.678 37.6004C46.8262 37.7828 46.0354 38.1796 45.3808 38.7531C44.7263 39.3266 44.2297 40.0576 43.9384 40.8766C43.6471 41.6956 43.5707 42.5754 43.7166 43.4321Z" fill="#E4897B"/>
<path d="M49.7895 78.9544C49.7895 78.9544 49.5471 85.6719 48.9653 94.1449C48.4805 101.254 47.7485 109.592 46.7255 116.237L46.6964 116.42C44.859 128.182 36.719 155.671 36.719 155.671H31.5703C31.5703 155.671 35.8124 129.12 36.7432 117.465C39.1043 88.0271 33.1896 84.695 38.537 78.2048L49.7895 78.9544Z" fill="#A6DD27"/>
<path opacity="0.3" d="M49.7895 78.9544C49.7895 78.9544 49.5471 85.6719 48.9653 94.1449C48.4805 101.254 47.7485 109.592 46.7255 116.237L46.6964 116.42C44.859 128.182 36.719 155.671 36.719 155.671H31.5703C31.5703 155.671 35.8124 129.12 36.7432 117.465C39.1043 88.0271 33.1896 84.695 38.537 78.2048L49.7895 78.9544Z" fill="black"/>
<path d="M48.9626 94.1456C48.4778 101.255 47.7457 109.592 46.7227 116.237C44.9823 107.605 42.1219 94.9967 45.9616 86.7365C46.8779 89.0821 47.9445 91.7323 48.9626 94.1456Z" fill="#A6DD27"/>
<path opacity="0.4" d="M48.9626 94.1456C48.4778 101.255 47.7457 109.592 46.7227 116.237C44.9823 107.605 42.1219 94.9967 45.9616 86.7365C46.8779 89.0821 47.9445 91.7323 48.9626 94.1456Z" fill="black"/>
<path d="M53.8329 79.2195C53.8329 79.2195 58.1962 105.016 57.9344 116.497C57.6774 128.442 53.2899 155.67 53.2899 155.67H48.1897C48.1897 155.67 48.9945 129.134 48.5436 117.406C48.0588 104.619 42.6289 78.4893 42.6289 78.4893L53.8329 79.2195Z" fill="#A6DD27"/>
<path opacity="0.3" d="M53.8329 79.2195C53.8329 79.2195 58.1962 105.016 57.9344 116.497C57.6774 128.442 53.2899 155.67 53.2899 155.67H48.1897C48.1897 155.67 48.9945 129.134 48.5436 117.406C48.0588 104.619 42.6289 78.4893 42.6289 78.4893L53.8329 79.2195Z" fill="black"/>
<path d="M47.3166 155.912H54.1573L54.6906 153.624L47.0742 153.677L47.3166 155.912Z" fill="#263238"/>
<path d="M30.8203 155.912H37.661L38.1943 153.624L30.8688 153.677L30.8203 155.912Z" fill="#263238"/>
<path d="M38.3629 77.3238L37.5872 78.6489C37.5242 78.7505 37.6454 78.8666 37.8199 78.8763L53.8623 79.916C53.9981 79.916 54.1193 79.8677 54.1338 79.7806L54.3617 78.4216C54.3617 78.3298 54.2599 78.2427 54.1096 78.233L38.5956 77.2271C38.5521 77.2251 38.5086 77.2328 38.4684 77.2495C38.4282 77.2662 38.3921 77.2916 38.3629 77.3238Z" fill="#263238"/>
<path d="M40.3301 79.1818L39.918 79.1528C39.8356 79.1528 39.7725 79.0996 39.7822 79.0512L40.0925 77.286C40.0925 77.2377 40.1749 77.199 40.2573 77.2038L40.6743 77.228C40.7567 77.228 40.8149 77.2812 40.81 77.3344L40.4998 79.0948C40.4901 79.148 40.4125 79.1866 40.3301 79.1818Z" fill="#A6DD27"/>
<path opacity="0.3" d="M40.3301 79.1818L39.918 79.1528C39.8356 79.1528 39.7725 79.0996 39.7822 79.0512L40.0925 77.286C40.0925 77.2377 40.1749 77.199 40.2573 77.2038L40.6743 77.228C40.7567 77.228 40.8149 77.2812 40.81 77.3344L40.4998 79.0948C40.4901 79.148 40.4125 79.1866 40.3301 79.1818Z" fill="black"/>
<path d="M50.3691 79.8297L49.957 79.8055C49.8746 79.8055 49.8116 79.7523 49.8213 79.6992L50.1316 77.9388C50.1316 77.8856 50.214 77.8517 50.3013 77.8566L50.7134 77.8807C50.7958 77.8807 50.8588 77.9339 50.8491 77.9871L50.5388 79.7475C50.5437 79.8007 50.4661 79.8346 50.3691 79.8297Z" fill="#A6DD27"/>
<path opacity="0.3" d="M50.3691 79.8297L49.957 79.8055C49.8746 79.8055 49.8116 79.7523 49.8213 79.6992L50.1316 77.9388C50.1316 77.8856 50.214 77.8517 50.3013 77.8566L50.7134 77.8807C50.7958 77.8807 50.8588 77.9339 50.8491 77.9871L50.5388 79.7475C50.5437 79.8007 50.4661 79.8346 50.3691 79.8297Z" fill="black"/>
<path d="M57.9732 60.5472C58.555 62.4817 59.1077 64.4404 59.6458 66.3942L61.2699 72.2411L61.4735 72.9665L61.5269 73.1455L61.5511 73.2374V73.2857C61.5685 73.3498 61.5895 73.4127 61.6141 73.4743C61.7331 73.7683 61.8966 74.0423 62.0989 74.2868C62.6778 74.8963 63.3485 75.4119 64.0867 75.8151C65.7779 76.7281 67.5668 77.4484 69.4196 77.9623L69.1384 79.8484C66.9644 79.7367 64.8229 79.2745 62.7971 78.4798C61.6761 78.0416 60.6432 77.406 59.7476 76.6033C59.2346 76.129 58.8081 75.5693 58.4871 74.9494C58.4004 74.7818 58.3243 74.609 58.2592 74.4319L58.2059 74.3013L58.172 74.2094L58.109 74.0305L57.852 73.3002C57.1733 71.3658 56.543 69.4313 55.9467 67.4678C55.3504 65.5043 54.7638 63.5699 54.2305 61.5967L57.9732 60.5472Z" fill="#E4897B"/>
<path d="M57.1032 56.6601C59.0424 57.2936 61.0786 63.6194 61.0786 63.6194L54.0779 66.6275C54.0779 66.6275 51.1691 59.528 52.4587 57.9224C53.7483 56.3167 54.8779 55.9347 57.1032 56.6601Z" fill="#A6DD27"/>
<path opacity="0.6" d="M57.1032 56.6601C59.0424 57.2936 61.0786 63.6194 61.0786 63.6194L54.0779 66.6275C54.0779 66.6275 51.1691 59.528 52.4587 57.9224C53.7483 56.3167 54.8779 55.9347 57.1032 56.6601Z" fill="#FAFAFA"/>
<path d="M53.3629 37.4985C52.1266 35.9751 42.5759 34.887 42.0668 39.0364C38.6731 41.4061 41.8923 47.5287 42.3771 49.086C40.0355 49.734 32.4918 52.3069 38.0138 57.3075C43.5358 62.3081 51.8164 61.4569 53.4356 56.2822C54.5701 52.6647 50.9679 46.6099 51.0455 44.4916C51.1231 42.3734 55.4815 40.0858 53.3629 37.4985Z" fill="#263238"/>
<path d="M43.0448 49.8496C43.027 49.8501 43.0094 49.8465 42.9934 49.8389C42.9774 49.8314 42.9634 49.8201 42.9526 49.8061C42.0751 48.7421 39.0208 43.1515 40.0923 40.4916C40.2584 40.0789 40.5401 39.7226 40.9038 39.4654C41.2674 39.2081 41.6976 39.0607 42.143 39.0407C42.1587 39.0387 42.1746 39.0399 42.1898 39.0442C42.205 39.0485 42.2191 39.0559 42.2314 39.0659C42.2436 39.0758 42.2537 39.0881 42.261 39.1021C42.2683 39.1161 42.2727 39.1314 42.2739 39.1471C42.2781 39.1785 42.2697 39.2102 42.2507 39.2356C42.2317 39.2609 42.2035 39.2777 42.1721 39.2825C41.7717 39.2973 41.3839 39.4263 41.0547 39.6544C40.7256 39.8824 40.469 40.1998 40.3153 40.569C39.2826 43.1418 42.2788 48.6018 43.1369 49.6465C43.1522 49.6635 43.1621 49.6847 43.1654 49.7073C43.1687 49.73 43.1652 49.7531 43.1554 49.7738C43.1455 49.7944 43.1298 49.8118 43.1101 49.8235C43.0904 49.8353 43.0677 49.841 43.0448 49.8399V49.8496Z" fill="#263238"/>
<path d="M50.2884 44.265C50.3966 44.9713 50.7378 45.6214 51.2581 46.1124C51.9465 46.7701 52.5961 46.3204 52.6592 45.4837C52.7173 44.7341 52.4265 43.4912 51.612 43.143C50.7975 42.7948 50.1866 43.4283 50.2884 44.265Z" fill="#E4897B"/>
<path d="M67.04 77.4413L69.7937 76.5079L69.3622 79.811C69.3622 79.811 68.2762 80.2946 66.8703 79.0759L65.5273 78.2199L66.5842 77.6444C66.7291 77.562 66.8818 77.494 67.04 77.4413Z" fill="#E4897B"/>
<path d="M71.7195 76.4981L70.8759 79.3853L69.3633 79.8061L69.7948 76.5078L71.7195 76.4981Z" fill="#E4897B"/>
</svg>
